<svg xmlns="http://www.w3.org/2000/svg" viewBox="0 0 800 150"><style type="text/css">  
	.st0{fill:none;stroke:#343A40;stroke-linecap:round;stroke-linejoin:round;stroke-miterlimit:10;}
</style><polyline class="st0" points="406.8 37.2 417 44.7 421.7 53.3 434 66.8 431.7 73.2 439.2 73.6 447.9 91.2 440.5 96.3 427.4 100.2 413.5 94.4 406.7 104.8 416.6 112.7 411.9 117 425.2 126 427.4 131.9 436.2 137.4 464 146.8 478.8 146.8 "/><polyline class="st0" points="400 47.9 392 52.9 392 59.7 396 63.3 394.6 71.4 398 71.4 "/><polyline class="st0" points="378.4 46.1 387.3 47.9 389.9 51.6 388.6 58.4 384.1 59.7 "/><polyline class="st0" points="377.5 42.2 375.4 39.3 370.8 39.2 368 33.2 367.3 26.3 368.9 22.7 367.8 19.7 374.2 18 "/><polyline class="st0" points="377 47.3 377.2 50 380.9 51.7 375.7 53.7 372.8 57.2 "/><polyline class="st0" points="376 56 378.8 56.3 380.1 59.7 381.9 60 "/><polyline class="st0" points="386.2 64.1 378 65.3 366.9 69.2 367.4 71.1 370 71.7 369.9 73.7 368 75.2 "/><line class="st0" x1="370.8" y1="76.1" x2="386.2" y2="74.9"/><polygon class="st0" points="385.3 68.1 385.2 72.7 388.3 76.5 392.7 73.5 389.7 71.9 389.2 68.3 "/><polyline class="st0" points="390.3 59.9 390.8 64 393.9 63.8 "/><polyline class="st0" points="350.5 45.8 352.4 50.5 351.5 56.7 351.3 62.4 355.2 62.9 354.8 58.9 355.3 55.9 355.8 50.1 352.6 46 "/><polyline class="st0" points="351.8 27.4 351.3 33.4 355.2 38.5 357.4 33.3 362 29.1 357.1 22.6 365.6 20.4 "/><polyline class="st0" points="350 28.2 346.2 34.9 338.5 43.5 335.9 47.9 337.6 49.9 330.4 62.1 326.6 66.7 328.3 69.7 324.1 72.4 328.7 78.8 331.4 81.2 336 80.5 330.9 95.4 332.6 98.8 336.7 100.1 339 101.3 345.1 98.5 351.4 100.1 355.4 100.2 358.7 96.3 "/><polyline class="st0" points="348.3 71.5 346.8 73.9 349.3 76.2 347.4 78.2 350.2 81.7 356.9 83 "/><polyline class="st0" points="380.9 34.9 382.4 31 382.3 27 387.9 26.8 388.3 29.5 389.7 29.5 392.4 23.5 392.7 29.9 394.8 30.4 395 34.4 "/><polyline class="st0" points="408.1 29.8 404.1 31.5 401.1 31.2 399.7 29.7 396.7 31.4 397.2 35.1 401.7 35.7 404.7 36.3 406.4 34.4 409.6 31.9 "/><polyline class="st0" points="386 17 384.5 20 380.6 20.8 378 18.4 376.6 17.3 373.3 24.3 375.7 31.6 376 37.2 380 38.4 380.2 42.6 "/><line class="st0" x1="355.7" y1="23.3" x2="352.7" y2="25.7"/><polyline class="st0" points="387.8 17 391.3 19 395 21.8 401.5 25 406.6 28 "/><polyline class="st0" points="382.2 43 386.2 44.5 391.8 43.6 397.2 42.3 407.1 41.4 407.9 40.2 "/><polyline class="st0" points="374.7 42.3 368.4 44.8 362 48.2 360.4 52.2 366.8 50 374 48 367.4 54.3 364.3 55.4 360.3 55 360.4 59.5 357.8 62.9 357.8 68.8 353.6 72.8 "/><polyline class="st0" points="375.3 49.7 372.5 54 366.3 57.6 366.9 63.2 365 65.8 364.3 70 361.4 72.4 361.3 76.4 362.6 82.2 365.6 85.2 368.2 85.1 370.8 88.2 374 90.7 376 93.3 378.7 93.4 379.8 96.2 "/><line class="st0" x1="372.5" y1="78" x2="380" y2="83"/><polyline class="st0" points="407 89.9 416.4 92.4 416.2 94.7 "/><polyline class="st0" points="331.4 124.2 323.7 128.3 324.8 130.9 329.1 133 333.9 133.9 339.4 132.7 346.7 136.1 350.4 136.1 357.9 135.4 "/><polyline class="st0" points="356.4 130.7 338 130.5 342.7 132.8 356.2 133.2 379.8 132.6 376.7 134.8 361.2 135.9 "/><polyline class="st0" points="343.5 112.1 349.4 117.4 354.8 117.5 360.7 112.4 "/><polyline class="st0" points="408 63 401.5 67.5 400.8 72.2 "/><line class="st0" x1="352.2" y1="37.5" x2="352.2" y2="43.4"/><polyline class="st0" points="355.7 41.1 355.3 45.4 357.4 48 "/><polyline class="st0" points="349 47.8 348.1 58 349 67.5 350.1 71.4 351.7 72.6 "/><polyline class="st0" points="355.3 73.7 358.7 72.8 358.8 76.7 "/><polyline class="st0" points="360.3 78 358 79.4 358.4 88.9 362.7 88 "/><polyline class="st0" points="359 90.7 358.7 100.7 369.3 98.1 363 89.3 "/><polyline class="st0" points="401.4 48.6 404.6 49.8 404.1 53.3 405.9 54.5 "/><polyline class="st0" points="404.1 56.3 404 60.9 397.9 63.3 397.2 67.4 398.2 69.3 "/><polyline class="st0" points="396.3 76.3 395.7 80.6 382.9 82.8 382.3 84.7 399.2 85 399.2 87 390.3 87.9 390.3 90.8 399.4 91 400.9 93.8 400.3 97.6 387.4 96.9 376.4 97.9 371.5 101.5 376 103 "/><polyline class="st0" points="385 86.1 385 87.3 388.6 87.6 "/><polyline class="st0" points="405.4 61.3 410.3 62.2 411.2 67.9 407.2 74.4 403.8 76.6 398.9 76.3 "/><line class="st0" x1="397.7" y1="73" x2="397.2" y2="75.3"/><line class="st0" x1="388" y1="46.2" x2="397.7" y2="46.1"/><polyline class="st0" points="399.7 45.1 407 44.9 409.1 46.7 408.8 52.8 407.1 53.8 "/><polyline class="st0" points="411.1 43.1 412.2 57.4 413.2 71.6 409.9 85 402 98 "/><polyline class="st0" points="381.6 50.3 383.8 51.6 382.2 53.9 383.8 55.7 382.6 58.3 "/><line class="st0" x1="395.7" y1="56" x2="393.9" y2="58.4"/><polyline class="st0" points="385.8 61.1 388.1 63.8 387.8 66.8 "/><polyline class="st0" points="331.8 116.6 335.2 116.8 341.2 112.9 338.3 111 339.2 108 344.9 108.2 354.7 106.3 355.9 104.8 346.9 102 339.2 105.6 337.1 103 332.8 103.1 327.9 98.1 317.6 98.3 317 100.2 329.8 107 327.6 113 329.7 114.6 "/><polyline class="st0" points="322.8 74.1 315.1 83.6 311.4 88.3 311.4 93.8 313.2 97.7 315.4 98.4 "/><polygon class="st0" points="325.8 114 320.9 117.9 324 119.1 328.8 119 329.7 117.2 "/><polyline class="st0" points="336.2 118 335.6 121.4 341.6 122.9 366.4 122.7 370.8 119 368.2 116.7 385.6 115.9 381.3 113.3 381.3 111.3 382.4 107.1 370.1 106 371.2 103.6 359.2 104 357.7 106.9 "/><polyline class="st0" points="360.3 107.2 363.6 109.7 358.4 111.7 346.8 111.8 "/><polyline class="st0" points="347.7 109.9 352.6 108.1 355.9 108 "/><polyline class="st0" points="378.2 104.3 382.6 105.7 388.8 110.6 392.7 115.3 387.4 115.3 "/><polyline class="st0" points="393.9 116.8 396.1 118.7 397.4 123 395.8 124.9 385 124.8 382.2 122.6 382.8 117.9 "/><polyline class="st0" points="380.4 103 395.6 103.2 400.2 99.6 "/><polyline class="st0" points="395.7 126.3 395.4 130.2 400.4 133 "/><polyline class="st0" points="398.1 125.3 401.7 128.4 402.4 134.2 408 134 412.1 137.6 "/><polyline class="st0" points="401.6 135.9 400.9 139.2 409.9 138.6 "/><polyline class="st0" points="334.4 124.8 343.1 126 351.8 125.7 352.8 128.2 356.6 128.7 "/><polyline class="st0" points="355.3 125.3 363.9 125.6 367.7 127.4 367.8 130 359.1 130.3 "/><polyline class="st0" points="368.2 125.4 377 126 378.6 128.1 372.9 128.1 374 130.3 386.3 130.7 386.2 136.1 399.6 135.3 "/><polyline class="st0" points="368.7 122.4 376.6 123.3 380.4 122.2 "/><polyline class="st0" points="255 101.7 255.3 99 260.9 99.6 275.8 103.8 287.8 110.3 288.7 113.4 297 114.2 299.3 118.3 296.2 124 298.2 127.8 297.7 130.1 294.3 130.2 292.4 128.8 290.2 131.3 283.8 130.2 282.8 132.6 278.9 132.1 278.8 136.2 275.4 137 268.8 135.4 265.3 133.6 264.7 126.8 261 124.1 259 119.1 256.9 118.8 256.6 116.2 254.2 116.1 254 113.7 252 113.7 252 111.3 255.9 106.8 255.7 103.7 "/><polyline class="st0" points="301.2 118.1 309.2 118.3 316.7 116.7 319.1 117.1 "/><polyline class="st0" points="324.8 133 324.1 136.1 309.9 142.1 309.9 138.1 305.4 139.8 302.7 142.8 304.3 145.1 300.4 145.1 297.1 142.2 285.8 142.1 277.1 143.4 269.9 145.2 "/><polyline class="st0" points="302.7 139.8 302.8 134.3 305.2 133.9 306.6 137.4 "/><polyline class="st0" points="307.6 140.9 307.6 143 308.9 144 308 145.8 305.6 145.6 "/><polyline class="st0" points="258.3 122.3 255.6 121.7 254.2 117.7 247.3 119.3 243.9 122.7 242.4 127.6 248.6 129.1 253.9 131.1 257.9 134.6 260.6 138.6 260.7 143.9 "/><polyline class="st0" points="268.1 144.7 262.2 144.7 255.9 144.8 246.7 145.9 238.6 147.8 234.3 151.1 "/><polyline class="st0" points="148.6 131.7 142.8 131.9 140.3 130.7 137.4 128.8 142.3 126.3 142.7 124.6 153.8 124 157.4 121 163.6 121.1 165.9 123.6 176.4 121.6 180.9 120.2 183.7 123.3 192.8 125 201.3 124.4 205.9 123 213.4 126.4 219.6 126.3 221.6 122 222.3 127.3 225 127.9 229.4 119.1 233.4 119.2 235.8 121.4 236.4 124.8 238.4 124.2 239 121.3 242.3 121.7 "/><polyline class="st0" points="223.9 129.7 224.1 133.4 232.1 134.9 236.9 136.4 238.9 138 241.3 136.2 241 133.3 237.6 130.9 236.7 126.2 "/><polyline class="st0" points="147.7 133.6 147.2 136.4 146.1 137.3 146.4 141.9 148.2 143.7 146.7 146.2 147.1 148.7 149.2 150.8 "/><polyline class="st0" points="133.1 150.9 127.7 147.9 117.4 148.8 113.8 146.9 107.6 146.6 108 143.4 111.9 142.8 107.3 140.2 103.6 142 103.4 143.9 99.2 146.1 98.3 148.4 94.4 148 93 145.2 87.6 146.3 84.6 148.6 83 146.8 82.1 143.3 81.9 139.1 80.2 136.8 72.9 136.6 70.8 134.8 64.7 134.9 59.2 132.3 52.7 131.8 49.4 129.8 49.1 127.6 46.3 124.3 52 123.6 53.1 121.4 59.1 123.2 63.3 122.7 61.8 117.1 59.2 116.3 60.6 114.1 "/><polyline class="st0" points="-1.3 108.6 48.1 109.8 57.7 112.3 63.8 113.1 78.9 113 86.3 111.3 90.9 106.8 95.6 111.2 131.9 98.4 126.6 95.2 106.7 99.8 105.4 96.6 114.6 82.8 100 92.6 98.8 86.8 90.1 82.3 92 77.1 99.6 73.3 88.3 73.7 83.9 77.2 81.3 80.6 78.1 79.9 77.7 77.1 "/><polyline class="st0" points="49 107.8 75.1 75.9 80.1 73.8 80.3 68.7 111.8 20.6 129.7 -1.1 "/><polyline class="st0" points="123.1 9.6 123.8 14.9 128.9 17.3 130.1 25.9 135.1 25.1 131.4 31.9 126.3 32.8 126.1 40.3 121.7 40.3 118.8 43.4 111 49.6 109.2 53.2 103.9 55.4 96.4 57.8 93.4 60.4 88.7 58.8 "/><polyline class="st0" points="100.8 58.3 103.7 61.9 106.8 63.9 103.8 65.7 104.4 69 101.1 72.2 "/><polyline class="st0" points="186.6 -1.6 184.6 7.3 186.6 24.2 180.6 36.7 176.8 39.8 185.2 44.2 185.7 52 192.1 52 194.1 57.6 188.1 64.2 183.7 73.8 186.1 81.6 196.1 84 211.7 84 224.6 92 247.4 94.4 254.1 91.6 261.2 95.3 "/><line class="st0" x1="261.7" y1="-2" x2="324.8" y2="68.4"/><polyline class="st0" points="292.8 36.2 289.9 45.3 280.8 54.7 268.1 57.1 269.7 71.1 269 80.4 258.1 83.1 261.9 86.4 259.7 90.4 "/><polyline class="st0" points="181.2 91.6 159.9 112.4 163.2 118.9 "/><polyline class="st0" points="128.8 101.6 136.6 106.4 141.2 114 156.3 112.7 "/><polyline class="st0" points="185.2 83.3 180.1 88.2 183.2 95.1 191 100.4 199.9 100.4 212.8 98.4 219.7 97.3 215.7 90.7 209 87.6 207 85.6 "/><polyline class="st0" points="264.8 95.6 276.1 88.2 284.1 88.9 290.3 90.7 295.4 85.1 295.4 80 303.2 78.7 297.9 69.1 299.4 61.8 295.4 55.3 290.1 52.4 289.7 49.8 "/><polyline class="st0" points="300.6 80.4 304.3 84.9 311.4 84.7 "/><polyline class="st0" points="256.3 150.9 270.8 146.9 289.1 147.7 299.1 147 "/><polyline class="st0" points="325 150.3 330.2 147 327 142.8 332.1 142.3 339.4 145.7 352.2 147 349.1 151.3 "/><polyline class="st0" points="353.9 147.4 385.6 147.8 383.3 145.8 385.9 143 396.9 142 389.4 140.3 378.6 142 367.9 141.8 344.3 142 340.9 140.2 334.4 140.4 332.3 138.4 352.3 138.7 358.8 139.9 371.4 140.1 374.6 138.4 386.2 138.8 "/><polyline class="st0" points="325.1 137.3 328.6 140.6 331.8 140 "/><line class="st0" x1="379.8" y1="143.2" x2="378" y2="146.4"/><polyline class="st0" points="413.7 138.8 427.2 146.7 418 151 "/><polyline class="st0" points="429.3 146.2 437 146.1 440.6 150.9 "/><polyline class="st0" points="424.1 129.6 424.3 134 417 133.1 410.7 133.9 "/><polyline class="st0" points="409 104.1 480 103.7 485.2 106.2 492.7 102.6 500.4 102 500.3 98.3 508.7 90.2 513.7 82.6 526.1 78.7 534.4 78.8 534.7 81.9 552.6 83 554.2 85.6 558.9 85.3 561.7 82.2 564.4 82.4 564.7 90.7 569.9 94.8 "/><polyline class="st0" points="480.9 102 514.7 60.7 523 53.8 535.2 51.6 549.8 55.3 559.3 63.4 569.4 73.6 574.1 75.8 574.1 77.6 "/><polyline class="st0" points="565.1 81.1 568.6 78.4 572.4 77.7 578.7 78.1 588.4 86.1 594.3 94.3 "/><polyline class="st0" points="417.7 114.1 419.6 115.2 425.2 113 429.2 117.2 435.3 116 437.8 114.2 447.6 116.2 452 119.2 456.1 121.6 463.3 123.7 465.8 128 471.6 124.8 475.8 127.9 484.3 129.7 487.4 132.8 491.3 135.1 "/><polyline class="st0" points="465 129.8 466.4 133 466.3 137.2 "/><polyline class="st0" points="444.2 138.2 471 138.3 487.3 135.7 499.8 133.8 538.1 131.7 560.9 129.8 587.3 130.3 596.3 133.2 636 134.9 657.8 134.7 "/><polyline class="st0" points="591 129.6 603.1 128 614.4 128.4 624.9 130.4 633 133.3 "/><polyline class="st0" points="604.9 126 604.9 117.6 607.8 111.7 617 107.6 638.3 104.3 652.9 102.2 655.7 111.2 661.4 111.1 665.3 112.8 680.7 112 680.7 116.9 677.4 120 676.1 125.7 682.6 129.1 680.7 132.6 660.9 134.6 "/><polyline class="st0" points="499.3 131.8 499.8 129.8 494.8 126 503.1 125.3 503.9 122.7 508.1 121.8 508.7 119.1 515.1 119.7 515.7 117.2 522.2 117 532.1 120.3 544.9 122.4 555.2 125.8 560 128.2 "/><polyline class="st0" points="542.6 120.4 540.7 114.7 540.2 111.3 545.7 108.6 559.6 107.3 "/><polyline class="st0" points="560.2 124.7 559.8 111.9 559.8 101.2 569.3 99.4 572.2 95.8 581.8 96 587.2 94.2 592.3 95.4 597.3 96.2 599 95.2 606 97.3 607.1 100 614.2 100 614.6 106.4 "/><polyline class="st0" points="478.8 150.8 480 144.8 487.7 150.9 "/><polyline class="st0" points="489.9 150.8 491.7 147.1 500.8 147.3 507.4 150.8 513.1 148.1 "/><polyline class="st0" points="458.9 142.9 494.4 143.1 505.3 145.1 516.6 145.3 523.6 151.2 "/><polyline class="st0" points="506.7 142 517.2 141.1 520.8 145 525.9 145.3 527.4 151.1 "/><polyline class="st0" points="518.8 133.9 554.4 138.1 565.9 137.6 571.3 134.3 582.8 134 583.8 131.7 "/><polyline class="st0" points="636.1 136.7 641 143.1 639.4 145.9 639.2 147.8 "/><polyline class="st0" points="623.9 150.3 632 147.9 657.9 148.1 674.7 145.9 672.3 148.2 673 150.8 "/><polyline class="st0" points="683.4 133 701.4 136.7 704.9 139 701.3 140.7 701.9 143.4 710 142.9 710.8 145.4 717.8 145.6 720 148.3 723.4 149.4 723.9 151.3 "/><polyline class="st0" points="749.1 150.9 773 138.4 772.6 134.3 776.2 132.8 777.9 129.8 781.1 129.9 781.3 132.6 785.2 131.9 787.2 126 781.3 116.4 772.6 109.6 762.6 104.1 747.4 104 717.2 105.9 702.7 105 693.1 108.7 684.7 107.6 682 111 "/><line class="st0" x1="654.6" y1="99.8" x2="667.1" y2="93.1"/><polyline class="st0" points="615.8 99.8 619.7 99.6 620.4 97 628.1 97.1 629.6 95.2 635.9 95.4 636.6 93.2 641.8 92.3 644 87.7 646.9 91.9 650.8 87.7 653.8 89.6 657.9 83.4 658.1 73.9 655.7 69.1 653.1 66.1 653 60.6 655.7 55.8 653.1 46.7 656.3 38.9 652.9 34.6 652.3 28.2 658.3 26.9 662.7 24.7 671.3 26.2 674.1 24.8 683.2 27.1 689 29.4 691.6 28.9 "/><path class="st0" d="M705.1 95.8L680.4 97l-10.7-1 -5-6.4 -0.3-4.9 2.9-1.2 0.6-8.7 2.6-0.7v-6.2l5.8-2.3L673 57.7l-3.6-0.8 2.7-3.7 4.6 0.6 4.3-8.7 1-5.9c0 0 7.3-2.1 7-2.1s2.6-7 2.6-7l1.1-4.1L707 30.9l4.4 6.8 9.3 2.2 5.4 5.7 5.9 4 3.8 10.2 -26.8 27.8L705.1 95.8z"/><polyline class="st0" points="704.3 97.2 700.9 100 701.6 103 "/><polyline class="st0" points="737.8 57.7 742.6 52.6 755.3 81 746.7 84.4 742.9 84.1 738.7 88 734.7 90.3 738.4 92.6 744.7 92.8 747.3 95.4 748.6 97.8 754.2 98.2 755.4 99.9 754.9 102.1 "/><polyline class="st0" points="708.7 93 725.7 91.2 728.1 92.9 729.4 88.9 733.8 88.3 "/><polyline class="st0" points="708.6 29 711.6 25.7 710.8 21.3 715.6 22.6 717.7 24.2 721 17 "/><polyline class="st0" points="706.8 -0.9 743 37.6 745.6 37.8 768.2 62.6 771.3 61.8 784.2 76.6 "/><polygon class="st0" points="786 75.1 782.8 79.9 779.2 79.8 779.9 81.3 784.8 84.7 785.8 90.3 792 90.7 794.2 89.9 796.8 91.1 799.1 88 796 84.1 787.7 80.3 "/><polyline class="st0" points="787.7 75.2 794.4 73 798.1 75.9 799.1 84.1 801.1 86 "/><polyline class="st0" points="756 82.6 759.9 88.1 768.1 89.8 781 90.8 784.1 90.1 "/><line class="st0" x1="787.2" y1="126" x2="801.6" y2="125.9"/><polyline class="st0" points="652.6 37 651.6 38.8 648.6 39.1 650 41.6 653.2 43.3 "/><polyline class="st0" points="649.3 43.2 648.9 47.6 650.4 51.2 650.9 57.6 652.9 57.4 "/><line class="st0" x1="645.6" y1="-1.4" x2="651.4" y2="26.1"/><polyline class="st0" points="519.2 54 521.2 43.8 533.9 31.3 533.7 26.2 520.6 26.9 520.8 20.2 518.1 15.6 519.7 14.4 524.3 17.8 526.6 17.3 527.2 14.4 523.7 13.3 523.9 11.3 528.8 8.9 531.9 4.7 538.3 4.7 543.9 5.1 545.9 8.2 550.1 8.2 560.1 -1.8 "/><polyline class="st0" points="592.7 87.1 605.4 86.8 618.4 84.8 623.4 85.9 635.9 85 639 86.6 642.4 86.4 641.9 88.8 "/><line class="st0" x1="130.8" y1="3.7" x2="154.5" y2="9.6"/><line class="st0" x1="158.9" y1="10.2" x2="167.5" y2="12.6"/><line class="st0" x1="171.4" y1="12.9" x2="181.2" y2="15.3"/><line class="st0" x1="127.8" y1="7.6" x2="135.2" y2="10.5"/><line class="st0" x1="139.7" y1="12" x2="155.7" y2="15.9"/><line class="st0" x1="161" y1="17" x2="181.4" y2="21.2"/><line class="st0" x1="131.4" y1="15" x2="148.6" y2="20"/><line class="st0" x1="156.9" y1="22.4" x2="172.3" y2="25.3"/><line class="st0" x1="176.4" y1="26.5" x2="180.9" y2="27.7"/><line class="st0" x1="136.1" y1="22.1" x2="143.8" y2="24.2"/><line class="st0" x1="147.1" y1="24.7" x2="165.4" y2="29.5"/><line class="st0" x1="170.2" y1="30.7" x2="177.6" y2="32.2"/><line class="st0" x1="137.3" y1="28.9" x2="150" y2="32.2"/><line class="st0" x1="153.6" y1="32.7" x2="173.2" y2="36.9"/><line class="st0" x1="132" y1="35.1" x2="142.6" y2="38.4"/><line class="st0" x1="146.2" y1="39.6" x2="152.4" y2="41"/><line class="st0" x1="156.3" y1="41.7" x2="179.6" y2="46"/><line class="st0" x1="189" y1="14.4" x2="202.1" y2="11.8"/><line class="st0" x1="206.6" y1="10.2" x2="232.3" y2="5.1"/><line class="st0" x1="237.2" y1="4" x2="257.2" y2="-0.4"/><line class="st0" x1="189.7" y1="19.1" x2="227.2" y2="12"/><line class="st0" x1="233.4" y1="10.9" x2="260.6" y2="4.7"/><line class="st0" x1="190.1" y1="26" x2="198.8" y2="24.7"/><line class="st0" x1="242.8" y1="23.2" x2="251.2" y2="20.9"/><line class="st0" x1="205.4" y1="23.4" x2="218.7" y2="20.7"/><line class="st0" x1="257.2" y1="19.3" x2="270.6" y2="16.7"/><line class="st0" x1="226.8" y1="19.3" x2="264.8" y2="10.9"/><line class="st0" x1="187.4" y1="32.2" x2="237.2" y2="23.8"/><line class="st0" x1="117.4" y1="20.7" x2="126" y2="24.7"/><line class="st0" x1="113.7" y1="24.7" x2="117.4" y2="26.5"/><line class="st0" x1="121" y1="28" x2="125.2" y2="29.5"/><line class="st0" x1="111.2" y1="28" x2="122.5" y2="33.2"/><line class="st0" x1="109.2" y1="32.2" x2="114.8" y2="35.1"/><line class="st0" x1="106.8" y1="36.7" x2="110.5" y2="38.4"/><line class="st0" x1="113.7" y1="39.6" x2="117.4" y2="41.7"/><line class="st0" x1="104.6" y1="39.6" x2="112.7" y2="43.1"/><line class="st0" x1="101.6" y1="43.1" x2="104.6" y2="44.7"/><line class="st0" x1="106.8" y1="46" x2="109.9" y2="46.9"/><line class="st0" x1="97.6" y1="46.4" x2="101.6" y2="48.6"/><line class="st0" x1="103.8" y1="49.8" x2="107.4" y2="51.4"/><line class="st0" x1="95.2" y1="50.6" x2="100.8" y2="53.3"/><line class="st0" x1="92.7" y1="54.4" x2="95.2" y2="55.7"/><line class="st0" x1="116.1" y1="51.1" x2="179.4" y2="73.2"/><line class="st0" x1="107.2" y1="70.4" x2="168.9" y2="96.6"/><line class="st0" x1="197.7" y1="55.1" x2="280.3" y2="27.4"/><line class="st0" x1="200.6" y1="80.3" x2="264.6" y2="61.3"/><line class="st0" x1="150.3" y1="1.5" x2="181.4" y2="9.3"/><line class="st0" x1="170" y1="1.6" x2="181.6" y2="4.6"/><line class="st0" x1="188.4" y1="9.2" x2="232.9" y2="-0.7"/><line class="st0" x1="189.2" y1="4.2" x2="199.5" y2="2.1"/><line class="st0" x1="195.5" y1="50.1" x2="214" y2="44.4"/><line class="st0" x1="218" y1="43" x2="251.4" y2="32.6"/><line class="st0" x1="256.1" y1="31.3" x2="262.9" y2="29"/><line class="st0" x1="267.7" y1="27.3" x2="276.9" y2="23.9"/><line class="st0" x1="273.7" y1="20.3" x2="224.1" y2="33.5"/><line class="st0" x1="220" y1="34.2" x2="212.9" y2="36.3"/><line class="st0" x1="208.4" y1="37.2" x2="189.7" y2="42.1"/><line class="st0" x1="130.6" y1="39.8" x2="163.7" y2="49.3"/><line class="st0" x1="170.8" y1="50.7" x2="180.1" y2="53.3"/><line class="st0" x1="127" y1="44.2" x2="145.9" y2="50"/><line class="st0" x1="150.1" y1="51.6" x2="173" y2="58.7"/><line class="st0" x1="178.1" y1="60.4" x2="182.6" y2="62"/><line class="st0" x1="122.8" y1="48.2" x2="128.8" y2="50.7"/><line class="st0" x1="133.4" y1="52.9" x2="153" y2="58.9"/><line class="st0" x1="160.8" y1="60.9" x2="180.6" y2="68"/><line class="st0" x1="113" y1="54.9" x2="128.6" y2="60.7"/><line class="st0" x1="133" y1="62.2" x2="147" y2="67.6"/><line class="st0" x1="151.9" y1="69.3" x2="156.6" y2="70.9"/><line class="st0" x1="160.6" y1="72.7" x2="177.7" y2="78.7"/><line class="st0" x1="110.3" y1="59.8" x2="137.4" y2="69.6"/><line class="st0" x1="141.4" y1="71.6" x2="164.8" y2="80"/><line class="st0" x1="169" y1="81.8" x2="175.2" y2="84.4"/><line class="st0" x1="109.7" y1="65.6" x2="116.6" y2="68.7"/><line class="st0" x1="120.1" y1="70" x2="145.2" y2="79.8"/><line class="st0" x1="151.4" y1="82.2" x2="171.9" y2="90.7"/><line class="st0" x1="104.3" y1="74.9" x2="112.3" y2="78.9"/><line class="st0" x1="101" y1="78.4" x2="106.8" y2="82"/><line class="st0" x1="121.4" y1="82.4" x2="153.2" y2="96.9"/><line class="st0" x1="156.8" y1="98.2" x2="164.3" y2="101.3"/><line class="st0" x1="119.2" y1="87.8" x2="131.9" y2="93.1"/><line class="st0" x1="136.6" y1="96" x2="160.3" y2="105.8"/><line class="st0" x1="142.3" y1="103.3" x2="153.2" y2="108"/><line class="st0" x1="196.6" y1="61.8" x2="216.6" y2="55.8"/><line class="st0" x1="221.9" y1="54" x2="239.7" y2="48.2"/><line class="st0" x1="245.7" y1="46.7" x2="283.9" y2="32.7"/><line class="st0" x1="287.2" y1="35.1" x2="277.2" y2="42"/><line class="st0" x1="272.6" y1="44.7" x2="239.2" y2="55.6"/><line class="st0" x1="233.7" y1="56.9" x2="208.3" y2="64.2"/><line class="st0" x1="201.9" y1="65.1" x2="192.3" y2="67.8"/><line class="st0" x1="190.8" y1="73.8" x2="225.2" y2="64.9"/><line class="st0" x1="230.6" y1="64" x2="257.7" y2="56.4"/><line class="st0" x1="262.3" y1="54.7" x2="269" y2="52.4"/><line class="st0" x1="275" y1="50.7" x2="284.8" y2="46.2"/><line class="st0" x1="217.2" y1="80.7" x2="239.7" y2="74.2"/><line class="st0" x1="244.3" y1="72.7" x2="249.4" y2="71.3"/><line class="st0" x1="253" y1="69.8" x2="265" y2="66.2"/><line class="st0" x1="266.8" y1="70.4" x2="222.8" y2="84.7"/><line class="st0" x1="226.8" y1="88" x2="237.4" y2="85.1"/><line class="st0" x1="241.7" y1="83.8" x2="250.6" y2="80.9"/><line class="st0" x1="255.4" y1="79.6" x2="265.9" y2="75.8"/><line class="st0" x1="240.3" y1="89.6" x2="254.3" y2="85.3"/><line class="st0" x1="250.8" y1="107.6" x2="210.3" y2="119.1"/><line class="st0" x1="249.4" y1="102.2" x2="236.6" y2="106.2"/><line class="st0" x1="231.4" y1="107.8" x2="194.6" y2="119.3"/><line class="st0" x1="186.3" y1="115.8" x2="203.2" y2="110.7"/><line class="st0" x1="208.8" y1="108.7" x2="239.7" y2="99.3"/><line class="st0" x1="230.6" y1="96.4" x2="221" y2="99.6"/><line class="st0" x1="216.1" y1="100.9" x2="191.4" y2="108.4"/><line class="st0" x1="186.8" y1="110" x2="168.1" y2="115.8"/><line class="st0" x1="187.9" y1="104" x2="170.6" y2="109.3"/><line class="st0" x1="182.6" y1="99.3" x2="178.1" y2="100.7"/><line class="st0" x1="203.7" y1="88.2" x2="208.6" y2="92"/><polyline class="st0" points="260.8 105.1 258.8 111.1 262.8 116.4 "/><polyline class="st0" points="290.3 59.3 294.1 65.8 291.4 73.6 291.4 82.7 284.3 83.8 "/><line class="st0" x1="299.5" y1="45.9" x2="294.2" y2="49.9"/><line class="st0" x1="302.5" y1="50.7" x2="298.6" y2="53.2"/><line class="st0" x1="306.8" y1="54.4" x2="301.2" y2="57.9"/><line class="st0" x1="311.7" y1="59.6" x2="307.4" y2="62.2"/><line class="st0" x1="304.3" y1="64" x2="300.4" y2="67"/><line class="st0" x1="315.2" y1="63.4" x2="302.5" y2="70.2"/><line class="st0" x1="317.4" y1="66.5" x2="309.6" y2="71.6"/><line class="st0" x1="306.8" y1="72.9" x2="303.5" y2="74.7"/><line class="st0" x1="305.4" y1="78.2" x2="315.2" y2="72.3"/><line class="st0" x1="317.7" y1="70.5" x2="321" y2="68.4"/><line class="st0" x1="318.2" y1="74.1" x2="308" y2="81.2"/><line class="st0" x1="560.1" y1="2.5" x2="582" y2="7.3"/><line class="st0" x1="587.4" y1="7.9" x2="620" y2="12.6"/><line class="st0" x1="624.1" y1="13.2" x2="644.3" y2="16.7"/><line class="st0" x1="644.6" y1="22.4" x2="636.3" y2="20.9"/><line class="st0" x1="612.9" y1="17" x2="569.9" y2="10.5"/><line class="st0" x1="562.2" y1="9.6" x2="556" y2="7.9"/><line class="st0" x1="551.8" y1="11.7" x2="592.4" y2="20"/><line class="st0" x1="598.3" y1="20.9" x2="609" y2="23"/><line class="st0" x1="615.8" y1="24.4" x2="645.7" y2="28.9"/><line class="st0" x1="644.3" y1="34.2" x2="631.2" y2="32.2"/><line class="st0" x1="625.3" y1="31" x2="603.1" y2="27.7"/><line class="st0" x1="595.4" y1="27.1" x2="567.8" y2="21.8"/><line class="st0" x1="555.7" y1="18.8" x2="545.6" y2="16.4"/><line class="st0" x1="543.8" y1="21.2" x2="597.2" y2="33"/><line class="st0" x1="643.1" y1="40.2" x2="604.6" y2="34.5"/><line class="st0" x1="539.4" y1="27.4" x2="558.3" y2="31.9"/><line class="st0" x1="566" y1="33.6" x2="581.2" y2="36.9"/><line class="st0" x1="587.1" y1="38.4" x2="612" y2="43.4"/><line class="st0" x1="620.6" y1="44.3" x2="643.1" y2="46.7"/><line class="st0" x1="537.3" y1="33.6" x2="571.7" y2="41.6"/><line class="st0" x1="577" y1="43.4" x2="603.7" y2="48.4"/><line class="st0" x1="609.3" y1="49.6" x2="630.9" y2="52.3"/><line class="st0" x1="636" y1="52.9" x2="644.6" y2="54.4"/><line class="st0" x1="532.9" y1="39" x2="550" y2="43.1"/><line class="st0" x1="555.7" y1="44.9" x2="582" y2="50.8"/><line class="st0" x1="588.6" y1="52.3" x2="611.4" y2="55.6"/><line class="st0" x1="617" y1="57" x2="645.7" y2="61.5"/><line class="st0" x1="529.6" y1="44.3" x2="540.3" y2="47"/><line class="st0" x1="546.5" y1="48.7" x2="553.3" y2="50.2"/><line class="st0" x1="578.8" y1="55.9" x2="593.6" y2="59.1"/><line class="st0" x1="599.5" y1="60" x2="633.6" y2="65.6"/><line class="st0" x1="638.9" y1="66.8" x2="646.6" y2="68.3"/><line class="st0" x1="564" y1="61.5" x2="612.9" y2="69.8"/><line class="st0" x1="618.2" y1="70.7" x2="625.3" y2="71.9"/><line class="st0" x1="630" y1="73" x2="651.7" y2="75.4"/><line class="st0" x1="573.7" y1="69.2" x2="594.5" y2="72.7"/><line class="st0" x1="600.4" y1="73.9" x2="639.5" y2="79.9"/><line class="st0" x1="645.4" y1="80.4" x2="651.1" y2="81.9"/><line class="st0" x1="586.8" y1="78.4" x2="611.7" y2="81.6"/><line class="st0" x1="590.6" y1="-0.1" x2="629.2" y2="6.1"/><line class="st0" x1="633.9" y1="6.7" x2="640.4" y2="8.2"/><line class="st0" x1="641.6" y1="3.1" x2="624.7" y2="-0.7"/><line class="st0" x1="649.7" y1="3.6" x2="664.1" y2="1.8"/><line class="st0" x1="651" y1="7.6" x2="660.1" y2="6.2"/><line class="st0" x1="663.7" y1="5.8" x2="685" y2="1.6"/><line class="st0" x1="651.7" y1="12.2" x2="680.3" y2="6.9"/><line class="st0" x1="684.3" y1="6" x2="704.1" y2="1.6"/><line class="st0" x1="706.6" y1="4.7" x2="699.2" y2="6.7"/><line class="st0" x1="694.3" y1="7.6" x2="674.3" y2="12"/><line class="st0" x1="669.4" y1="13.1" x2="657.4" y2="15.8"/><line class="st0" x1="654.8" y1="16.2" x2="651.7" y2="16.7"/><line class="st0" x1="654.3" y1="22.3" x2="671.4" y2="19.2"/><line class="st0" x1="675.8" y1="18" x2="682.7" y2="16.4"/><line class="st0" x1="688.2" y1="15.2" x2="709.4" y2="8.8"/><line class="st0" x1="712.4" y1="11.3" x2="707.6" y2="13.3"/><line class="st0" x1="703.8" y1="14.7" x2="687.1" y2="20.1"/><line class="st0" x1="683.3" y1="21.1" x2="680" y2="21.8"/><line class="st0" x1="687" y1="25" x2="702.7" y2="19.9"/><line class="st0" x1="708.1" y1="18.4" x2="716.7" y2="14.4"/><line class="st0" x1="707.4" y1="22.4" x2="700.9" y2="24.9"/><line class="st0" x1="726.2" y1="24.4" x2="719.1" y2="27.9"/><line class="st0" x1="716.1" y1="29.1" x2="711.8" y2="31"/><line class="st0" x1="713.8" y1="34.6" x2="728.2" y2="27.9"/><line class="st0" x1="720.9" y1="35" x2="730" y2="30.4"/><line class="st0" x1="725.6" y1="39.1" x2="729.2" y2="36.8"/><line class="st0" x1="731.7" y1="35.4" x2="734.4" y2="33.8"/><line class="st0" x1="737.4" y1="36.4" x2="728.1" y2="42.1"/><line class="st0" x1="730.7" y1="45.3" x2="740" y2="39.6"/><line class="st0" x1="743.1" y1="41.6" x2="740.2" y2="43.8"/><line class="st0" x1="737.4" y1="46" x2="734.6" y2="47.7"/><line class="st0" x1="736.4" y1="51.8" x2="744.1" y2="46.4"/><line class="st0" x1="747" y1="44.2" x2="745.3" y2="45.1"/><line class="st0" x1="677.4" y1="29" x2="656.9" y2="34.7"/><line class="st0" x1="682.8" y1="31.4" x2="673.4" y2="34.5"/><line class="st0" x1="667.8" y1="35.9" x2="660.6" y2="37.8"/><line class="st0" x1="657.7" y1="43" x2="666.5" y2="41"/><line class="st0" x1="671.1" y1="39.6" x2="680.4" y2="36.7"/><line class="st0" x1="678.9" y1="41.2" x2="657.6" y2="47.4"/><line class="st0" x1="658" y1="51.7" x2="675.1" y2="47.6"/><line class="st0" x1="667.2" y1="53.2" x2="663.7" y2="54.1"/><line class="st0" x1="661" y1="60.3" x2="657.4" y2="61"/><line class="st0" x1="658" y1="65.3" x2="670.5" y2="62.7"/><line class="st0" x1="667.4" y1="58.7" x2="663.8" y2="59.4"/><line class="st0" x1="658.9" y1="68.7" x2="662.3" y2="68"/><line class="st0" x1="660.3" y1="71.9" x2="667.1" y2="70.5"/><line class="st0" x1="662.3" y1="76.3" x2="665.7" y2="75.6"/><line class="st0" x1="574.9" y1="108.9" x2="571.8" y2="111"/><line class="st0" x1="592.7" y1="119.7" x2="595.7" y2="122.1"/><line class="st0" x1="622.3" y1="112" x2="619.7" y2="115.4"/><line class="st0" x1="643.8" y1="123.1" x2="645.3" y2="126.5"/><line class="st0" x1="598.5" y1="138.5" x2="597.3" y2="141.6"/><line class="st0" x1="620.1" y1="143.1" x2="621.7" y2="145.8"/><line class="st0" x1="552.3" y1="143" x2="550" y2="145.9"/><line class="st0" x1="547.5" y1="112.6" x2="548.1" y2="115.9"/><line class="st0" x1="552.4" y1="88" x2="549.7" y2="90.8"/><line class="st0" x1="569.4" y1="84.2" x2="569" y2="87.7"/><line class="st0" x1="521.2" y1="96.4" x2="519.7" y2="100.3"/><line class="st0" x1="500.1" y1="108.3" x2="501.6" y2="111.4"/><line class="st0" x1="514.6" y1="68.4" x2="511.2" y2="72.3"/><line class="st0" x1="539.2" y1="57" x2="540.4" y2="61"/><line class="st0" x1="544.6" y1="59.9" x2="547.4" y2="63.1"/><line class="st0" x1="473.2" y1="108.2" x2="473" y2="111.9"/><line class="st0" x1="448.6" y1="121.5" x2="449.7" y2="124.4"/><line class="st0" x1="456.7" y1="132.2" x2="452.3" y2="135.6"/><line class="st0" x1="412.3" y1="121.3" x2="412.1" y2="124.6"/><line class="st0" x1="422.3" y1="107.1" x2="424.6" y2="109.3"/><line class="st0" x1="429.4" y1="138.2" x2="428.9" y2="141.2"/><line class="st0" x1="411.4" y1="142.7" x2="409.4" y2="145.9"/><line class="st0" x1="681.9" y1="136.7" x2="685.4" y2="141.1"/><line class="st0" x1="668.8" y1="116" x2="666.6" y2="119.8"/><line class="st0" x1="665" y1="96.9" x2="666.8" y2="100.7"/><line class="st0" x1="711.9" y1="96.9" x2="714.1" y2="99.3"/><line class="st0" x1="721.2" y1="81.8" x2="723.7" y2="84.2"/><line class="st0" x1="745.2" y1="71.1" x2="742.3" y2="74"/><line class="st0" x1="701.2" y1="86.7" x2="701.2" y2="90"/><line class="st0" x1="680.3" y1="86.3" x2="675.9" y2="91.2"/><line class="st0" x1="273.2" y1="72" x2="276.1" y2="74.7"/><line class="st0" x1="284.3" y1="56.9" x2="283.2" y2="60.9"/><line class="st0" x1="272.3" y1="82" x2="274.1" y2="85.1"/><line class="st0" x1="272.6" y1="96.7" x2="273.4" y2="100"/><line class="st0" x1="298.3" y1="88.9" x2="298.6" y2="93.1"/><line class="st0" x1="298.3" y1="108.4" x2="301.2" y2="105.6"/><line class="st0" x1="282.8" y1="114.4" x2="281.2" y2="118"/><line class="st0" x1="271.2" y1="128.9" x2="273.2" y2="125.3"/><line class="st0" x1="249.4" y1="134.7" x2="247.2" y2="138.7"/><line class="st0" x1="230.3" y1="142" x2="229.9" y2="146.9"/><line class="st0" x1="219" y1="136.2" x2="218.8" y2="140.7"/><line class="st0" x1="202.1" y1="129.1" x2="197.7" y2="132.9"/><line class="st0" x1="157.4" y1="130.7" x2="160.8" y2="134.4"/><line class="st0" x1="139.4" y1="135.1" x2="133.9" y2="138.7"/><line class="st0" x1="131.2" y1="110" x2="128.1" y2="113.3"/><line class="st0" x1="89" y1="118.4" x2="92.3" y2="122.2"/><line class="st0" x1="73" y1="86.9" x2="76.1" y2="90.9"/><line class="st0" x1="11.2" y1="120.4" x2="11.7" y2="126.4"/><line class="st0" x1="39.7" y1="116.9" x2="36.6" y2="121.1"/><line class="st0" x1="26.6" y1="143.1" x2="32.8" y2="140.7"/><line class="st0" x1="67.7" y1="143.3" x2="69.4" y2="146.4"/><line class="st0" x1="97" y1="139.1" x2="98.2" y2="141.9"/><line class="st0" x1="178.9" y1="145.8" x2="173" y2="146.2"/><line class="st0" x1="57.4" y1="105.2" x2="57.2" y2="109.3"/><line class="st0" x1="705.6" y1="38.8" x2="688.7" y2="44.4"/><line class="st0" x1="708.7" y1="41.2" x2="702.6" y2="43.7"/><line class="st0" x1="697.9" y1="44.9" x2="692.9" y2="46.4"/><line class="st0" x1="677.3" y1="71.3" x2="714.2" y2="57.2"/><line class="st0" x1="717.4" y1="55.7" x2="726.9" y2="51.4"/><line class="st0" x1="716.1" y1="52.7" x2="705.4" y2="56.9"/><line class="st0" x1="700.1" y1="58.1" x2="694.8" y2="59.7"/><line class="st0" x1="688.4" y1="62.1" x2="682.3" y2="64.4"/><line class="st0" x1="671.8" y1="81" x2="690.3" y2="75"/><line class="st0" x1="694.6" y1="73.5" x2="706.8" y2="69"/><line class="st0" x1="710.5" y1="67.4" x2="724.4" y2="61.5"/><line class="st0" x1="727.8" y1="59.9" x2="731.4" y2="57.9"/><line class="st0" x1="730.2" y1="53.5" x2="683.1" y2="73.2"/><line class="st0" x1="678.5" y1="74.8" x2="672.4" y2="77"/><line class="st0" x1="689" y1="47.9" x2="682.3" y2="49.9"/><line class="st0" x1="684.4" y1="41.9" x2="695.4" y2="38.1"/><line class="st0" x1="698.8" y1="37" x2="704.9" y2="35"/><line class="st0" x1="702.9" y1="32.4" x2="693.6" y2="35.3"/><line class="st0" x1="697.4" y1="31.1" x2="693.2" y2="32.4"/><line class="st0" x1="679.4" y1="54.1" x2="716" y2="42.8"/><line class="st0" x1="718.8" y1="45" x2="710.9" y2="47.7"/><line class="st0" x1="705.6" y1="49" x2="699.5" y2="50.8"/><line class="st0" x1="694.6" y1="52.4" x2="678.5" y2="57.3"/><line class="st0" x1="678.5" y1="60.9" x2="704.6" y2="53"/><line class="st0" x1="707.7" y1="52" x2="710.2" y2="50.8"/><line class="st0" x1="712.9" y1="49.9" x2="722.2" y2="48.2"/><line class="st0" x1="705.1" y1="73.1" x2="727.2" y2="64.8"/><line class="st0" x1="721.7" y1="70.6" x2="712.1" y2="74.8"/><line class="st0" x1="708" y1="76" x2="703.1" y2="77.8"/><line class="st0" x1="746" y1="52.4" x2="751.1" y2="48.9"/><line class="st0" x1="747.4" y1="56.1" x2="749.7" y2="54.7"/><line class="st0" x1="751.6" y1="53.4" x2="754" y2="51.9"/><line class="st0" x1="757.1" y1="54.7" x2="748.6" y2="59.8"/><line class="st0" x1="750.2" y1="62.9" x2="755.2" y2="60.6"/><line class="st0" x1="757.6" y1="59.1" x2="759.9" y2="57.8"/><line class="st0" x1="751.3" y1="66" x2="761.6" y2="60.4"/><line class="st0" x1="763.7" y1="62.6" x2="755.7" y2="67.1"/><line class="st0" x1="765.1" y1="64.6" x2="761.8" y2="66.7"/><line class="st0" x1="770.3" y1="65" x2="759.4" y2="71.2"/><line class="st0" x1="772.1" y1="67.3" x2="769.7" y2="68.6"/><line class="st0" x1="767.2" y1="70" x2="762.9" y2="72.4"/><line class="st0" x1="773.9" y1="69.4" x2="761.1" y2="77.1"/><line class="st0" x1="761.7" y1="110.2" x2="758.6" y2="114.2"/><line class="st0" x1="733" y1="145.1" x2="738.1" y2="141.3"/><line class="st0" x1="710.8" y1="110.7" x2="712.8" y2="116"/><line class="st0" x1="783" y1="109.1" x2="786.3" y2="103.6"/><line class="st0" x1="734.6" y1="125.8" x2="739" y2="125.6"/><line class="st0" x1="763" y1="92.2" x2="764.3" y2="97.1"/><line class="st0" x1="795.7" y1="95.6" x2="794.8" y2="100.7"/><line class="st0" x1="792.3" y1="143.8" x2="792.6" y2="138.9"/><line class="st0" x1="13" y1="15.1" x2="28.9" y2="15.1"/><line class="st0" x1="6.2" y1="19.8" x2="54.2" y2="19.8"/><line class="st0" x1="14.6" y1="24.4" x2="61.3" y2="24.4"/><line class="st0" x1="16.7" y1="33.7" x2="79.8" y2="33.7"/><line class="st0" x1="9.2" y1="29" x2="73.4" y2="29"/><line class="st0" x1="-1.6" y1="38.3" x2="68.7" y2="38.3"/><line class="st0" x1="-1.6" y1="42.9" x2="56.3" y2="42.9"/><line class="st0" x1="-1.6" y1="47.6" x2="46.8" y2="47.6"/><line class="st0" x1="17.3" y1="80.4" x2="46.3" y2="80.4"/><line class="st0" x1="-1.6" y1="85" x2="39.7" y2="85"/><line class="st0" x1="489.1" y1="18" x2="511.7" y2="18"/><line class="st0" x1="482.2" y1="22.6" x2="520.7" y2="22.6"/><line class="st0" x1="477.4" y1="27.3" x2="515.4" y2="27.3"/><line class="st0" x1="482.7" y1="36.5" x2="528.6" y2="36.5"/><line class="st0" x1="442.8" y1="31.9" x2="532.9" y2="31.9"/><line class="st0" x1="272.3" y1="9.1" x2="351" y2="9.1"/><line class="st0" x1="275.6" y1="13.8" x2="301.7" y2="13.8"/><line class="st0" x1="321" y1="13.8" x2="347.1" y2="13.8"/><line class="st0" x1="289.2" y1="18.4" x2="306.8" y2="18.4"/><line class="st0" x1="326" y1="18.4" x2="343.5" y2="18.4"/><line class="st0" x1="333.7" y1="4.4" x2="346.4" y2="4.4"/></svg>