<?xml version="1.0" encoding="utf-8"?>
<!-- Generator: Adobe Illustrator 28.2.0, SVG Export Plug-In . SVG Version: 6.00 Build 0)  -->
<svg version="1.1" id="Layer_1" xmlns="http://www.w3.org/2000/svg" xmlns:xlink="http://www.w3.org/1999/xlink" x="0px" y="0px"
	 viewBox="0 0 800 150" style="enable-background:new 0 0 800 150;" xml:space="preserve">
<style type="text/css">
	.st0{display:none;}
	.st1{display:inline;}
	.st2{fill:none;stroke:#343A40;stroke-linecap:round;stroke-linejoin:round;stroke-miterlimit:10;}
	.st3{display:inline;fill:none;stroke:#343A40;stroke-linecap:round;stroke-linejoin:round;stroke-miterlimit:10;}
	.st4{fill:#343A40;}
	.st5{fill:none;stroke:#FFFFFF;stroke-linecap:round;stroke-linejoin:round;stroke-miterlimit:10;}
	.st6{display:inline;fill:none;stroke:#343A40;stroke-miterlimit:10;}
	.st7{fill:none;stroke:#343A40;stroke-miterlimit:10;}
</style>
<g id="Layer_1_00000144330818969797841140000017294106873426069945_" class="st0">
	<g class="st1">
		<path class="st2" d="M154.2,74.2h-18.4c-7.2,0-13-5.8-13-13V42.8c0-7.2,5.8-13,13-13h18.4c7.2,0,13,5.8,13,13v18.4
			C167.3,68.4,161.4,74.2,154.2,74.2z"/>
		<path class="st2" d="M343.2,74.2h-18.4c-7.2,0-13-5.8-13-13V42.8c0-7.2,5.8-13,13-13h18.4c7.2,0,13,5.8,13,13v18.4
			C356.3,68.4,350.4,74.2,343.2,74.2z"/>
		<path class="st2" d="M248.7,74.2h-18.4c-7.2,0-13-5.8-13-13V42.8c0-7.2,5.8-13,13-13h18.4c7.2,0,13,5.8,13,13v18.4
			C261.8,68.4,255.9,74.2,248.7,74.2z"/>
	</g>
	<line class="st3" x1="167.3" y1="52.2" x2="217.3" y2="52.2"/>
	<line class="st3" x1="261.8" y1="52.2" x2="311.8" y2="52.2"/>
	<g class="st1">
		<g>
			<path class="st4" d="M443.7,59.7c0-1.5-0.8-2.3-2.2-2.3l0,0c-1.6,0-1.1,0.5-4.5,1.3s-7.6,0.6-11.3,2.1
				c-11,4.6-13.2,20.4-23.3,26.1c-7.5,4.2-15,4.6-21.8,6.7c-4.5,1.4-9.4,4.3-13.4,7.8c-3.1,2.7-3.2,5.1-6.5,8.5
				c-3.5,3.6-14,0.1-18.7,5.6c1.5,1.5,2.2,2,5.2,1.6c-0.6,1.2-4.3,2.2-3.6,3.9c0.8,1.8,9.6,3.1,17.7-1.8c3.8-2.3,6.7-5.5,12.6-6.3
				c7.6-1,16.3,0.7,25,1.9c-1.3,3.9-3.9,6.4-6,9.5c-0.6,0.7,1.3,0.8,3.5,0.3c4-1,6.9-1.8,9.9-3.5c3.7-2.2,4.3-7.7,8.8-8.9
				c2.5,3.9,9.4,4.8,13.7,1.7c-3.8-1.1-4.8-9-3.5-12.6c1.2-3.3,2.4-8.7,3.6-13c1.3-4.7,1.8-10.7,3.3-13.1c2.4-3.6,5-4.9,7.2-6.9
				C441.7,66.3,443.8,64.4,443.7,59.7z M425.6,113.8c-2.5,0.6-6.7-0.4-7.8-2.1c0.6-2.5,3.5-4.8,4.9-6.3l0,0l0,0l0,0
				C422.9,107.8,424.4,112.6,425.6,113.8z M437,69c-2.1,1.5-4.5,2.9-6,5.3s-2.5,10.6-4.9,18.7c-2.1,7-5.2,13.9-10.6,16.9
				c-0.6-1.4,0.1-4.1-1.1-4.9c-0.7,2.1-1.6,4.1-2.5,5.9c-3.2,6.1-7.9,10.7-15.8,12.1c3.7-5.1,7.3-10.3,7.4-19
				c-2.6,0.6-2.6,6.8-5.3,8.5c-1.7,0.2-3.5,0.2-5.3,0.1c-7.3-0.4-14.7-2.6-21.5-0.4c-4.6,1.5-8.4,5-12.3,6.7c-4.6,2-8.1,2.8-13.8,2
				l0,0c-0.7-1,4.2-2.2,3.9-4.4c-2.2-0.2-3.5,0.3-5.5-0.6c0.2-0.4,0.5-0.7,0.9-1c3.6-2.5,13.7-0.6,16.5-3.2c1.7-1.7,2.8-3.4,3.9-5.1
				c1.1-1.6,2.2-3.2,4-4.6c0.7-0.6,1.4-1.1,2.1-1.6c3-2,6.6-3.9,10.2-5.1c4.9-1.7,9.9-1.9,15.1-3.9c3.2-1.2,6.8-2.8,9.6-4.9
				c0.7-0.5,1.3-1.1,1.9-1.6c8.2-8,9.8-22.1,22.6-23.4c1.5-0.2,2.8-0.1,4-0.1c1.3,0,2.5-0.2,3.8-0.9c0.4,1.3,1,1.9,3.5,2.1
				C441.5,65.5,439.4,67.3,437,69z"/>
			<path class="st4" d="M426.4,66.5c1.8,1.6,5.6,0.3,4.9-2.8C428.5,63.5,426.9,64.4,426.4,66.5z M439,62.9c-0.5,1-1.4,2.3-1.4,4.9
				c0,0.4-0.3,0.7-0.3,0.1c0-2.5,0.7-3.6,1.4-5C439,62.2,439.2,62.4,439,62.9L439,62.9z"/>
			<path class="st4" d="M438.5,62.5c-0.6,1-1.9,2.7-2.2,5.3c0,0.4-0.4,0.7-0.3,0c0.2-2.5,1.3-4.1,2.2-5.4
				C438.6,61.8,438.7,62.1,438.5,62.5z M438.1,62c-0.6,0.9-2.8,3-3.2,5.6c-0.1,0.4-0.5,0.7-0.4,0c0.5-2.5,2.3-4.4,3.2-5.7
				C438.2,61.3,438.3,61.6,438.1,62z M437.7,61.4c-0.8,0.8-3.3,3.5-4.1,6c-0.1,0.4-0.5,0.6-0.3-0.1c0.8-2.4,3-5,4.1-6.1
				C437.9,60.8,438,61.1,437.7,61.4z"/>
		</g>
	</g>
	<g class="st1">
		<ellipse class="st2" cx="65.6" cy="20.5" rx="26.6" ry="6.3"/>
		<path class="st2" d="M39,20.5v29.2c0,3.5,11.9,6.3,26.6,6.3s26.6-2.8,26.6-6.3V20.5"/>
	</g>
	<path class="st3" d="M65.6,35.7c14.7,0,26.6-2.8,26.6-6.3"/>
	<circle class="st3" cx="49.2" cy="34.9" r="3.4"/>
	<g class="st1">
		<path class="st2" d="M84.8,54.1c4.6,1.1,7.3,2.7,7.3,4.3c0,3.5-11.9,6.3-26.6,6.3S39,61.9,39,58.5c0-1.7,2.8-3.2,7.3-4.3"/>
		<path class="st2" d="M39,58.5v29.2c0,3.5,11.9,6.3,26.6,6.3s26.6-2.8,26.6-6.3V58.5"/>
	</g>
	<path class="st3" d="M65.6,73.6c14.7,0,26.6-2.8,26.6-6.3"/>
	<circle class="st3" cx="49.2" cy="72.8" r="3.4"/>
	<g class="st1">
		<g>
			<ellipse class="st2" cx="717.8" cy="43.1" rx="26.6" ry="6.3"/>
			<path class="st2" d="M691.2,43.1v29.2c0,3.5,11.9,6.3,26.6,6.3s26.6-2.8,26.6-6.3V43.1"/>
		</g>
		<path class="st2" d="M717.8,58.3c14.7,0,26.6-2.8,26.6-6.3"/>
		<circle class="st2" cx="701.3" cy="57.5" r="3.4"/>
		<g>
			<path class="st2" d="M737,76.7c4.5,1.1,7.3,2.7,7.3,4.3c0,3.5-11.9,6.3-26.6,6.3s-26.6-2.8-26.6-6.3c0-1.7,2.8-3.2,7.3-4.3"/>
			<path class="st2" d="M691.2,81v29.2c0,3.5,11.9,6.3,26.6,6.3s26.6-2.8,26.6-6.3V81"/>
		</g>
		<path class="st2" d="M717.8,96.2c14.7,0,26.6-2.8,26.6-6.3"/>
		<circle class="st2" cx="701.3" cy="95.4" r="3.4"/>
	</g>
	<g class="st1">
		<path class="st2" d="M84.8,92.4c4.6,1.1,7.3,2.7,7.3,4.3c0,3.5-11.9,6.3-26.6,6.3S39,100.2,39,96.7c0-1.7,2.8-3.2,7.3-4.3"/>
		<path class="st2" d="M39,96.7V126c0,3.5,11.9,6.3,26.6,6.3s26.6-2.8,26.6-6.3V96.7"/>
	</g>
	<path class="st3" d="M65.6,111.9c14.7,0,26.6-2.8,26.6-6.3"/>
	<circle class="st3" cx="49.2" cy="111.1" r="3.4"/>
	<g class="st1">
		<line class="st5" x1="97.2" y1="73.2" x2="108.1" y2="73.2"/>
		<line class="st5" x1="102.7" y1="67.8" x2="102.7" y2="78.7"/>
	</g>
	<g class="st1">
		<line class="st2" x1="186.8" y1="91.2" x2="197.7" y2="91.2"/>
		<line class="st2" x1="192.3" y1="85.7" x2="192.3" y2="96.6"/>
	</g>
	<g class="st1">
		<line class="st2" x1="619" y1="76.7" x2="629.9" y2="76.7"/>
		<line class="st2" x1="624.5" y1="71.2" x2="624.5" y2="82.2"/>
	</g>
	<g class="st1">
		<line class="st2" x1="644.2" y1="76.7" x2="655.2" y2="76.7"/>
		<line class="st2" x1="649.7" y1="71.2" x2="649.7" y2="82.2"/>
	</g>
	<g class="st1">
		<path class="st2" d="M666.3,237h-77.1c-4.7,0-8.5-3.8-8.5-8.5V178c0-4.7,3.8-8.5,8.5-8.5h77.1c4.7,0,8.5,3.8,8.5,8.5v50.5
			C674.8,233.2,671,237,666.3,237z"/>
		<line class="st2" x1="580.7" y1="183.1" x2="674.8" y2="183.1"/>
		<g>
			<rect x="588.6" y="193.5" class="st2" width="35.2" height="32.6"/>
			<line class="st2" x1="631.1" y1="193.5" x2="667" y2="193.5"/>
			<line class="st2" x1="631.1" y1="200.1" x2="667" y2="200.1"/>
			<line class="st2" x1="631.1" y1="206.6" x2="657.2" y2="206.6"/>
			<line class="st2" x1="631.1" y1="213.1" x2="667" y2="213.1"/>
			<line class="st2" x1="631.1" y1="219.7" x2="667" y2="219.7"/>
			<line class="st2" x1="631.1" y1="226.2" x2="657.2" y2="226.2"/>
		</g>
	</g>
	<g class="st1">
		<path class="st2" d="M532.3,200.9h-77.1c-4.7,0-8.5-3.8-8.5-8.5v-50.5c0-4.7,3.8-8.5,8.5-8.5h77.1c4.7,0,8.5,3.8,8.5,8.5v50.5
			C540.8,197.1,537,200.9,532.3,200.9z"/>
		<line class="st2" x1="446.7" y1="147" x2="540.8" y2="147"/>
		<g>
			<rect x="454.6" y="157.4" class="st2" width="35.2" height="32.6"/>
			<line class="st2" x1="497.1" y1="157.4" x2="532.9" y2="157.4"/>
			<line class="st2" x1="497.1" y1="164" x2="532.9" y2="164"/>
			<line class="st2" x1="497.1" y1="170.5" x2="523.2" y2="170.5"/>
			<line class="st2" x1="497.1" y1="177.1" x2="532.9" y2="177.1"/>
			<line class="st2" x1="497.1" y1="183.6" x2="532.9" y2="183.6"/>
			<line class="st2" x1="497.1" y1="190.1" x2="523.2" y2="190.1"/>
		</g>
	</g>
	<path class="st3" d="M579.9,12.9h-34.2c-2.7,0-5,2.2-5,5v17.5c0,2.7,2.2,5,5,5h5.2l4.3,8.9l4.3-8.9h20.3c2.7,0,5-2.2,5-5V17.8
		C584.9,15.1,582.7,12.9,579.9,12.9z"/>
	<g class="st1">
		<line class="st2" x1="547.8" y1="20.4" x2="577.8" y2="20.4"/>
		<line class="st2" x1="547.8" y1="26.5" x2="577.8" y2="26.5"/>
		<line class="st2" x1="547.8" y1="32.8" x2="569.2" y2="32.8"/>
	</g>
	<path class="st3" d="M569.5,24.4h34.2c2.7,0,5,2.2,5,5v17.5c0,2.7-2.2,5-5,5h-5.2l-4.3,8.9l-4.3-8.9h-20.3c-2.7,0-5-2.2-5-5V29.4
		C564.5,26.6,566.8,24.4,569.5,24.4z"/>
	<g class="st1">
		<line class="st2" x1="571.6" y1="31.9" x2="601.6" y2="31.9"/>
		<line class="st2" x1="571.6" y1="38" x2="601.6" y2="38"/>
		<line class="st2" x1="571.6" y1="44.3" x2="593" y2="44.3"/>
	</g>
	<g class="st1">
		<g>
			<path class="st2" d="M271,195.8v-4.5c0-2.1-1.7-3.8-3.8-3.8h-26.4c-2.1,0-3.8,1.7-3.8,3.8v13.5c0,2.1,1.7,3.8,3.8,3.8h4l3.4,6.9
				l3.4-6.9h3.8"/>
			<g>
				<line class="st2" x1="242.4" y1="193.3" x2="265.5" y2="193.3"/>
				<line class="st2" x1="242.4" y1="198" x2="255.6" y2="198"/>
				<line class="st2" x1="242.4" y1="202.9" x2="255.3" y2="202.9"/>
			</g>
			<path class="st2" d="M259.1,195.8h26.4c2.1,0,3.8,1.7,3.8,3.8v13.5c0,2.1-1.7,3.8-3.8,3.8h-4l-3.4,6.9l-3.4-6.9H259
				c-2.1,0-3.8-1.7-3.8-3.8v-13.5C255.3,197.5,257,195.8,259.1,195.8z"/>
			<g>
				<line class="st2" x1="260.7" y1="201.6" x2="283.9" y2="201.6"/>
				<line class="st2" x1="260.7" y1="206.3" x2="283.9" y2="206.3"/>
				<line class="st2" x1="260.7" y1="211.2" x2="277.2" y2="211.2"/>
			</g>
		</g>
		<path class="st2" d="M287.5,238.6h-48.8c-4.7,0-8.5-3.8-8.5-8.5v-48.8c0-4.7,3.8-8.5,8.5-8.5h48.8c4.7,0,8.5,3.8,8.5,8.5v48.8
			C296,234.8,292.2,238.6,287.5,238.6z"/>
		<line class="st2" x1="230.2" y1="181.3" x2="221.8" y2="181.3"/>
		<line class="st2" x1="230.2" y1="199.6" x2="221.8" y2="199.6"/>
		<line class="st2" x1="230.2" y1="193.5" x2="221.8" y2="193.5"/>
		<line class="st2" x1="230.2" y1="187.4" x2="221.8" y2="187.4"/>
		<line class="st2" x1="230.2" y1="205.7" x2="221.8" y2="205.7"/>
		<line class="st2" x1="230.2" y1="217.9" x2="221.8" y2="217.9"/>
		<line class="st2" x1="230.2" y1="224" x2="221.8" y2="224"/>
		<line class="st2" x1="230.2" y1="211.8" x2="221.8" y2="211.8"/>
		<line class="st2" x1="230.2" y1="230.1" x2="221.8" y2="230.1"/>
		<g>
			<line class="st2" x1="304.5" y1="181.3" x2="296" y2="181.3"/>
			<line class="st2" x1="304.5" y1="199.6" x2="296" y2="199.6"/>
			<line class="st2" x1="304.5" y1="193.5" x2="296" y2="193.5"/>
			<line class="st2" x1="304.5" y1="187.4" x2="296" y2="187.4"/>
			<line class="st2" x1="304.5" y1="205.7" x2="296" y2="205.7"/>
			<line class="st2" x1="304.5" y1="217.9" x2="296" y2="217.9"/>
			<line class="st2" x1="304.5" y1="224" x2="296" y2="224"/>
			<line class="st2" x1="304.5" y1="211.8" x2="296" y2="211.8"/>
			<line class="st2" x1="304.5" y1="230.1" x2="296" y2="230.1"/>
		</g>
		<g>
			<line class="st2" x1="238.7" y1="164.3" x2="238.7" y2="172.8"/>
			<line class="st2" x1="257" y1="164.3" x2="257" y2="172.8"/>
			<line class="st2" x1="250.9" y1="164.3" x2="250.9" y2="172.8"/>
			<line class="st2" x1="244.8" y1="164.3" x2="244.8" y2="172.8"/>
			<line class="st2" x1="263.1" y1="164.3" x2="263.1" y2="172.8"/>
			<line class="st2" x1="275.3" y1="164.3" x2="275.3" y2="172.8"/>
			<line class="st2" x1="281.4" y1="164.3" x2="281.4" y2="172.8"/>
			<line class="st2" x1="269.2" y1="164.3" x2="269.2" y2="172.8"/>
			<line class="st2" x1="287.5" y1="164.3" x2="287.5" y2="172.8"/>
		</g>
		<g>
			<line class="st2" x1="238.7" y1="238.6" x2="238.7" y2="247"/>
			<line class="st2" x1="257" y1="238.6" x2="257" y2="247"/>
			<line class="st2" x1="250.9" y1="238.6" x2="250.9" y2="247"/>
			<line class="st2" x1="244.8" y1="238.6" x2="244.8" y2="247"/>
			<line class="st2" x1="263.1" y1="238.6" x2="263.1" y2="247"/>
			<line class="st2" x1="275.3" y1="238.6" x2="275.3" y2="247"/>
			<line class="st2" x1="281.4" y1="238.6" x2="281.4" y2="247"/>
			<line class="st2" x1="269.2" y1="238.6" x2="269.2" y2="247"/>
			<line class="st2" x1="287.5" y1="238.6" x2="287.5" y2="247"/>
		</g>
	</g>
	<g class="st1">
		<path class="st2" d="M170.2,223c0,10.5-8.5,19-19,19s-19-8.5-19-19"/>
		<path class="st2" d="M151.2,184.1c-7.2,0-13,5.8-13,13V223c0,7.2,5.8,13,13,13s13-5.8,13-13v-25.9
			C164.2,190,158.4,184.1,151.2,184.1z"/>
		<g>
			<circle class="st2" cx="151.2" cy="220.4" r="3.4"/>
			<line class="st2" x1="147.7" y1="220.4" x2="138.1" y2="220.4"/>
			<line class="st2" x1="154.6" y1="220.4" x2="164.2" y2="220.4"/>
		</g>
		<line class="st2" x1="164.2" y1="197.7" x2="156.5" y2="197.7"/>
		<line class="st2" x1="164.2" y1="203.3" x2="156.5" y2="203.3"/>
		<line class="st2" x1="164.2" y1="208.9" x2="156.5" y2="208.9"/>
		<line class="st2" x1="145.9" y1="197.7" x2="138.1" y2="197.7"/>
		<line class="st2" x1="145.9" y1="203.3" x2="138.1" y2="203.3"/>
		<line class="st2" x1="145.9" y1="208.9" x2="138.1" y2="208.9"/>
		<line class="st2" x1="151.2" y1="242.1" x2="151.2" y2="251.3"/>
		<line class="st2" x1="138.1" y1="251.4" x2="164.2" y2="251.4"/>
	</g>
	<path class="st3" d="M108.1,161.8c7.2,0,7.2,10.9,14.3,10.9c7.2,0,7.2-10.9,14.3-10.9c7.2,0,7.2,10.9,14.4,10.9s7.2-10.9,14.4-10.9
		s7.2,10.9,14.4,10.9s7.2-10.9,14.4-10.9"/>
	<path class="st6" d="M516.4,47.7c-1.6-1.4-3.4-2.5-5.2-3.6c-2.5-1.5-5.8-2.6-8.3-0.5c-1.1,0.9-1.7,2.3-2.6,3.4
		c-1.8,2.2-4.5,3.3-7.2,4.1c-4.4,1.4-10,2.7-11.7,7.5c-0.6,1.5-0.6,3.3,0,4.8c0.7,1.7,2.2,2.9,3.8,3.6c1.6,0.7,3.5,0.9,5.3,0.8
		c4.3-0.2,8.4-1.9,12.7-2.6c3.6-0.6,7.2,0.7,10.7,0.2c3-0.3,5.7-2.2,7.1-4.8c0.8-1.6,1.1-3.5,0.8-5.3c-0.4-2-1.5-3.8-2.9-5.3
		C518.1,49.2,517.3,48.4,516.4,47.7z"/>
</g>
<g>
	<path class="st7" d="M114.5,107.3H78.1c-2,0-3.6-1.6-3.6-3.6V67.3c0-2,1.6-3.6,3.6-3.6h36.4c2,0,3.6,1.6,3.6,3.6v36.4
		C118.1,105.7,116.5,107.3,114.5,107.3z"/>
	<line class="st7" x1="96.3" y1="63.7" x2="96.3" y2="107.3"/>
	<line class="st7" x1="118.1" y1="85.5" x2="96.3" y2="85.5"/>
</g>
<g>
	<path class="st7" d="M51.2,138.1H14.7c-2,0-3.6-1.6-3.6-3.6V98.1c0-2,1.6-3.6,3.6-3.6h36.4c2,0,3.6,1.6,3.6,3.6v36.4
		C54.8,136.5,53.2,138.1,51.2,138.1z"/>
	<line class="st7" x1="33" y1="94.5" x2="33" y2="138.1"/>
	<line class="st7" x1="54.8" y1="116.3" x2="33" y2="116.3"/>
</g>
<g>
	<path class="st7" d="M131.1,35.7H94.7c-2,0-3.6-1.6-3.6-3.6V-4.3c0-2,1.6-3.6,3.6-3.6h36.4c2,0,3.6,1.6,3.6,3.6v36.4
		C134.7,34.1,133.1,35.7,131.1,35.7z"/>
	<line class="st7" x1="112.9" y1="-7.9" x2="112.9" y2="35.7"/>
	<line class="st7" x1="134.7" y1="13.9" x2="112.9" y2="13.9"/>
</g>
<g>
	<path class="st7" d="M201.5,72.6h-36.4c-2,0-3.6-1.6-3.6-3.6V32.6c0-2,1.6-3.6,3.6-3.6h36.4c2,0,3.6,1.6,3.6,3.6V69
		C205.1,71,203.5,72.6,201.5,72.6z"/>
	<line class="st7" x1="183.3" y1="29" x2="183.3" y2="72.6"/>
	<line class="st7" x1="205.1" y1="50.8" x2="183.3" y2="50.8"/>
</g>
<g>
	<path class="st7" d="M210.7,177.8h-66.4c-3.6,0-6.5-2.9-6.5-6.5V105c0-3.6,2.9-6.5,6.5-6.5h66.4c3.6,0,6.5,2.9,6.5,6.5v66.4
		C217.2,174.9,214.3,177.8,210.7,177.8z"/>
	<line class="st7" x1="177.5" y1="98.4" x2="177.5" y2="177.8"/>
	<line class="st7" x1="217.2" y1="138.1" x2="177.5" y2="138.1"/>
</g>
<g>
	<path class="st7" d="M57.7,63.7H-8.7c-3.6,0-6.5-2.9-6.5-6.5V-9.1c0-3.6,2.9-6.5,6.5-6.5h66.4c3.6,0,6.5,2.9,6.5,6.5v66.4
		C64.2,60.8,61.2,63.7,57.7,63.7z"/>
	<line class="st7" x1="24.5" y1="-15.6" x2="24.5" y2="63.7"/>
	<line class="st7" x1="64.2" y1="24" x2="24.5" y2="24"/>
</g>
<g>
	<path class="st7" d="M304.8,50.8h-66.4c-3.6,0-6.5-2.9-6.5-6.5v-66.4c0-3.6,2.9-6.5,6.5-6.5h66.4c3.6,0,6.5,2.9,6.5,6.5v66.4
		C311.3,47.9,308.4,50.8,304.8,50.8z"/>
	<line class="st7" x1="271.6" y1="-28.6" x2="271.6" y2="50.8"/>
	<line class="st7" x1="311.3" y1="11.1" x2="271.6" y2="11.1"/>
</g>
<g>
	<path class="st7" d="M483.6,94.6h-66.4c-3.6,0-6.5-2.9-6.5-6.5V21.7c0-3.6,2.9-6.5,6.5-6.5h66.4c3.6,0,6.5,2.9,6.5,6.5v66.4
		C490.2,91.7,487.2,94.6,483.6,94.6z"/>
	<line class="st7" x1="450.5" y1="15.2" x2="450.5" y2="94.6"/>
	<line class="st7" x1="490.2" y1="54.9" x2="450.5" y2="54.9"/>
</g>
<g>
	<path class="st7" d="M548.8,204.7h-66.4c-3.6,0-6.5-2.9-6.5-6.5v-66.4c0-3.6,2.9-6.5,6.5-6.5h66.4c3.6,0,6.5,2.9,6.5,6.5v66.4
		C555.3,201.8,552.4,204.7,548.8,204.7z"/>
	<line class="st7" x1="515.6" y1="125.3" x2="515.6" y2="204.7"/>
	<line class="st7" x1="555.3" y1="165" x2="515.6" y2="165"/>
</g>
<g>
	<path class="st7" d="M733.8,165h-66.4c-3.6,0-6.5-2.9-6.5-6.5V92.1c0-3.6,2.9-6.5,6.5-6.5h66.4c3.6,0,6.5,2.9,6.5,6.5v66.4
		C740.3,162.1,737.4,165,733.8,165z"/>
	<line class="st7" x1="700.6" y1="85.6" x2="700.6" y2="165"/>
	<line class="st7" x1="740.3" y1="125.3" x2="700.6" y2="125.3"/>
</g>
<g>
	<path class="st7" d="M294.2,125.3h-36.4c-2,0-3.6-1.6-3.6-3.6V85.3c0-2,1.6-3.6,3.6-3.6h36.4c2,0,3.6,1.6,3.6,3.6v36.4
		C297.8,123.7,296.2,125.3,294.2,125.3z"/>
	<line class="st7" x1="276" y1="81.7" x2="276" y2="125.3"/>
	<line class="st7" x1="297.8" y1="103.5" x2="276" y2="103.5"/>
</g>
<g>
	<path class="st7" d="M374.7,103.5h-36.4c-2,0-3.6-1.6-3.6-3.6V63.5c0-2,1.6-3.6,3.6-3.6h36.4c2,0,3.6,1.6,3.6,3.6v36.4
		C378.3,101.9,376.7,103.5,374.7,103.5z"/>
	<line class="st7" x1="356.5" y1="59.9" x2="356.5" y2="103.5"/>
	<line class="st7" x1="378.3" y1="81.7" x2="356.5" y2="81.7"/>
</g>
<g>
	<path class="st7" d="M438,159.9h-36.4c-2,0-3.6-1.6-3.6-3.6v-36.4c0-2,1.6-3.6,3.6-3.6H438c2,0,3.6,1.6,3.6,3.6v36.4
		C441.6,158.3,440,159.9,438,159.9z"/>
	<line class="st7" x1="419.8" y1="116.3" x2="419.8" y2="159.9"/>
	<line class="st7" x1="441.6" y1="138.1" x2="419.8" y2="138.1"/>
</g>
<g>
	<path class="st7" d="M392.8,32.9h-36.4c-2,0-3.6-1.6-3.6-3.6V-7.1c0-2,1.6-3.6,3.6-3.6h36.4c2,0,3.6,1.6,3.6,3.6v36.4
		C396.4,31.3,394.8,32.9,392.8,32.9z"/>
	<line class="st7" x1="374.6" y1="-10.7" x2="374.6" y2="32.9"/>
	<line class="st7" x1="396.4" y1="11.1" x2="374.6" y2="11.1"/>
</g>
<g>
	<path class="st7" d="M562.6,63.7h-36.4c-2,0-3.6-1.6-3.6-3.6V23.7c0-2,1.6-3.6,3.6-3.6h36.4c2,0,3.6,1.6,3.6,3.6v36.4
		C566.2,62.1,564.6,63.7,562.6,63.7z"/>
	<line class="st7" x1="544.4" y1="20.2" x2="544.4" y2="63.7"/>
	<line class="st7" x1="566.2" y1="42" x2="544.4" y2="42"/>
</g>
<g>
	<path class="st7" d="M614.8,129.3h-36.4c-2,0-3.6-1.6-3.6-3.6V89.2c0-2,1.6-3.6,3.6-3.6h36.4c2,0,3.6,1.6,3.6,3.6v36.4
		C618.4,127.6,616.8,129.3,614.8,129.3z"/>
	<line class="st7" x1="596.6" y1="85.7" x2="596.6" y2="129.3"/>
	<line class="st7" x1="618.4" y1="107.5" x2="596.6" y2="107.5"/>
</g>
<g>
	<path class="st7" d="M653.9,66.8h-36.4c-2,0-3.6-1.6-3.6-3.6V26.7c0-2,1.6-3.6,3.6-3.6h36.4c2,0,3.6,1.6,3.6,3.6v36.4
		C657.5,65.1,655.9,66.8,653.9,66.8z"/>
	<line class="st7" x1="635.7" y1="23.2" x2="635.7" y2="66.8"/>
	<line class="st7" x1="657.5" y1="45" x2="635.7" y2="45"/>
</g>
<g>
	<path class="st7" d="M599.2,65.8h-18.2c-1,0-1.8-0.8-1.8-1.8V45.8c0-1,0.8-1.8,1.8-1.8h18.2c1,0,1.8,0.8,1.8,1.8V64
		C601,65,600.1,65.8,599.2,65.8z"/>
	<line class="st7" x1="590.1" y1="44" x2="590.1" y2="65.8"/>
	<line class="st7" x1="601" y1="54.9" x2="590.1" y2="54.9"/>
</g>
<g>
	<path class="st7" d="M554.9,107.4h-18.2c-1,0-1.8-0.8-1.8-1.8V87.4c0-1,0.8-1.8,1.8-1.8h18.2c1,0,1.8,0.8,1.8,1.8v18.2
		C556.7,106.6,555.9,107.4,554.9,107.4z"/>
	<line class="st7" x1="545.8" y1="85.6" x2="545.8" y2="107.4"/>
	<line class="st7" x1="556.7" y1="96.5" x2="545.8" y2="96.5"/>
</g>
<g>
	<path class="st7" d="M521.9,117.5h-18.2c-1,0-1.8-0.8-1.8-1.8V97.5c0-1,0.8-1.8,1.8-1.8h18.2c1,0,1.8,0.8,1.8,1.8v18.2
		C523.6,116.7,522.8,117.5,521.9,117.5z"/>
	<line class="st7" x1="512.7" y1="95.7" x2="512.7" y2="117.5"/>
	<line class="st7" x1="523.6" y1="106.6" x2="512.7" y2="106.6"/>
</g>
<g>
	<path class="st7" d="M378.7,138.1h-18.2c-1,0-1.8-0.8-1.8-1.8v-18.2c0-1,0.8-1.8,1.8-1.8h18.2c1,0,1.8,0.8,1.8,1.8v18.2
		C380.5,137.3,379.7,138.1,378.7,138.1z"/>
	<line class="st7" x1="369.6" y1="116.3" x2="369.6" y2="138.1"/>
	<line class="st7" x1="380.5" y1="127.2" x2="369.6" y2="127.2"/>
</g>
<g>
	<path class="st7" d="M334.1,131.4h-18.2c-1,0-1.8-0.8-1.8-1.8v-18.2c0-1,0.8-1.8,1.8-1.8h18.2c1,0,1.8,0.8,1.8,1.8v18.2
		C335.9,130.6,335.1,131.4,334.1,131.4z"/>
	<line class="st7" x1="325" y1="109.6" x2="325" y2="131.4"/>
	<line class="st7" x1="335.9" y1="120.5" x2="325" y2="120.5"/>
</g>
<g>
	<path class="st7" d="M241.1,86.5h-18.2c-1,0-1.8-0.8-1.8-1.8V66.5c0-1,0.8-1.8,1.8-1.8h18.2c1,0,1.8,0.8,1.8,1.8v18.2
		C242.8,85.7,242,86.5,241.1,86.5z"/>
	<line class="st7" x1="231.9" y1="64.7" x2="231.9" y2="86.5"/>
	<line class="st7" x1="242.8" y1="75.6" x2="231.9" y2="75.6"/>
</g>
<g>
	<path class="st7" d="M184.6,18.1h-18.2c-1,0-1.8-0.8-1.8-1.8V-1.9c0-1,0.8-1.8,1.8-1.8h18.2c1,0,1.8,0.8,1.8,1.8v18.2
		C186.4,17.3,185.6,18.1,184.6,18.1z"/>
	<line class="st7" x1="175.5" y1="-3.7" x2="175.5" y2="18.1"/>
	<line class="st7" x1="186.4" y1="7.2" x2="175.5" y2="7.2"/>
</g>
<g>
	<path class="st7" d="M150.3,70.5h-18.2c-1,0-1.8-0.8-1.8-1.8V50.5c0-1,0.8-1.8,1.8-1.8h18.2c1,0,1.8,0.8,1.8,1.8v18.2
		C152.1,69.7,151.3,70.5,150.3,70.5z"/>
	<line class="st7" x1="141.2" y1="48.7" x2="141.2" y2="70.5"/>
	<line class="st7" x1="152.1" y1="59.6" x2="141.2" y2="59.6"/>
</g>
<g>
	<path class="st7" d="M124.5,141.6h-18.2c-1,0-1.8-0.8-1.8-1.8v-18.2c0-1,0.8-1.8,1.8-1.8h18.2c1,0,1.8,0.8,1.8,1.8v18.2
		C126.3,140.8,125.5,141.6,124.5,141.6z"/>
	<line class="st7" x1="115.4" y1="119.8" x2="115.4" y2="141.6"/>
	<line class="st7" x1="126.3" y1="130.7" x2="115.4" y2="130.7"/>
</g>
<g>
	<path class="st7" d="M83.6,153.3H65.4c-1,0-1.8-0.8-1.8-1.8v-18.2c0-1,0.8-1.8,1.8-1.8h18.2c1,0,1.8,0.8,1.8,1.8v18.2
		C85.4,152.5,84.6,153.3,83.6,153.3z"/>
	<line class="st7" x1="74.5" y1="131.5" x2="74.5" y2="153.3"/>
	<line class="st7" x1="85.4" y1="142.4" x2="74.5" y2="142.4"/>
</g>
<g>
	<path class="st7" d="M646.6,155.4h-18.2c-1,0-1.8-0.8-1.8-1.8v-18.2c0-1,0.8-1.8,1.8-1.8h18.2c1,0,1.8,0.8,1.8,1.8v18.2
		C648.4,154.6,647.6,155.4,646.6,155.4z"/>
	<line class="st7" x1="637.5" y1="133.6" x2="637.5" y2="155.4"/>
	<line class="st7" x1="648.4" y1="144.5" x2="637.5" y2="144.5"/>
</g>
<g>
	<path class="st7" d="M788.9,140.2h-18.2c-1,0-1.8-0.8-1.8-1.8v-18.2c0-1,0.8-1.8,1.8-1.8h18.2c1,0,1.8,0.8,1.8,1.8v18.2
		C790.7,139.3,789.9,140.2,788.9,140.2z"/>
	<line class="st7" x1="779.8" y1="118.4" x2="779.8" y2="140.2"/>
	<line class="st7" x1="790.7" y1="129.3" x2="779.8" y2="129.3"/>
</g>
<g>
	<path class="st7" d="M734.3,69.1h-18.2c-1,0-1.8-0.8-1.8-1.8V49.1c0-1,0.8-1.8,1.8-1.8h18.2c1,0,1.8,0.8,1.8,1.8v18.2
		C736.1,68.3,735.3,69.1,734.3,69.1z"/>
	<line class="st7" x1="725.2" y1="47.3" x2="725.2" y2="69.1"/>
	<line class="st7" x1="736.1" y1="58.2" x2="725.2" y2="58.2"/>
</g>
<g>
	<path class="st7" d="M691.1,54.9h-18.2c-1,0-1.8-0.8-1.8-1.8V34.9c0-1,0.8-1.8,1.8-1.8h18.2c1,0,1.8,0.8,1.8,1.8v18.2
		C692.9,54.1,692.1,54.9,691.1,54.9z"/>
	<line class="st7" x1="682" y1="33.1" x2="682" y2="54.9"/>
	<line class="st7" x1="692.9" y1="44" x2="682" y2="44"/>
</g>
<g>
	<path class="st7" d="M610.1,16.8h-18.2c-1,0-1.8-0.8-1.8-1.8V-3.2c0-1,0.8-1.8,1.8-1.8h18.2c1,0,1.8,0.8,1.8,1.8v18.2
		C611.9,16,611,16.8,610.1,16.8z"/>
	<line class="st7" x1="601" y1="-5" x2="601" y2="16.8"/>
	<line class="st7" x1="611.9" y1="5.9" x2="601" y2="5.9"/>
</g>
<g>
	<path class="st7" d="M788.9,16.8h-18.2c-1,0-1.8-0.8-1.8-1.8V-3.2c0-1,0.8-1.8,1.8-1.8h18.2c1,0,1.8,0.8,1.8,1.8v18.2
		C790.7,16,789.9,16.8,788.9,16.8z"/>
	<line class="st7" x1="779.8" y1="-5" x2="779.8" y2="16.8"/>
	<line class="st7" x1="790.7" y1="5.9" x2="779.8" y2="5.9"/>
</g>
<g>
	<path class="st7" d="M740.6,30.8h-36.4c-2,0-3.6-1.6-3.6-3.6V-9.3c0-2,1.6-3.6,3.6-3.6h36.4c2,0,3.6,1.6,3.6,3.6v36.4
		C744.2,29.2,742.6,30.8,740.6,30.8z"/>
	<line class="st7" x1="722.4" y1="-12.8" x2="722.4" y2="30.8"/>
	<line class="st7" x1="744.2" y1="9" x2="722.4" y2="9"/>
</g>
<g>
	<path class="st7" d="M803.1,91.3h-36.4c-2,0-3.6-1.6-3.6-3.6V51.3c0-2,1.6-3.6,3.6-3.6h36.4c2,0,3.6,1.6,3.6,3.6v36.4
		C806.6,89.7,805,91.3,803.1,91.3z"/>
	<line class="st7" x1="784.8" y1="47.7" x2="784.8" y2="91.3"/>
	<line class="st7" x1="806.6" y1="69.5" x2="784.8" y2="69.5"/>
</g>
</svg>
