<?xml version="1.0" encoding="utf-8"?>
<!-- Generator: Adobe Illustrator 28.2.0, SVG Export Plug-In . SVG Version: 6.00 Build 0)  -->
<svg version="1.1" id="Layer_1" xmlns="http://www.w3.org/2000/svg" xmlns:xlink="http://www.w3.org/1999/xlink" x="0px" y="0px"
	 viewBox="0 0 800 150" style="enable-background:new 0 0 800 150;" xml:space="preserve">
<style type="text/css">
	.st0{display:none;}
	.st1{display:inline;}
	.st2{fill:none;stroke:#343A40;stroke-linecap:round;stroke-linejoin:round;stroke-miterlimit:10;}
	.st3{display:inline;fill:none;stroke:#343A40;stroke-linecap:round;stroke-linejoin:round;stroke-miterlimit:10;}
	.st4{fill:#343A40;}
	.st5{fill:none;stroke:#FFFFFF;stroke-linecap:round;stroke-linejoin:round;stroke-miterlimit:10;}
	.st6{display:inline;fill:none;stroke:#343A40;stroke-miterlimit:10;}
	.st7{fill:none;stroke:#000000;stroke-linecap:round;stroke-linejoin:round;stroke-miterlimit:10;}
</style>
<g id="Layer_1_00000118369827956766027660000013242552178929419658_" class="st0">
	<g class="st1">
		<path class="st2" d="M154.2,74.2h-18.4c-7.2,0-13-5.8-13-13V42.8c0-7.2,5.8-13,13-13h18.4c7.2,0,13,5.8,13,13v18.4
			C167.3,68.4,161.4,74.2,154.2,74.2z"/>
		<path class="st2" d="M343.2,74.2h-18.4c-7.2,0-13-5.8-13-13V42.8c0-7.2,5.8-13,13-13h18.4c7.2,0,13,5.8,13,13v18.4
			C356.3,68.4,350.4,74.2,343.2,74.2z"/>
		<path class="st2" d="M248.7,74.2h-18.4c-7.2,0-13-5.8-13-13V42.8c0-7.2,5.8-13,13-13h18.4c7.2,0,13,5.8,13,13v18.4
			C261.8,68.4,255.9,74.2,248.7,74.2z"/>
	</g>
	<line class="st3" x1="167.3" y1="52.2" x2="217.3" y2="52.2"/>
	<line class="st3" x1="261.8" y1="52.2" x2="311.8" y2="52.2"/>
	<g class="st1">
		<g>
			<path class="st4" d="M443.7,59.7c0-1.5-0.8-2.3-2.2-2.3l0,0c-1.6,0-1.1,0.5-4.5,1.3c-3.4,0.8-7.6,0.6-11.3,2.1
				c-11,4.6-13.2,20.4-23.3,26.1c-7.5,4.2-15,4.6-21.8,6.7c-4.5,1.4-9.4,4.3-13.4,7.8c-3.1,2.7-3.2,5.1-6.5,8.5
				c-3.5,3.6-14,0.1-18.7,5.6c1.5,1.5,2.2,2,5.2,1.6c-0.6,1.2-4.3,2.2-3.6,3.9c0.8,1.8,9.6,3.1,17.7-1.8c3.8-2.3,6.7-5.5,12.6-6.3
				c7.6-1,16.3,0.7,25,1.9c-1.3,3.9-3.9,6.4-6,9.5c-0.6,0.7,1.3,0.8,3.5,0.3c4-1,6.9-1.8,9.9-3.5c3.7-2.2,4.3-7.7,8.8-8.9
				c2.5,3.9,9.4,4.8,13.7,1.7c-3.8-1.1-4.8-9-3.5-12.6c1.2-3.3,2.4-8.7,3.6-13c1.3-4.7,1.8-10.7,3.3-13.1c2.4-3.6,5-4.9,7.2-6.9
				C441.7,66.3,443.8,64.4,443.7,59.7z M425.6,113.8c-2.5,0.6-6.7-0.4-7.8-2.1c0.6-2.5,3.5-4.8,4.9-6.3l0,0l0,0l0,0
				C422.9,107.8,424.4,112.6,425.6,113.8z M437,69c-2.1,1.5-4.5,2.9-6,5.3c-1.5,2.4-2.5,10.6-4.9,18.7c-2.1,7-5.2,13.9-10.6,16.9
				c-0.6-1.4,0.1-4.1-1.1-4.9c-0.7,2.1-1.6,4.1-2.5,5.9c-3.2,6.1-7.9,10.7-15.8,12.1c3.7-5.1,7.3-10.3,7.4-19
				c-2.6,0.6-2.6,6.8-5.3,8.5c-1.7,0.2-3.5,0.2-5.3,0.1c-7.3-0.4-14.7-2.6-21.5-0.4c-4.6,1.5-8.4,5-12.3,6.7c-4.6,2-8.1,2.8-13.8,2
				l0,0c-0.7-1,4.2-2.2,3.9-4.4c-2.2-0.2-3.5,0.3-5.5-0.6c0.2-0.4,0.5-0.7,0.9-1c3.6-2.5,13.7-0.6,16.5-3.2c1.7-1.7,2.8-3.4,3.9-5.1
				c1.1-1.6,2.2-3.2,4-4.6c0.7-0.6,1.4-1.1,2.1-1.6c3-2,6.6-3.9,10.2-5.1c4.9-1.7,9.9-1.9,15.1-3.9c3.2-1.2,6.8-2.8,9.6-4.9
				c0.7-0.5,1.3-1.1,1.9-1.6c8.2-8,9.8-22.1,22.6-23.4c1.5-0.2,2.8-0.1,4-0.1c1.3,0,2.5-0.2,3.8-0.9c0.4,1.3,1,1.9,3.5,2.1
				C441.5,65.5,439.4,67.3,437,69z"/>
			<path class="st4" d="M426.4,66.5c1.8,1.6,5.6,0.3,4.9-2.8C428.5,63.5,426.9,64.4,426.4,66.5z M439,62.9c-0.5,1-1.4,2.3-1.4,4.9
				c0,0.4-0.3,0.7-0.3,0.1c0-2.5,0.7-3.6,1.4-5C439,62.2,439.2,62.4,439,62.9L439,62.9z"/>
			<path class="st4" d="M438.5,62.5c-0.6,1-1.9,2.7-2.2,5.3c0,0.4-0.4,0.7-0.3,0c0.2-2.5,1.3-4.1,2.2-5.4
				C438.6,61.8,438.7,62.1,438.5,62.5z M438.1,62c-0.6,0.9-2.8,3-3.2,5.6c-0.1,0.4-0.5,0.7-0.4,0c0.5-2.5,2.3-4.4,3.2-5.7
				C438.2,61.3,438.3,61.6,438.1,62z M437.7,61.4c-0.8,0.8-3.3,3.5-4.1,6c-0.1,0.4-0.5,0.6-0.3-0.1c0.8-2.4,3-5,4.1-6.1
				C437.9,60.8,438,61.1,437.7,61.4z"/>
		</g>
	</g>
	<g class="st1">
		<ellipse class="st2" cx="65.6" cy="20.5" rx="26.6" ry="6.3"/>
		<path class="st2" d="M39,20.5v29.2c0,3.5,11.9,6.3,26.6,6.3s26.6-2.8,26.6-6.3V20.5"/>
	</g>
	<path class="st3" d="M65.6,35.7c14.7,0,26.6-2.8,26.6-6.3"/>
	<circle class="st3" cx="49.2" cy="34.9" r="3.4"/>
	<g class="st1">
		<path class="st2" d="M84.8,54.1c4.6,1.1,7.3,2.7,7.3,4.3c0,3.5-11.9,6.3-26.6,6.3S39,61.9,39,58.5c0-1.7,2.8-3.2,7.3-4.3"/>
		<path class="st2" d="M39,58.5v29.2c0,3.5,11.9,6.3,26.6,6.3s26.6-2.8,26.6-6.3V58.5"/>
	</g>
	<path class="st3" d="M65.6,73.6c14.7,0,26.6-2.8,26.6-6.3"/>
	<circle class="st3" cx="49.2" cy="72.8" r="3.4"/>
	<g class="st1">
		<g>
			<ellipse class="st2" cx="717.8" cy="43.1" rx="26.6" ry="6.3"/>
			<path class="st2" d="M691.2,43.1v29.2c0,3.5,11.9,6.3,26.6,6.3s26.6-2.8,26.6-6.3V43.1"/>
		</g>
		<path class="st2" d="M717.8,58.3c14.7,0,26.6-2.8,26.6-6.3"/>
		<circle class="st2" cx="701.3" cy="57.5" r="3.4"/>
		<g>
			<path class="st2" d="M737,76.7c4.5,1.1,7.3,2.7,7.3,4.3c0,3.5-11.9,6.3-26.6,6.3s-26.6-2.8-26.6-6.3c0-1.7,2.8-3.2,7.3-4.3"/>
			<path class="st2" d="M691.2,81v29.2c0,3.5,11.9,6.3,26.6,6.3s26.6-2.8,26.6-6.3V81"/>
		</g>
		<path class="st2" d="M717.8,96.2c14.7,0,26.6-2.8,26.6-6.3"/>
		<circle class="st2" cx="701.3" cy="95.4" r="3.4"/>
	</g>
	<g class="st1">
		<path class="st2" d="M84.8,92.4c4.6,1.1,7.3,2.7,7.3,4.3c0,3.5-11.9,6.3-26.6,6.3S39,100.2,39,96.7c0-1.7,2.8-3.2,7.3-4.3"/>
		<path class="st2" d="M39,96.7V126c0,3.5,11.9,6.3,26.6,6.3s26.6-2.8,26.6-6.3V96.7"/>
	</g>
	<path class="st3" d="M65.6,111.9c14.7,0,26.6-2.8,26.6-6.3"/>
	<circle class="st3" cx="49.2" cy="111.1" r="3.4"/>
	<g class="st1">
		<line class="st5" x1="97.2" y1="73.2" x2="108.1" y2="73.2"/>
		<line class="st5" x1="102.7" y1="67.8" x2="102.7" y2="78.7"/>
	</g>
	<g class="st1">
		<line class="st2" x1="186.8" y1="91.2" x2="197.7" y2="91.2"/>
		<line class="st2" x1="192.3" y1="85.7" x2="192.3" y2="96.6"/>
	</g>
	<g class="st1">
		<line class="st2" x1="619" y1="76.7" x2="629.9" y2="76.7"/>
		<line class="st2" x1="624.5" y1="71.2" x2="624.5" y2="82.2"/>
	</g>
	<g class="st1">
		<line class="st2" x1="644.2" y1="76.7" x2="655.2" y2="76.7"/>
		<line class="st2" x1="649.7" y1="71.2" x2="649.7" y2="82.2"/>
	</g>
	<g class="st1">
		<path class="st2" d="M666.3,237h-77.1c-4.7,0-8.5-3.8-8.5-8.5V178c0-4.7,3.8-8.5,8.5-8.5h77.1c4.7,0,8.5,3.8,8.5,8.5v50.5
			C674.8,233.2,671,237,666.3,237z"/>
		<line class="st2" x1="580.7" y1="183.1" x2="674.8" y2="183.1"/>
		<g>
			<rect x="588.6" y="193.5" class="st2" width="35.2" height="32.6"/>
			<line class="st2" x1="631.1" y1="193.5" x2="667" y2="193.5"/>
			<line class="st2" x1="631.1" y1="200.1" x2="667" y2="200.1"/>
			<line class="st2" x1="631.1" y1="206.6" x2="657.2" y2="206.6"/>
			<line class="st2" x1="631.1" y1="213.1" x2="667" y2="213.1"/>
			<line class="st2" x1="631.1" y1="219.7" x2="667" y2="219.7"/>
			<line class="st2" x1="631.1" y1="226.2" x2="657.2" y2="226.2"/>
		</g>
	</g>
	<g class="st1">
		<path class="st2" d="M532.3,200.9h-77.1c-4.7,0-8.5-3.8-8.5-8.5v-50.5c0-4.7,3.8-8.5,8.5-8.5h77.1c4.7,0,8.5,3.8,8.5,8.5v50.5
			C540.8,197.1,537,200.9,532.3,200.9z"/>
		<line class="st2" x1="446.7" y1="147" x2="540.8" y2="147"/>
		<g>
			<rect x="454.6" y="157.4" class="st2" width="35.2" height="32.6"/>
			<line class="st2" x1="497.1" y1="157.4" x2="532.9" y2="157.4"/>
			<line class="st2" x1="497.1" y1="164" x2="532.9" y2="164"/>
			<line class="st2" x1="497.1" y1="170.5" x2="523.2" y2="170.5"/>
			<line class="st2" x1="497.1" y1="177.1" x2="532.9" y2="177.1"/>
			<line class="st2" x1="497.1" y1="183.6" x2="532.9" y2="183.6"/>
			<line class="st2" x1="497.1" y1="190.1" x2="523.2" y2="190.1"/>
		</g>
	</g>
	<path class="st3" d="M579.9,12.9h-34.2c-2.7,0-5,2.2-5,5v17.5c0,2.7,2.2,5,5,5h5.2l4.3,8.9l4.3-8.9h20.3c2.7,0,5-2.2,5-5V17.8
		C584.9,15.1,582.7,12.9,579.9,12.9z"/>
	<g class="st1">
		<line class="st2" x1="547.8" y1="20.4" x2="577.8" y2="20.4"/>
		<line class="st2" x1="547.8" y1="26.5" x2="577.8" y2="26.5"/>
		<line class="st2" x1="547.8" y1="32.8" x2="569.2" y2="32.8"/>
	</g>
	<path class="st3" d="M569.5,24.4h34.2c2.7,0,5,2.2,5,5v17.5c0,2.7-2.2,5-5,5h-5.2l-4.3,8.9l-4.3-8.9h-20.3c-2.7,0-5-2.2-5-5V29.4
		C564.5,26.6,566.8,24.4,569.5,24.4z"/>
	<g class="st1">
		<line class="st2" x1="571.6" y1="31.9" x2="601.6" y2="31.9"/>
		<line class="st2" x1="571.6" y1="38" x2="601.6" y2="38"/>
		<line class="st2" x1="571.6" y1="44.3" x2="593" y2="44.3"/>
	</g>
	<g class="st1">
		<g>
			<path class="st2" d="M271,195.8v-4.5c0-2.1-1.7-3.8-3.8-3.8h-26.4c-2.1,0-3.8,1.7-3.8,3.8v13.5c0,2.1,1.7,3.8,3.8,3.8h4l3.4,6.9
				l3.4-6.9h3.8"/>
			<g>
				<line class="st2" x1="242.4" y1="193.3" x2="265.5" y2="193.3"/>
				<line class="st2" x1="242.4" y1="198" x2="255.6" y2="198"/>
				<line class="st2" x1="242.4" y1="202.9" x2="255.3" y2="202.9"/>
			</g>
			<path class="st2" d="M259.1,195.8h26.4c2.1,0,3.8,1.7,3.8,3.8v13.5c0,2.1-1.7,3.8-3.8,3.8h-4l-3.4,6.9l-3.4-6.9h-15.7
				c-2.1,0-3.8-1.7-3.8-3.8v-13.5C255.3,197.5,257,195.8,259.1,195.8z"/>
			<g>
				<line class="st2" x1="260.7" y1="201.6" x2="283.9" y2="201.6"/>
				<line class="st2" x1="260.7" y1="206.3" x2="283.9" y2="206.3"/>
				<line class="st2" x1="260.7" y1="211.2" x2="277.2" y2="211.2"/>
			</g>
		</g>
		<path class="st2" d="M287.5,238.6h-48.8c-4.7,0-8.5-3.8-8.5-8.5v-48.8c0-4.7,3.8-8.5,8.5-8.5h48.8c4.7,0,8.5,3.8,8.5,8.5v48.8
			C296,234.8,292.2,238.6,287.5,238.6z"/>
		<line class="st2" x1="230.2" y1="181.3" x2="221.8" y2="181.3"/>
		<line class="st2" x1="230.2" y1="199.6" x2="221.8" y2="199.6"/>
		<line class="st2" x1="230.2" y1="193.5" x2="221.8" y2="193.5"/>
		<line class="st2" x1="230.2" y1="187.4" x2="221.8" y2="187.4"/>
		<line class="st2" x1="230.2" y1="205.7" x2="221.8" y2="205.7"/>
		<line class="st2" x1="230.2" y1="217.9" x2="221.8" y2="217.9"/>
		<line class="st2" x1="230.2" y1="224" x2="221.8" y2="224"/>
		<line class="st2" x1="230.2" y1="211.8" x2="221.8" y2="211.8"/>
		<line class="st2" x1="230.2" y1="230.1" x2="221.8" y2="230.1"/>
		<g>
			<line class="st2" x1="304.5" y1="181.3" x2="296" y2="181.3"/>
			<line class="st2" x1="304.5" y1="199.6" x2="296" y2="199.6"/>
			<line class="st2" x1="304.5" y1="193.5" x2="296" y2="193.5"/>
			<line class="st2" x1="304.5" y1="187.4" x2="296" y2="187.4"/>
			<line class="st2" x1="304.5" y1="205.7" x2="296" y2="205.7"/>
			<line class="st2" x1="304.5" y1="217.9" x2="296" y2="217.9"/>
			<line class="st2" x1="304.5" y1="224" x2="296" y2="224"/>
			<line class="st2" x1="304.5" y1="211.8" x2="296" y2="211.8"/>
			<line class="st2" x1="304.5" y1="230.1" x2="296" y2="230.1"/>
		</g>
		<g>
			<line class="st2" x1="238.7" y1="164.3" x2="238.7" y2="172.8"/>
			<line class="st2" x1="257" y1="164.3" x2="257" y2="172.8"/>
			<line class="st2" x1="250.9" y1="164.3" x2="250.9" y2="172.8"/>
			<line class="st2" x1="244.8" y1="164.3" x2="244.8" y2="172.8"/>
			<line class="st2" x1="263.1" y1="164.3" x2="263.1" y2="172.8"/>
			<line class="st2" x1="275.3" y1="164.3" x2="275.3" y2="172.8"/>
			<line class="st2" x1="281.4" y1="164.3" x2="281.4" y2="172.8"/>
			<line class="st2" x1="269.2" y1="164.3" x2="269.2" y2="172.8"/>
			<line class="st2" x1="287.5" y1="164.3" x2="287.5" y2="172.8"/>
		</g>
		<g>
			<line class="st2" x1="238.7" y1="238.6" x2="238.7" y2="247"/>
			<line class="st2" x1="257" y1="238.6" x2="257" y2="247"/>
			<line class="st2" x1="250.9" y1="238.6" x2="250.9" y2="247"/>
			<line class="st2" x1="244.8" y1="238.6" x2="244.8" y2="247"/>
			<line class="st2" x1="263.1" y1="238.6" x2="263.1" y2="247"/>
			<line class="st2" x1="275.3" y1="238.6" x2="275.3" y2="247"/>
			<line class="st2" x1="281.4" y1="238.6" x2="281.4" y2="247"/>
			<line class="st2" x1="269.2" y1="238.6" x2="269.2" y2="247"/>
			<line class="st2" x1="287.5" y1="238.6" x2="287.5" y2="247"/>
		</g>
	</g>
	<g class="st1">
		<path class="st2" d="M170.2,223c0,10.5-8.5,19-19,19s-19-8.5-19-19"/>
		<path class="st2" d="M151.2,184.1c-7.2,0-13,5.8-13,13V223c0,7.2,5.8,13,13,13s13-5.8,13-13v-25.9
			C164.2,190,158.4,184.1,151.2,184.1z"/>
		<g>
			<circle class="st2" cx="151.2" cy="220.4" r="3.4"/>
			<line class="st2" x1="147.7" y1="220.4" x2="138.1" y2="220.4"/>
			<line class="st2" x1="154.6" y1="220.4" x2="164.2" y2="220.4"/>
		</g>
		<line class="st2" x1="164.2" y1="197.7" x2="156.5" y2="197.7"/>
		<line class="st2" x1="164.2" y1="203.3" x2="156.5" y2="203.3"/>
		<line class="st2" x1="164.2" y1="208.9" x2="156.5" y2="208.9"/>
		<line class="st2" x1="145.9" y1="197.7" x2="138.1" y2="197.7"/>
		<line class="st2" x1="145.9" y1="203.3" x2="138.1" y2="203.3"/>
		<line class="st2" x1="145.9" y1="208.9" x2="138.1" y2="208.9"/>
		<line class="st2" x1="151.2" y1="242.1" x2="151.2" y2="251.3"/>
		<line class="st2" x1="138.1" y1="251.4" x2="164.2" y2="251.4"/>
	</g>
	<path class="st3" d="M108.1,161.8c7.2,0,7.2,10.9,14.3,10.9c7.2,0,7.2-10.9,14.3-10.9c7.2,0,7.2,10.9,14.4,10.9
		c7.2,0,7.2-10.9,14.4-10.9c7.2,0,7.2,10.9,14.4,10.9c7.2,0,7.2-10.9,14.4-10.9"/>
	<path class="st6" d="M516.4,47.7c-1.6-1.4-3.4-2.5-5.2-3.6c-2.5-1.5-5.8-2.6-8.3-0.5c-1.1,0.9-1.7,2.3-2.6,3.4
		c-1.8,2.2-4.5,3.3-7.2,4.1c-4.4,1.4-10,2.7-11.7,7.5c-0.6,1.5-0.6,3.3,0,4.8c0.7,1.7,2.2,2.9,3.8,3.6c1.6,0.7,3.5,0.9,5.3,0.8
		c4.3-0.2,8.4-1.9,12.7-2.6c3.6-0.6,7.2,0.7,10.7,0.2c3-0.3,5.7-2.2,7.1-4.8c0.8-1.6,1.1-3.5,0.8-5.3c-0.4-2-1.5-3.8-2.9-5.3
		C518.1,49.2,517.3,48.4,516.4,47.7z"/>
</g>
<g>
	<path class="st7" d="M19.9,199.7c2.4-5.2,5.7-12.2,9.3-13.5c16-2.9,20.5-5.1,28.9-11.4c8.4-6.3,15.5-14.7,19.3-24.5
		c7.1-18.4,8.6-37.3,3-54.1c-1.3-3.9-0.2-7.6,0.5-10.3c-3.2,3.4-8.1,4.5-12.6,5.8c-22.1,6.5-40.1,23.8-48.7,45.1
		c-4,9.9-4.4,20.3-1.7,30.6c1.4,5.1,2.1,8.8,3.7,13.8c0.4,1.3,0.8,2.8,0.2,4.5c-1.2,3.5-3.8,8.8-5.6,11.9
		C17.5,198.4,18.6,199,19.9,199.7z"/>
	<path class="st7" d="M29.3,186.2c-0.6-4.7,0.1-10,2.7-14c-2.5,4-6.4,8-9.8,11.4"/>
	<path class="st7" d="M76.5,93.8c-15.6,27.4-26.9,47.5-42.4,74.9"/>
	<path class="st7" d="M23.7,184.4c0.9,0.2,1.8,0.8,2.4,1.5"/>
	<path class="st7" d="M52.5,102.6c1,6.2,2.3,12.4,3.7,18.6"/>
	<path class="st7" d="M78.9,125c-7.3,4.4-14.9,8.4-22.7,11.9"/>
	<path class="st7" d="M69.8,156.2c-9.2,4.7-19.4,7.5-29.8,8.3"/>
	<path class="st7" d="M29.9,125.8c1,9.6,3.4,19,7.1,27.9"/>
</g>
<g>
	<path class="st7" d="M112.8,104.5c5.5-1.4,13.1-3.3,16.4-1.2c12.3,10.6,16.9,12.7,27.1,15.3c10.2,2.6,21.2,2.8,31.2-0.5
		c18.8-6.1,34.4-16.7,43.9-31.7c2.2-3.5,5.8-5,8.3-6.1c-4.7-0.3-8.6-3.5-12.5-6.2c-18.9-13.1-43.7-16.2-65.7-9.5
		c-10.2,3.1-18.6,9.3-24.8,18c-3.1,4.3-5.5,7.2-8.4,11.6c-0.7,1.1-1.7,2.4-3.4,3c-3.5,1.3-9.2,2.5-12.8,3.1
		C112.3,101.8,112.5,103.1,112.8,104.5z"/>
	<path class="st7" d="M129.1,103.3c3.3-3.4,7.8-6.2,12.6-6.7c-4.7,0.6-10.3,0-15-0.4"/>
	<path class="st7" d="M230.7,81.9c-31.1,5.1-53.8,9-84.9,14.1"/>
	<path class="st7" d="M127.1,97.8c0.4,0.9,0.5,1.9,0.4,2.9"/>
	<path class="st7" d="M208.7,68.8c-4.2,4.7-8.2,9.6-12.1,14.6"/>
	<path class="st7" d="M207.9,103.4c-8-2.9-15.9-6.3-23.6-10.1"/>
	<path class="st7" d="M178,115.9c-9.5-4.2-18.1-10.4-25.1-17.9"/>
	<path class="st7" d="M176.6,65.8c-6.9,6.8-12.7,14.6-17.2,23.1"/>
</g>
<g>
	<path class="st7" d="M-2.7,92.7c1.8-5.4,4.5-12.7,8-14.3c15.6-4.4,20-7.1,27.7-14.2S47,48,49.8,37.9c5.3-19,5-37.9-2.2-54.2
		c-1.7-3.8-1-7.6-0.5-10.3c-2.9,3.7-7.7,5.3-12,7C13.7-10.9-2.5,8-9,30.1c-3,10.2-2.5,20.6,1.3,30.6c1.9,4.9,3,8.5,5,13.4
		c0.5,1.2,1.1,2.8,0.6,4.5c-0.9,3.6-3,9.1-4.4,12.4C-5.2,91.6-4.1,92.1-2.7,92.7z"/>
	<path class="st7" d="M5.3,78.4c-1-4.6-0.8-10,1.3-14.2C4.5,68.4,0.9,72.8-2,76.5"/>
	<path class="st7" d="M43.5-18.1C30.6,10.6,21.3,31.7,8.4,60.4"/>
	<path class="st7" d="M-0.4,77.1c1,0.1,1.9,0.6,2.6,1.3"/>
	<path class="st7" d="M20.4-7.1c1.6,6.1,3.5,12.1,5.5,18.1"/>
	<path class="st7" d="M48.9,12.7c-6.9,5.1-14,9.8-21.4,14.1"/>
	<path class="st7" d="M42.8,44.6c-8.7,5.6-18.6,9.4-28.8,11.1"/>
	<path class="st7" d="M0.2,18.1c1.9,9.5,5.2,18.6,9.7,27.1"/>
</g>
<g>
	<path class="st7" d="M517.7,41.7c-5.5-1.5-13-3.7-14.8-7.1c-5.3-15.4-8.3-19.5-15.8-26.8c-7.5-7.3-17-13-27.2-15.2
		c-19.3-4.2-38.1-2.8-53.9,5.5c-3.7,1.9-7.5,1.4-10.2,1.1c3.9,2.6,5.7,7.3,7.7,11.6c9.8,20.8,29.7,35.9,52.1,41.1
		c10.4,2.4,20.8,1.2,30.5-3.1c4.8-2.1,8.3-3.5,13.1-5.8c1.2-0.6,2.7-1.2,4.4-0.9c3.6,0.7,9.2,2.4,12.6,3.7
		C516.8,44.3,517.2,43.1,517.7,41.7z"/>
	<path class="st7" d="M503,34.6c-4.6,1.3-9.9,1.4-14.2-0.4c4.4,1.9,8.9,5.1,12.8,7.9"/>
	<path class="st7" d="M404.3,2.2c29.5,11.1,51.1,19.2,80.5,30.3"/>
	<path class="st7" d="M502,40.4c0.1-1,0.5-1.9,1.1-2.7"/>
	<path class="st7" d="M416.8,24.6c6-2,11.9-4.2,17.8-6.5"/>
	<path class="st7" d="M434.8-5c5.5,6.6,10.6,13.4,15.3,20.6"/>
	<path class="st7" d="M467-0.8c6.1,8.4,10.5,18,12.8,28.1"/>
	<path class="st7" d="M443.1,43.3c9.3-2.4,18.3-6.3,26.5-11.3"/>
</g>
<g>
	<path class="st7" d="M681.2,110.6c-2.1-5.3-4.7-12.6-3.1-16.1c9.2-13.4,10.7-18.2,12.1-28.7s0.4-21.4-4-31
		c-8.2-18-20.5-32.3-36.5-40.1c-3.7-1.8-5.6-5.2-7-7.6c0.2,4.7-2.5,9-4.7,13.1c-10.9,20.3-11.2,45.2-2,66.3
		c4.3,9.8,11.4,17.4,20.6,22.6c4.6,2.6,7.7,4.6,12.4,7.1c1.2,0.6,2.6,1.4,3.4,3c1.6,3.3,3.6,8.9,4.6,12.3
		C678.6,111.4,679.8,111,681.2,110.6z"/>
	<path class="st7" d="M678.1,94.5c-3.7-2.9-7-7.1-8.1-11.7c1.1,4.6,1.2,10.2,1.3,15"/>
	<path class="st7" d="M645.4-4c8.6,30.3,15,52.4,23.6,82.8"/>
	<path class="st7" d="M672.9,97.2c0.8-0.5,1.8-0.7,2.8-0.7"/>
	<path class="st7" d="M634.8,19.3c5.2,3.6,10.5,7.1,15.8,10.4"/>
	<path class="st7" d="M669.3,16.2c-2,8.3-4.5,16.5-7.4,24.5"/>
	<path class="st7" d="M685.2,44.5c-3.1,9.9-8.2,19.1-15,27"/>
	<path class="st7" d="M635.5,51.6c7.5,6,15.9,11,24.9,14.5"/>
</g>
<g>
	<path class="st7" d="M358.4,112.6c-4.5-3.5-10.6-8.3-11-12.2c0.8-16.2-0.3-21.2-4.6-30.8S332,51.2,323.3,45.3
		c-16.3-11.1-34.3-16.9-52-15.2c-4.1,0.4-7.5-1.5-9.9-2.8c2.6,3.9,2.5,8.9,2.8,13.6c1.3,23,14,44.4,32.9,57.7
		c8.7,6.1,18.8,8.9,29.4,8.6c5.3-0.2,9-0.1,14.3-0.5c1.3-0.1,2.9-0.1,4.5,0.8c3.1,2,7.7,5.7,10.3,8.1
		C356.6,114.6,357.4,113.7,358.4,112.6z"/>
	<path class="st7" d="M347.4,100.4c-4.7-0.5-9.7-2.4-13-5.8c3.3,3.4,6.3,8.1,8.9,12.1"/>
	<path class="st7" d="M268.1,33.4c23.1,21.4,40.1,36.9,63.3,58.3"/>
	<path class="st7" d="M344.3,105.4c0.4-0.9,1.2-1.6,2-2"/>
	<path class="st7" d="M271.3,58.8c6.3,0.4,12.6,0.6,18.9,0.6"/>
	<path class="st7" d="M299.1,38.2c2.6,8.1,4.8,16.4,6.5,24.8"/>
	<path class="st7" d="M327.3,54.1c2.5,10.1,2.9,20.6,1.3,30.8"/>
	<path class="st7" d="M288.7,86c9.6,1.3,19.3,1.1,28.8-0.6"/>
</g>
<g>
	<path class="st7" d="M469.7,113.9c5.6-1.2,13.2-2.8,16.4-0.6c11.9,11.1,16.4,13.4,26.5,16.4c10.1,3,21.1,3.6,31.2,0.8
		c19-5.3,35-15.4,45.2-30c2.4-3.4,6-4.8,8.5-5.7c-4.7-0.5-8.5-3.8-12.2-6.7c-18.4-13.8-43-17.9-65.3-12c-10.3,2.7-18.9,8.6-25.5,17
		c-3.3,4.1-5.8,7-8.9,11.2c-0.8,1.1-1.8,2.3-3.5,2.9c-3.5,1.1-9.3,2.2-12.9,2.6C469.3,111.2,469.5,112.4,469.7,113.9z"/>
	<path class="st7" d="M486.1,113.3c3.4-3.3,8.1-5.9,12.8-6.2c-4.7,0.4-10.3-0.4-15-1"/>
	<path class="st7" d="M588.5,95.9c-31.3,3.9-54.1,6.8-85.4,10.8"/>
	<path class="st7" d="M484.3,107.7c0.4,0.9,0.5,1.9,0.3,2.9"/>
	<path class="st7" d="M567,81.9c-4.4,4.6-8.6,9.3-12.7,14.1"/>
	<path class="st7" d="M564.9,116.5c-7.9-3.2-15.6-6.9-23.1-11"/>
	<path class="st7" d="M534.5,127.8c-9.3-4.6-17.6-11.1-24.4-18.9"/>
	<path class="st7" d="M535,77.7c-7.1,6.5-13.3,14.1-18.1,22.4"/>
</g>
<g>
	<path class="st7" d="M751.1,119.2c4.1-3.9,9.8-9.2,13.7-9c15.9,3.3,21,2.9,31.1,0.1c10.1-2.7,19.9-7.9,27-15.6
		c13.4-14.5,21.9-31.4,22.9-49.1c0.3-4.1,2.6-7.2,4.3-9.3c-4.3,2-9.2,1.2-13.9,0.7c-22.9-2.2-46,7.1-62,23.8
		c-7.4,7.7-11.7,17.2-12.9,27.8c-0.6,5.2-1.3,8.9-1.7,14.2c-0.1,1.3-0.3,2.9-1.5,4.3c-2.4,2.8-6.8,6.7-9.6,9
		C749.4,117.1,750.2,118,751.1,119.2z"/>
	<path class="st7" d="M764.8,110.1c1.2-4.6,3.8-9.2,7.7-12c-3.8,2.8-9,5-13.3,7"/>
	<path class="st7" d="M843,41.9c-24.6,19.6-42.6,34.1-67.2,53.7"/>
	<path class="st7" d="M760.3,106.3c0.8,0.6,1.4,1.4,1.7,2.3"/>
	<path class="st7" d="M817.4,41.2c-1.3,6.2-2.5,12.4-3.5,18.6"/>
	<path class="st7" d="M833.6,71.8c-8.4,1.4-17,2.2-25.5,2.7"/>
	<path class="st7" d="M813.6,97.3c-10.3,0.9-20.8-0.2-30.7-3.4"/>
	<path class="st7" d="M787.9,54.2c-2.7,9.3-4,18.9-3.8,28.6"/>
</g>
<g>
	<path class="st7" d="M386.4,128.8c2.6-3.1,6.2-7.3,8.9-7.5c11.4,1,15,0.3,21.9-2.4c6.9-2.7,13.3-7.2,17.7-13.1
		c8.3-11.2,12.8-23.8,12.1-36.4c-0.1-2.9,1.3-5.2,2.3-6.9c-2.8,1.7-6.4,1.6-9.7,1.6c-16.3,0.3-31.8,8.7-41.6,21.7
		c-4.5,6-6.8,13-6.8,20.5c0,3.7-0.2,6.4-0.1,10.1c0,0.9,0,2.1-0.7,3.1c-1.5,2.2-4.2,5.3-6,7.1C385,127.4,385.7,128,386.4,128.8z"/>
	<path class="st7" d="M395.3,121.3c0.5-3.3,2-6.8,4.4-9.1c-2.5,2.3-5.9,4.3-8.8,6"/>
	<path class="st7" d="M444.8,67.1c-15.7,15.8-27.2,27.4-42.9,43.1"/>
	<path class="st7" d="M391.8,119c0.6,0.3,1.1,0.9,1.4,1.5"/>
	<path class="st7" d="M426.7,68.6c-0.4,4.4-0.8,8.9-0.9,13.4"/>
	<path class="st7" d="M440.6,88.8c-5.8,1.6-11.7,2.9-17.7,3.9"/>
	<path class="st7" d="M428.6,108.4c-7.2,1.5-14.6,1.5-21.8,0.1"/>
	<path class="st7" d="M407,80.2c-1.1,6.7-1.3,13.6-0.4,20.4"/>
</g>
<g>
	<path class="st7" d="M685,148.2c-3.9-1-9.2-2.5-10.5-4.9c-4-10.8-6.1-13.7-11.5-18.7c-5.4-5.1-12.2-9-19.4-10.4
		c-13.7-2.7-27-1.5-38,4.6c-2.6,1.4-5.3,1.1-7.2,0.9c2.8,1.8,4.1,5.1,5.6,8.1c7.2,14.6,21.4,25,37.4,28.4c7.4,1.6,14.7,0.6,21.5-2.6
		c3.4-1.6,5.9-2.6,9.2-4.3c0.8-0.4,1.9-0.9,3.1-0.7c2.6,0.4,6.6,1.6,9,2.4C684.4,150,684.6,149.2,685,148.2z"/>
	<path class="st7" d="M674.4,143.3c-3.2,1-7,1.1-10.1-0.1c3.1,1.3,6.4,3.5,9.1,5.4"/>
	<path class="st7" d="M604.3,121.7c21,7.5,36.3,12.9,57.3,20.4"/>
	<path class="st7" d="M673.9,147.4c0.1-0.7,0.3-1.4,0.7-1.9"/>
	<path class="st7" d="M613.4,137.4c4.2-1.5,8.4-3.1,12.5-4.8"/>
	<path class="st7" d="M625.8,116.2c4,4.6,7.7,9.3,11.1,14.3"/>
	<path class="st7" d="M648.6,118.7c4.4,5.9,7.6,12.6,9.4,19.7"/>
	<path class="st7" d="M632.3,150.2c6.6-1.8,12.8-4.7,18.6-8.4"/>
</g>
<g>
	<path class="st7" d="M532.7,58.5c3.5-2,8.3-4.7,10.9-3.9c10.4,5,13.9,5.6,21.3,5.4c7.4-0.1,15-2,21.2-6.1
		c11.7-7.6,20.4-17.8,24.1-29.8c0.9-2.8,3-4.5,4.5-5.7c-3.3,0.6-6.5-0.8-9.7-1.9c-15.3-5.4-32.8-3-46.6,5.7c-6.4,4-11,9.8-13.6,16.8
		c-1.3,3.5-2.4,5.9-3.6,9.4c-0.3,0.9-0.7,2-1.8,2.7c-2.1,1.5-5.8,3.4-8.1,4.5C531.8,56.7,532.3,57.5,532.7,58.5z"/>
	<path class="st7" d="M543.6,54.6c1.6-2.9,4.2-5.7,7.3-6.9c-3.1,1.3-7,1.9-10.3,2.5"/>
	<path class="st7" d="M609,21.3c-20.3,9.2-35.1,16.1-55.3,25.3"/>
	<path class="st7" d="M541.2,51.3c0.4,0.5,0.7,1.2,0.8,1.9"/>
	<path class="st7" d="M591.6,16.4c-2,4-3.8,8.1-5.6,12.2"/>
	<path class="st7" d="M597.4,40.1c-6-0.5-12-1.4-17.9-2.6"/>
	<path class="st7" d="M579.3,54.2c-7.2-1.1-14.2-3.7-20.5-7.6"/>
	<path class="st7" d="M569.1,20.3c-3.4,5.9-6,12.3-7.5,18.9"/>
</g>
<g>
	<path class="st7" d="M751.1-32.8c-1.1,3.9-2.6,9.2-5,10.5c-10.8,3.8-13.8,5.9-18.9,11.2s-9.2,12-10.7,19.3c-2.9,13.6-1.9,27,4,38.1
		c1.3,2.6,1,5.3,0.8,7.2c1.9-2.8,5.2-4.1,8.2-5.5c14.7-7,25.3-21.1,28.9-36.9c1.7-7.3,0.8-14.7-2.3-21.5c-1.5-3.4-2.5-5.9-4.1-9.2
		c-0.4-0.9-0.9-1.9-0.7-3.1c0.5-2.6,1.7-6.5,2.6-8.9C752.9-32.2,752-32.5,751.1-32.8z"/>
	<path class="st7" d="M746-22.4c0.9,3.2,1,7-0.3,10.1c1.3-3.1,3.6-6.3,5.5-9.1"/>
	<path class="st7" d="M723.4,47.4c7.8-20.9,13.4-36.1,21.2-57"/>
	<path class="st7" d="M750.1-21.7c-0.7-0.1-1.3-0.3-1.9-0.8"/>
	<path class="st7" d="M739.2,38.6c-1.4-4.2-3-8.4-4.7-12.5"/>
	<path class="st7" d="M718.2,25.9c4.6-3.9,9.5-7.5,14.5-10.9"/>
	<path class="st7" d="M721.1,3.2c5.9-4.3,12.7-7.4,19.8-9.1"/>
	<path class="st7" d="M752.3,19.9c-1.7-6.6-4.5-12.9-8.1-18.7"/>
</g>
<g>
	<path class="st7" d="M157.7,37.8c-4,0.4-9.5,0.8-11.5-1.1c-7.3-8.8-10.3-10.9-17.1-13.8c-6.8-3-14.5-4.4-21.8-3.3
		c-13.8,2-25.9,7.6-34.3,17c-2,2.2-4.6,2.8-6.5,3.3c3.2,0.8,5.6,3.4,8,5.8c11.7,11.3,28.6,16.4,44.7,14.3c7.5-1,14-4.3,19.4-9.6
		c2.7-2.6,4.7-4.4,7.2-7.1c0.7-0.7,1.5-1.5,2.7-1.7c2.6-0.5,6.7-0.7,9.3-0.7C157.8,39.7,157.7,38.8,157.7,37.8z"/>
	<path class="st7" d="M146.2,36.7c-2.7,2-6.2,3.4-9.5,3.2c3.4,0.2,7.2,1.2,10.4,2"/>
	<path class="st7" d="M72.9,39.7c22.3,0.1,38.6,0,60.8,0.1"/>
	<path class="st7" d="M147,40.8c-0.2-0.7-0.2-1.4,0.1-2"/>
	<path class="st7" d="M86.7,51.4c3.5-2.8,6.9-5.7,10.1-8.7"/>
	<path class="st7" d="M91.3,27.4c5.3,3,10.3,6.3,15.2,9.8"/>
	<path class="st7" d="M113.6,22.2c6.1,4,11.4,9.3,15.4,15.4"/>
	<path class="st7" d="M108.7,57.3c5.6-3.9,10.6-8.7,14.7-14.1"/>
</g>
<g>
	<path class="st7" d="M223.2,125.2c4,0.7,9.4,1.7,10.9,4c4.9,10.4,7.2,13.1,13,17.7s12.9,7.9,20.2,8.8c13.9,1.5,27-0.8,37.5-7.7
		c2.5-1.6,5.2-1.5,7.1-1.5c-2.9-1.6-4.5-4.7-6.3-7.6c-8.4-13.9-23.4-23.1-39.6-25.2c-7.5-0.9-14.7,0.6-21.2,4.4
		c-3.2,1.9-5.6,3-8.8,5c-0.8,0.5-1.8,1.1-3.1,1c-2.6-0.2-6.7-1-9.1-1.7C223.7,123.4,223.5,124.2,223.2,125.2z"/>
	<path class="st7" d="M234.1,129.2c3.1-1.2,6.8-1.7,10-0.7c-3.2-1-6.6-3-9.6-4.6"/>
	<path class="st7" d="M305.8,144.9c-21.5-5.7-37.3-9.8-58.8-15.5"/>
	<path class="st7" d="M234.4,125.1c0,0.7-0.2,1.4-0.6,1.9"/>
	<path class="st7" d="M295.4,130.1c-4.1,1.8-8.1,3.8-12,5.9"/>
	<path class="st7" d="M284.9,152.2c-4.3-4.2-8.4-8.7-12.2-13.4"/>
	<path class="st7" d="M261.9,151.5c-4.9-5.5-8.6-11.9-11-18.9"/>
	<path class="st7" d="M275.6,118.8c-6.4,2.4-12.4,5.7-17.8,9.9"/>
</g>
<g>
	<path class="st7" d="M239.2,8c-1.7,2.1-4,5-5.8,5.2c-7.7-0.4-10,0.1-14.6,2.1s-8.8,5.1-11.6,9.2c-5.3,7.7-8,16.2-7.3,24.6
		c0.2,1.9-0.7,3.5-1.4,4.7c1.9-1.2,4.2-1.2,6.5-1.3c10.9-0.6,21.1-6.6,27.3-15.5c2.9-4.1,4.3-8.9,4.1-13.9c-0.1-2.5,0-4.3-0.2-6.8
		c0-0.6-0.1-1.4,0.4-2.1c0.9-1.5,2.7-3.6,3.9-4.9C240.2,8.9,239.7,8.5,239.2,8z"/>
	<path class="st7" d="M202.7,49.5c10.2-10.9,20.6-22.3,30.8-33.2"/>
	<path class="st7" d="M235.8,14.7c-0.4-0.2-0.7-0.6-1-1"/>
	<path class="st7" d="M213.7,48.1c0.2-3,0.2-4.1,0.3-7.1"/>
	<path class="st7" d="M204.8,35.7c3.9-1.2,5.8-1.7,9.7-2.5"/>
	<path class="st7" d="M212.7,22.4c4.8-1.2,8-1.5,12.9-0.8"/>
	<path class="st7" d="M226.7,39.9c0.6-4.5,0.5-7.2-0.2-11.7"/>
</g>
<g>
	<path class="st7" d="M361.5,17.1c1.3,2.3,3.1,5.6,2.6,7.3c-3.3,6.9-3.7,9.3-3.7,14.3c0.1,5,1.3,10,4.1,14.2
		c5.1,7.8,11.9,13.7,19.9,16.2c1.9,0.6,3,2,3.8,3c-0.4-2.2,0.5-4.4,1.3-6.5c3.7-10.3,2-22-3.8-31.2c-2.7-4.3-6.6-7.3-11.3-9.1
		c-2.3-0.9-4-1.6-6.3-2.4c-0.6-0.2-1.3-0.5-1.8-1.2c-1-1.4-2.3-3.9-3-5.4C362.7,16.6,362.1,16.8,361.5,17.1z"/>
	<path class="st7" d="M385.7,66.8c-6.2-13.6-12.7-27.6-18.9-41.2"/>
	<path class="st7" d="M366.3,22.8c-0.4,0.3-0.8,0.5-1.3,0.5"/>
	<path class="st7" d="M388.7,56.1c-2.7-1.3-3.7-1.8-6.5-3"/>
	<path class="st7" d="M373.8,59.6c0.3-4,0.6-6,1.4-9.9"/>
	<path class="st7" d="M364.5,47.1c0.8-4.8,1.7-8,4.2-12.2"/>
	<path class="st7" d="M386.1,40.9c-3.9-2.3-6.5-3.3-10.9-4.3"/>
</g>
<g>
	<path class="st7" d="M339.1-29.7c-0.7,2.6-1.8,6.1-3.4,7c-7.3,2.5-9.2,3.9-12.7,7.5s-6.2,8-7.2,12.9c-2,9.1-1.3,18.1,2.6,25.5
		c0.9,1.7,0.7,3.6,0.5,4.8c1.3-1.8,3.5-2.7,5.5-3.7c9.9-4.7,17-14.1,19.5-24.7c1.1-4.9,0.6-9.8-1.5-14.4c-1-2.3-1.6-3.9-2.7-6.2
		c-0.3-0.6-0.6-1.3-0.4-2.1c0.3-1.7,1.1-4.4,1.7-6C340.3-29.3,339.7-29.5,339.1-29.7z"/>
	<path class="st7" d="M321,22.5c5.3-14,10.6-28.5,15.9-42.4"/>
	<path class="st7" d="M338.5-22.3c-0.5,0-0.9-0.2-1.3-0.5"/>
	<path class="st7" d="M330.6,17.1c-0.9-2.8-1.3-3.9-2.5-6.7"/>
	<path class="st7" d="M317.7,9c3.1-2.6,4.7-3.8,8-6"/>
	<path class="st7" d="M320-6.4c4-2.9,6.8-4.5,11.6-5.6"/>
	<path class="st7" d="M339.5,4.5c-1.1-4.4-2.3-6.9-4.7-10.8"/>
</g>
<g>
	<path class="st7" d="M450.1,119.7c-0.7,2.6-1.8,6.1-3.4,7c-7.3,2.5-9.2,3.9-12.7,7.5s-6.2,8-7.2,12.9c-2,9.1-1.3,18.1,2.6,25.5
		c0.9,1.7,0.7,3.6,0.5,4.8c1.3-1.8,3.5-2.7,5.5-3.7c9.9-4.7,17-14.1,19.5-24.7c1.1-4.9,0.6-9.8-1.5-14.4c-1-2.3-1.6-3.9-2.7-6.2
		c-0.3-0.6-0.6-1.3-0.4-2.1c0.3-1.7,1.1-4.4,1.7-6C451.3,120.2,450.7,120,450.1,119.7z"/>
	<path class="st7" d="M432,171.9c5.3-14,10.6-28.5,15.9-42.4"/>
	<path class="st7" d="M449.4,127.2c-0.5,0-0.9-0.2-1.3-0.5"/>
	<path class="st7" d="M441.6,166.5c-0.9-2.8-1.3-3.9-2.5-6.7"/>
	<path class="st7" d="M428.7,158.4c3.1-2.6,4.7-3.8,8-6"/>
	<path class="st7" d="M431,143c4-2.9,6.8-4.5,11.6-5.6"/>
	<path class="st7" d="M450.5,153.9c-1.1-4.4-2.3-6.9-4.7-10.8"/>
</g>
<g>
	<path class="st7" d="M546.5-35.3c-0.7,2.6-1.8,6.1-3.4,7c-7.3,2.5-9.2,3.9-12.7,7.5c-3.5,3.6-6.2,8-7.2,12.9
		c-2,9.1-1.3,18.1,2.6,25.5c0.9,1.7,0.7,3.6,0.5,4.8c1.3-1.8,3.5-2.7,5.5-3.7c9.9-4.7,17-14.1,19.5-24.7c1.1-4.9,0.6-9.8-1.5-14.4
		c-1-2.3-1.6-3.9-2.7-6.2c-0.3-0.6-0.6-1.3-0.4-2.1c0.3-1.7,1.1-4.4,1.7-6C547.7-34.8,547.1-35,546.5-35.3z"/>
	<path class="st7" d="M528.3,16.9c5.3-14,10.6-28.5,15.9-42.4"/>
	<path class="st7" d="M545.8-27.8c-0.5,0-0.9-0.2-1.3-0.5"/>
	<path class="st7" d="M538,11.5c-0.9-2.8-1.3-3.9-2.5-6.7"/>
	<path class="st7" d="M525.1,3.4c3.1-2.6,4.7-3.8,8-6"/>
	<path class="st7" d="M527.3-12c4-2.9,6.8-4.5,11.6-5.6"/>
	<path class="st7" d="M546.9-1.1c-1.1-4.4-2.3-6.9-4.7-10.8"/>
</g>
<g>
	<path class="st7" d="M193.9,127.3c-0.7,2.6-1.8,6.1-3.4,7c-7.3,2.5-9.2,3.9-12.7,7.5s-6.2,8-7.2,12.9c-2,9.1-1.3,18.1,2.6,25.5
		c0.9,1.7,0.7,3.6,0.5,4.8c1.3-1.8,3.5-2.7,5.5-3.7c9.9-4.7,17-14.1,19.5-24.7c1.1-4.9,0.6-9.8-1.5-14.4c-1-2.3-1.6-3.9-2.7-6.2
		c-0.3-0.6-0.6-1.3-0.4-2.1c0.3-1.7,1.1-4.4,1.7-6C195.1,127.7,194.5,127.5,193.9,127.3z"/>
	<path class="st7" d="M175.8,179.4c5.3-14,10.6-28.5,15.9-42.4"/>
	<path class="st7" d="M193.3,134.7c-0.5,0-0.9-0.2-1.3-0.5"/>
	<path class="st7" d="M185.4,174.1c-0.9-2.8-1.3-3.9-2.5-6.7"/>
	<path class="st7" d="M172.5,166c3.1-2.6,4.7-3.8,8-6"/>
	<path class="st7" d="M174.8,150.6c4-2.9,6.8-4.5,11.6-5.6"/>
	<path class="st7" d="M194.3,161.5c-1.1-4.4-2.3-6.9-4.7-10.8"/>
</g>
<g>
	<path class="st7" d="M150.2-26.7c1.4,2.3,3.3,5.5,2.8,7.2c-3.1,7-3.5,9.4-3.2,14.4s1.6,10,4.5,14.1c5.3,7.7,12.3,13.3,20.4,15.6
		c1.9,0.5,3.1,1.9,3.9,2.9c-0.5-2.2,0.4-4.4,1.1-6.5c3.3-10.4,1.4-22-4.7-31.1c-2.8-4.2-6.8-7.1-11.5-8.8c-2.4-0.8-4-1.5-6.4-2.2
		c-0.6-0.2-1.3-0.4-1.8-1.1c-1-1.4-2.4-3.8-3.2-5.4C151.3-27.3,150.8-27,150.2-26.7z"/>
	<path class="st7" d="M175.9,22.2C169.3,8.8,162.4-5,155.8-18.4"/>
	<path class="st7" d="M155.2-21.1c-0.3,0.3-0.8,0.5-1.2,0.6"/>
	<path class="st7" d="M178.6,11.5c-2.7-1.2-3.8-1.7-6.5-2.8"/>
	<path class="st7" d="M163.8,15.4c0.2-4,0.4-6,1.1-10"/>
	<path class="st7" d="M154.1,3.2c0.6-4.9,1.4-8,3.9-12.3"/>
	<path class="st7" d="M175.5-3.6c-4-2.2-6.6-3.1-11-4"/>
</g>
<g>
	<path class="st7" d="M730.6,75.5c-0.7,2.6-1.8,6.1-3.4,7c-7.3,2.5-9.2,3.9-12.7,7.5c-3.5,3.6-6.2,8-7.2,12.9
		c-2,9.1-1.3,18.1,2.6,25.5c0.9,1.7,0.7,3.6,0.5,4.8c1.3-1.8,3.5-2.7,5.5-3.7c9.9-4.7,17-14.1,19.5-24.7c1.1-4.9,0.6-9.8-1.5-14.4
		c-1-2.3-1.6-3.9-2.7-6.2c-0.3-0.6-0.6-1.3-0.4-2.1c0.3-1.7,1.1-4.4,1.7-6C731.8,76,731.3,75.8,730.6,75.5z"/>
	<path class="st7" d="M712.5,127.7c5.3-14,10.6-28.5,15.9-42.4"/>
	<path class="st7" d="M730,83c-0.5,0-0.9-0.2-1.3-0.5"/>
	<path class="st7" d="M722.2,122.3c-0.9-2.8-1.3-3.9-2.5-6.7"/>
	<path class="st7" d="M709.2,114.2c3.1-2.6,4.7-3.8,8-6"/>
	<path class="st7" d="M711.5,98.8c4-2.9,6.8-4.5,11.6-5.6"/>
	<path class="st7" d="M731,109.7c-1.1-4.4-2.3-6.9-4.7-10.8"/>
</g>
</svg>
