<?xml version="1.0" encoding="utf-8"?>
<!-- Generator: Adobe Illustrator 24.1.1, SVG Export Plug-In . SVG Version: 6.00 Build 0)  -->
<svg version="1.1" xmlns="http://www.w3.org/2000/svg" xmlns:xlink="http://www.w3.org/1999/xlink" x="0px" y="0px"
	 viewBox="0 0 800 150" style="enable-background:new 0 0 800 150;" xml:space="preserve">
<style type="text/css">
	.st0{display:none;}
	.st1{display:inline;fill:none;stroke:#ADADAD;stroke-width:3;stroke-miterlimit:10;}
	.st2{fill:none;stroke:#343A40;stroke-linecap:round;stroke-linejoin:round;stroke-miterlimit:10;}
</style>
<g id="Layer_3" class="st0">
	<path class="st1" d="M611.47,83.41v4.96l-0.36,1.3c-0.07,0.24-0.13,0.48-0.21,0.71v0.01c-1.49,5.03-3.91,8.76-7.35,11.32
		c-1.72,1.28-3.69,2.26-5.94,2.96c-1.82,0.58-3.82,0.96-6.01,1.17l-0.11,0.01c-0.93,0.08-1.85,0.14-2.75,0.19
		c-2.77,0.15-5.38,0.17-7.49,0.17c-1.33,0-2.66-0.01-3.99-0.02c-1.27-0.01-2.55-0.02-3.82-0.02c-0.57,0-1.15,0-1.72,0.01
		c-0.79,0-1.58,0.02-2.37,0.04c-0.18,0-0.36,0.01-0.54,0.01c-4.47,0-7.3-1.97-8.89-3.61c-0.45-0.48-0.92-1.06-1.37-1.75
		c-4.01,2.75-8.89,4.5-14.38,4.98c-1.87,0.16-3.71,0.25-5.44,0.29h-0.01c-1.34,0.03-2.62,0.04-3.8,0.04c-0.94,0-1.88-0.01-2.83-0.01
		c-0.9-0.01-1.81-0.01-2.71-0.01c-1.34,0-2.46,0.01-3.47,0.04c-0.21,0-0.41,0-0.61,0.01c-0.16,0.01-0.35,0.01-0.54,0.01
		c-2.79,0-5.27-0.81-7.27-2.22c-0.8,0.58-1.68,1.07-2.63,1.43c-1.41,0.56-2.98,0.86-4.66,0.86h-2.73c-0.98,0-3.14,0-5.47-0.9
		c-1.86,0.55-3.74,0.92-5.6,1.09c-0.83,0.08-1.66,0.12-2.48,0.12c-3.8,0-7.39-0.83-10.61-2.39c-1.44,0.94-3.24,1.64-5.51,1.93
		c-0.13,0.02-0.27,0.04-0.4,0.05c-1.32,0.23-2.61,0.34-3.83,0.34c-1.25,0-2.44-0.12-3.58-0.35c-2.37-0.47-4.49-1.43-6.28-2.81
		c-1.68-1.29-3.07-2.94-4.12-4.89c-0.68,1.76-1.64,3.09-2.53,4c-1.64,1.7-4.59,3.72-9.36,3.74h-0.14c-0.54,0.01-1.02,0.02-1.46,0.02
		c-1.44,0-4.44-0.01-7.31-1.57c-0.88,0.49-1.84,0.87-2.85,1.13c-1.06,0.27-2.19,0.42-3.37,0.42h-1.53
		c-0.38,0.02-0.75,0.03-1.11,0.03h-0.13c-2.13-0.02-3.91-0.43-5.36-1.04c-2.77,0.8-5.52,1.21-8.2,1.21c-3.72,0-7.22-0.8-10.35-2.31
		c-0.93,0.63-2.08,1.2-3.46,1.57c-1.02,0.27-2.16,0.44-3.44,0.44c-0.36,0-0.74-0.02-1.12-0.04c-0.16,0-0.33,0.01-0.49,0.01
		c-6.37,0-10.26-1.78-12.63-6.1c-2.06,3.16-4.84,4.68-7.27,5.43c-1.94,0.61-3.66,0.71-4.62,0.77l-0.41,0.03h-0.57
		c-1.74,0-3.36-0.27-4.86-0.8c-2.78-0.96-5.1-2.79-6.78-5.36c-1.82,3.25-5.12,6.21-11.61,6.21c-0.56,0-1.21-0.02-1.97-0.04
		l-0.39-0.01c-3.34-0.1-5.73-1.12-7.42-2.37c-0.97-0.7-1.7-1.48-2.26-2.21c-2.22-2.91-2.84-6.47-1.85-10.59l0.06-0.21
		c0.29-1.1,0.58-2.19,0.86-3.25c0.47-1.79,0.92-3.53,1.36-5.22c0.2-0.77,0.4-1.54,0.6-2.29c-0.22,0.77-0.45,1.53-0.7,2.29
		c-0.08,0.29-0.18,0.58-0.27,0.87c-0.5,1.57-1.04,3.18-1.65,4.83c-2.36,6.46-5.7,13.34-11.33,19.31c-2.31,2.49-5.13,4.67-8.33,6.42
		l-0.25,0.13l-0.26,0.13c-0.67,0.31-1.55,0.69-2.6,0.96c-0.44,0.68-0.89,1.35-1.36,2c-2.31,3.26-4.9,6.09-7.75,8.5
		c-4.94,4.16-10.69,7.05-17.22,8.63c-0.65,0.22-1.4,0.39-2.22,0.48l-0.26,0.05c-0.77,0.15-1.95,0.37-3.34,0.37
		c-4.01,0-7.5-1.85-9.57-5.09l-0.12-0.19c-0.12-0.19-0.43-0.72-0.76-1.52c-0.81-2.03-1.67-5.75,0.56-9.63
		c-2.46-0.26-4.81-0.57-6.99-0.88c-0.8-0.11-1.56-0.2-2.3-0.28c-2.72-0.31-5.1-0.45-7.32-0.45c-1.13,0-2.24,0.04-3.29,0.12
		c-0.04,0-0.09,0.01-0.13,0.01c-1.57,0.11-3.15,0.51-4.89,1.24c-1.73,0.72-3.6,1.79-5.72,3.23c-5.21,3.52-11.03,6.72-18.37,10.09
		c-3.35,1.55-6.81,2.53-9.78,3.33l-1.27,0.34h-12.86l-2.96-4.55c-0.07-0.1-0.13-0.2-0.19-0.31c-1.15-1.87-1.78-3.92-1.89-6
		c-0.12-2.23,0.34-4.5,1.39-6.66l-4.14-1.83l-0.78-5.5c-0.17-1.17-0.17-2.11-0.17-2.61v-3.51l2.2-2.74c3.87-4.84,9.13-7.3,15.64-7.3
		h0.18c0.21,0,0.41,0.01,0.62,0.01c0.55,0.02,1.09,0.05,1.62,0.09h0.01c1.13,0.08,2.19,0.21,3.17,0.33
		c0.43,0.05,0.86,0.11,1.29,0.15l0.22,0.03c1.32,0.17,2.55,0.38,3.74,0.59c1.52,0.26,2.88,0.49,4.13,0.6
		c0.69-0.83,1.38-1.79,2.11-2.8c1.46-2,3.12-4.27,5.27-6.43c5.79-5.78,12.38-9.92,20.16-12.65c0.13-0.05,0.26-0.1,0.39-0.14
		c1.31-0.45,2.62-0.9,3.94-1.34c2.8-0.93,5.6-1.82,8.34-2.7c3.94-1.26,7.75-2.48,11.49-3.78c2.81-0.96,5.57-1.98,8.31-3.08
		c1.48-0.61,2.87-1.28,4.17-2.03c4.9-2.79,8.64-6.59,11.57-11.72l0.84-1.48c1.61-2.81,3.24-5.67,5.03-8.51
		c0.37-0.59,0.74-1.18,1.13-1.77c0.49-0.77,1.01-1.53,1.54-2.3c0.74-1.08,1.52-2.16,2.33-3.23l0.11-0.13
		c5.7-7.22,13.02-11.75,21.43-13.32c2.21-0.42,4.5-0.63,6.86-0.63l0.46,0.01c1.14,0,2.48-0.39,3.98-0.96
		c0.83-0.32,1.71-0.69,2.64-1.08c0.58-0.24,1.16-0.48,1.74-0.72l1.82-0.74h4.7l1.64,0.59c0.97,0.35,1.87,0.79,2.69,1.31
		c3.9,2.43,6.15,6.64,6.15,11.73c0,2.73-0.37,5.32-1.1,7.73c-0.8,2.73-2.07,5.25-3.77,7.49v0.01c-1.07,1.4-2.31,2.7-3.71,3.89
		l-0.08,0.06c-0.99,0.82-1.99,1.61-2.96,2.35c1.78-0.67,3.93-1.04,6.6-1.04h0.72c3.91,0,9.24,1.46,12.4,8.41
		c0.02,0.05,0.05,0.11,0.07,0.16c0.6,1.35,1.2,2.69,1.8,4.03c0.12,0.28,0.25,0.55,0.37,0.83c0.24-0.54,0.48-1.07,0.71-1.6
		c0.49-1.1,0.96-2.2,1.42-3.3c0.04-0.09,0.08-0.19,0.12-0.28c0.37-0.87,0.79-1.68,1.3-2.42c2.47-3.8,6.45-5.91,11.26-5.91
		c0.57,0,1.14,0.03,1.72,0.06c0.13,0.01,0.26,0.02,0.4,0.03c0.23-0.01,0.46-0.02,0.69-0.02c0.48,0,1.19,0.03,2.04,0.17l4.41,1.65
		c1.16,0.73,2.3,1.75,3.26,3.16c0.95,1.37,1.73,3.12,2.21,5.34l0.04,0.21c0.24,0.92,0.48,1.84,0.72,2.76
		c0.46-0.29,0.93-0.56,1.42-0.82c2.67-1.43,5.7-2.4,8.88-2.82c1.2-0.17,2.42-0.25,3.65-0.25c2.81,0,5.55,0.42,8.16,1.25
		c0.8-0.28,1.6-0.46,2.36-0.56l0.76-0.09c0.78-0.09,1.72-0.2,2.79-0.24c0.21-0.01,0.43-0.01,0.65-0.01c2.63,0,5.06,0.57,7.23,1.67
		c1.83-1.03,3.96-1.59,6.22-1.59c0.38,0,0.78,0.02,1.19,0.05h0.33c1.8,0,4.01,0,6.24,0.78c1.6-0.6,3.24-0.98,4.93-1.15
		c0.43-1.54,1.09-2.95,1.97-4.19c1.8-2.6,4.48-4.48,7.72-5.31c1.07-0.27,2.2-0.43,3.37-0.47h0.43c3.79,0,7.16,1.39,9.63,3.73
		c2.13,1.99,3.6,4.66,4.11,7.75c2.67-1.01,5.56-1.54,8.57-1.54c1.27,0,2.56,0.09,3.85,0.27c1.62,0.23,3.26,0.6,4.9,1.11
		c0.82-0.31,1.64-0.51,2.43-0.62c1.18-0.16,2.67-0.37,4.35-0.37c1.26,0,2.45,0.13,3.6,0.36c0.43-2.71,1.55-4.85,3.06-6.45
		c2.33-2.47,5.59-3.64,8.72-3.64c0.17,0,0.33,0,0.5,0.01c0.82,0.02,1.67,0.03,2.53,0.03c1.38,0,2.77-0.02,4.16-0.05
		c1.1-0.01,2.21-0.04,3.31-0.04c0.39-0.01,0.78-0.01,1.17-0.01c3.83,0,6.82,0.17,9.68,0.55c4.2,0.59,8.02,1.95,11.33,3.93h0.01
		c0.51,0.31,1,0.63,1.49,0.96c0.48-0.76,1.03-1.44,1.64-2.03c2.26-2.22,5.33-3.35,8.39-3.35h0.17c0.38,0.01,0.77,0.02,1.16,0.01
		h0.01c0.25,0.01,0.48,0.01,0.73,0.01c0.48,0,0.96,0,1.44-0.01c0.47,0,0.94-0.01,1.42-0.01h0.01c0.8-0.02,1.6-0.03,2.41-0.05
		c1.89-0.04,3.78-0.07,5.67-0.07c3.08,0,5.7,0.1,8.13,0.31c1.17,0.1,2.3,0.22,3.41,0.38c4.45,0.63,8.37,2.43,11.31,5.19
		c0.87,0.81,1.66,1.7,2.35,2.68c2,2.8,3.13,6.12,3.35,9.68c0.11,1.86-0.02,3.77-0.4,5.71c-0.19,0.95-0.47,1.98-0.88,3.03
		c1.05,1.86,1.9,4.07,2.42,6.7L611.47,83.41z"/>
</g>
<g id="Layer_1">
	<polygon class="st2" points="20.37,-8.59 52.01,9.68 55.3,-21.14 	"/>
	<polygon class="st2" points="-16.69,-10.53 7.56,24.33 20.37,-8.59 	"/>
	<polygon class="st2" points="75.39,-14.32 115.28,9.68 111,-18.86 	"/>
	<polygon class="st2" points="52.01,9.68 90.35,15.38 75.39,-14.32 	"/>
	<polygon class="st2" points="143.21,-10.15 178.55,9.68 175.42,-15.07 	"/>
	<polygon class="st2" points="115.28,9.68 154.95,28.88 143.21,-10.15 	"/>
	<polygon class="st2" points="204.97,-14.32 241.82,9.68 251.2,-12.8 	"/>
	<polygon class="st2" points="178.55,9.68 202.23,19.98 204.97,-14.32 	"/>
	<polygon class="st2" points="284.92,-11.29 305.09,9.68 316.75,-12.8 	"/>
	<polygon class="st2" points="241.82,9.68 264.41,18.81 284.92,-11.29 	"/>
	<polygon class="st2" points="333.04,-5.98 368.36,9.68 368.36,-26.85 	"/>
	<path class="st2" d="M329.51,18.75l-24.42-9.07l27.95-15.66l7.77,23.15"/>
	<polygon class="st2" points="400,-8.59 437.24,16.75 431.64,-26.85 	"/>
	<polygon class="st2" points="368.36,9.68 400,27.94 400,-8.59 	"/>
	<polygon class="st2" points="463.27,-8.59 494.91,9.68 494.91,-26.85 	"/>
	<polygon class="st2" points="437.24,16.75 468.58,17.33 463.27,-8.59 	"/>
	<polygon class="st2" points="526.54,-8.59 557.35,12.59 558.18,-26.85 	"/>
	<polygon class="st2" points="494.91,9.68 525.83,24.21 526.54,-8.59 	"/>
	<polygon class="st2" points="589.81,-8.59 622.14,18.65 621.45,-26.85 	"/>
	<polygon class="st2" points="557.35,12.59 583.11,29.26 589.81,-8.59 	"/>
	<polygon class="st2" points="653.08,-8.59 687.31,18.27 684.72,-26.85 	"/>
	<polygon class="st2" points="622.14,18.65 667.04,29.85 653.08,-8.59 	"/>
	<polygon class="st2" points="716.35,-8.59 747.99,9.68 747.99,-26.85 	"/>
	<polygon class="st2" points="687.31,18.27 732.02,16.37 716.35,-8.59 	"/>
	<polygon class="st2" points="779.63,-8.59 811.26,9.68 811.26,-26.85 	"/>
	<polygon class="st2" points="747.99,9.68 770.67,19.03 779.63,-8.59 	"/>
	<polygon class="st2" points="-12.52,51.61 16.66,73.97 7.56,24.33 	"/>
	<polygon class="st2" points="52.01,9.68 7.56,24.33 39.77,47.07 	"/>
	<polygon class="st2" points="39.77,47.07 79.75,53.43 90.35,15.38 	"/>
	<polygon class="st2" points="16.66,73.97 47.73,82.68 39.77,47.07 	"/>
	<polygon class="st2" points="115.28,9.68 90.35,15.38 121.99,40.85 	"/>
	<polygon class="st2" points="121.99,40.85 142.83,64.12 154.95,28.88 	"/>
	<polygon class="st2" points="79.75,53.43 121.99,70.18 121.99,40.85 	"/>
	<polygon class="st2" points="178.55,9.68 154.95,28.88 186.4,49.34 	"/>
	<polygon class="st2" points="186.4,49.34 215.4,47.56 202.23,19.98 	"/>
	<polygon class="st2" points="142.83,64.12 182.44,89.93 186.4,49.34 	"/>
	<polygon class="st2" points="241.82,9.68 202.23,19.98 238.97,38.98 	"/>
	<polygon class="st2" points="238.97,38.98 277.15,54.37 264.41,18.81 	"/>
	<polygon class="st2" points="215.4,47.56 249.59,59.91 238.97,38.98 	"/>
	<polygon class="st2" points="305.09,9.68 264.41,18.81 302.35,36.46 	"/>
	<path class="st2" d="M304.1,37.73l-1.75-1.27l3.29-1.03"/>
	<path class="st2" d="M285.53,61.21l-8.38-6.84l25.2-17.91l0.62,3.04"/>
	<path class="st2" d="M356.04,16.53l12.32-6.85l-2.85,29.3l-4.42-2.99"/>
	<polygon class="st2" points="403.51,53.13 396.6,50.56 392.19,48.91 365.51,38.98 400,27.94 	"/>
	<path class="st2" d="M357.32,43.49v-0.01l8.19-4.5l10.57,15.6"/>
	<polygon class="st2" points="437.24,16.75 400,27.94 428.78,38.98 	"/>
	<path class="st2" d="M459.61,54.06l-30.83-15.08l39.8-21.65l-1.25,31.42"/>
	<path class="st2" d="M413.13,58.39l-9.62-5.26l25.27-14.15l2.07,19.52"/>
	<polygon class="st2" points="494.91,9.68 468.58,17.33 494.91,46.21 	"/>
	<path class="st2" d="M515.63,52.52l-20.72-6.31l30.92-22l9.02,24.62"/>
	<path class="st2" d="M480.76,52.01l14.15-5.8l2.38,12.28"/>
	<polygon class="st2" points="557.35,12.59 525.83,24.21 572.14,48.12 	"/>
	<path class="st2" d="M572.14,48.12l10.97-18.86l6.6,19.81"/>
	<path class="st2" d="M560.17,52.23c-0.61,0.59-1.16,1.27-1.64,2.03c-0.49-0.33-0.98-0.65-1.49-0.96L560.17,52.23z"/>
	<path class="st2" d="M572.14,48.12"/>
	<polygon class="st2" points="622.14,18.65 583.11,29.26 628.96,42.9 	"/>
	<polygon class="st2" points="628.96,42.9 671.56,48.12 667.04,29.85 	"/>
	<path class="st2" d="M604.43,54.64l24.53-11.74l6.82,34.86L610.13,67"/>
	<polygon class="st2" points="687.31,18.27 667.04,29.85 704.74,30.39 	"/>
	<polygon class="st2" points="704.74,30.39 734.83,48.12 732.02,16.37 	"/>
	<polygon class="st2" points="671.56,48.12 699.06,59.57 704.74,30.39 	"/>
	<polygon class="st2" points="747.99,9.68 732.02,16.37 761.95,48.12 	"/>
	<polygon class="st2" points="761.95,48.12 788.1,54.64 770.67,19.03 	"/>
	<polygon class="st2" points="734.83,48.12 775.98,76.62 761.95,48.12 	"/>
	<polygon class="st2" points="811.26,9.68 770.67,19.03 811.26,46.21 	"/>
	<polygon class="st2" points="788.1,54.64 811.26,82.74 811.26,46.21 	"/>
	<polygon class="st2" points="16.66,73.97 -11.38,88.74 35.22,100.49 	"/>
	<polygon class="st2" points="35.22,100.49 68,121.03 47.73,82.68 	"/>
	<polygon class="st2" points="-11.38,100.87 20.37,137.53 35.22,100.49 	"/>
	<polygon class="st2" points="79.75,53.43 47.73,82.68 94.71,102.76 	"/>
	<polygon class="st2" points="94.71,102.76 125.4,108.45 121.99,70.18 	"/>
	<polygon class="st2" points="68,121.03 83.65,137.53 94.71,102.76 	"/>
	<polygon class="st2" points="142.83,64.12 121.99,70.18 152.3,98.6 	"/>
	<polygon class="st2" points="152.3,98.6 172.01,119.81 182.44,89.93 	"/>
	<polygon class="st2" points="125.4,108.45 138.28,127.39 152.3,98.6 	"/>
	<polygon class="st2" points="215.4,47.56 182.44,89.93 207.34,93.78 	"/>
	<path class="st2" d="M207.34,93.78l42.25-33.87l-0.7,14.37"/>
	<path class="st2" d="M192.23,124.51l-20.22-4.7l16.52-12.17"/>
	<path class="st2" d="M253.22,72.8l-3.63-12.89l27.56-5.54l-4.1,11.95"/>
	<path class="st2" d="M260.9,117.46l-0.23,15.24l-10.38-15.57"/>
	<path class="st2" d="M338.85,103.85l-4.97,26.46l-23.01-13.29"/>
	<path class="st2" d="M399.86,53.72l3.65-0.59l0.74,8.08c-0.49,0.26-0.96,0.53-1.42,0.82"/>
	<path class="st2" d="M435.94,105.8l0.67,6.24l-6.81-5.79"/>
	<path class="st2" d="M402.43,105.68l-5.28,24.63l-19.67-24.89"/>
	<path class="st2" d="M496.4,106.48l-1.49,12.78l-17.11-13.12"/>
	<path class="st2" d="M469.99,106.18l-6.72,31.35l-26.66-25.49l27.1-8.67"/>
	<path class="st2" d="M571.72,106.18l0.42,14.99l-33.41-15.03"/>
	<path class="st2" d="M525.91,106.2l12.11,36.35l-43.11-23.29l19.95-13.83"/>
	<path class="st2" d="M610.9,90.39v-0.01l24.88-12.62l-19.32,42.46l-12.91-18.51"/>
	<path class="st2" d="M597.61,104.67l-7.8,32.86l-17.67-16.36l16.6-15.13"/>
	<polygon class="st2" points="671.56,48.12 635.78,77.76 667.04,102.91 	"/>
	<polygon class="st2" points="667.04,102.91 698.68,121.17 699.06,59.57 	"/>
	<polygon class="st2" points="616.46,120.22 671.56,135.35 667.04,102.91 	"/>
	<polygon class="st2" points="734.83,48.12 699.06,59.57 730.31,102.91 	"/>
	<polygon class="st2" points="730.31,102.91 767.26,105.8 775.98,76.62 	"/>
	<polygon class="st2" points="698.68,121.17 716.35,137.53 730.31,102.91 	"/>
	<polygon class="st2" points="788.1,54.64 775.98,76.62 789.99,100.11 	"/>
	<polygon class="st2" points="789.99,100.11 811.26,119.26 811.26,82.74 	"/>
	<polygon class="st2" points="767.26,105.8 791.13,137.62 789.99,100.11 	"/>
	<polygon class="st2" points="-11.26,155.79 20.37,174.06 20.37,137.53 	"/>
	<polygon class="st2" points="68,121.03 20.37,137.53 52.01,155.79 	"/>
	<polygon class="st2" points="52.01,155.79 83.65,174.06 83.65,137.53 	"/>
	<polygon class="st2" points="125.4,108.45 83.65,137.53 109.49,158.84 	"/>
	<polygon class="st2" points="109.49,158.84 148.13,157.71 138.28,127.39 	"/>
	<polygon class="st2" points="172.01,119.81 138.28,127.39 170.11,158.08 	"/>
	<path class="st2" d="M200.52,135.37l9.67,38.69l-40.08-15.98l24.01-27.57"/>
	<path class="st2" d="M245.27,118.38l-13.02,45.39l-25.56-28.4"/>
	<polygon class="st2" points="232.25,163.77 278.48,160.74 260.67,132.7 	"/>
	<path class="st2" d="M303.12,125.52l1.97,30.27l-44.42-23.09l8.96-4.45"/>
	<polygon class="st2" points="305.09,155.79 341.75,158.84 333.88,130.31 	"/>
	<path class="st2" d="M371.95,106.22l-15.42,54.14l-22.65-30.05l33.14-24.89"/>
	<polygon class="st2" points="356.53,160.36 378.89,167.94 397.15,130.31 	"/>
	<polygon class="st2" points="436.61,112.04 397.15,130.31 431.64,155.79 	"/>
	<polygon class="st2" points="431.64,155.79 491.04,175.51 463.27,137.53 	"/>
	<polygon class="st2" points="494.91,119.26 463.27,137.53 494.91,155.79 	"/>
	<polygon class="st2" points="494.91,155.79 522.11,165.66 538.02,142.55 	"/>
	<polygon class="st2" points="572.14,121.17 538.02,142.55 555.45,166.8 	"/>
	<polygon class="st2" points="555.45,166.8 599.41,163.01 589.81,137.53 	"/>
	<polygon class="st2" points="616.46,120.22 589.81,137.53 621.45,155.79 	"/>
	<polygon class="st2" points="621.45,155.79 653.08,174.06 671.56,135.35 	"/>
	<polygon class="st2" points="698.68,121.17 671.56,135.35 684.72,155.79 	"/>
	<polygon class="st2" points="684.72,155.79 716.35,174.06 716.35,137.53 	"/>
	<polygon class="st2" points="767.26,105.8 716.35,137.53 747.99,155.79 	"/>
	<polygon class="st2" points="747.99,155.79 779.63,174.06 791.13,137.62 	"/>
	<polygon class="st2" points="811.26,119.26 791.13,137.62 811.26,155.79 	"/>
	<path class="st2" d="M198.53,107.91c3.76-4.7,8.73-3.56,13.63-3.02c3.56,0.47,6.98,1.34,10.61,1.34c2.28,0.07,3.76-0.87,5.24-2.48
		c2.82-3.09,4.84-6.78,7.79-9.74c4.77-4.77,10.27-8.19,16.72-10.41c10.81-3.76,21.89-6.78,32.57-11.08c9-3.69,15.85-9.6,20.68-18.06
		c3.16-5.51,6.25-11.08,10.14-16.18c5.31-6.72,12.16-10.21,20.68-10.14c4.5,0.07,8.39-1.88,12.36-3.49c0.34,0,0.67,0,1.01,0
		c1.68,0.6,2.22,1.95,2.22,3.63c0,4.57-1.54,8.53-5.04,11.48c-2.35,1.95-4.84,3.76-7.32,5.51c-3.42,2.42-5.51,5.57-6.51,9.67
		c-1.95,8.39-3.49,16.92-6.18,25.25c-2.35,7.39-5.24,14.51-10.74,20.35c-1.68,1.81-3.63,3.29-5.84,4.5c-1.28,0.6-1.95,0.6-1.75-1.07
		c0.13-1.28,0.13-2.55-0.13-3.89c-0.74,1.61-1.41,3.16-2.15,4.77c-4.97,10.07-12.29,17.19-23.5,19.74
		c-0.13,0.07-0.34,0.13-0.47,0.13c-1.28,0.13-3.02,0.81-3.63-0.13c-0.74-1.21,1.14-1.95,1.81-2.89c5.37-6.92,9.13-14.44,9.87-23.37
		c-0.81-0.07-0.74,0.6-0.87,0.94c-0.2,0.34-0.34,0.81-0.47,1.21c-0.74,2.01-1.34,4.03-2.48,5.84c-1.14,1.88-2.75,2.82-4.97,2.89
		c-5.78,0.13-11.55-0.54-17.19-1.34c-5.04-0.67-10.14-1.07-15.24-0.67c-5.78,0.4-10.81,3.02-15.45,6.18
		c-5.37,3.63-11.08,6.58-16.92,9.27c-2.62,1.21-5.44,2.01-8.19,2.75c-2.08,0-4.03,0-6.11,0c-0.87-1.34-0.47-2.62,0.27-3.76
		c1.07-1.61,2.15-3.22,3.29-4.77c0.6-0.81,1.21-1.61,0-2.35c-2.69-1.61-4.77-4.1-7.66-5.37
		C198.53,108.64,198.53,108.24,198.53,107.91z"/>
	<path class="st2" d="M601.47,87.02c-1.68,6.11-4.43,8.26-10.81,8.86c-7.19,0.6-14.44,0.13-21.62,0.34
		c-1.68,0.07-2.48-0.6-2.42-2.42c0.07-10.88,0.07-21.76,0-32.57c0-1.34,0.34-2.35,1.95-2.35c7.72,0.13,15.51-0.6,23.17,0.47
		c6.25,0.87,9.4,5.31,8.19,11.42c-0.54,2.69-2.15,4.5-5.24,5.71c4.3,1.34,6.04,4.23,6.78,7.92
		C601.47,85.34,601.47,86.21,601.47,87.02z M580.31,91.1c2.69,0,5.38,0.11,8.01-0.34c3.19-0.5,4.88-2.13,4.99-5.1
		c0.11-3.36-1.23-5.21-4.6-5.83c-4.76-0.84-9.58-0.22-14.4-0.34c-1.06-0.06-1.23,0.73-1.23,1.57c0,2.75,0.06,5.55,0,8.24
		c-0.06,1.29,0.45,1.79,1.74,1.74C576.61,91.04,578.46,91.1,580.31,91.1z M581.09,74.17c0-0.06,0-0.11,0-0.11
		c2.19,0,4.37,0.11,6.61-0.06c3.47-0.28,5.04-2.3,4.71-5.72c-0.28-2.63-1.96-4.04-5.27-4.15c-4.15-0.11-8.24-0.06-12.33-0.06
		c-1.12,0-1.74,0.34-1.74,1.57c0.06,2.3,0.06,4.54,0,6.84c-0.06,1.35,0.67,1.74,1.85,1.68C577,74.17,579.08,74.17,581.09,74.17z"/>
	<path class="st2" d="M357.76,71.37c-1.54,6.04-3.02,11.95-4.5,17.86c-0.2,0.87-0.4,1.61-0.6,2.48c-1.14,4.77-1.14,4.63-6.11,4.5
		c-2.22-0.07-2.55-0.87-2.08-2.82c2.42-9.13,4.77-18.2,7.05-27.4c0.27-1.01,0.54-1.95,0.81-2.95c1.07-4.43,1.07-4.3,5.57-4.3
		c1.95,0,2.62,1.07,3.29,2.55c3.36,7.59,6.85,15.18,10.27,22.77c0.27,0.6,0.34,1.34,1.34,1.81c1.68-3.69,3.29-7.39,4.97-11.08
		c2.08-4.63,4.3-9.27,6.25-13.97c1.28-3.02,3.76-1.95,5.91-2.08c2.08-0.13,2.15,1.61,2.48,2.95c2.75,10.54,5.44,21.09,8.19,31.56
		c0.6,2.22,0,3.02-2.22,2.82c-0.34-0.07-0.67,0-1.01,0c-3.96,0-3.96,0-4.84-3.76c-1.48-6.11-2.95-12.22-4.43-18.33
		c-0.2-0.81-0.27-1.68-0.94-2.42c-1.07,0.87-1.34,2.01-1.81,3.02c-2.89,6.31-5.84,12.63-8.53,19.07c-1.01,2.35-2.62,2.42-4.7,2.55
		c-2.08,0.07-3.22-0.67-4.03-2.62c-2.82-6.65-5.84-13.16-8.86-19.74C358.97,73.05,358.83,72.05,357.76,71.37z"/>
	<path class="st2" d="M427.06,71.58c0.67-1.01-0.13-2.62,1.48-2.82c1.88-0.2,3.89-0.6,5.71,0.34c0.67,0.34,0.54,1.21,0.54,1.81
		c0,7.66,0,15.24,0.07,22.97c0,1.61-0.67,2.35-2.28,2.35c-0.6,0-1.21,0-1.81,0c-2.08,0.13-3.83-0.07-3.49-2.95
		c-9.13,4.9-17.19,4.03-21.89-2.22c-4.16-5.44-3.83-13.77,0.47-18.67C409.74,68.08,419.47,65.87,427.06,71.58z M419,73.86
		c-5.1,0-8.6,3.42-8.53,8.39c0,5.1,3.56,8.66,8.66,8.66c5.04,0,8.39-3.29,8.39-8.46C427.53,77.15,424.24,73.86,419,73.86z"/>
	<path class="st2" d="M504.63,71.51c0.67-0.81-0.13-2.42,1.34-2.62c1.95-0.27,3.89-0.54,5.71,0.2c0.74,0.34,0.6,1.14,0.6,1.81
		c0,7.72,0,15.45,0,23.17c0,1.54-0.6,2.22-2.08,2.22c-0.67,0-1.34,0-2.08,0c-1.95,0-4.03,0.2-3.29-3.02
		c-8.26,4.97-16.65,4.3-21.56-1.48c-4.43-5.1-4.63-13.57-0.47-18.67C487.77,67.21,495.83,66.61,504.63,71.51z M496.64,73.86
		c-5.24-0.07-8.73,3.42-8.66,8.53c0.07,4.9,3.63,8.46,8.53,8.6c5.17,0.07,8.73-3.36,8.8-8.46
		C505.37,77.42,501.81,73.93,496.64,73.86z"/>
	<path class="st2" d="M522.36,77.35c0-5.24,0-10.54,0-15.78c0-1.54,0.2-2.75,2.15-2.69c6.65,0.2,13.3-0.47,19.88,0.4
		c10.07,1.41,16.32,8.86,15.98,18.8c-0.34,10.14-6.98,16.92-17.06,17.8c-6.11,0.54-12.22,0.13-18.33,0.34
		c-1.81,0.07-2.55-0.67-2.55-2.55C522.42,88.23,522.36,82.79,522.36,77.35z M529.17,77.31c0,3.7,0,7.39,0,11.09
		c0,0.95,0,2.03,1.25,2.03c4.59,0,9.18,0.66,13.77-0.42c6.2-1.49,9.24-6.56,8.76-14.13c-0.36-5.96-4.11-10.07-10.02-11.09
		c-3.87-0.66-7.81-0.24-11.74-0.42c-1.61-0.12-2.15,0.54-2.09,2.09C529.23,70.03,529.17,73.73,529.17,77.31z"/>
	<path class="st2" d="M450.77,72.72c3.22-3.49,6.72-5.31,11.35-4.3c1.01,0.2,2.35,0.27,1.88,1.75c-0.47,1.61-0.07,3.76-2.48,4.23
		c-0.6,0.13-1.14-0.07-1.81-0.13c-5.17-0.34-8.93,2.82-9.13,7.99c-0.13,3.63-0.13,7.32-0.07,10.95c0.07,2.08-0.67,3.02-2.89,3.02
		c-4.9,0.07-4.9,0.13-4.9-4.84c0-6.65,0.07-13.3-0.07-19.88c-0.07-2.28,0.81-3.16,3.02-2.89c0.27,0,0.54,0,0.81,0
		C450.3,68.62,450.3,68.62,450.77,72.72z"/>
	<path class="st2" d="M467.29,80.17c0-2.95,0.07-5.98-0.07-8.93c-0.07-2.08,0.81-2.82,2.75-2.62c0.27,0,0.54,0,0.81,0
		c4.3-0.07,4.3,0,4.3,4.16c0,4.84,0,9.67,0,14.51c0,1.34-0.07,2.42,1.81,3.09c1.61,0.6,1.41,2.89,1.41,4.5
		c0,1.34-1.34,1.28-2.35,1.41c-5.31,1.01-8.19-1.07-8.6-6.51C467.09,86.68,467.29,83.46,467.29,80.17L467.29,80.17z"/>
	<path class="st2" d="M470.98,58.28c2.42-0.07,4.03,1.48,4.1,3.76c0.07,2.22-1.68,4.03-4.03,4.03s-3.96-1.68-3.96-4.03
		C467.22,59.69,468.63,58.35,470.98,58.28z"/>
	<g>
	</g>
	<g>
	</g>
	<g>
	</g>
	<g>
	</g>
	<g>
	</g>
	<g>
	</g>
	<g>
	</g>
	<g>
	</g>
	<g>
	</g>
	<g>
	</g>
	<g>
	</g>
	<g>
	</g>
	<g>
	</g>
	<g>
	</g>
	<g>
	</g>
</g>
</svg>
