<svg xmlns="http://www.w3.org/2000/svg" viewBox="0 0 800 150"><style type="text/css">  
	.st0{fill:none;stroke:#000000;stroke-linecap:round;stroke-linejoin:round;stroke-miterlimit:10;}
</style><path class="st0" d="M452.4 65.6v6.4c-5-4.9-11.5-7.9-18.7-7.9 -15.5 0-28.1 13.9-28.1 31.1 0 17.2 12.6 31.1 28.1 31.1 7.2 0 13.7-3 18.7-7.9v6.8h14v-59.6H452.4z"/><path class="st0" d="M512.2 64.2c-7.1 0-13.6 3-18.5 7.8V22.1h-13.7v103.1h13.7v-6.8c4.9 4.9 11.4 7.8 18.5 7.8 15.4 0 27.9-13.9 27.9-31C540.1 78.1 527.6 64.2 512.2 64.2z"/><rect x="381.5" y="22.1" class="st0" width="13.7" height="103.1"/><circle class="st0" cx="340.3" cy="96.1" r="16.7"/><circle class="st0" cx="340.3" cy="96.1" r="31.8"/><line class="st0" x1="328.4" y1="107.9" x2="317.7" y2="118.6"/><line class="st0" x1="362.8" y1="73.7" x2="352.1" y2="84.3"/><line class="st0" x1="271.8" y1="71.2" x2="282.4" y2="82.2"/><path class="st0" d="M303.5 107.9c-3 3-7.2 4.9-11.8 4.9 -9.2 0-16.7-7.5-16.7-16.7s7.5-16.7 16.7-16.7c5.1 0 9.6 2.3 12.7 5.8l8.2-13.1 0 0c-5.6-4.8-12.9-7.8-20.9-7.8 -17.6 0-31.8 14.2-31.8 31.8s14.2 31.8 31.8 31.8c7.9 0 15.1-2.9 20.6-7.6L303.5 107.9z"/><line class="st0" x1="282.2" y1="109.8" x2="271.7" y2="120.8"/><path class="st0" d="M274.3 150.3l-39.7 22.9c-4.1 2.4-9.4 1-11.8-3.2v0c-2.4-4.1-0.9-9.4 3.2-11.8l39.7-22.9c4.1-2.4 9.4-0.9 11.8 3.2l0 0C279.8 142.6 278.4 147.9 274.3 150.3z"/><path class="st0" d="M462.6 41.6L442.6 53.1c-4.1 2.4-9.4 1-11.8-3.2v0c-2.4-4.1-0.9-9.4 3.2-11.8l20-11.5c4.1-2.4 9.4-0.9 11.8 3.2v0C468.1 33.9 466.7 39.2 462.6 41.6z"/><path class="st0" d="M535.1-0.3l-26.3 15.2c-4.1 2.4-9.4 1-11.8-3.2v0c-2.4-4.1-0.9-9.4 3.2-11.8l26.3-15.2c4.1-2.4 9.4-0.9 11.8 3.2l0 0C540.6-8 539.2-2.7 535.1-0.3z"/><path class="st0" d="M327.2 151.2l-34.1 19.7c-4.1 2.4-9.4 1-11.8-3.2v0c-2.4-4.1-0.9-9.4 3.2-11.8l34.1-19.7c4.1-2.4 9.4-0.9 11.8 3.2v0C332.7 143.6 331.3 148.9 327.2 151.2z"/><path class="st0" d="M542.2 27.1l-26.7 15.5c-4.1 2.4-9.4 1-11.8-3.2v0c-2.4-4.1-0.9-9.4 3.2-11.8l26.8-15.4c4.1-2.4 9.4-0.9 11.8 3.2l0 0C547.7 19.4 546.3 24.7 542.2 27.1z"/><path class="st0" d="M603.8-8.4l-36.2 20.9c-4.1 2.4-9.4 1-11.8-3.2v0c-2.4-4.1-0.9-9.4 3.2-11.8l36.3-20.9c4.1-2.4 9.4-0.9 11.8 3.2v0C609.3-16.1 607.9-10.8 603.8-8.4z"/><path class="st0" d="M191.2 135.3L132 169.4c-4.1 2.4-9.4 1-11.8-3.2l0 0c-2.4-4.1-0.9-9.4 3.2-11.8l59.2-34.2c4.1-2.4 9.4-0.9 11.8 3.2v0C196.7 127.6 195.3 132.9 191.2 135.3z"/><path class="st0" d="M246 103.6l-31.2 18c-4.1 2.4-9.4 1-11.8-3.2l0 0c-2.4-4.1-0.9-9.4 3.2-11.8l31.2-18c4.1-2.4 9.4-0.9 11.8 3.2l0 0C251.6 95.9 250.1 101.2 246 103.6z"/><path class="st0" d="M360.4 37.6l-35.8 20.7c-4.1 2.4-9.4 1-11.8-3.2v0c-2.4-4.1-0.9-9.4 3.2-11.8l35.8-20.7c4.1-2.4 9.4-0.9 11.8 3.2v0C365.9 29.9 364.5 35.2 360.4 37.6z"/><path class="st0" d="M432.9-4.3l-27 15.6c-4.1 2.4-9.4 1-11.8-3.2v0c-2.4-4.1-0.9-9.4 3.2-11.8l27-15.6c4.1-2.4 9.4-0.9 11.8 3.2v0C438.4-12 437-6.7 432.9-4.3z"/><path class="st0" d="M230.5 144l-40 23.1c-4.1 2.4-9.4 1-11.8-3.2v0c-2.4-4.1-0.9-9.4 3.2-11.8l40-23.1c4.1-2.4 9.4-0.9 11.8 3.2v0C236.1 136.4 234.7 141.7 230.5 144z"/><path class="st0" d="M253 131.1L253 131.1c-4.1 2.4-9.4 1-11.8-3.2v0c-2.4-4.1-0.9-9.4 3.2-11.8l0 0c4.1-2.4 9.4-0.9 11.8 3.2v0C258.5 123.4 257.1 128.7 253 131.1z"/><path class="st0" d="M501.2-12.2L465 8.7c-4.1 2.4-9.4 1-11.8-3.2v0c-2.4-4.1-0.9-9.4 3.2-11.8l36.3-20.9c4.1-2.4 9.4-0.9 11.8 3.2l0 0C506.7-19.9 505.3-14.6 501.2-12.2z"/><path class="st0" d="M77.3 138l-40.2 23.2c-4.1 2.4-9.4 1-11.8-3.2l0 0c-2.4-4.1-0.9-9.4 3.2-11.8l40.2-23.2c4.1-2.4 9.4-0.9 11.8 3.2l0 0C82.8 130.3 81.4 135.6 77.3 138z"/><path class="st0" d="M100.9 124.4L100.9 124.4c-4.1 2.4-9.4 1-11.8-3.2l0 0c-2.4-4.1-0.9-9.4 3.2-11.8l0 0c4.1-2.4 9.4-0.9 11.8 3.2l0 0C106.5 116.7 105 122 100.9 124.4z"/><path class="st0" d="M240.9 43.5L240.9 43.5c-4.1 2.4-9.4 1-11.8-3.2l0 0c-2.4-4.1-0.9-9.4 3.2-11.8l0 0c4.1-2.4 9.4-0.9 11.8 3.2l0 0C246.5 35.8 245.1 41.2 240.9 43.5z"/><path class="st0" d="M144.8 99l-20.2 11.7c-4.1 2.4-9.4 1-11.8-3.2l0 0c-2.4-4.1-0.9-9.4 3.2-11.8l20.2-11.7c4.1-2.4 9.4-0.9 11.8 3.2v0C150.3 91.4 148.9 96.7 144.8 99z"/><path class="st0" d="M217.3 57.2l-48.9 28.2c-4.1 2.4-9.4 1-11.8-3.2l0 0c-2.4-4.1-0.9-9.4 3.2-11.8l48.9-28.2c4.1-2.4 9.4-0.9 11.8 3.2v0C222.9 49.5 221.4 54.8 217.3 57.2z"/><path class="st0" d="M313.4 1.7l-48.9 28.2c-4.1 2.4-9.4 1-11.8-3.2l0 0c-2.4-4.1-0.9-9.4 3.2-11.8L304.8-13.3c4.1-2.4 9.4-0.9 11.8 3.2v0C319-6 317.6-0.7 313.4 1.7z"/><path class="st0" d="M190.3 104.3l-50.1 28.9c-4.1 2.4-9.4 1-11.8-3.2v0c-2.4-4.1-0.9-9.4 3.2-11.8l50.1-28.9c4.1-2.4 9.4-0.9 11.8 3.2v0C195.8 96.6 194.4 101.9 190.3 104.3z"/><path class="st0" d="M213.9 90.6L213.9 90.6c-4.1 2.4-9.4 1-11.8-3.2v0c-2.4-4.1-0.9-9.4 3.2-11.8l0 0c4.1-2.4 9.4-0.9 11.8 3.2v0C219.5 82.9 218 88.3 213.9 90.6z"/><path class="st0" d="M389.3-10.6L389.3-10.6c-4.1 2.4-9.4 1-11.8-3.2v0c-2.4-4.1-0.9-9.4 3.2-11.8v0c4.1-2.4 9.4-0.9 11.8 3.2v0C394.9-18.3 393.5-13 389.3-10.6z"/><path class="st0" d="M281.2 51.8l-43.6 25.2c-4.1 2.4-9.4 1-11.8-3.2l0 0c-2.4-4.1-0.9-9.4 3.2-11.8l43.6-25.2c4.1-2.4 9.4-0.9 11.8 3.2v0C286.7 44.1 285.3 49.4 281.2 51.8z"/><path class="st0" d="M116.6 146.8L80.3 167.8c-4.1 2.4-9.4 1-11.8-3.2l0 0c-2.4-4.1-0.9-9.4 3.2-11.8l36.3-20.9c4.1-2.4 9.4-0.9 11.8 3.2l0 0C122.1 139.2 120.7 144.5 116.6 146.8z"/><path class="st0" d="M365.7 3l-60.9 35.2c-4.1 2.4-9.4 1-11.8-3.2l0 0c-2.4-4.1-0.9-9.4 3.2-11.8l60.9-35.2c4.1-2.4 9.4-0.9 11.8 3.2v0C371.3-4.7 369.8 0.6 365.7 3z"/><path class="st0" d="M588.2 126.5l-59.2 34.2c-4.1 2.4-9.4 1-11.8-3.2l0 0c-2.4-4.1-0.9-9.4 3.2-11.8l59.2-34.2c4.1-2.4 9.4-0.9 11.8 3.2v0C593.8 118.8 592.4 124.2 588.2 126.5z"/><path class="st0" d="M690.5 67.5l-78.6 45.4c-4.1 2.4-9.4 1-11.8-3.2v0c-2.4-4.1-0.9-9.4 3.2-11.8l78.6-45.4c4.1-2.4 9.4-0.9 11.8 3.2l0 0C696 59.8 694.6 65.1 690.5 67.5z"/><path class="st0" d="M714.1 53.9L714.1 53.9c-4.1 2.4-9.4 1-11.8-3.2v0c-2.4-4.1-0.9-9.4 3.2-11.8l0 0c4.1-2.4 9.4-0.9 11.8 3.2v0C719.6 46.2 718.2 51.5 714.1 53.9z"/><path class="st0" d="M786.6 12l-48.9 28.2c-4.1 2.4-9.4 1-11.8-3.2v0c-2.4-4.1-0.9-9.4 3.2-11.8l48.9-28.2c4.1-2.4 9.4-0.9 11.8 3.2v0C792.2 4.3 790.7 9.6 786.6 12z"/><path class="st0" d="M589.8 157.1l-32.8 18.9c-4.1 2.4-9.4 1-11.8-3.2v0c-2.4-4.1-0.9-9.4 3.2-11.8l32.8-18.9c4.1-2.4 9.4-0.9 11.8 3.2v0C595.3 149.5 593.9 154.8 589.8 157.1z"/><path class="st0" d="M613.4 143.5L613.4 143.5c-4.1 2.4-9.4 1-11.8-3.2v0c-2.4-4.1-0.9-9.4 3.2-11.8h0c4.1-2.4 9.4-0.9 11.8 3.2v0C618.9 135.8 617.5 141.1 613.4 143.5z"/><path class="st0" d="M772.7 51.5L772.7 51.5c-4.1 2.4-9.4 1-11.8-3.2v0c-2.4-4.1-0.9-9.4 3.2-11.8v0c4.1-2.4 9.4-0.9 11.8 3.2v0C778.3 43.8 776.8 49.1 772.7 51.5z"/><path class="st0" d="M664.5 114l-27.5 15.9c-4.1 2.4-9.4 1-11.8-3.2l0 0c-2.4-4.1-0.9-9.4 3.2-11.8l27.5-15.9c4.1-2.4 9.4-0.9 11.8 3.2v0C670.1 106.3 668.6 111.6 664.5 114z"/><path class="st0" d="M821.5 23.4l-25.1 14.5c-4.1 2.4-9.4 1-11.8-3.2v0c-2.4-4.1-0.9-9.4 3.2-11.8L812.8 8.4c4.1-2.4 9.4-0.9 11.8 3.2v0C827 15.7 825.6 21 821.5 23.4z"/><path class="st0" d="M749.1 65.2l-60.9 35.2c-4.1 2.4-9.4 1-11.8-3.2v0c-2.4-4.1-0.9-9.4 3.2-11.8l60.9-35.2c4.1-2.4 9.4-0.9 11.8 3.2v0C754.6 57.5 753.2 62.8 749.1 65.2z"/><path class="st0" d="M440.1 149l-42 24.3c-4.1 2.4-9.4 1-11.8-3.2v0c-2.4-4.1-0.9-9.4 3.2-11.8l42-24.2c4.1-2.4 9.4-0.9 11.8 3.2v0C445.7 141.4 444.2 146.7 440.1 149z"/><path class="st0" d="M579.1 68.8l-19 11c-4.1 2.4-9.4 1-11.8-3.2v0c-2.4-4.1-0.9-9.4 3.2-11.8l19-11c4.1-2.4 9.4-0.9 11.8 3.2v0C584.7 61.1 583.2 66.4 579.1 68.8z"/><path class="st0" d="M602.7 55.2L602.7 55.2c-4.1 2.4-9.4 1-11.8-3.2v0c-2.4-4.1-0.9-9.4 3.2-11.8l0 0c4.1-2.4 9.4-0.9 11.8 3.2v0C608.3 47.5 606.9 52.8 602.7 55.2z"/><path class="st0" d="M675.2 13.3l-48.9 28.2c-4.1 2.4-9.4 1-11.8-3.2l0 0c-2.4-4.1-0.9-9.4 3.2-11.8L666.6-1.7c4.1-2.4 9.4-0.9 11.8 3.2l0 0C680.8 5.6 679.4 10.9 675.2 13.3z"/><path class="st0" d="M489.3 152.1l-37.9 21.9c-4.1 2.4-9.4 1-11.8-3.2v0c-2.4-4.1-0.9-9.4 3.2-11.8l37.9-21.9c4.1-2.4 9.4-0.9 11.8 3.2v0C494.9 144.5 493.4 149.8 489.3 152.1z"/><path class="st0" d="M603.8 86.1L603.8 86.1c-4.1 2.4-9.4 1-11.8-3.2v0c-2.4-4.1-0.9-9.4 3.2-11.8v0c4.1-2.4 9.4-0.9 11.8 3.2l0 0C609.3 78.4 607.9 83.7 603.8 86.1z"/><path class="st0" d="M580.1 99.7l-16.4 9.5c-4.1 2.4-9.4 1-11.8-3.2v0c-2.4-4.1-0.9-9.4 3.2-11.8l16.4-9.5c4.1-2.4 9.4-0.9 11.8 3.2v0C585.7 92 584.3 97.3 580.1 99.7z"/><path class="st0" d="M748.2 2.7l-36.2 20.9c-4.1 2.4-9.4 1-11.8-3.2v0c-2.4-4.1-0.9-9.4 3.2-11.8l36.3-20.9c4.1-2.4 9.4-0.9 11.8 3.2v0C753.8-5 752.3 0.3 748.2 2.7z"/><path class="st0" d="M688.3 37.2l-60.9 35.2c-4.1 2.4-9.4 1-11.8-3.2v0c-2.4-4.1-0.9-9.4 3.2-11.8l60.9-35.2c4.1-2.4 9.4-0.9 11.8 3.2v0C693.9 29.5 692.5 34.9 688.3 37.2z"/><path class="st0" d="M383.3 150.4l-32.2 18.6c-4.1 2.4-9.4 1-11.8-3.2l0 0c-2.4-4.1-0.9-9.4 3.2-11.8l32.3-18.6c4.1-2.4 9.4-0.9 11.8 3.2l0 0C388.8 142.7 387.4 148 383.3 150.4z"/><path class="st0" d="M637.3 3.7l-29 16.8c-4.1 2.4-9.4 1-11.8-3.2v0c-2.4-4.1-0.9-9.4 3.2-11.8l29-16.8c4.1-2.4 9.4-0.9 11.8 3.2v0C642.8-4 641.4 1.3 637.3 3.7z"/><path class="st0" d="M584.6 34.1L543.8 57.7c-4.1 2.4-9.4 1-11.8-3.2l0 0c-2.4-4.1-0.9-9.4 3.2-11.8L576 19.1c4.1-2.4 9.4-0.9 11.8 3.2v0C590.2 26.4 588.8 31.7 584.6 34.1z"/><path class="st0" d="M808.5 156.8l-22.1 12.8c-4.1 2.4-9.4 1-11.8-3.2l0 0c-2.4-4.1-0.9-9.4 3.2-11.8l22.1-12.8c4.1-2.4 9.4-0.9 11.8 3.2v0C814.1 149.2 812.7 154.5 808.5 156.8z"/><path class="st0" d="M697.5 157.9l-26.6 15.4c-4.1 2.4-9.4 1-11.8-3.2v0c-2.4-4.1-0.9-9.4 3.2-11.8l26.6-15.3c4.1-2.4 9.4-0.9 11.8 3.2l0 0C703.1 150.3 701.6 155.6 697.5 157.9z"/><path class="st0" d="M812.2 91.7l-91 52.6c-4.1 2.4-9.4 1-11.8-3.2v0c-2.4-4.1-0.9-9.4 3.2-11.8l91.1-52.6c4.1-2.4 9.4-0.9 11.8 3.2v0C817.7 84 816.3 89.4 812.2 91.7z"/><path class="st0" d="M747 160.9l-28.3 16.3c-4.1 2.4-9.4 1-11.8-3.2v0c-2.4-4.1-0.9-9.4 3.2-11.8l28.3-16.3c4.1-2.4 9.4-0.9 11.8 3.2l0 0C752.5 153.2 751.1 158.5 747 160.9z"/><path class="st0" d="M770.6 147.2L770.6 147.2c-4.1 2.4-9.4 1-11.8-3.2v0c-2.4-4.1-0.9-9.4 3.2-11.8v0c4.1-2.4 9.4-0.9 11.8 3.2v0C776.2 139.6 774.7 144.9 770.6 147.2z"/><path class="st0" d="M818.7 119.5l-24.5 14.1c-4.1 2.4-9.4 1-11.8-3.2v0c-2.4-4.1-0.9-9.4 3.2-11.8l24.5-14.1c4.1-2.4 9.4-0.9 11.8 3.2v0C824.2 111.8 822.8 117.1 818.7 119.5z"/><path class="st0" d="M725.4 110.3l-50.1 28.9c-4.1 2.4-9.4 1-11.8-3.2v0c-2.4-4.1-0.9-9.4 3.2-11.8l50.1-28.9c4.1-2.4 9.4-0.9 11.8 3.2v0C731 102.6 729.6 107.9 725.4 110.3z"/><path class="st0" d="M749.1 96.7L749.1 96.7c-4.1 2.4-9.4 1-11.8-3.2v0c-2.4-4.1-0.9-9.4 3.2-11.8v0c4.1-2.4 9.4-0.9 11.8 3.2v0C754.6 89 753.2 94.3 749.1 96.7z"/><path class="st0" d="M816.3 57.9L772.7 83c-4.1 2.4-9.4 1-11.8-3.2v0c-2.4-4.1-0.9-9.4 3.2-11.8l43.6-25.2c4.1-2.4 9.4-0.9 11.8 3.2l0 0C821.8 50.2 820.4 55.5 816.3 57.9z"/><path class="st0" d="M651.7 152.9l-36.2 20.9c-4.1 2.4-9.4 1-11.8-3.2v0c-2.4-4.1-0.9-9.4 3.2-11.8l36.3-20.9c4.1-2.4 9.4-0.9 11.8 3.2l0 0C657.3 145.2 655.8 150.5 651.7 152.9z"/><path class="st0" d="M109.1 56.7l-121.9 70.4c-4.1 2.4-9.4 1-11.8-3.2l0 0c-2.4-4.1-0.9-9.4 3.2-11.8l121.9-70.4c4.1-2.4 9.4-0.9 11.8 3.2l0 0C114.6 49 113.2 54.3 109.1 56.7z"/><path class="st0" d="M132.7 43L132.7 43c-4.1 2.4-9.4 1-11.8-3.2l0 0c-2.4-4.1-0.9-9.4 3.2-11.8l0 0c4.1-2.4 9.4-0.9 11.8 3.2l0 0C138.3 35.3 136.8 40.6 132.7 43z"/><path class="st0" d="M205.2 1.1l-48.9 28.2c-4.1 2.4-9.4 1-11.8-3.2v0c-2.4-4.1-0.9-9.4 3.2-11.8l48.9-28.2c4.1-2.4 9.4-0.9 11.8 3.2l0 0C210.8-6.5 209.4-1.2 205.2 1.1z"/><path class="st0" d="M44.8 125.3L-5.3 154.2c-4.1 2.4-9.4 1-11.8-3.2l0 0c-2.4-4.1-0.9-9.4 3.2-11.8l50.1-28.9c4.1-2.4 9.4-0.9 11.8 3.2l0 0C50.3 117.6 48.9 122.9 44.8 125.3z"/><path class="st0" d="M68.4 111.6L68.4 111.6c-4.1 2.4-9.4 1-11.8-3.2l0 0c-2.4-4.1-0.9-9.4 3.2-11.8l0 0c4.1-2.4 9.4-0.9 11.8 3.2l0 0C74 103.9 72.5 109.3 68.4 111.6z"/><path class="st0" d="M243.8 10.4L243.8 10.4c-4.1 2.4-9.4 1-11.8-3.2l0 0c-2.4-4.1-0.9-9.4 3.2-11.8l0 0c4.1-2.4 9.4-0.9 11.8 3.2l0 0C249.3 2.7 247.9 8 243.8 10.4z"/><path class="st0" d="M135.7 72.8L92.1 98c-4.1 2.4-9.4 1-11.8-3.2l0 0c-2.4-4.1-0.9-9.4 3.2-11.8l43.6-25.2c4.1-2.4 9.4-0.9 11.8 3.2v0C141.2 65.1 139.8 70.4 135.7 72.8z"/><path class="st0" d="M220.2 24l-60.9 35.2c-4.1 2.4-9.4 1-11.8-3.2l0 0c-2.4-4.1-0.9-9.4 3.2-11.8l60.9-35.2c4.1-2.4 9.4-0.9 11.8 3.2l0 0C225.8 16.3 224.4 21.6 220.2 24z"/><path class="st0" d="M16.5 47.1l-26.8 15.5c-4.1 2.4-9.4 1-11.8-3.2l0 0c-2.4-4.1-0.9-9.4 3.2-11.8l26.8-15.5c4.1-2.4 9.4-0.9 11.8 3.2l0 0C22 39.5 20.6 44.8 16.5 47.1z"/><path class="st0" d="M40.1 33.5L40.1 33.5c-4.1 2.4-9.4 1-11.8-3.2l0 0c-2.4-4.1-0.9-9.4 3.2-11.8l0 0c4.1-2.4 9.4-0.9 11.8 3.2l0 0C45.6 25.8 44.2 31.1 40.1 33.5z"/><path class="st0" d="M112.6-8.4L63.7 19.9c-4.1 2.4-9.4 1-11.8-3.2l0 0c-2.4-4.1-0.9-9.4 3.2-11.8l48.9-28.2c4.1-2.4 9.4-0.9 11.8 3.2l0 0C118.1-16 116.7-10.7 112.6-8.4z"/><path class="st0" d="M3.7 86l-13.5 7.8c-4.1 2.4-9.4 1-11.8-3.2l0 0c-2.4-4.1-0.9-9.4 3.2-11.8l13.6-7.8c4.1-2.4 9.4-0.9 11.8 3.2l0 0C9.3 78.3 7.8 83.6 3.7 86z"/><path class="st0" d="M27.3 72.4L27.3 72.4c-4.1 2.4-9.4 1-11.8-3.2l0 0c-2.4-4.1-0.9-9.4 3.2-11.8l0 0c4.1-2.4 9.4-0.9 11.8 3.2l0 0C32.9 64.7 31.5 70 27.3 72.4z"/><path class="st0" d="M94.6 33.5L51 58.7c-4.1 2.4-9.4 1-11.8-3.2l0 0c-2.4-4.1-0.9-9.4 3.2-11.8l43.6-25.2c4.1-2.4 9.4-0.9 11.8 3.2l0 0C100.1 25.9 98.7 31.2 94.6 33.5z"/><path class="st0" d="M155-1.3l-36.8 21.3c-4.1 2.4-9.4 1-11.8-3.2l0 0c-2.4-4.1-0.9-9.4 3.2-11.8l36.8-21.2c4.1-2.4 9.4-0.9 11.8 3.2l0 0C160.5-9 159.1-3.7 155-1.3z"/><path class="st0" d="M52.3-5L-8.7 30.2c-4.1 2.4-9.4 1-11.8-3.2l0 0c-2.4-4.1-0.9-9.4 3.2-11.8L43.6-20c4.1-2.4 9.4-0.9 11.8 3.2l0 0C57.8-12.7 56.4-7.4 52.3-5z"/><path class="st0" d="M374.5 41l-11.6 6.7c-4.1 2.4-5.5 7.7-3.2 11.8v0c2.4 4.1 7.7 5.5 11.8 3.2l3-1.7"/><path class="st0" d="M401.7 45.2l40.3-23.3c4.1-2.4 5.5-7.7 3.2-11.8 -2.4-4.1-7.7-5.5-11.8-3.2L401.7 25.3"/><polyline class="st0" points="308.4 73.7 303.5 81 305.8 71.6 301.7 79 303.5 68.9 298.8 76.7 299.7 68.9 295.8 76.7 295.8 66.8 292.6 76.7 291.4 66.8 290.2 76.7 286.2 66.8 286.2 76.7 282.2 68.6 283.4 79 277.1 71 "/><polyline class="st0" points="271.4 75 278.3 82 269.2 77.2 276.1 84.3 267.3 80.4 274.3 86.9 264.8 84.3 273.2 90.1 263.4 88 272.7 92.9 263.4 92.9 272.8 96.1 262.7 98.2 273.3 99.2 263.9 104.1 273.9 102.8 265.9 108.7 275 106.6 268.8 113.8 277.1 110.2 271.2 116.4 "/><polyline class="st0" points="283 113.2 275.9 120.6 286.2 114.3 281.1 123.1 289.6 115.3 286.2 124.1 292.4 115.3 291.8 125.2 295.2 115.3 296.1 124.4 297.9 115.3 301.7 123.6 301.7 113.9 305.8 121.7 304.1 112.3 309.1 119.8 "/><polyline class="st0" points="324.8 107.4 317.7 114.7 323.5 104.2 314.9 109.4 323.1 101 312.6 105.1 321.3 98.3 311.2 100.3 321.2 95.2 311.2 94 321.6 92.6 312.6 87.8 322 89.4 314.4 84.3 323.5 86.2 317.7 79 325.6 83.4 321.9 73.9 327.9 81 326 70.9 330.8 79.9 330.8 68.4 333.6 78.3 335.4 67.3 338.2 76.7 340.3 67.3 342.9 76.7 347 67.3 347.7 77.7 353.7 70.7 350.8 79.4 358.1 73.9 "/><polyline class="st0" points="362.8 78.1 355.8 85 364.9 81.6 357.5 88.3 367.2 85.6 358.6 91.8 369.1 90.2 359.7 95.7 369.7 95.7 359.1 100.2 369 102 358.6 104 367.6 108.9 355.8 107.9 363.7 113.9 352.1 110.8 359.1 118.6 349.4 113.2 354.8 121.8 346.6 114.7 348.4 123.6 342.7 115.3 341.8 125.2 338.6 115.3 335.7 124.2 335.7 114.2 331.2 123 331.9 112.8 326.4 122.3 328.4 111 321.9 118.6 "/><polyline class="st0" points="383.6 24.8 393.1 27.4 383.8 30 393.2 32 383.3 34.9 392.8 36.7 383.3 39 393 41.1 383.8 43.8 392.4 45.6 383.7 47 393.1 49.6 384.3 51.6 392.9 53.8 384.3 56.2 392.8 58.3 384.3 60.8 393 62.9 383.9 65.8 393 68.3 383.6 71 393 72.4 383.7 74.9 392.6 76.9 384 79.3 392.2 81.6 383.8 85.1 392 86.9 384 89.9 392.2 91.2 383.7 94 392.7 96 383.9 98.6 392.8 100.8 384.1 102.1 392.7 105 384.2 106.6 392.6 109.2 384 110.7 392.2 113.2 384.9 114.4 391.8 117.3 384.1 119.2 393.1 122.4 384.2 123 "/><path class="st0" d="M454.3 67.6l9.6 1.6 -9.3 2.1 9.2 1.8 -9.9 2.1 9.9 2.1 -9.8 2.1 9.8 1.5 -10.1 2.5 9.6 1.6 -8.3 1.8 8.4 1.5 -8.7 2.4 8.4 1.9 -8.3 1.8 8.2 2.2 -7.4 2.1 8 1.8 -9.3 3.6 9.6 2.1 -11.6 3.1c0 0 11.6 3.6 11.1 3.6 -0.4 0-9.2 0.4-9.2 0.4l8.9 5.9 -8.4-0.7 8.3 5.2 -7.8-0.6"/><polyline class="st0" points="451.2 74.1 451.2 81.3 448 71.3 447.2 77.6 445.3 69.3 442.5 75 441.2 67.4 437.7 74.1 435.2 66.1 434.2 73.5 428.6 66.2 430.3 74.1 422.6 68 425.9 76.4 418 72.3 423.8 80 413.9 76 420.1 83.3 411.2 80.6 418.6 87.9 409 85.9 417.7 91.6 408.6 92.9 417.2 95.6 409 98.8 416.9 99.6 410.2 103.9 419.7 103 411.7 109.8 420.7 108.3 414.5 114.1 423.8 112 419.5 117.9 426 114.4 423.7 121.9 429.4 115.7 429 122.4 432 115.9 433.7 122.4 435.1 116.4 437.3 122.4 438.5 116.9 441.6 121.9 443.2 115.4 445.7 120 448 111.9 449.9 116.6 451.4 111.9 "/><polyline class="st0" points="491.2 24.7 482.2 25.6 491.2 28.2 482.2 29.9 491.2 31.7 482.6 34.5 491.2 36.3 482.6 38.5 491.4 41 482.2 43.4 491.4 45.3 482.6 48 490.9 49.3 482.3 51.7 490.8 53.8 481.4 56.6 491.1 59 482.2 60.9 491.1 62.7 481.9 66.2 490.6 66.7 482.5 69.5 490.6 70.7 482 73.5 490.8 75.3 482.2 77.6 490.9 79 481.6 81.5 492.9 83 482 85.2 490.9 86.7 481.7 89.3 490.2 91.3 482.9 94.5 490.3 96.2 483.1 99.1 490.5 100.7 481.9 103.6 493.2 106.1 482 108.6 492 111.1 481.2 112.7 490 115.6 482.6 116.2 491.2 119.4 482.5 120.4 491.4 122.4 "/><polyline class="st0" points="493.4 74.2 495.5 80.4 496.7 71.6 499.4 76.4 500.6 68.3 503.2 75.3 505.3 66.8 506.9 73.8 510 66.7 511.4 73.8 514.9 67.1 515.5 74.7 519.7 67.3 518.6 76.2 523.8 69.6 521.3 79.1 528.3 73.3 523.4 81.3 531.2 79.1 525.2 84.6 535.5 83.3 527.1 88.3 536.7 88.3 528.1 92.4 537.4 93.6 528.7 96.3 537.3 97.5 527.4 99.7 535.2 101.9 527.5 103.3 534.6 107.7 525.6 106.8 533 112.6 522.6 111.3 529 115.4 518.8 113.2 525 120 515.8 115.1 518.3 122.5 512.7 116.6 513.3 123.1 508.9 116.9 508.3 123.1 505 116.7 503.4 121.5 501.4 115 499.1 119.9 498.6 112.9 495.2 116.6 494.2 108.4 "/></svg>