<?xml version="1.0" encoding="utf-8"?>
<!-- Generator: Adobe Illustrator 24.1.1, SVG Export Plug-In . SVG Version: 6.00 Build 0)  -->
<svg version="1.1" xmlns="http://www.w3.org/2000/svg" xmlns:xlink="http://www.w3.org/1999/xlink" x="0px" y="0px"
	 viewBox="0 0 800 150" style="enable-background:new 0 0 800 150;" xml:space="preserve">
<style type="text/css">
	.st0{fill:none;stroke:#343A40;stroke-linecap:round;stroke-linejoin:round;stroke-miterlimit:10;}
</style>
<g id="Layer_2">
</g>
<g id="Layer_1">
	<g>
		<ellipse class="st0" cx="436.56" cy="95.56" rx="16.55" ry="19.16"/>
		<ellipse class="st0" cx="509.22" cy="95.56" rx="16.55" ry="19.16"/>
		<path class="st0" d="M452.43,65.58v6.41c-4.96-4.89-11.5-7.87-18.67-7.87c-15.51,0-28.08,13.91-28.08,31.07
			c0,17.16,12.57,31.07,28.08,31.07c7.17,0,13.71-2.98,18.67-7.87v6.79h14.04v-59.6H452.43z"/>
		<path class="st0" d="M512.18,64.19c-7.11,0-13.59,2.95-18.52,7.8V22.11h-13.74v103.07h13.74v-6.8c4.93,4.85,11.41,7.8,18.52,7.8
			c15.43,0,27.93-13.88,27.93-31C540.11,78.07,527.61,64.19,512.18,64.19z"/>
		<rect x="381.48" y="22.11" class="st0" width="13.74" height="103.07"/>
		<circle class="st0" cx="340.25" cy="96.07" r="16.71"/>
		<circle class="st0" cx="340.25" cy="96.07" r="31.82"/>
		<line class="st0" x1="328.44" y1="107.9" x2="317.74" y2="118.56"/>
		<line class="st0" x1="362.82" y1="73.65" x2="352.12" y2="84.31"/>
		<line class="st0" x1="271.82" y1="71.24" x2="282.4" y2="82.18"/>
		<path class="st0" d="M303.52,107.89c-3.02,3.02-7.2,4.9-11.82,4.9c-9.23,0-16.71-7.48-16.71-16.71s7.48-16.71,16.71-16.71
			c5.06,0,9.6,2.25,12.66,5.8l8.19-13.11l0.01-0.01c-5.58-4.85-12.88-7.79-20.86-7.79c-17.57,0-31.82,14.24-31.82,31.82
			s14.24,31.82,31.82,31.82c7.87,0,15.07-2.86,20.63-7.59L303.52,107.89z"/>
		<line class="st0" x1="282.22" y1="109.83" x2="271.66" y2="120.77"/>
	</g>
	<path class="st0" d="M274.27,150.29l-39.71,22.93c-4.12,2.38-9.43,0.95-11.8-3.16v0c-2.38-4.12-0.95-9.43,3.16-11.8l39.71-22.93
		c4.12-2.38,9.43-0.95,11.8,3.16l0,0C279.81,142.6,278.39,147.91,274.27,150.29z"/>
	<path class="st0" d="M462.56,41.58L442.6,53.1c-4.12,2.38-9.43,0.95-11.8-3.16v0c-2.38-4.12-0.95-9.43,3.16-11.8l19.96-11.52
		c4.12-2.38,9.43-0.95,11.8,3.16v0C468.1,33.89,466.67,39.2,462.56,41.58z"/>
	<path class="st0" d="M535.07-0.28l-26.33,15.2c-4.12,2.38-9.43,0.95-11.8-3.16v0c-2.38-4.12-0.95-9.43,3.16-11.8l26.33-15.2
		c4.12-2.38,9.43-0.95,11.8,3.16l0,0C540.61-7.97,539.18-2.66,535.07-0.28z"/>
	<path class="st0" d="M327.19,151.24l-34.08,19.68c-4.12,2.38-9.43,0.95-11.8-3.16v0c-2.38-4.12-0.95-9.43,3.16-11.8l34.08-19.68
		c4.12-2.38,9.43-0.95,11.8,3.16v0C332.73,143.55,331.3,148.86,327.19,151.24z"/>
	<path class="st0" d="M542.18,27.11l-26.75,15.45c-4.12,2.38-9.43,0.95-11.8-3.16v0c-2.38-4.12-0.95-9.43,3.16-11.8l26.75-15.45
		c4.12-2.38,9.43-0.95,11.8,3.16l0,0C547.72,19.42,546.3,24.73,542.18,27.11z"/>
	<path class="st0" d="M603.77-8.45l-36.25,20.93c-4.12,2.38-9.43,0.95-11.8-3.16v0c-2.38-4.12-0.95-9.43,3.16-11.8l36.25-20.93
		c4.12-2.38,9.43-0.95,11.8,3.16v0C609.31-16.13,607.88-10.82,603.77-8.45z"/>
	<path class="st0" d="M191.19,135.25L132,169.43c-4.12,2.38-9.43,0.95-11.8-3.16l0,0c-2.38-4.12-0.95-9.43,3.16-11.8l59.2-34.18
		c4.12-2.38,9.43-0.95,11.8,3.16v0C196.73,127.56,195.31,132.88,191.19,135.25z"/>
	<path class="st0" d="M246.03,103.59l-31.21,18.02c-4.12,2.38-9.43,0.95-11.8-3.16l0,0c-2.38-4.12-0.95-9.43,3.16-11.8l31.21-18.02
		c4.12-2.38,9.43-0.95,11.8,3.16l0,0C251.57,95.91,250.14,101.22,246.03,103.59z"/>
	<path class="st0" d="M360.37,37.58l-35.79,20.67c-4.12,2.38-9.43,0.95-11.8-3.16v0c-2.38-4.12-0.95-9.43,3.16-11.8l35.79-20.67
		c4.12-2.38,9.43-0.95,11.8,3.16v0C365.91,29.89,364.49,35.2,360.37,37.58z"/>
	<path class="st0" d="M432.88-4.29l-27.03,15.61c-4.12,2.38-9.43,0.95-11.8-3.16v0c-2.38-4.12-0.95-9.43,3.16-11.8l27.03-15.61
		c4.12-2.38,9.43-0.95,11.8,3.16v0C438.42-11.97,437-6.66,432.88-4.29z"/>
	<path class="st0" d="M230.53,144.04l-39.99,23.09c-4.12,2.38-9.43,0.95-11.8-3.16v0c-2.38-4.12-0.95-9.43,3.16-11.8l39.99-23.09
		c4.12-2.38,9.43-0.95,11.8,3.16v0C236.07,136.35,234.65,141.66,230.53,144.04z"/>
	<path class="st0" d="M253,131.07L253,131.07c-4.12,2.38-9.43,0.95-11.8-3.16v0c-2.38-4.12-0.95-9.43,3.16-11.8l0,0
		c4.12-2.38,9.43-0.95,11.8,3.16v0C258.54,123.38,257.12,128.69,253,131.07z"/>
	<path class="st0" d="M501.21-12.23L464.95,8.7c-4.12,2.38-9.43,0.95-11.8-3.16v0c-2.38-4.12-0.95-9.43,3.16-11.8l36.25-20.93
		c4.12-2.38,9.43-0.95,11.8,3.16l0,0C506.74-19.92,505.32-14.61,501.21-12.23z"/>
	<path class="st0" d="M77.3,138l-40.23,23.23c-4.12,2.38-9.43,0.95-11.8-3.16l0,0c-2.38-4.12-0.95-9.43,3.16-11.8l40.23-23.23
		c4.12-2.38,9.43-0.95,11.8,3.16l0,0C82.84,130.32,81.42,135.63,77.3,138z"/>
	<path class="st0" d="M100.93,124.36L100.93,124.36c-4.12,2.38-9.43,0.95-11.8-3.16l0,0c-2.38-4.12-0.95-9.43,3.16-11.8l0,0
		c4.12-2.38,9.43-0.95,11.8,3.16l0,0C106.47,116.68,105.04,121.99,100.93,124.36z"/>
	<path class="st0" d="M240.93,43.53L240.93,43.53c-4.12,2.38-9.43,0.95-11.8-3.16l0,0c-2.38-4.12-0.95-9.43,3.16-11.8l0,0
		c4.12-2.38,9.43-0.95,11.8,3.16l0,0C246.47,35.84,245.05,41.16,240.93,43.53z"/>
	<path class="st0" d="M144.8,99.03l-20.24,11.69c-4.12,2.38-9.43,0.95-11.8-3.16l0,0c-2.38-4.12-0.95-9.43,3.16-11.8l20.24-11.69
		c4.12-2.38,9.43-0.95,11.8,3.16v0C150.34,91.35,148.91,96.66,144.8,99.03z"/>
	<path class="st0" d="M217.31,57.17l-48.88,28.22c-4.12,2.38-9.43,0.95-11.8-3.16l0,0c-2.38-4.12-0.95-9.43,3.16-11.8l48.88-28.22
		c4.12-2.38,9.43-0.95,11.8,3.16v0C222.85,49.48,221.42,54.8,217.31,57.17z"/>
	<path class="st0" d="M313.44,1.67l-48.88,28.22c-4.12,2.38-9.43,0.95-11.8-3.16l0,0c-2.38-4.12-0.95-9.43,3.16-11.8L304.8-13.3
		c4.12-2.38,9.43-0.95,11.8,3.16v0C318.98-6.02,317.56-0.71,313.44,1.67z"/>
	<path class="st0" d="M190.29,104.27l-50.11,28.93c-4.12,2.38-9.43,0.95-11.8-3.16v0c-2.38-4.12-0.95-9.43,3.16-11.8l50.11-28.93
		c4.12-2.38,9.43-0.95,11.8,3.16v0C195.83,96.58,194.41,101.9,190.29,104.27z"/>
	<path class="st0" d="M213.92,90.63L213.92,90.63c-4.12,2.38-9.43,0.95-11.8-3.16v0c-2.38-4.12-0.95-9.43,3.16-11.8l0,0
		c4.12-2.38,9.43-0.95,11.8,3.16v0C219.45,82.94,218.03,88.26,213.92,90.63z"/>
	<path class="st0" d="M389.34-10.65L389.34-10.65c-4.12,2.38-9.43,0.95-11.8-3.16v0c-2.38-4.12-0.95-9.43,3.16-11.8v0
		c4.12-2.38,9.43-0.95,11.8,3.16v0C394.88-18.34,393.46-13.03,389.34-10.65z"/>
	<path class="st0" d="M281.15,51.81l-43.61,25.18c-4.12,2.38-9.43,0.95-11.8-3.16l0,0c-2.38-4.12-0.95-9.43,3.16-11.8l43.61-25.18
		c4.12-2.38,9.43-0.95,11.8,3.16v0C286.69,44.13,285.27,49.44,281.15,51.81z"/>
	<path class="st0" d="M116.55,146.84L80.3,167.77c-4.12,2.38-9.43,0.95-11.8-3.16l0,0c-2.38-4.12-0.95-9.43,3.16-11.8l36.25-20.93
		c4.12-2.38,9.43-0.95,11.8,3.16l0,0C122.09,139.16,120.67,144.47,116.55,146.84z"/>
	<path class="st0" d="M365.72,2.99l-60.94,35.19c-4.12,2.38-9.43,0.95-11.8-3.16l0,0c-2.38-4.12-0.95-9.43,3.16-11.8l60.94-35.19
		c4.12-2.38,9.43-0.95,11.8,3.16v0C371.26-4.7,369.83,0.61,365.72,2.99z"/>
	<path class="st0" d="M588.23,126.53l-59.2,34.18c-4.12,2.38-9.43,0.95-11.8-3.16l0,0c-2.38-4.12-0.95-9.43,3.16-11.8l59.2-34.18
		c4.12-2.38,9.43-0.95,11.8,3.16v0C593.77,118.84,592.35,124.15,588.23,126.53z"/>
	<path class="st0" d="M690.48,67.49l-78.62,45.39c-4.12,2.38-9.43,0.95-11.8-3.16v0c-2.38-4.12-0.95-9.43,3.16-11.8l78.62-45.39
		c4.12-2.38,9.43-0.95,11.8,3.16l0,0C696.02,59.81,694.6,65.12,690.48,67.49z"/>
	<path class="st0" d="M714.11,53.85L714.11,53.85c-4.12,2.38-9.43,0.95-11.8-3.16v0c-2.38-4.12-0.95-9.43,3.16-11.8l0,0
		c4.12-2.38,9.43-0.95,11.8,3.16v0C719.64,46.17,718.22,51.48,714.11,53.85z"/>
	<path class="st0" d="M786.61,11.99l-48.88,28.22c-4.12,2.38-9.43,0.95-11.8-3.16v0c-2.38-4.12-0.95-9.43,3.16-11.8l48.88-28.22
		c4.12-2.38,9.43-0.95,11.8,3.16v0C792.15,4.3,790.73,9.61,786.61,11.99z"/>
	<path class="st0" d="M589.78,157.13l-32.81,18.94c-4.12,2.38-9.43,0.95-11.8-3.16v0c-2.38-4.12-0.95-9.43,3.16-11.8l32.81-18.94
		c4.12-2.38,9.43-0.95,11.8,3.16v0C595.32,149.45,593.89,154.76,589.78,157.13z"/>
	<path class="st0" d="M613.4,143.49L613.4,143.49c-4.12,2.38-9.43,0.95-11.8-3.16v0c-2.38-4.12-0.95-9.43,3.16-11.8h0
		c4.12-2.38,9.43-0.95,11.8,3.16v0C618.94,135.81,617.52,141.12,613.4,143.49z"/>
	<path class="st0" d="M772.72,51.51L772.72,51.51c-4.12,2.38-9.43,0.95-11.8-3.16v0c-2.38-4.12-0.95-9.43,3.16-11.8v0
		c4.12-2.38,9.43-0.95,11.8,3.16v0C778.26,43.83,776.84,49.14,772.72,51.51z"/>
	<path class="st0" d="M664.53,113.98l-27.5,15.88c-4.12,2.38-9.43,0.95-11.8-3.16l0,0c-2.38-4.12-0.95-9.43,3.16-11.8l27.5-15.88
		c4.12-2.38,9.43-0.95,11.8,3.16v0C670.07,106.29,668.64,111.6,664.53,113.98z"/>
	<path class="st0" d="M821.47,23.37l-25.13,14.51c-4.12,2.38-9.43,0.95-11.8-3.16v0c-2.38-4.12-0.95-9.43,3.16-11.8L812.83,8.4
		c4.12-2.38,9.43-0.95,11.8,3.16v0C827.01,15.68,825.59,20.99,821.47,23.37z"/>
	<path class="st0" d="M749.1,65.15l-60.94,35.19c-4.12,2.38-9.43,0.95-11.8-3.16v0c-2.38-4.12-0.95-9.43,3.16-11.8l60.94-35.19
		c4.12-2.38,9.43-0.95,11.8,3.16v0C754.63,57.47,753.21,62.78,749.1,65.15z"/>
	<path class="st0" d="M440.11,149.04l-42,24.25c-4.12,2.38-9.43,0.95-11.8-3.16v0c-2.38-4.12-0.95-9.43,3.16-11.8l42-24.25
		c4.12-2.38,9.43-0.95,11.8,3.16v0C445.65,141.35,444.23,146.66,440.11,149.04z"/>
	<path class="st0" d="M579.11,68.79l-19,10.97c-4.12,2.38-9.43,0.95-11.8-3.16v0c-2.38-4.12-0.95-9.43,3.16-11.8l19-10.97
		c4.12-2.38,9.43-0.95,11.8,3.16v0C584.65,61.1,583.22,66.42,579.11,68.79z"/>
	<path class="st0" d="M602.73,55.15L602.73,55.15c-4.12,2.38-9.43,0.95-11.8-3.16v0c-2.38-4.12-0.95-9.43,3.16-11.8l0,0
		c4.12-2.38,9.43-0.95,11.8,3.16v0C608.27,47.46,606.85,52.78,602.73,55.15z"/>
	<path class="st0" d="M675.24,13.29l-48.88,28.22c-4.12,2.38-9.43,0.95-11.8-3.16l0,0c-2.38-4.12-0.95-9.43,3.16-11.8L666.6-1.68
		c4.12-2.38,9.43-0.95,11.8,3.16l0,0C680.78,5.6,679.36,10.91,675.24,13.29z"/>
	<path class="st0" d="M489.32,152.13l-37.86,21.86c-4.12,2.38-9.43,0.95-11.8-3.16v0c-2.38-4.12-0.95-9.43,3.16-11.8l37.86-21.86
		c4.12-2.38,9.43-0.95,11.8,3.16v0C494.86,144.45,493.43,149.76,489.32,152.13z"/>
	<path class="st0" d="M603.77,86.06L603.77,86.06c-4.12,2.38-9.43,0.95-11.8-3.16v0c-2.38-4.12-0.95-9.43,3.16-11.8v0
		c4.12-2.38,9.43-0.95,11.8,3.16l0,0C609.31,78.37,607.88,83.68,603.77,86.06z"/>
	<path class="st0" d="M580.14,99.7l-16.42,9.48c-4.12,2.38-9.43,0.95-11.8-3.16v0c-2.38-4.12-0.95-9.43,3.16-11.8l16.42-9.48
		c4.12-2.38,9.43-0.95,11.8,3.16v0C585.68,92.01,584.26,97.32,580.14,99.7z"/>
	<path class="st0" d="M748.22,2.66l-36.25,20.93c-4.12,2.38-9.43,0.95-11.8-3.16v0c-2.38-4.12-0.95-9.43,3.16-11.8l36.25-20.93
		c4.12-2.38,9.43-0.95,11.8,3.16v0C753.76-5.03,752.33,0.28,748.22,2.66z"/>
	<path class="st0" d="M688.34,37.23l-60.94,35.19c-4.12,2.38-9.43,0.95-11.8-3.16v0c-2.38-4.12-0.95-9.43,3.16-11.8l60.94-35.19
		c4.12-2.38,9.43-0.95,11.8,3.16v0C693.88,29.54,692.45,34.85,688.34,37.23z"/>
	<path class="st0" d="M383.26,150.36l-32.25,18.62c-4.12,2.38-9.43,0.95-11.8-3.16l0,0c-2.38-4.12-0.95-9.43,3.16-11.8l32.25-18.62
		c4.12-2.38,9.43-0.95,11.8,3.16l0,0C388.8,142.68,387.38,147.99,383.26,150.36z"/>
	<path class="st0" d="M637.29,3.7l-29.03,16.76c-4.12,2.38-9.43,0.95-11.8-3.16v0c-2.38-4.12-0.95-9.43,3.16-11.8l29.03-16.76
		c4.12-2.38,9.43-0.95,11.8,3.16v0C642.83-3.99,641.4,1.33,637.29,3.7z"/>
	<path class="st0" d="M584.64,34.1L543.8,57.68c-4.12,2.38-9.43,0.95-11.8-3.16l0,0c-2.38-4.12-0.95-9.43,3.16-11.8L576,19.14
		c4.12-2.38,9.43-0.95,11.8,3.16v0C590.17,26.41,588.75,31.72,584.64,34.1z"/>
	<path class="st0" d="M808.53,156.84l-22.12,12.77c-4.12,2.38-9.43,0.95-11.8-3.16l0,0c-2.38-4.12-0.95-9.43,3.16-11.8l22.12-12.77
		c4.12-2.38,9.43-0.95,11.8,3.16v0C814.07,149.15,812.65,154.46,808.53,156.84z"/>
	<path class="st0" d="M697.52,157.93l-26.58,15.35c-4.12,2.38-9.43,0.95-11.8-3.16v0c-2.38-4.12-0.95-9.43,3.16-11.8l26.58-15.35
		c4.12-2.38,9.43-0.95,11.8,3.16l0,0C703.06,150.25,701.63,155.56,697.52,157.93z"/>
	<path class="st0" d="M812.19,91.73l-91.05,52.57c-4.12,2.38-9.43,0.95-11.8-3.16v0c-2.38-4.12-0.95-9.43,3.16-11.8l91.05-52.57
		c4.12-2.38,9.43-0.95,11.8,3.16v0C817.73,84.04,816.31,89.35,812.19,91.73z"/>
	<path class="st0" d="M746.98,160.88l-28.27,16.32c-4.12,2.38-9.43,0.95-11.8-3.16v0c-2.38-4.12-0.95-9.43,3.16-11.8l28.27-16.32
		c4.12-2.38,9.43-0.95,11.8,3.16l0,0C752.52,153.19,751.1,158.5,746.98,160.88z"/>
	<path class="st0" d="M770.61,147.24L770.61,147.24c-4.12,2.38-9.43,0.95-11.8-3.16v0c-2.38-4.12-0.95-9.43,3.16-11.8v0
		c4.12-2.38,9.43-0.95,11.8,3.16v0C776.15,139.55,774.72,144.86,770.61,147.24z"/>
	<path class="st0" d="M818.69,119.47l-24.46,14.12c-4.12,2.38-9.43,0.95-11.8-3.16v0c-2.38-4.12-0.95-9.43,3.16-11.8l24.46-14.12
		c4.12-2.38,9.43-0.95,11.8,3.16v0C824.23,111.79,822.81,117.1,818.69,119.47z"/>
	<path class="st0" d="M725.44,110.31l-50.11,28.93c-4.12,2.38-9.43,0.95-11.8-3.16v0c-2.38-4.12-0.95-9.43,3.16-11.8l50.11-28.93
		c4.12-2.38,9.43-0.95,11.8,3.16v0C730.98,102.62,729.56,107.93,725.44,110.31z"/>
	<path class="st0" d="M749.07,96.67L749.07,96.67c-4.12,2.38-9.43,0.95-11.8-3.16v0c-2.38-4.12-0.95-9.43,3.16-11.8v0
		c4.12-2.38,9.43-0.95,11.8,3.16v0C754.61,88.98,753.19,94.29,749.07,96.67z"/>
	<path class="st0" d="M816.3,57.85L772.7,83.03c-4.12,2.38-9.43,0.95-11.8-3.16v0c-2.38-4.12-0.95-9.43,3.16-11.8l43.61-25.18
		c4.12-2.38,9.43-0.95,11.8,3.16l0,0C821.84,50.16,820.42,55.48,816.3,57.85z"/>
	<path class="st0" d="M651.71,152.88l-36.25,20.93c-4.12,2.38-9.43,0.95-11.8-3.16v0c-2.38-4.12-0.95-9.43,3.16-11.8l36.25-20.93
		c4.12-2.38,9.43-0.95,11.8,3.16l0,0C657.25,145.19,655.82,150.5,651.71,152.88z"/>
	<path class="st0" d="M109.1,56.65l-121.93,70.4c-4.12,2.38-9.43,0.95-11.8-3.16l0,0c-2.38-4.12-0.95-9.43,3.16-11.8l121.93-70.4
		c4.12-2.38,9.43-0.95,11.8,3.16l0,0C114.64,48.96,113.21,54.27,109.1,56.65z"/>
	<path class="st0" d="M132.72,43.01L132.72,43.01c-4.12,2.38-9.43,0.95-11.8-3.16l0,0c-2.38-4.12-0.95-9.43,3.16-11.8l0,0
		c4.12-2.38,9.43-0.95,11.8,3.16l0,0C138.26,35.32,136.84,40.63,132.72,43.01z"/>
	<path class="st0" d="M205.23,1.14l-48.88,28.22c-4.12,2.38-9.43,0.95-11.8-3.16v0c-2.38-4.12-0.95-9.43,3.16-11.8l48.88-28.22
		c4.12-2.38,9.43-0.95,11.8,3.16l0,0C210.77-6.54,209.35-1.23,205.23,1.14z"/>
	<path class="st0" d="M44.8,125.27L-5.31,154.2c-4.12,2.38-9.43,0.95-11.8-3.16l0,0c-2.38-4.12-0.95-9.43,3.16-11.8l50.11-28.93
		c4.12-2.38,9.43-0.95,11.8,3.16l0,0C50.34,117.58,48.92,122.89,44.8,125.27z"/>
	<path class="st0" d="M68.43,111.63L68.43,111.63c-4.12,2.38-9.43,0.95-11.8-3.16l0,0c-2.38-4.12-0.95-9.43,3.16-11.8l0,0
		c4.12-2.38,9.43-0.95,11.8,3.16l0,0C73.97,103.94,72.54,109.25,68.43,111.63z"/>
	<path class="st0" d="M243.77,10.39L243.77,10.39c-4.12,2.38-9.43,0.95-11.8-3.16l0,0c-2.38-4.12-0.95-9.43,3.16-11.8l0,0
		c4.12-2.38,9.43-0.95,11.8,3.16l0,0C249.31,2.71,247.88,8.02,243.77,10.39z"/>
	<path class="st0" d="M135.66,72.81L92.05,97.99c-4.12,2.38-9.43,0.95-11.8-3.16l0,0c-2.38-4.12-0.95-9.43,3.16-11.8l43.61-25.18
		c4.12-2.38,9.43-0.95,11.8,3.16v0C141.2,65.12,139.78,70.43,135.66,72.81z"/>
	<path class="st0" d="M220.23,23.98l-60.94,35.19c-4.12,2.38-9.43,0.95-11.8-3.16l0,0c-2.38-4.12-0.95-9.43,3.16-11.8l60.94-35.19
		c4.12-2.38,9.43-0.95,11.8,3.16l0,0C225.77,16.3,224.35,21.61,220.23,23.98z"/>
	<path class="st0" d="M16.45,47.14l-26.8,15.48c-4.12,2.38-9.43,0.95-11.8-3.16l0,0c-2.38-4.12-0.95-9.43,3.16-11.8l26.8-15.48
		c4.12-2.38,9.43-0.95,11.8,3.16l0,0C21.98,39.45,20.56,44.76,16.45,47.14z"/>
	<path class="st0" d="M40.07,33.5L40.07,33.5c-4.12,2.38-9.43,0.95-11.8-3.16l0,0c-2.38-4.12-0.95-9.43,3.16-11.8l0,0
		c4.12-2.38,9.43-0.95,11.8,3.16l0,0C45.61,25.81,44.19,31.12,40.07,33.5z"/>
	<path class="st0" d="M112.58-8.37L63.7,19.86c-4.12,2.38-9.43,0.95-11.8-3.16l0,0c-2.38-4.12-0.95-9.43,3.16-11.8l48.88-28.22
		c4.12-2.38,9.43-0.95,11.8,3.16l0,0C118.12-16.05,116.7-10.74,112.58-8.37z"/>
	<path class="st0" d="M3.71,85.99l-13.55,7.82c-4.12,2.38-9.43,0.95-11.8-3.16l0,0c-2.38-4.12-0.95-9.43,3.16-11.8l13.55-7.82
		c4.12-2.38,9.43-0.95,11.8,3.16l0,0C9.25,78.3,7.82,83.61,3.71,85.99z"/>
	<path class="st0" d="M27.33,72.35L27.33,72.35c-4.12,2.38-9.43,0.95-11.8-3.16l0,0c-2.38-4.12-0.95-9.43,3.16-11.8l0,0
		c4.12-2.38,9.43-0.95,11.8,3.16l0,0C32.87,64.66,31.45,69.97,27.33,72.35z"/>
	<path class="st0" d="M94.57,33.53L50.96,58.71c-4.12,2.38-9.43,0.95-11.8-3.16l0,0c-2.38-4.12-0.95-9.43,3.16-11.8l43.61-25.18
		c4.12-2.38,9.43-0.95,11.8,3.16l0,0C100.11,25.85,98.68,31.16,94.57,33.53z"/>
	<path class="st0" d="M155-1.35l-36.8,21.25c-4.12,2.38-9.43,0.95-11.8-3.16l0,0c-2.38-4.12-0.95-9.43,3.16-11.8l36.8-21.25
		c4.12-2.38,9.43-0.95,11.8,3.16l0,0C160.53-9.04,159.11-3.73,155-1.35z"/>
	<path class="st0" d="M52.26-5.04L-8.69,30.15c-4.12,2.38-9.43,0.95-11.8-3.16l0,0c-2.38-4.12-0.95-9.43,3.16-11.8L43.62-20
		c4.12-2.38,9.43-0.95,11.8,3.16l0,0C57.8-12.73,56.37-7.42,52.26-5.04z"/>
	<g>
		<path class="st0" d="M374.48,40.98l-11.59,6.69c-4.12,2.38-5.54,7.69-3.16,11.8v0c2.38,4.12,7.69,5.54,11.8,3.16l2.95-1.7"/>
		<path class="st0" d="M401.7,45.22l40.29-23.26c4.12-2.38,5.54-7.69,3.16-11.8c-2.38-4.12-7.69-5.54-11.8-3.16L401.7,25.26"/>
	</g>
	<polyline class="st0" points="308.43,73.65 303.52,81.04 305.83,71.56 301.74,78.98 303.52,68.89 298.78,76.71 299.67,68.89 
		295.81,76.71 295.81,66.79 292.56,76.71 291.37,66.79 290.19,76.71 286.23,66.79 286.23,76.71 282.19,68.59 283.37,78.98 
		277.11,70.96 	"/>
	<polyline class="st0" points="271.44,75 278.33,82 269.22,77.22 276.11,84.31 267.33,80.44 274.33,86.89 264.78,84.31 
		273.22,90.11 263.44,88 272.67,92.89 263.44,92.89 272.78,96.07 262.67,98.22 273.33,99.22 263.89,104.11 273.89,102.78 
		265.89,108.67 275,106.56 268.78,113.78 277.11,110.22 271.22,116.44 	"/>
	<polyline class="st0" points="283,113.23 275.89,120.56 286.23,114.33 281.06,123.11 289.56,115.3 286.23,124.11 292.44,115.3 
		291.78,125.18 295.22,115.3 296.11,124.44 297.89,115.3 301.67,123.58 301.67,113.89 305.83,121.67 304.11,112.33 309.11,119.78 	
		"/>
	<polyline class="st0" points="324.78,107.44 317.74,114.67 323.54,104.22 314.89,109.44 323.09,101 312.56,105.12 321.33,98.33 
		311.22,100.33 321.22,95.19 311.22,94 321.56,92.56 312.56,87.78 322,89.44 314.44,84.31 323.54,86.22 317.74,78.98 325.56,83.44 
		321.89,73.92 327.89,81.04 326,70.89 330.78,79.89 330.78,68.44 333.56,78.33 335.44,67.33 338.16,76.71 340.25,67.33 
		342.89,76.71 347,67.33 347.67,77.67 353.67,70.67 350.78,79.36 358.11,73.92 	"/>
	<polyline class="st0" points="362.82,78.11 355.78,85 364.89,81.56 357.47,88.33 367.22,85.56 358.58,91.78 369.11,90.22 
		359.67,95.72 369.67,95.72 359.11,100.22 369,102 358.58,104 367.56,108.89 355.78,107.9 363.67,113.89 352.12,110.78 
		359.11,118.56 349.44,113.23 354.78,121.78 346.56,114.67 348.44,123.58 342.67,115.3 341.78,125.18 338.56,115.3 335.67,124.22 
		335.67,114.22 331.22,123 331.89,112.78 326.44,122.33 328.44,111 321.89,118.56 	"/>
	<polyline class="st0" points="383.56,24.78 393.11,27.44 383.78,30 393.22,32 383.33,34.89 392.78,36.67 383.33,39 393,41.11 
		383.78,43.78 392.44,45.56 383.67,47 393.11,49.56 384.33,51.56 392.89,53.78 384.33,56.22 392.78,58.33 384.33,60.78 393,62.89 
		383.89,65.78 393,68.33 383.56,71 393,72.44 383.67,74.89 392.56,76.89 384,79.33 392.22,81.56 383.78,85.11 392,86.89 384,89.89 
		392.22,91.22 383.67,94 392.67,96 383.89,98.56 392.78,100.78 384.11,102.11 392.67,105 384.22,106.56 392.56,109.22 384,110.67 
		392.22,113.22 384.89,114.44 391.78,117.33 384.11,119.22 393.11,122.44 384.22,123 	"/>
	<path class="st0" d="M454.33,67.56l9.63,1.63l-9.33,2.07l9.19,1.78l-9.93,2.07l9.93,2.07l-9.78,2.07l9.78,1.48l-10.07,2.52
		l9.63,1.63l-8.3,1.78l8.44,1.48l-8.74,2.37l8.44,1.93l-8.3,1.78l8.15,2.22l-7.41,2.07l8,1.78l-9.33,3.56l9.63,2.07l-11.56,3.11
		c0,0,11.56,3.56,11.11,3.56c-0.44,0-9.19,0.44-9.19,0.44l8.89,5.93l-8.44-0.74l8.3,5.19l-7.85-0.59"/>
	<polyline class="st0" points="451.22,74.07 451.22,81.33 447.96,71.26 447.22,77.63 445.3,69.33 442.48,74.96 441.15,67.41 
		437.74,74.07 435.22,66.07 434.19,73.48 428.56,66.22 430.33,74.07 422.63,68 425.89,76.44 418.04,72.3 423.81,80 413.89,76 
		420.11,83.26 411.22,80.59 418.63,87.85 409,85.93 417.74,91.56 408.56,92.89 417.15,95.56 409,98.81 416.85,99.56 410.19,103.85 
		419.67,102.96 411.67,109.78 420.7,108.3 414.48,114.07 423.81,112 419.52,117.93 426.04,114.37 423.67,121.93 429.44,115.7 
		429,122.37 431.96,115.85 433.74,122.37 435.07,116.44 437.3,122.37 438.48,116.89 441.59,121.93 443.22,115.41 445.74,120 
		447.96,111.85 449.89,116.59 451.37,111.85 	"/>
	<polyline class="st0" points="491.22,24.74 482.19,25.63 491.22,28.15 482.19,29.93 491.22,31.7 482.63,34.52 491.22,36.3 
		482.63,38.52 491.37,41.04 482.19,43.41 491.37,45.33 482.63,48 490.93,49.33 482.33,51.7 490.78,53.78 481.44,56.59 491.07,58.96 
		482.19,60.89 491.07,62.67 481.89,66.22 490.63,66.67 482.48,69.48 490.63,70.67 482.04,73.48 490.78,75.26 482.19,77.63 
		490.93,78.96 481.59,81.48 492.85,82.96 482.04,85.19 490.93,86.67 481.74,89.33 490.19,91.26 482.93,94.52 490.33,96.15 
		483.07,99.11 490.48,100.74 481.89,103.56 493.15,106.07 482.04,108.59 491.96,111.11 481.15,112.74 490.04,115.56 482.63,116.15 
		491.22,119.41 482.48,120.44 491.37,122.37 	"/>
	<polyline class="st0" points="493.44,74.22 495.52,80.44 496.7,71.56 499.37,76.44 500.56,68.3 503.22,75.26 505.3,66.81 
		506.93,73.78 510.04,66.67 511.37,73.78 514.93,67.11 515.52,74.67 519.67,67.26 518.63,76.15 523.81,69.63 521.3,79.11 
		528.26,73.33 523.37,81.33 531.22,79.11 525.15,84.59 535.52,83.26 527.07,88.3 536.7,88.3 528.11,92.44 537.44,93.63 528.7,96.3 
		537.3,97.48 527.37,99.7 535.22,101.93 527.52,103.26 534.63,107.7 525.59,106.81 533,112.59 522.63,111.26 529,115.41 
		518.78,113.19 525,120 515.81,115.11 518.33,122.52 512.7,116.59 513.3,123.11 508.85,116.89 508.26,123.11 505,116.74 
		503.37,121.48 501.44,114.96 499.07,119.85 498.63,112.89 495.22,116.59 494.19,108.44 	"/>
	<g>
	</g>
	<g>
	</g>
	<g>
	</g>
	<g>
	</g>
	<g>
	</g>
	<g>
	</g>
	<g>
	</g>
	<g>
	</g>
	<g>
	</g>
	<g>
	</g>
	<g>
	</g>
	<g>
	</g>
	<g>
	</g>
	<g>
	</g>
	<g>
	</g>
</g>
</svg>
