<?xml version="1.0" encoding="utf-8"?>
<!-- Generator: Adobe Illustrator 24.1.1, SVG Export Plug-In . SVG Version: 6.00 Build 0)  -->
<svg version="1.1" xmlns="http://www.w3.org/2000/svg" xmlns:xlink="http://www.w3.org/1999/xlink" x="0px" y="0px"
	 viewBox="0 0 800 150" style="enable-background:new 0 0 800 150;" xml:space="preserve">
<style type="text/css">
	.st0{fill:none;stroke:#343A40;stroke-linecap:round;stroke-linejoin:round;stroke-miterlimit:10;}
</style>
<g id="Layer_2">
</g>
<g id="Layer_1">
	<g>
		<circle class="st0" cx="682.97" cy="92.06" r="12.28"/>
		<circle class="st0" cx="674.84" cy="77.97" r="12.28"/>
		<circle class="st0" cx="666.7" cy="92.06" r="12.28"/>
	</g>
	<g>
		<circle class="st0" cx="511.45" cy="14.62" r="12.28"/>
		<circle class="st0" cx="513.43" cy="-1.53" r="12.28"/>
		<circle class="st0" cx="498.45" cy="4.82" r="12.28"/>
	</g>
	<g>
		<circle class="st0" cx="501.8" cy="118.11" r="12.28"/>
		<circle class="st0" cx="493.67" cy="104.01" r="12.28"/>
		<circle class="st0" cx="485.53" cy="118.11" r="12.28"/>
	</g>
	<g>
		<circle class="st0" cx="236.79" cy="96.2" r="12.28"/>
		<circle class="st0" cx="233.41" cy="80.28" r="12.28"/>
		<circle class="st0" cx="221.31" cy="91.17" r="12.28"/>
	</g>
	<g>
		<circle class="st0" cx="24.12" cy="94.07" r="12.28"/>
		<circle class="st0" cx="18.64" cy="78.74" r="12.28"/>
		<circle class="st0" cx="8.11" cy="91.15" r="12.28"/>
	</g>
	<g>
		<circle class="st0" cx="695.22" cy="47.29" r="12.28"/>
		<circle class="st0" cx="688.56" cy="32.44" r="12.28"/>
	</g>
	<g>
		<circle class="st0" cx="567.52" cy="77.35" r="12.28"/>
		<circle class="st0" cx="552.06" cy="82.43" r="12.28"/>
	</g>
	<circle class="st0" cx="802.83" cy="100.97" r="12.28"/>
	<circle class="st0" cx="221.31" cy="154.58" r="12.28"/>
	<circle class="st0" cx="90.73" cy="151.95" r="12.28"/>
	<circle class="st0" cx="135.88" cy="-1.53" r="12.28"/>
	<g>
		<circle class="st0" cx="501.74" cy="152.09" r="12.28"/>
		<circle class="st0" cx="485.59" cy="150.01" r="12.28"/>
	</g>
	<g>
		<circle class="st0" cx="330.75" cy="68.68" r="12.28"/>
		<circle class="st0" cx="339.29" cy="54.82" r="12.28"/>
	</g>
	<g>
		<circle class="st0" cx="256.81" cy="128.22" r="12.28"/>
		<circle class="st0" cx="240.53" cy="128.22" r="12.28"/>
	</g>
	<g>
		<circle class="st0" cx="7.69" cy="37.71" r="12.28"/>
		<circle class="st0" cx="2.25" cy="22.37" r="12.28"/>
	</g>
	<g>
		<circle class="st0" cx="212.44" cy="35.64" r="24.65"/>
		<circle class="st0" cx="187.29" cy="14.75" r="24.65"/>
		<circle class="st0" cx="181.78" cy="46.97" r="24.65"/>
	</g>
	<g>
		<circle class="st0" cx="757.23" cy="100.97" r="24.65"/>
		<circle class="st0" cx="732.08" cy="80.09" r="24.65"/>
		<circle class="st0" cx="726.57" cy="112.31" r="24.65"/>
	</g>
	<g>
		<circle class="st0" cx="90.98" cy="35.7" r="24.65"/>
		<circle class="st0" cx="64.63" cy="16.37" r="24.65"/>
		<circle class="st0" cx="61.06" cy="48.86" r="24.65"/>
	</g>
	<g>
		<circle class="st0" cx="309.29" cy="21.61" r="24.65"/>
		<circle class="st0" cx="277.53" cy="13.91" r="24.65"/>
	</g>
	<g>
		<circle class="st0" cx="508.17" cy="60.36" r="24.65"/>
		<circle class="st0" cx="475.48" cy="60.36" r="24.65"/>
	</g>
	<g>
		<circle class="st0" cx="45.72" cy="138.29" r="24.65"/>
		<circle class="st0" cx="13.33" cy="142.71" r="24.65"/>
	</g>
	<g>
		<circle class="st0" cx="303.98" cy="112.89" r="24.65"/>
		<circle class="st0" cx="284.84" cy="86.4" r="24.65"/>
	</g>
	<g>
		<circle class="st0" cx="628.64" cy="30.56" r="37.46"/>
		<circle class="st0" cx="613.91" cy="-16.86" r="37.46"/>
		<circle class="st0" cx="580.21" cy="19.61" r="37.46"/>
	</g>
	<g>
		<circle class="st0" cx="424.08" cy="120.46" r="37.46"/>
		<circle class="st0" cx="389.54" cy="84.78" r="37.46"/>
		<circle class="st0" cx="375.92" cy="132.53" r="37.46"/>
	</g>
	<circle class="st0" cx="789.23" cy="164.37" r="37.46"/>
	<circle class="st0" cx="684.07" cy="174.43" r="37.46"/>
	<g>
		<circle class="st0" cx="434.68" cy="-3.05" r="37.46"/>
		<circle class="st0" cx="385.02" cy="-3.05" r="37.46"/>
	</g>
	<g>
		<circle class="st0" cx="612.29" cy="123.78" r="37.46"/>
		<circle class="st0" cx="566.96" cy="144.05" r="37.46"/>
	</g>
	<g>
		<circle class="st0" cx="171.46" cy="122.76" r="37.46"/>
		<circle class="st0" cx="125.88" cy="103.03" r="37.46"/>
	</g>
	<g>
		<circle class="st0" cx="792.29" cy="26.95" r="37.46"/>
		<circle class="st0" cx="746.71" cy="7.25" r="37.46"/>
	</g>
	<g>
	</g>
	<g>
	</g>
	<g>
	</g>
	<g>
	</g>
	<g>
	</g>
	<g>
	</g>
	<g>
	</g>
	<g>
	</g>
	<g>
	</g>
	<g>
	</g>
	<g>
	</g>
	<g>
	</g>
	<g>
	</g>
	<g>
	</g>
	<g>
	</g>
</g>
</svg>
