<?xml version="1.0" encoding="utf-8"?>
<!-- Generator: Adobe Illustrator 23.0.2, SVG Export Plug-In . SVG Version: 6.00 Build 0)  -->
<svg version="1.0" id="Layer_1" xmlns="http://www.w3.org/2000/svg" xmlns:xlink="http://www.w3.org/1999/xlink" x="0px" y="0px"
	 viewBox="0 0 128 128" style="enable-background:new 0 0 128 128;" xml:space="preserve">
<style type="text/css">
	.st0{fill:#007BFF;}
	.st1{fill:#FFFFFF;}
</style>
<g>
	<path class="st0" d="M112,128H16c-8.8,0-16-7.2-16-16V16C0,7.2,7.2,0,16,0h96c8.8,0,16,7.2,16,16v96C128,120.8,120.8,128,112,128z"
		/>
	<path class="st1" d="M97,26h-5v-3.5c0-4.13-3.38-7.5-7.5-7.5S77,18.38,77,22.5V26H51v-3.5c0-4.13-3.38-7.5-7.5-7.5
		S36,18.38,36,22.5V26h-5c-6.6,0-12,5.4-12,12v54.75c0,6.6,5.4,12,12,12h66c6.6,0,12-5.4,12-12V38C109,31.4,103.6,26,97,26z"/>
	<rect x="33" y="42" class="st0" width="62" height="51"/>
	<path class="st1" d="M55.05,85.67c-0.13,0-0.26-0.01-0.39-0.02c-2.06-0.16-3.8-1.6-4.35-3.59l-7.37-26.48
		c-0.73-2.62,0.8-5.34,3.43-6.07c2.62-0.73,5.34,0.8,6.07,3.43l3.77,13.53l3.64-7.91c0.83-1.81,2.67-2.92,4.65-2.87
		c1.99,0.07,3.74,1.33,4.44,3.19l2.58,6.85l4.12-12.96c0.83-2.59,3.6-4.02,6.19-3.2c2.59,0.83,4.03,3.6,3.2,6.19l-8.42,26.48
		c-0.64,2-2.47,3.38-4.57,3.43c-2.06,0.05-4-1.22-4.74-3.19l-3.43-9.1l-4.33,9.42C58.72,84.56,56.96,85.67,55.05,85.67z"/>
</g>
</svg>
