<?xml version="1.0" encoding="utf-8"?>
<svg version="1.0" id="Layer_1" xmlns="http://www.w3.org/2000/svg" xmlns:xlink="http://www.w3.org/1999/xlink" x="0px" y="0px"
	 viewBox="0 0 72 72" style="enable-background:new 0 0 72 72;" xml:space="preserve">
<style type="text/css">
	.st0{fill:#212529;}
	.st1{fill:#FFFFFF;}
</style>
    <path class="st0" d="M60.2,72H11.8C5.31,72,0,66.69,0,60.2V11.8C0,5.31,5.31,0,11.8,0H60.2C66.69,0,72,5.31,72,11.8V60.2 C72,66.69,66.69,72,60.2,72z"/>
    <path class="st1" d="M55.04,51.04l-0.18-3.94c-0.63,0.67-1.3,1.29-1.99,1.85c-0.69,0.56-1.45,1.05-2.28,1.47 
        c-0.83,0.42-1.73,0.74-2.71,0.96c-0.98,0.23-2.05,0.34-3.22,0.34c-1.54,0-2.9-0.23-4.06-0.68c-1.17-0.45-2.14-1.09-2.94-1.9
        s-1.39-1.79-1.79-2.94c-0.41-1.15-0.61-2.41-0.61-3.79c0-1.42,0.3-2.74,0.9-3.94c0.6-1.21,1.52-2.24,2.76-3.11
		c1.23-0.87,2.78-1.55,4.62-2.05c1.85-0.49,4.02-0.74,6.51-0.74H54v-1.81c0-0.77-0.11-1.47-0.33-2.09
		c-0.22-0.62-0.57-1.15-1.05-1.59s-1.11-0.77-1.88-1.01c-0.77-0.24-1.72-0.36-2.85-0.36c-1.78,0-3.53,0.2-5.26,0.61
		c-1.73,0.41-3.4,0.97-5.03,1.7v-5.78c1.44-0.57,3.11-1.05,5-1.42c1.89-0.38,3.85-0.56,5.88-0.56c2.23,0,4.15,0.21,5.75,0.64
		c1.6,0.42,2.92,1.06,3.96,1.91c1.04,0.85,1.8,1.91,2.3,3.19c0.49,1.27,0.74,2.76,0.74,4.46v20.57H55.04z M54,37.73h-4.42
		c-1.23,0-2.26,0.12-3.11,0.36c-0.85,0.24-1.54,0.56-2.08,0.98c-0.53,0.42-0.92,0.89-1.17,1.44c-0.25,0.54-0.37,1.12-0.37,1.73
		c0,1.23,0.4,2.16,1.19,2.8c0.79,0.64,1.87,0.96,3.23,0.96c1.01,0,2.06-0.37,3.14-1.1c1.09-0.73,2.28-1.78,3.59-3.14V37.73z"/>
	<polygon class="st1" points="25.08,55 10.77,36 25.08,17 29.83,20.58 18.21,36 29.83,51.42"/>
</svg>
