<svg xmlns="http://www.w3.org/2000/svg" viewBox="0 0 800 150"><style type="text/css">  
	.st0{display:none;}
	.st1{display:inline;}
	.st2{fill:none;stroke:#343A40;stroke-linecap:round;stroke-linejoin:round;stroke-miterlimit:10;}
	.st3{display:inline;fill:none;stroke:#343A40;stroke-linecap:round;stroke-linejoin:round;stroke-miterlimit:10;}
	.st4{fill:#343A40;}
	.st5{fill:none;stroke:#FFFFFF;stroke-linecap:round;stroke-linejoin:round;stroke-miterlimit:10;}
	.st6{display:inline;fill:none;stroke:#343A40;stroke-miterlimit:10;}
	.st7{fill-rule:evenodd;clip-rule:evenodd;fill:none;stroke:#343A40;stroke-miterlimit:10;}
	.st8{fill:none;stroke:#343A40;stroke-miterlimit:10;}
</style><g class="st0"><g class="st1"><path class="st2" d="M154.2 74.2H135.8c-7.2 0-13-5.8-13-13V42.8c0-7.2 5.8-13 13-13h18.4c7.2 0 13 5.8 13 13v18.4C167.3 68.4 161.4 74.2 154.2 74.2z"/><path class="st2" d="M343.2 74.2H324.8c-7.2 0-13-5.8-13-13V42.8c0-7.2 5.8-13 13-13h18.4c7.2 0 13 5.8 13 13v18.4C356.3 68.4 350.4 74.2 343.2 74.2z"/><path class="st2" d="M248.7 74.2H230.3c-7.2 0-13-5.8-13-13V42.8c0-7.2 5.8-13 13-13h18.4c7.2 0 13 5.8 13 13v18.4C261.8 68.4 255.9 74.2 248.7 74.2z"/></g><line class="st3" x1="167.3" y1="52.2" x2="217.3" y2="52.2"/><line class="st3" x1="261.8" y1="52.2" x2="311.8" y2="52.2"/><g class="st1"><path class="st4" d="M443.7 59.7c0-1.5-0.8-2.3-2.2-2.3l0 0c-1.6 0.1-1.1 0.5-4.5 1.3 -3.4 0.8-7.6 0.6-11.3 2.1 -11 4.6-13.2 20.4-23.3 26.1 -7.5 4.2-15 4.6-21.8 6.7 -4.5 1.4-9.3 4.3-13.4 7.8 -3.1 2.7-3.2 5.1-6.5 8.5 -3.5 3.6-13.9 0.1-18.7 5.6 1.5 1.5 2.2 2 5.2 1.6 -0.6 1.2-4.3 2.2-3.6 3.9 0.8 1.8 9.6 3.1 17.7-1.8 3.8-2.3 6.7-5.5 12.6-6.3 7.6-1 16.3 0.7 25 1.9 -1.3 3.9-3.9 6.4-6 9.5 -0.6 0.7 1.3 0.8 3.5 0.4 4-1 6.9-1.8 9.9-3.5 3.7-2.1 4.3-7.7 8.8-8.9 2.5 3.9 9.4 4.8 13.7 1.7 -3.7-1.1-4.8-9-3.5-12.5 1.2-3.3 2.4-8.6 3.6-13 1.3-4.7 1.8-10.7 3.3-13.1 2.4-3.6 5-4.9 7.2-6.9C441.7 66.3 443.8 64.4 443.7 59.7zM425.6 113.8c-2.4 0.6-6.7-0.4-7.8-2.1 0.6-2.5 3.5-4.8 4.9-6.3v0l0 0c0 0 0 0 0 0C422.9 107.8 424.4 112.6 425.6 113.8zM437 69c-2.1 1.5-4.5 2.9-6 5.3 -1.5 2.4-2.5 10.6-4.9 18.7 -2.1 7-5.2 13.9-10.6 16.9 -0.6-1.4 0.1-4.1-1.1-4.9 -0.7 2.1-1.6 4.1-2.5 5.9 -3.2 6.1-7.9 10.7-15.8 12.1 3.7-5.1 7.3-10.3 7.4-19 -2.6 0.6-2.6 6.8-5.3 8.5 -1.7 0.2-3.5 0.2-5.3 0.1 -7.3-0.4-14.7-2.6-21.5-0.4 -4.6 1.5-8.4 5-12.3 6.7 -4.6 2-8.1 2.8-13.8 2v0c-0.7-1 4.2-2.2 3.9-4.4 -2.2-0.2-3.5 0.3-5.5-0.6 0.2-0.4 0.5-0.7 0.9-1 3.6-2.5 13.7-0.6 16.5-3.2 1.7-1.6 2.8-3.4 3.9-5 1.1-1.6 2.3-3.2 4-4.6 0.7-0.5 1.4-1.1 2.1-1.5 3-2 6.6-3.9 10.3-5.1 4.9-1.7 9.9-1.9 15.2-3.9 3.2-1.2 6.8-2.8 9.6-4.9 0.7-0.5 1.3-1 1.9-1.6 8.2-8 9.8-22.1 22.6-23.4 1.6-0.2 2.8-0.1 4-0.1 1.3 0 2.5-0.2 3.8-0.9 0.4 1.3 1 1.9 3.5 2.1C441.5 65.5 439.4 67.3 437 69z"/><path class="st4" d="M426.4 66.5c1.8 1.6 5.6 0.3 4.9-2.8C428.5 63.5 426.9 64.4 426.4 66.5zM439 62.9c-0.5 1-1.4 2.3-1.4 4.9 0 0.4-0.3 0.7-0.3 0.1 0-2.5 0.7-3.6 1.4-5C439 62.2 439.2 62.4 439 62.9L439 62.9z"/><path class="st4" d="M438.5 62.5c-0.6 1-1.9 2.7-2.2 5.3 0 0.4-0.4 0.7-0.3 0 0.3-2.5 1.3-4.1 2.2-5.4C438.6 61.8 438.7 62.1 438.5 62.5zM438.1 62c-0.6 0.9-2.7 3-3.2 5.6 -0.1 0.4-0.5 0.7-0.3 0 0.5-2.5 2.3-4.4 3.2-5.7C438.2 61.3 438.3 61.6 438.1 62zM437.7 61.4c-0.8 0.8-3.3 3.5-4.1 6 -0.1 0.4-0.5 0.6-0.3 0 0.8-2.4 3-4.9 4.1-6.1C437.9 60.8 438 61.1 437.7 61.4z"/></g><g class="st1"><path class="st2" d="M39 20.5v29.3c0 3.5 11.9 6.3 26.6 6.3s26.6-2.8 26.6-6.3V20.5"/></g><path class="st3" d="M65.6 35.7c14.7 0 26.6-2.8 26.6-6.3"/><circle class="st3" cx="49.2" cy="34.9" r="3.4"/><g class="st1"><path class="st2" d="M84.9 54.1c4.6 1.1 7.3 2.7 7.3 4.3 0 3.5-11.9 6.3-26.6 6.3s-26.6-2.8-26.6-6.3c0-1.7 2.8-3.2 7.3-4.3"/><path class="st2" d="M39 58.5v29.3c0 3.5 11.9 6.3 26.6 6.3s26.6-2.8 26.6-6.3V58.5"/></g><path class="st3" d="M65.6 73.6c14.7 0 26.6-2.8 26.6-6.3"/><circle class="st3" cx="49.2" cy="72.8" r="3.4"/><g class="st1"><path class="st2" d="M691.2 43.1v29.3c0 3.5 11.9 6.3 26.6 6.3 14.7 0 26.6-2.8 26.6-6.3V43.1"/><path class="st2" d="M717.8 58.3c14.7 0 26.6-2.8 26.6-6.3"/><circle class="st2" cx="701.3" cy="57.5" r="3.4"/><path class="st2" d="M737 76.7c4.6 1.1 7.3 2.7 7.3 4.3 0 3.5-11.9 6.3-26.6 6.3 -14.7 0-26.6-2.8-26.6-6.3 0-1.7 2.8-3.2 7.3-4.3"/><path class="st2" d="M691.2 81v29.3c0 3.5 11.9 6.3 26.6 6.3 14.7 0 26.6-2.8 26.6-6.3V81"/><path class="st2" d="M717.8 96.2c14.7 0 26.6-2.8 26.6-6.3"/><circle class="st2" cx="701.3" cy="95.4" r="3.4"/></g><g class="st1"><path class="st2" d="M84.9 92.4c4.6 1.1 7.3 2.7 7.3 4.3 0 3.5-11.9 6.3-26.6 6.3s-26.6-2.8-26.6-6.3c0-1.7 2.8-3.2 7.3-4.3"/><path class="st2" d="M39 96.7v29.3c0 3.5 11.9 6.3 26.6 6.3s26.6-2.8 26.6-6.3V96.7"/></g><path class="st3" d="M65.6 111.9c14.7 0 26.6-2.8 26.6-6.3"/><circle class="st3" cx="49.2" cy="111.1" r="3.4"/><g class="st1"><line class="st5" x1="97.2" y1="73.2" x2="108.1" y2="73.2"/><line class="st5" x1="102.7" y1="67.8" x2="102.7" y2="78.7"/></g><g class="st1"><line class="st2" x1="186.8" y1="91.2" x2="197.7" y2="91.2"/><line class="st2" x1="192.3" y1="85.7" x2="192.3" y2="96.6"/></g><g class="st1"><line class="st2" x1="619" y1="76.7" x2="629.9" y2="76.7"/><line class="st2" x1="624.5" y1="71.2" x2="624.5" y2="82.2"/></g><g class="st1"><line class="st2" x1="644.2" y1="76.7" x2="655.2" y2="76.7"/><line class="st2" x1="649.7" y1="71.2" x2="649.7" y2="82.2"/></g><g class="st1"><path class="st2" d="M666.3 237h-77.1c-4.7 0-8.5-3.8-8.5-8.5v-50.5c0-4.7 3.8-8.5 8.5-8.5h77.1c4.7 0 8.5 3.8 8.5 8.5v50.5C674.8 233.2 671 237 666.3 237z"/><line class="st2" x1="580.7" y1="183.1" x2="674.8" y2="183.1"/><rect x="588.6" y="193.5" class="st2" width="35.2" height="32.6"/><line class="st2" x1="631.1" y1="193.5" x2="667" y2="193.5"/><line class="st2" x1="631.1" y1="200.1" x2="667" y2="200.1"/><line class="st2" x1="631.1" y1="206.6" x2="657.2" y2="206.6"/><line class="st2" x1="631.1" y1="213.2" x2="667" y2="213.2"/><line class="st2" x1="631.1" y1="219.7" x2="667" y2="219.7"/><line class="st2" x1="631.1" y1="226.2" x2="657.2" y2="226.2"/></g><g class="st1"><path class="st2" d="M532.3 200.9H455.2c-4.7 0-8.5-3.8-8.5-8.5v-50.5c0-4.7 3.8-8.5 8.5-8.5h77.1c4.7 0 8.5 3.8 8.5 8.5v50.5C540.8 197.1 537 200.9 532.3 200.9z"/><line class="st2" x1="446.7" y1="147" x2="540.8" y2="147"/><rect x="454.6" y="157.4" class="st2" width="35.2" height="32.6"/><line class="st2" x1="497.1" y1="157.4" x2="532.9" y2="157.4"/><line class="st2" x1="497.1" y1="164" x2="532.9" y2="164"/><line class="st2" x1="497.1" y1="170.5" x2="523.2" y2="170.5"/><line class="st2" x1="497.1" y1="177.1" x2="532.9" y2="177.1"/><line class="st2" x1="497.1" y1="183.6" x2="532.9" y2="183.6"/><line class="st2" x1="497.1" y1="190.1" x2="523.2" y2="190.1"/></g><path class="st3" d="M579.9 12.9h-34.2c-2.7 0-5 2.2-5 5v17.5c0 2.7 2.2 5 5 5h5.2l4.3 8.9 4.3-8.9h20.3c2.7 0 5-2.2 5-5V17.8C584.9 15.1 582.7 12.9 579.9 12.9z"/><g class="st1"><line class="st2" x1="547.8" y1="20.4" x2="577.8" y2="20.4"/><line class="st2" x1="547.8" y1="26.5" x2="577.8" y2="26.5"/><line class="st2" x1="547.8" y1="32.8" x2="569.2" y2="32.8"/></g><path class="st3" d="M569.5 24.4h34.2c2.7 0 5 2.2 5 5v17.5c0 2.7-2.2 5-5 5h-5.2l-4.3 8.9 -4.3-8.9h-20.3c-2.7 0-5-2.2-5-5V29.4C564.5 26.6 566.8 24.4 569.5 24.4z"/><g class="st1"><line class="st2" x1="571.6" y1="31.9" x2="601.6" y2="31.9"/><line class="st2" x1="571.6" y1="38" x2="601.6" y2="38"/><line class="st2" x1="571.6" y1="44.3" x2="593" y2="44.3"/></g><g class="st1"><path class="st2" d="M271 195.8v-4.5c0-2.1-1.7-3.8-3.8-3.8h-26.4c-2.1 0-3.8 1.7-3.8 3.8v13.5c0 2.1 1.7 3.8 3.8 3.8h4l3.4 6.9 3.4-6.9h3.8"/><line class="st2" x1="242.4" y1="193.3" x2="265.5" y2="193.3"/><line class="st2" x1="242.4" y1="198" x2="255.6" y2="198"/><line class="st2" x1="242.4" y1="202.9" x2="255.3" y2="202.9"/><path class="st2" d="M259.1 195.8h26.4c2.1 0 3.8 1.7 3.8 3.8v13.5c0 2.1-1.7 3.8-3.8 3.8h-4l-3.3 6.9 -3.3-6.9h-15.7c-2.1 0-3.8-1.7-3.8-3.8v-13.5C255.3 197.5 257 195.8 259.1 195.8z"/><line class="st2" x1="260.7" y1="201.6" x2="283.9" y2="201.6"/><line class="st2" x1="260.7" y1="206.3" x2="283.9" y2="206.3"/><line class="st2" x1="260.7" y1="211.2" x2="277.2" y2="211.2"/><path class="st2" d="M287.5 238.6h-48.8c-4.7 0-8.5-3.8-8.5-8.5v-48.8c0-4.7 3.8-8.5 8.5-8.5h48.8c4.7 0 8.5 3.8 8.5 8.5v48.8C296 234.8 292.2 238.6 287.5 238.6z"/><line class="st2" x1="230.2" y1="181.3" x2="221.8" y2="181.3"/><line class="st2" x1="230.2" y1="199.6" x2="221.8" y2="199.6"/><line class="st2" x1="230.2" y1="193.5" x2="221.8" y2="193.5"/><line class="st2" x1="230.2" y1="187.4" x2="221.8" y2="187.4"/><line class="st2" x1="230.2" y1="205.7" x2="221.8" y2="205.7"/><line class="st2" x1="230.2" y1="217.9" x2="221.8" y2="217.9"/><line class="st2" x1="230.2" y1="224" x2="221.8" y2="224"/><line class="st2" x1="230.2" y1="211.8" x2="221.8" y2="211.8"/><line class="st2" x1="230.2" y1="230.1" x2="221.8" y2="230.1"/><line class="st2" x1="304.5" y1="181.3" x2="296" y2="181.3"/><line class="st2" x1="304.5" y1="199.6" x2="296" y2="199.6"/><line class="st2" x1="304.5" y1="193.5" x2="296" y2="193.5"/><line class="st2" x1="304.5" y1="187.4" x2="296" y2="187.4"/><line class="st2" x1="304.5" y1="205.7" x2="296" y2="205.7"/><line class="st2" x1="304.5" y1="217.9" x2="296" y2="217.9"/><line class="st2" x1="304.5" y1="224" x2="296" y2="224"/><line class="st2" x1="304.5" y1="211.8" x2="296" y2="211.8"/><line class="st2" x1="304.5" y1="230.1" x2="296" y2="230.1"/><line class="st2" x1="238.7" y1="164.3" x2="238.7" y2="172.8"/><line class="st2" x1="257" y1="164.3" x2="257" y2="172.8"/><line class="st2" x1="250.9" y1="164.3" x2="250.9" y2="172.8"/><line class="st2" x1="244.8" y1="164.3" x2="244.8" y2="172.8"/><line class="st2" x1="263.1" y1="164.3" x2="263.1" y2="172.8"/><line class="st2" x1="275.3" y1="164.3" x2="275.3" y2="172.8"/><line class="st2" x1="281.4" y1="164.3" x2="281.4" y2="172.8"/><line class="st2" x1="269.2" y1="164.3" x2="269.2" y2="172.8"/><line class="st2" x1="287.5" y1="164.3" x2="287.5" y2="172.8"/><line class="st2" x1="238.7" y1="238.6" x2="238.7" y2="247"/><line class="st2" x1="257" y1="238.6" x2="257" y2="247"/><line class="st2" x1="250.9" y1="238.6" x2="250.9" y2="247"/><line class="st2" x1="244.8" y1="238.6" x2="244.8" y2="247"/><line class="st2" x1="263.1" y1="238.6" x2="263.1" y2="247"/><line class="st2" x1="275.3" y1="238.6" x2="275.3" y2="247"/><line class="st2" x1="281.4" y1="238.6" x2="281.4" y2="247"/><line class="st2" x1="269.2" y1="238.6" x2="269.2" y2="247"/><line class="st2" x1="287.5" y1="238.6" x2="287.5" y2="247"/></g><g class="st1"><path class="st2" d="M170.2 223c0 10.5-8.5 19-19 19s-19-8.5-19-19"/><path class="st2" d="M151.2 184.1c-7.2 0-13 5.8-13 13v25.9c0 7.2 5.8 13 13 13 7.2 0 13-5.8 13-13v-25.9C164.2 190 158.4 184.1 151.2 184.1z"/><circle class="st2" cx="151.2" cy="220.4" r="3.5"/><line class="st2" x1="147.7" y1="220.4" x2="138.1" y2="220.4"/><line class="st2" x1="154.6" y1="220.4" x2="164.2" y2="220.4"/><line class="st2" x1="164.2" y1="197.7" x2="156.5" y2="197.7"/><line class="st2" x1="164.2" y1="203.3" x2="156.5" y2="203.3"/><line class="st2" x1="164.2" y1="208.9" x2="156.5" y2="208.9"/><line class="st2" x1="145.9" y1="197.7" x2="138.1" y2="197.7"/><line class="st2" x1="145.9" y1="203.3" x2="138.1" y2="203.3"/><line class="st2" x1="145.9" y1="208.9" x2="138.1" y2="208.9"/><line class="st2" x1="151.2" y1="242.1" x2="151.2" y2="251.3"/><line class="st2" x1="138.1" y1="251.4" x2="164.2" y2="251.4"/></g><path class="st3" d="M108.1 161.8c7.2 0 7.2 10.9 14.4 10.9 7.2 0 7.2-10.9 14.4-10.9 7.2 0 7.2 10.9 14.4 10.9 7.2 0 7.2-10.9 14.4-10.9 7.2 0 7.2 10.9 14.4 10.9 7.2 0 7.2-10.9 14.4-10.9"/><path class="st6" d="M516.4 47.7c-1.6-1.4-3.4-2.5-5.2-3.6 -2.4-1.5-5.8-2.6-8.3-0.5 -1.1 0.9-1.7 2.3-2.6 3.4 -1.8 2.2-4.5 3.3-7.2 4.1 -4.4 1.4-9.9 2.7-11.7 7.5 -0.6 1.5-0.6 3.3 0.1 4.8 0.7 1.7 2.2 2.9 3.8 3.6 1.7 0.7 3.5 0.9 5.3 0.8 4.3-0.2 8.4-1.9 12.7-2.6 3.6-0.6 7.2 0.7 10.7 0.3 3-0.3 5.7-2.2 7.1-4.8 0.8-1.6 1.1-3.5 0.8-5.3 -0.4-2-1.5-3.8-2.9-5.3C518.1 49.2 517.3 48.4 516.4 47.7z"/></g><rect x="-1.4" y="-21.9" transform="matrix(0.866 -0.5 0.5 0.866 6.0991 4.408)" class="st7" width="25.4" height="25.4"/><rect x="6.1" y="0.4" transform="matrix(0.866 -0.5 0.5 0.866 0.88 5.582)" class="st7" width="9.5" height="1.6"/><path class="st7" d="M-2.4-12.1l3.7-2.2c2.2-1.3 4.2-0.7 5.3 1.1l0 0c1.2 2.1 0.2 4.1-1.8 5.3L3.2-7l1.6 2.8L2.9-3.1 -2.4-12.1 -2.4-12.1 -2.4-12.1zM4.7-11.9L4.7-11.9c-0.5-0.9-1.4-1-2.4-0.4l-1.5 0.9 1.6 2.8 1.6-0.9C5-10.1 5.1-11.1 4.7-11.9z"/><path class="st7" d="M8.3-12.1L8.3-12.1c-0.8-1.2-1-2.7-0.6-4.2 0.4-1.4 1.3-2.6 2.6-3.3 1.7-1 3.1-1 4.4-0.6l-0.4 2.2c-1.1-0.2-2-0.2-2.9 0.3 -1.5 0.9-1.9 2.8-1 4.4l0 0c0.9 1.5 2.8 2.2 4.3 1.3 1.1-0.6 1.5-1.4 1.8-2.4l2 0.5c-0.4 1.5-1 2.8-2.8 3.8 -1.2 0.7-2.7 0.9-4.1 0.5S9-10.9 8.3-12.1"/><polyline class="st8" points="16.7 7.4 15.9 11.6 -0.2 11.6 -11.2 -12.5 -1.4 -25.3 7.5 -24.8 "/><polyline class="st8" points="6.1 -20.9 9.7 -31.7 14.5 -25.7 "/><line class="st8" x1="0.1" y1="7.4" x2="0.8" y2="-1.9"/><polyline class="st8" points="10.7 5.8 11.7 8.6 28.3 4.4 36.9 -5.5 22.9 -19.5 21.2 -17.4 "/><polyline class="st8" points="17.2 -24.3 26.6 -22.7 27.1 -15.3 "/><rect x="-24" y="43.9" transform="matrix(0.866 -0.5 0.5 0.866 -29.8246 1.9188)" class="st7" width="25.4" height="25.4"/><rect x="-16.5" y="66.1" transform="matrix(0.866 -0.5 0.5 0.866 -35.0437 3.0928)" class="st7" width="9.5" height="1.6"/><path class="st7" d="M-25 53.7l3.7-2.2c2.2-1.3 4.2-0.7 5.3 1.1l0 0c1.2 2.1 0.2 4.1-1.8 5.3l-1.5 0.9 1.6 2.8 -2 1.1L-25 53.7 -25 53.7 -25 53.7zM-17.9 53.9L-17.9 53.9c-0.5-0.9-1.4-1-2.4-0.4l-1.5 0.9 1.6 2.8 1.6-0.9C-17.6 55.6-17.5 54.7-17.9 53.9z"/><path class="st7" d="M-14.3 53.7L-14.3 53.7c-0.8-1.2-1-2.7-0.6-4.2 0.4-1.4 1.3-2.6 2.6-3.3 1.7-1 3.1-1 4.4-0.6l-0.4 2.2c-1.1-0.2-2-0.2-2.9 0.3 -1.5 0.9-1.9 2.8-1 4.4l0 0c0.9 1.5 2.8 2.2 4.3 1.3 1.1-0.6 1.5-1.4 1.8-2.4l2 0.5c-0.4 1.5-1 2.8-2.8 3.8 -1.2 0.7-2.7 0.9-4.1 0.5C-12.5 55.8-13.6 54.9-14.3 53.7"/><polyline class="st8" points="-5.9 73.2 -6.7 77.4 -22.8 77.3 -33.8 53.3 -24 40.5 -15.1 41 "/><polyline class="st8" points="-16.5 44.9 -12.9 34.1 -8.1 40.1 "/><line class="st8" x1="-22.6" y1="73.2" x2="-21.8" y2="63.9"/><polyline class="st8" points="-11.9 71.6 -10.9 74.4 5.7 70.2 14.3 60.3 0.3 46.2 -1.4 48.4 "/><polyline class="st8" points="-5.4 41.5 4 43.1 4.5 50.5 "/><path class="st8" d="M41 12.4l-13.4 7.7 -0.4-0.6c-1.3-2.2-4.2-3-6.5-1.7l-9.7 5.6c-2.2 1.3-3 4.2-1.7 6.5l12.6 21.9c1.4 2.5 4.6 3.3 7.1 1.9l26.8-15.4c2.5-1.4 3.3-4.6 1.9-7.1L48.1 14.3C46.7 11.8 43.5 11 41 12.4z"/><rect x="66" y="-8.1" transform="matrix(0.866 -0.5 0.5 0.866 8.237 39.9804)" class="st7" width="25.4" height="25.4"/><rect x="73.5" y="14.2" transform="matrix(0.866 -0.5 0.5 0.866 3.0179 41.1544)" class="st7" width="9.5" height="1.6"/><path class="st7" d="M65.1 1.7L68.8-0.5c2.2-1.3 4.2-0.7 5.3 1.1l0 0c1.2 2.1 0.2 4.1-1.8 5.3l-1.5 0.9 1.6 2.8 -2 1.1L65.1 1.7 65.1 1.7 65.1 1.7zM72.1 1.9L72.1 1.9c-0.5-0.9-1.4-1-2.4-0.4l-1.5 0.9 1.6 2.8 1.6-0.9C72.4 3.6 72.6 2.7 72.1 1.9z"/><path class="st7" d="M75.7 1.7L75.7 1.7c-0.8-1.2-1-2.7-0.6-4.2 0.4-1.4 1.3-2.6 2.6-3.3 1.7-1 3.1-1 4.4-0.6l-0.4 2.2c-1.1-0.2-2-0.2-2.9 0.3 -1.5 0.9-1.9 2.8-1 4.4l0 0C78.7 2 80.5 2.7 82.1 1.8c1.1-0.6 1.5-1.4 1.8-2.4l2 0.5c-0.4 1.5-1 2.8-2.8 3.8 -1.2 0.7-2.7 0.9-4.1 0.5C77.6 3.9 76.4 2.9 75.7 1.7"/><polyline class="st8" points="84.1 21.2 83.3 25.4 67.2 25.3 56.2 1.3 66 -11.5 74.9 -11 "/><polyline class="st8" points="73.6 -7.1 77.1 -17.9 81.9 -11.9 "/><line class="st8" x1="67.5" y1="21.2" x2="68.3" y2="11.9"/><polyline class="st8" points="78.2 19.6 79.1 22.4 95.7 18.2 104.3 8.3 90.3 -5.7 88.6 -3.6 "/><polyline class="st8" points="84.6 -10.5 94.1 -8.9 94.5 -1.5 "/><path class="st8" d="M131.1-39.6l-13.4 7.7 -0.4-0.6c-1.3-2.2-4.2-3-6.5-1.7l-9.7 5.6c-2.2 1.3-3 4.2-1.7 6.5l12.6 21.9c1.4 2.5 4.6 3.3 7.1 1.9l26.8-15.4c2.5-1.4 3.3-4.6 1.9-7.1l-9.7-16.8C136.7-40.2 133.5-41 131.1-39.6z"/><rect x="44.3" y="57.2" transform="matrix(0.866 -0.5 0.5 0.866 -27.3427 37.8498)" class="st7" width="25.4" height="25.4"/><rect x="51.8" y="79.5" transform="matrix(0.866 -0.5 0.5 0.866 -32.5618 39.0238)" class="st7" width="9.5" height="1.6"/><path class="st7" d="M43.3 67l3.7-2.2c2.2-1.3 4.2-0.7 5.3 1.1l0 0c1.2 2.1 0.2 4.1-1.8 5.3l-1.5 0.9 1.6 2.8 -2 1.1L43.3 67 43.3 67 43.3 67zM50.3 67.2L50.3 67.2c-0.5-0.9-1.4-1-2.4-0.4l-1.5 0.9 1.6 2.8 1.6-0.9C50.7 69 50.8 68 50.3 67.2z"/><path class="st7" d="M53.9 67L53.9 67c-0.8-1.2-1-2.7-0.6-4.2 0.4-1.4 1.3-2.6 2.6-3.3 1.7-1 3.1-1 4.4-0.6l-0.4 2.2c-1.1-0.2-2-0.2-2.9 0.3 -1.5 0.9-1.9 2.8-1 4.4l0 0c0.9 1.5 2.8 2.2 4.3 1.3 1.1-0.6 1.5-1.4 1.8-2.4l2 0.5c-0.4 1.5-1 2.8-2.8 3.8 -1.2 0.7-2.7 0.9-4.1 0.5S54.6 68.3 53.9 67"/><polyline class="st8" points="62.4 86.5 61.6 90.8 45.5 90.7 34.5 66.7 44.3 53.8 53.2 54.3 "/><polyline class="st8" points="51.8 58.3 55.4 47.4 60.2 53.4 "/><line class="st8" x1="45.7" y1="86.5" x2="46.5" y2="77.2"/><polyline class="st8" points="56.4 84.9 57.3 87.8 74 83.5 82.6 73.7 68.6 59.6 66.9 61.7 "/><polyline class="st8" points="62.9 54.8 72.3 56.4 72.8 63.8 "/><path class="st8" d="M19.2 77.7L5.8 85.5l-0.4-0.6c-1.3-2.2-4.2-3-6.5-1.7l-9.7 5.6c-2.2 1.3-3 4.2-1.7 6.5l12.6 21.9c1.4 2.5 4.6 3.3 7.1 1.9l26.8-15.4c2.5-1.4 3.3-4.6 1.9-7.1L26.3 79.6C24.9 77.2 21.7 76.3 19.2 77.7z"/><rect x="134.4" y="5.2" transform="matrix(0.866 -0.5 0.5 0.866 10.743 75.9356)" class="st7" width="25.4" height="25.4"/><rect x="141.9" y="27.5" transform="matrix(0.866 -0.5 0.5 0.866 5.5239 77.1096)" class="st7" width="9.5" height="1.6"/><path class="st7" d="M133.4 15l3.7-2.2c2.2-1.3 4.2-0.7 5.3 1.1l0 0c1.2 2.1 0.2 4.1-1.8 5.3l-1.5 0.9 1.6 2.8 -2 1.1L133.4 15 133.4 15 133.4 15zM140.5 15.2L140.5 15.2c-0.5-0.9-1.4-1-2.4-0.4l-1.5 0.9 1.6 2.8 1.6-0.9C140.8 16.9 140.9 16 140.5 15.2z"/><path class="st7" d="M144.1 15L144.1 15c-0.8-1.2-1-2.7-0.6-4.2 0.4-1.4 1.3-2.6 2.6-3.3 1.7-1 3.1-1 4.4-0.6l-0.4 2.2c-1.1-0.2-2-0.2-2.9 0.3 -1.5 0.9-1.9 2.8-1 4.4l0 0c0.9 1.5 2.8 2.2 4.3 1.3 1.1-0.6 1.5-1.4 1.8-2.4l2 0.5c-0.4 1.5-1 2.8-2.8 3.8 -1.2 0.7-2.7 0.9-4.1 0.5C145.9 17.2 144.8 16.2 144.1 15"/><polyline class="st8" points="152.5 34.5 151.7 38.7 135.6 38.6 124.6 14.6 134.4 1.8 143.3 2.3 "/><polyline class="st8" points="141.9 6.2 145.5 -4.6 150.3 1.4 "/><line class="st8" x1="135.8" y1="34.5" x2="136.6" y2="25.2"/><polyline class="st8" points="146.5 32.9 147.5 35.7 164.1 31.5 172.7 21.6 158.7 7.6 157 9.7 "/><polyline class="st8" points="153 2.8 162.4 4.4 162.9 11.8 "/><path class="st8" d="M109.3 25.7l-13.4 7.7 -0.4-0.6c-1.3-2.2-4.2-3-6.5-1.7l-9.7 5.6c-2.2 1.3-3 4.2-1.7 6.5L90.3 65c1.4 2.5 4.6 3.3 7.1 1.9l26.8-15.4c2.5-1.4 3.3-4.6 1.9-7.1l-9.7-16.8C115 25.1 111.8 24.3 109.3 25.7z"/><path class="st8" d="M199.4-26.3l-13.4 7.7 -0.4-0.6c-1.3-2.2-4.2-3-6.5-1.7l-9.7 5.6c-2.2 1.3-3 4.2-1.7 6.5l12.6 21.9c1.4 2.5 4.6 3.3 7.1 1.9L214.3-0.6c2.5-1.4 3.3-4.6 1.9-7.1l-9.7-16.8C205.1-26.9 201.9-27.7 199.4-26.3z"/><path class="st8" d="M-3.5 143.2l-13.4 7.7 -0.4-0.6c-1.3-2.2-4.2-3-6.5-1.7l-9.7 5.6c-2.2 1.3-3 4.2-1.7 6.5l12.6 21.9c1.4 2.5 4.6 3.3 7.1 1.9l26.8-15.4c2.5-1.4 3.3-4.6 1.9-7.1l-9.7-16.8C2.1 142.6-1.1 141.8-3.5 143.2z"/><rect x="21.5" y="122.7" transform="matrix(0.866 -0.5 0.5 0.866 -63.1436 35.2379)" class="st7" width="25.4" height="25.4"/><rect x="29" y="145" transform="matrix(0.866 -0.5 0.5 0.866 -68.3627 36.4119)" class="st7" width="9.5" height="1.6"/><path class="st7" d="M20.5 132.5l3.7-2.2c2.2-1.3 4.2-0.7 5.3 1.1l0 0c1.2 2.1 0.2 4.1-1.8 5.3l-1.5 0.9 1.6 2.8 -2 1.1L20.5 132.5 20.5 132.5 20.5 132.5zM27.6 132.7L27.6 132.7c-0.5-0.9-1.4-1-2.4-0.4l-1.5 0.9 1.6 2.8 1.6-0.9C27.9 134.5 28 133.5 27.6 132.7z"/><path class="st7" d="M31.2 132.5L31.2 132.5c-0.8-1.2-1-2.7-0.6-4.2 0.4-1.4 1.3-2.6 2.6-3.3 1.7-1 3.1-1 4.4-0.6l-0.4 2.2c-1.1-0.2-2-0.2-2.9 0.3 -1.5 0.9-1.9 2.8-1 4.4l0 0c0.9 1.5 2.8 2.2 4.3 1.3 1.1-0.6 1.5-1.4 1.8-2.4l2 0.5c-0.4 1.5-1 2.8-2.8 3.8 -1.2 0.7-2.7 0.9-4.1 0.5S31.9 133.8 31.2 132.5"/><polyline class="st8" points="39.6 152 38.8 156.3 22.7 156.2 11.7 132.2 21.5 119.3 30.4 119.8 "/><polyline class="st8" points="29 123.8 32.6 112.9 37.4 118.9 "/><line class="st8" x1="23" y1="152" x2="23.7" y2="142.7"/><polyline class="st8" points="33.6 150.4 34.6 153.3 51.2 149 59.8 139.2 45.8 125.1 44.1 127.2 "/><polyline class="st8" points="40.1 120.3 49.5 121.9 50 129.3 "/><path class="st8" d="M86.5 91.2l-13.4 7.7 -0.4-0.6c-1.3-2.2-4.2-3-6.5-1.7l-9.7 5.6c-2.2 1.3-3 4.2-1.7 6.5l12.6 21.9c1.4 2.5 4.6 3.3 7.1 1.9l26.8-15.4c2.5-1.4 3.3-4.6 1.9-7.1l-9.7-16.8C92.2 90.7 89 89.8 86.5 91.2z"/><rect x="111.5" y="70.8" transform="matrix(0.866 -0.5 0.5 0.866 -25.0821 73.2994)" class="st7" width="25.4" height="25.4"/><rect x="119.1" y="93" transform="matrix(0.866 -0.5 0.5 0.866 -30.3012 74.4734)" class="st7" width="9.5" height="1.6"/><path class="st7" d="M110.6 80.5l3.7-2.2c2.2-1.3 4.2-0.7 5.3 1.1l0 0c1.2 2.1 0.2 4.1-1.8 5.3l-1.5 0.9 1.6 2.8 -2 1.1L110.6 80.5 110.6 80.5 110.6 80.5zM117.6 80.8L117.6 80.8c-0.5-0.9-1.4-1-2.4-0.4l-1.5 0.9 1.6 2.8 1.6-0.9C117.9 82.5 118.1 81.5 117.6 80.8z"/><path class="st7" d="M121.2 80.5L121.2 80.5c-0.8-1.2-1-2.7-0.6-4.2 0.4-1.4 1.3-2.6 2.6-3.3 1.7-1 3.1-1 4.4-0.6l-0.4 2.2c-1.1-0.2-2-0.2-2.9 0.3 -1.5 0.9-1.9 2.8-1 4.4l0 0c0.9 1.5 2.8 2.2 4.3 1.3 1.1-0.6 1.5-1.4 1.8-2.4l2 0.5c-0.4 1.5-1 2.8-2.8 3.8 -1.2 0.7-2.7 0.9-4.1 0.5C123.1 82.7 121.9 81.8 121.2 80.5"/><polyline class="st8" points="129.6 100 128.8 104.3 112.7 104.2 101.7 80.2 111.6 67.3 120.4 67.8 "/><polyline class="st8" points="119.1 71.8 122.7 60.9 127.5 66.9 "/><line class="st8" x1="113" y1="100" x2="113.8" y2="90.7"/><polyline class="st8" points="123.7 98.4 124.6 101.3 141.2 97 149.8 87.2 135.9 73.1 134.1 75.2 "/><polyline class="st8" points="130.2 68.3 139.6 69.9 140.1 77.3 "/><path class="st8" d="M176.6 39.2l-13.4 7.7 -0.4-0.6c-1.3-2.2-4.2-3-6.5-1.7l-9.7 5.6c-2.2 1.3-3 4.2-1.7 6.5l12.6 21.9c1.4 2.5 4.6 3.3 7.1 1.9l26.8-15.4c2.5-1.4 3.3-4.6 1.9-7.1l-9.7-16.8C182.2 38.7 179.1 37.8 176.6 39.2z"/><rect x="201.6" y="18.8" transform="matrix(0.866 -0.5 0.5 0.866 12.9795 111.361)" class="st7" width="25.4" height="25.4"/><rect x="209.1" y="41" transform="matrix(0.866 -0.5 0.5 0.866 7.7604 112.535)" class="st7" width="9.5" height="1.6"/><path class="st7" d="M200.6 28.5l3.7-2.2c2.2-1.3 4.2-0.7 5.3 1.1l0 0c1.2 2.1 0.2 4.1-1.8 5.3l-1.5 0.9 1.6 2.8 -2 1.1L200.6 28.5 200.6 28.5 200.6 28.5zM207.7 28.8L207.7 28.8c-0.5-0.9-1.4-1-2.4-0.4l-1.5 0.9 1.6 2.8 1.6-0.9C208 30.5 208.1 29.5 207.7 28.8z"/><path class="st7" d="M211.3 28.5L211.3 28.5c-0.8-1.2-1-2.7-0.6-4.2s1.3-2.6 2.6-3.3c1.7-1 3.1-1 4.4-0.6l-0.4 2.2c-1.1-0.2-2-0.2-2.9 0.3 -1.5 0.9-1.9 2.8-1 4.4l0 0c0.9 1.5 2.8 2.2 4.3 1.3 1.1-0.6 1.5-1.4 1.8-2.4l2 0.5c-0.4 1.5-1 2.8-2.8 3.8 -1.2 0.7-2.7 0.9-4.1 0.5C213.2 30.7 212 29.8 211.3 28.5"/><polyline class="st8" points="219.7 48 218.9 52.3 202.8 52.2 191.8 28.2 201.6 15.3 210.5 15.9 "/><polyline class="st8" points="209.1 19.8 212.7 8.9 217.5 14.9 "/><line class="st8" x1="203.1" y1="48" x2="203.8" y2="38.8"/><polyline class="st8" points="213.7 46.5 214.7 49.3 231.3 45 239.9 35.2 225.9 21.1 224.2 23.2 "/><polyline class="st8" points="220.2 16.3 229.6 17.9 230.1 25.3 "/><path class="st8" d="M266.6-12.8l-13.4 7.7 -0.4-0.6c-1.3-2.2-4.2-3-6.5-1.7l-9.7 5.6c-2.2 1.3-3 4.2-1.7 6.5l12.6 21.9c1.4 2.5 4.6 3.3 7.1 1.9l26.8-15.4c2.5-1.4 3.3-4.6 1.9-7.1l-9.7-16.8C272.3-13.3 269.1-14.2 266.6-12.8z"/><rect x="89.8" y="136.1" transform="matrix(0.866 -0.5 0.5 0.866 -60.6618 71.1689)" class="st7" width="25.4" height="25.4"/><rect x="97.3" y="158.3" transform="matrix(0.866 -0.5 0.5 0.866 -65.8809 72.3429)" class="st7" width="9.5" height="1.6"/><path class="st7" d="M88.8 145.8l3.7-2.2c2.2-1.3 4.2-0.7 5.3 1.1l0 0c1.2 2.1 0.2 4.1-1.8 5.3L94.4 151l1.6 2.8 -2 1.1L88.8 145.8 88.8 145.8 88.8 145.8zM95.9 146.1L95.9 146.1c-0.5-0.9-1.4-1-2.4-0.4l-1.5 0.9 1.6 2.8 1.6-0.9C96.2 147.8 96.3 146.9 95.9 146.1z"/><path class="st7" d="M99.5 145.8L99.5 145.8c-0.8-1.2-1-2.7-0.6-4.2 0.4-1.4 1.3-2.6 2.6-3.3 1.7-1 3.1-1 4.4-0.6l-0.4 2.2c-1.1-0.2-2-0.2-2.9 0.3 -1.5 0.9-1.9 2.8-1 4.4l0 0c0.9 1.5 2.8 2.2 4.3 1.3 1.1-0.6 1.5-1.4 1.8-2.4l2 0.5c-0.4 1.5-1 2.8-2.8 3.8 -1.2 0.7-2.7 0.9-4.1 0.5S100.2 147.1 99.5 145.8"/><polyline class="st8" points="107.9 165.3 107.1 169.6 91 169.5 80 145.5 89.8 132.6 98.7 133.2 "/><polyline class="st8" points="97.3 137.1 100.9 126.2 105.7 132.3 "/><line class="st8" x1="91.2" y1="165.4" x2="92" y2="156.1"/><polyline class="st8" points="101.9 163.8 102.9 166.6 119.5 162.4 128.1 152.5 114.1 138.4 112.4 140.5 "/><polyline class="st8" points="108.4 133.6 117.8 135.2 118.3 142.6 "/><rect x="179.9" y="84.1" transform="matrix(0.866 -0.5 0.5 0.866 -22.576 109.2546)" class="st7" width="25.4" height="25.4"/><rect x="187.4" y="106.3" transform="matrix(0.866 -0.5 0.5 0.866 -27.7952 110.4286)" class="st7" width="9.5" height="1.6"/><path class="st7" d="M178.9 93.8l3.7-2.2c2.2-1.3 4.2-0.7 5.3 1.1l0 0c1.2 2.1 0.2 4.1-1.8 5.3l-1.5 0.9 1.6 2.8 -2 1.1L178.9 93.8 178.9 93.8 178.9 93.8zM186 94.1L186 94.1c-0.5-0.9-1.4-1-2.4-0.4l-1.5 0.9 1.6 2.8 1.6-0.9C186.3 95.8 186.4 94.8 186 94.1z"/><path class="st7" d="M189.6 93.8L189.6 93.8c-0.8-1.2-1-2.7-0.6-4.2 0.4-1.4 1.3-2.6 2.6-3.3 1.7-1 3.1-1 4.4-0.6l-0.4 2.2c-1.1-0.2-2-0.2-2.9 0.3 -1.5 0.9-1.9 2.8-1 4.4l0 0c0.9 1.5 2.8 2.2 4.3 1.3 1.1-0.6 1.5-1.4 1.8-2.4l2 0.5c-0.4 1.5-1 2.8-2.8 3.8 -1.2 0.7-2.7 0.9-4.1 0.5C191.5 96 190.3 95.1 189.6 93.8"/><polyline class="st8" points="198 113.3 197.2 117.6 181.1 117.5 170.1 93.5 179.9 80.6 188.8 81.1 "/><polyline class="st8" points="187.4 85.1 191 74.2 195.8 80.2 "/><line class="st8" x1="181.4" y1="113.3" x2="182.1" y2="104"/><polyline class="st8" points="192 111.7 193 114.6 209.6 110.3 218.2 100.5 204.2 86.4 202.5 88.5 "/><polyline class="st8" points="198.5 81.6 207.9 83.2 208.4 90.6 "/><path class="st8" d="M154.8 104.5l-13.4 7.7 -0.4-0.6c-1.3-2.2-4.2-3-6.5-1.7l-9.7 5.6c-2.2 1.3-3 4.2-1.7 6.5l12.6 21.9c1.4 2.5 4.6 3.3 7.1 1.9l26.8-15.4c2.5-1.4 3.3-4.6 1.9-7.1l-9.7-16.8C160.5 104 157.3 103.1 154.8 104.5z"/><rect x="270" y="32" transform="matrix(0.866 -0.5 0.5 0.866 15.5097 147.3404)" class="st7" width="25.4" height="25.4"/><rect x="277.5" y="54.3" transform="matrix(0.866 -0.5 0.5 0.866 10.2906 148.5144)" class="st7" width="9.5" height="1.6"/><path class="st7" d="M269 41.8l3.7-2.2c2.2-1.3 4.2-0.7 5.3 1.1l0 0c1.2 2.1 0.2 4.1-1.8 5.3l-1.5 0.9 1.6 2.8 -2 1.1L269 41.8 269 41.8 269 41.8zM276.1 42L276.1 42c-0.5-0.9-1.4-1-2.4-0.4l-1.5 0.9 1.6 2.8 1.6-0.9C276.4 43.8 276.5 42.8 276.1 42z"/><path class="st7" d="M279.7 41.8L279.7 41.8c-0.8-1.2-1-2.7-0.6-4.2 0.4-1.4 1.3-2.6 2.6-3.3 1.7-1 3.1-1 4.4-0.6l-0.4 2.2c-1.1-0.2-2-0.2-2.9 0.3 -1.5 0.9-1.9 2.8-1 4.4l0 0c0.9 1.5 2.8 2.2 4.3 1.3 1.1-0.6 1.5-1.4 1.8-2.4l2 0.5c-0.4 1.5-1 2.8-2.8 3.8 -1.2 0.7-2.7 0.9-4.1 0.5C281.6 44 280.4 43 279.7 41.8"/><polyline class="st8" points="288.1 61.3 287.3 65.5 271.2 65.5 260.2 41.4 270 28.6 278.9 29.1 "/><polyline class="st8" points="277.5 33 281.1 22.2 285.9 28.2 "/><line class="st8" x1="271.5" y1="61.3" x2="272.2" y2="52"/><polyline class="st8" points="282.1 59.7 283.1 62.6 299.7 58.3 308.3 48.4 294.3 34.4 292.6 36.5 "/><polyline class="st8" points="288.6 29.6 298 31.2 298.5 38.6 "/><path class="st8" d="M245 52.5l-13.4 7.7 -0.4-0.6c-1.3-2.2-4.2-3-6.5-1.7l-9.7 5.6c-2.2 1.3-3 4.2-1.7 6.5l12.6 21.9c1.4 2.5 4.6 3.3 7.1 1.9l26.8-15.4c2.5-1.4 3.3-4.6 1.9-7.1l-9.7-16.8C250.6 51.9 247.4 51.1 245 52.5z"/><rect x="360.1" y="-20" transform="matrix(0.866 -0.5 0.5 0.866 53.5955 185.4261)" class="st7" width="25.4" height="25.4"/><rect x="367.6" y="2.2" transform="matrix(0.866 -0.5 0.5 0.866 48.3763 186.6001)" class="st7" width="9.5" height="1.6"/><path class="st7" d="M359.1-10.3l3.7-2.2c2.2-1.3 4.2-0.7 5.3 1.1l0 0c1.2 2.1 0.2 4.1-1.8 5.3l-1.5 0.9 1.6 2.8 -2 1.1L359.1-10.3 359.1-10.3 359.1-10.3zM366.2-10L366.2-10c-0.5-0.9-1.4-1-2.4-0.4l-1.5 0.9 1.6 2.8 1.6-0.9C366.5-8.3 366.6-9.2 366.2-10z"/><path class="st7" d="M369.8-10.2L369.8-10.2c-0.8-1.2-1-2.7-0.6-4.2 0.4-1.4 1.3-2.6 2.6-3.3 1.7-1 3.1-1 4.4-0.6l-0.4 2.2c-1.1-0.2-2-0.2-2.9 0.3 -1.5 0.9-1.9 2.8-1 4.4l0 0c0.9 1.5 2.8 2.2 4.3 1.3 1.1-0.6 1.5-1.4 1.8-2.4l2 0.5c-0.4 1.5-1 2.8-2.8 3.8 -1.2 0.7-2.7 0.9-4.1 0.5C371.7-8.1 370.5-9 369.8-10.2"/><polyline class="st8" points="378.2 9.2 377.4 13.5 361.3 13.4 350.3 -10.6 360.1 -23.4 369 -22.9 "/><polyline class="st8" points="367.6 -19 371.2 -29.8 376 -23.8 "/><line class="st8" x1="361.6" y1="9.3" x2="362.4"/><polyline class="st8" points="372.3 7.7 373.2 10.5 389.8 6.3 398.4 -3.6 384.4 -17.7 382.7 -15.5 "/><polyline class="st8" points="378.7 -22.4 388.2 -20.8 388.6 -13.4 "/><path class="st8" d="M335.1 0.5l-13.4 7.7 -0.4-0.6c-1.3-2.2-4.2-3-6.5-1.7l-9.7 5.6c-2.2 1.3-3 4.2-1.7 6.5l12.6 21.9c1.4 2.5 4.6 3.3 7.1 1.9l26.8-15.4c2.5-1.4 3.3-4.6 1.9-7.1l-9.7-16.8C340.7-0.1 337.5-0.9 335.1 0.5z"/><rect x="157.2" y="149.9" transform="matrix(0.866 -0.5 0.5 0.866 -58.5239 106.7413)" class="st7" width="25.4" height="25.4"/><rect x="164.7" y="172.1" transform="matrix(0.866 -0.5 0.5 0.866 -63.743 107.9153)" class="st7" width="9.5" height="1.6"/><path class="st7" d="M156.3 159.6l3.7-2.2c2.2-1.3 4.2-0.7 5.3 1.1l0 0c1.2 2.1 0.2 4.1-1.8 5.3l-1.5 0.9 1.6 2.8 -2 1.1L156.3 159.6 156.3 159.6 156.3 159.6zM163.3 159.9L163.3 159.9c-0.5-0.9-1.4-1-2.4-0.4l-1.5 0.9 1.6 2.8 1.6-0.9C163.6 161.6 163.7 160.6 163.3 159.9z"/><path class="st7" d="M166.9 159.6L166.9 159.6c-0.8-1.2-1-2.7-0.6-4.2 0.4-1.4 1.3-2.6 2.6-3.3 1.7-1 3.1-1 4.4-0.6l-0.4 2.2c-1.1-0.2-2-0.2-2.9 0.3 -1.5 0.9-1.9 2.8-1 4.4l0 0c0.9 1.5 2.8 2.2 4.3 1.3 1.1-0.6 1.5-1.4 1.8-2.4l2 0.5c-0.4 1.5-1 2.8-2.8 3.8 -1.2 0.7-2.7 0.9-4.1 0.5C168.8 161.8 167.6 160.9 166.9 159.6"/><polyline class="st8" points="175.3 179.1 174.5 183.4 158.4 183.3 147.4 159.3 157.2 146.4 166.1 147 "/><polyline class="st8" points="164.8 150.9 168.3 140 173.1 146.1 "/><line class="st8" x1="158.7" y1="179.1" x2="159.5" y2="169.9"/><polyline class="st8" points="169.4 177.6 170.3 180.4 186.9 176.2 195.5 166.3 181.5 152.2 179.8 154.3 "/><polyline class="st8" points="175.8 147.4 185.3 149 185.7 156.4 "/><path class="st8" d="M222.3 118.4l-13.4 7.7 -0.4-0.6c-1.3-2.2-4.2-3-6.5-1.7l-9.7 5.6c-2.2 1.3-3 4.2-1.7 6.5l12.6 21.9c1.4 2.5 4.6 3.3 7.1 1.9l26.8-15.4c2.5-1.4 3.3-4.6 1.9-7.1l-9.7-16.8C227.9 117.8 224.7 116.9 222.3 118.4z"/><rect x="247.3" y="97.9" transform="matrix(0.866 -0.5 0.5 0.866 -20.4623 144.8028)" class="st7" width="25.4" height="25.4"/><rect x="254.8" y="120.1" transform="matrix(0.866 -0.5 0.5 0.866 -25.6814 145.9769)" class="st7" width="9.5" height="1.6"/><path class="st7" d="M246.3 107.6l3.7-2.2c2.2-1.3 4.2-0.7 5.3 1.1l0 0c1.2 2.1 0.2 4.1-1.8 5.3l-1.5 0.9 1.6 2.8 -2 1.1L246.3 107.6 246.3 107.6 246.3 107.6zM253.4 107.9L253.4 107.9c-0.5-0.9-1.4-1-2.4-0.4l-1.5 0.9 1.6 2.8 1.6-0.9C253.7 109.6 253.8 108.7 253.4 107.9z"/><path class="st7" d="M257 107.6L257 107.6c-0.8-1.2-1-2.7-0.6-4.2 0.4-1.4 1.3-2.6 2.6-3.3 1.7-1 3.1-1 4.4-0.6l-0.4 2.2c-1.1-0.2-2-0.2-2.9 0.3 -1.5 0.9-1.9 2.8-1 4.4l0 0c0.9 1.5 2.8 2.2 4.3 1.3 1.1-0.6 1.5-1.4 1.8-2.4l2 0.5c-0.4 1.5-1 2.8-2.8 3.8 -1.2 0.7-2.7 0.9-4.1 0.5C258.8 109.8 257.7 108.9 257 107.6"/><polyline class="st8" points="265.4 127.1 264.6 131.4 248.5 131.3 237.5 107.3 247.3 94.4 256.2 95 "/><polyline class="st8" points="254.8 98.9 258.4 88 263.2 94.1 "/><line class="st8" x1="248.8" y1="127.2" x2="249.5" y2="117.9"/><polyline class="st8" points="259.4 125.6 260.4 128.4 277 124.2 285.6 114.3 271.6 100.2 269.9 102.3 "/><polyline class="st8" points="265.9 95.4 275.3 97 275.8 104.4 "/><path class="st8" d="M312.3 66.4l-13.4 7.7 -0.4-0.6c-1.3-2.2-4.2-3-6.5-1.7l-9.7 5.6c-2.2 1.3-3 4.2-1.7 6.5l12.6 21.9c1.4 2.5 4.6 3.3 7.1 1.9l26.8-15.4c2.5-1.4 3.3-4.6 1.9-7.1l-9.7-16.8C318 65.8 314.8 64.9 312.3 66.4z"/><rect x="337.3" y="45.9" transform="matrix(0.866 -0.5 0.5 0.866 17.5992 182.8644)" class="st7" width="25.4" height="25.4"/><rect x="344.9" y="68.1" transform="matrix(0.866 -0.5 0.5 0.866 12.3801 184.0384)" class="st7" width="9.5" height="1.6"/><path class="st7" d="M336.4 55.6l3.7-2.2c2.2-1.3 4.2-0.7 5.3 1.1l0 0c1.2 2.1 0.2 4.1-1.8 5.3L342 60.8l1.6 2.8 -2 1.1L336.4 55.6 336.4 55.6 336.4 55.6zM343.4 55.9L343.4 55.9c-0.5-0.9-1.4-1-2.4-0.4l-1.5 0.9 1.6 2.8 1.6-0.9C343.7 57.6 343.9 56.7 343.4 55.9z"/><path class="st7" d="M347 55.6L347 55.6c-0.8-1.2-1-2.7-0.6-4.2 0.4-1.4 1.3-2.6 2.6-3.3 1.7-1 3.1-1 4.4-0.6L353 49.8c-1.1-0.2-2-0.2-2.9 0.3 -1.5 0.9-1.9 2.8-1 4.4l0 0c0.9 1.5 2.8 2.2 4.3 1.3 1.1-0.6 1.5-1.4 1.8-2.4l2 0.5c-0.4 1.5-1 2.8-2.8 3.8 -1.2 0.7-2.7 0.9-4.1 0.5C348.9 57.8 347.7 56.9 347 55.6"/><polyline class="st8" points="355.4 75.1 354.6 79.4 338.5 79.3 327.5 55.3 337.3 42.5 346.2 43 "/><polyline class="st8" points="344.9 46.9 348.5 36 353.2 42.1 "/><line class="st8" x1="338.8" y1="75.2" x2="339.6" y2="65.9"/><polyline class="st8" points="349.5 73.6 350.4 76.4 367 72.2 375.6 62.3 361.6 48.2 359.9 50.4 "/><polyline class="st8" points="356 43.4 365.4 45 365.8 52.5 "/><path class="st8" d="M402.4 14.4l-13.4 7.7 -0.4-0.6c-1.3-2.2-4.2-3-6.5-1.7l-9.7 5.6c-2.2 1.3-3 4.2-1.7 6.5l12.6 21.9c1.4 2.5 4.6 3.3 7.1 1.9l26.8-15.4c2.5-1.4 3.3-4.6 1.9-7.1l-9.7-16.8C408 13.8 404.8 12.9 402.4 14.4z"/><rect x="427.4" y="-6.1" transform="matrix(0.866 -0.5 0.5 0.866 55.6584 220.9284)" class="st7" width="25.4" height="25.4"/><rect x="434.9" y="16.1" transform="matrix(0.866 -0.5 0.5 0.866 50.4393 222.1024)" class="st7" width="9.5" height="1.6"/><path class="st7" d="M426.4 3.6l3.7-2.2c2.2-1.3 4.2-0.7 5.3 1.1l0 0c1.2 2.1 0.2 4.1-1.8 5.3l-1.5 0.9 1.6 2.8 -2 1.1L426.4 3.6 426.4 3.6 426.4 3.6zM433.5 3.9L433.5 3.9c-0.5-0.9-1.4-1-2.4-0.4l-1.5 0.9 1.6 2.8 1.6-0.9C433.8 5.6 433.9 4.7 433.5 3.9z"/><path class="st7" d="M437.1 3.7L437.1 3.7c-0.8-1.2-1-2.7-0.6-4.2 0.4-1.4 1.3-2.6 2.6-3.3 1.7-1 3.1-1 4.4-0.6l-0.4 2.2c-1.1-0.2-2-0.2-2.9 0.3 -1.5 0.9-1.9 2.8-1 4.4l0 0c0.9 1.5 2.8 2.2 4.3 1.3 1.1-0.6 1.5-1.4 1.8-2.4l2 0.5c-0.4 1.5-1 2.8-2.8 3.8 -1.2 0.7-2.7 0.9-4.1 0.5C439 5.8 437.8 4.9 437.1 3.7"/><polyline class="st8" points="445.5 23.1 444.7 27.4 428.6 27.3 417.6 3.3 427.4 -9.5 436.3 -9 "/><polyline class="st8" points="434.9 -5.1 438.5 -15.9 443.3 -9.9 "/><line class="st8" x1="428.9" y1="23.2" x2="429.6" y2="13.9"/><polyline class="st8" points="439.5 21.6 440.5 24.4 457.1 20.2 465.7 10.3 451.7 -3.8 450 -1.6 "/><polyline class="st8" points="446 -8.5 455.4 -6.9 455.9 0.5 "/><path class="st8" d="M492.4-37.6l-13.4 7.7 -0.4-0.6c-1.3-2.2-4.2-3-6.5-1.7l-9.7 5.6c-2.2 1.3-3 4.2-1.7 6.5l12.6 21.9c1.4 2.5 4.6 3.3 7.1 1.9l26.8-15.4c2.5-1.4 3.3-4.6 1.9-7.1l-9.7-16.8C498.1-38.2 494.9-39 492.4-37.6z"/><rect x="315.7" y="111.2" transform="matrix(0.866 -0.5 0.5 0.866 -17.9321 180.7822)" class="st7" width="25.4" height="25.4"/><rect x="323.2" y="133.4" transform="matrix(0.866 -0.5 0.5 0.866 -23.1512 181.9562)" class="st7" width="9.5" height="1.6"/><path class="st7" d="M314.7 120.9l3.7-2.2c2.2-1.3 4.2-0.7 5.3 1.1l0 0c1.2 2.1 0.2 4.1-1.8 5.3l-1.5 0.9 1.6 2.8 -2 1.1L314.7 120.9 314.7 120.9 314.7 120.9zM321.8 121.2L321.8 121.2c-0.5-0.9-1.4-1-2.4-0.4l-1.5 0.9 1.6 2.8 1.6-0.9C322.1 122.9 322.2 121.9 321.8 121.2z"/><path class="st7" d="M325.4 120.9L325.4 120.9c-0.8-1.2-1-2.7-0.6-4.2 0.4-1.4 1.3-2.6 2.6-3.3 1.7-1 3.1-1 4.4-0.6l-0.4 2.2c-1.1-0.2-2-0.2-2.9 0.3 -1.5 0.9-1.9 2.8-1 4.4l0 0c0.9 1.5 2.8 2.2 4.3 1.3 1.1-0.6 1.5-1.4 1.8-2.4l2 0.5c-0.4 1.5-1 2.8-2.8 3.8 -1.2 0.7-2.7 0.9-4.1 0.5C327.2 123.1 326.1 122.2 325.4 120.9"/><polyline class="st8" points="333.8 140.4 333 144.7 316.9 144.6 305.9 120.6 315.7 107.7 324.6 108.2 "/><polyline class="st8" points="323.2 112.2 326.8 101.3 331.6 107.3 "/><line class="st8" x1="317.2" y1="140.4" x2="317.9" y2="131.1"/><polyline class="st8" points="327.8 138.8 328.8 141.7 345.4 137.4 354 127.6 340 113.5 338.3 115.6 "/><polyline class="st8" points="334.3 108.7 343.7 110.3 344.2 117.7 "/><path class="st8" d="M290.6 131.6l-13.4 7.7 -0.4-0.6c-1.3-2.2-4.2-3-6.5-1.7l-9.7 5.6c-2.2 1.3-3 4.2-1.7 6.5l12.6 21.9c1.4 2.5 4.6 3.3 7.1 1.9l26.8-15.4c2.5-1.4 3.3-4.6 1.9-7.1l-9.7-16.8C296.3 131.1 293.1 130.2 290.6 131.6z"/><rect x="405.8" y="59.1" transform="matrix(0.866 -0.5 0.5 0.866 20.1536 218.868)" class="st7" width="25.4" height="25.4"/><rect x="413.3" y="81.4" transform="matrix(0.866 -0.5 0.5 0.866 14.9345 220.042)" class="st7" width="9.5" height="1.6"/><path class="st7" d="M404.8 68.9l3.7-2.2c2.2-1.3 4.2-0.7 5.3 1.1l0 0c1.2 2.1 0.2 4.1-1.8 5.3l-1.5 0.9 1.6 2.8 -2 1.1L404.8 68.9 404.8 68.9 404.8 68.9zM411.9 69.1L411.9 69.1c-0.5-0.9-1.4-1-2.4-0.4l-1.5 0.9 1.6 2.8 1.6-0.9C412.2 70.9 412.3 69.9 411.9 69.1z"/><path class="st7" d="M415.5 68.9L415.5 68.9c-0.8-1.2-1-2.7-0.6-4.2 0.4-1.4 1.3-2.6 2.6-3.3 1.7-1 3.1-1 4.4-0.6L421.5 63c-1.1-0.2-2-0.2-2.9 0.3 -1.5 0.9-1.9 2.8-1 4.4l0 0c0.9 1.5 2.8 2.2 4.3 1.3 1.1-0.6 1.5-1.4 1.8-2.4l2 0.5c-0.4 1.5-1 2.8-2.8 3.8 -1.2 0.7-2.7 0.9-4.1 0.5C417.4 71.1 416.2 70.1 415.5 68.9"/><polyline class="st8" points="423.9 88.4 423.1 92.6 407 92.6 396 68.5 405.8 55.7 414.7 56.2 "/><polyline class="st8" points="413.3 60.1 416.9 49.3 421.7 55.3 "/><line class="st8" x1="407.3" y1="88.4" x2="408" y2="79.1"/><polyline class="st8" points="417.9 86.8 418.9 89.7 435.5 85.4 444.1 75.5 430.1 61.5 428.4 63.6 "/><polyline class="st8" points="424.4 56.7 433.8 58.3 434.3 65.7 "/><path class="st8" d="M380.8 79.6l-13.4 7.7L367 86.7c-1.3-2.2-4.2-3-6.5-1.7l-9.7 5.6c-2.2 1.3-3 4.2-1.7 6.5l12.6 21.9c1.4 2.5 4.6 3.3 7.1 1.9l26.8-15.4c2.5-1.4 3.3-4.6 1.9-7.1l-9.7-16.8C386.4 79 383.2 78.2 380.8 79.6z"/><rect x="495.9" y="7.1" transform="matrix(0.866 -0.5 0.5 0.866 58.2394 256.9537)" class="st7" width="25.4" height="25.4"/><rect x="503.4" y="29.3" transform="matrix(0.866 -0.5 0.5 0.866 53.0203 258.1277)" class="st7" width="9.5" height="1.6"/><path class="st7" d="M494.9 16.8l3.7-2.2c2.2-1.3 4.2-0.7 5.3 1.1l0 0c1.2 2.1 0.2 4.1-1.8 5.3l-1.5 0.9 1.6 2.8 -2 1.1L494.9 16.8 494.9 16.8 494.9 16.8zM502 17.1L502 17.1c-0.5-0.9-1.4-1-2.4-0.4L498 17.6l1.6 2.8 1.6-0.9C502.3 18.8 502.4 17.9 502 17.1z"/><path class="st7" d="M505.6 16.9L505.6 16.9c-0.8-1.2-1-2.7-0.6-4.2 0.4-1.4 1.3-2.6 2.6-3.3 1.7-1 3.1-1 4.4-0.6l-0.4 2.2c-1.1-0.2-2-0.2-2.9 0.3 -1.5 0.9-1.9 2.8-1 4.4l0 0c0.9 1.5 2.8 2.2 4.3 1.3 1.1-0.6 1.5-1.4 1.8-2.4l2 0.5c-0.4 1.5-1 2.8-2.8 3.8 -1.2 0.7-2.7 0.9-4.1 0.5C507.5 19 506.3 18.1 505.6 16.9"/><polyline class="st8" points="514 36.3 513.2 40.6 497.1 40.5 486.1 16.5 495.9 3.7 504.8 4.2 "/><polyline class="st8" points="503.4 8.1 507 -2.7 511.8 3.3 "/><line class="st8" x1="497.4" y1="36.4" x2="498.1" y2="27.1"/><polyline class="st8" points="508.1 34.8 509 37.6 525.6 33.4 534.2 23.5 520.2 9.4 518.5 11.6 "/><polyline class="st8" points="514.5 4.7 524 6.3 524.4 13.7 "/><path class="st8" d="M470.9 27.6l-13.4 7.7 -0.4-0.6c-1.3-2.2-4.2-3-6.5-1.7l-9.7 5.6c-2.2 1.3-3 4.2-1.7 6.5l12.6 21.9c1.4 2.5 4.6 3.3 7.1 1.9l26.8-15.4c2.5-1.4 3.3-4.6 1.9-7.1l-9.7-16.8C476.5 27 473.3 26.2 470.9 27.6z"/><path class="st8" d="M561-24.4l-13.4 7.7 -0.4-0.6c-1.3-2.2-4.2-3-6.5-1.7l-9.7 5.6c-2.2 1.3-3 4.2-1.7 6.5l12.6 21.9c1.4 2.5 4.6 3.3 7.1 1.9L575.8 1.3c2.5-1.4 3.3-4.6 1.9-7.1l-9.7-16.8C566.6-25 563.4-25.9 561-24.4z"/><path class="st8" d="M358.6 146.6l-13.4 7.7 -0.4-0.6c-1.3-2.2-4.2-3-6.5-1.7l-9.7 5.6c-2.2 1.3-3 4.2-1.7 6.5l12.6 21.9c1.4 2.5 4.6 3.3 7.1 1.9l26.8-15.4c2.5-1.4 3.3-4.6 1.9-7.1l-9.7-16.8C364.3 146 361.1 145.2 358.6 146.6z"/><rect x="383.7" y="126.1" transform="matrix(0.866 -0.5 0.5 0.866 -16.3145 216.7781)" class="st7" width="25.4" height="25.4"/><rect x="391.2" y="148.4" transform="matrix(0.866 -0.5 0.5 0.866 -21.5336 217.9521)" class="st7" width="9.5" height="1.6"/><path class="st7" d="M382.7 135.9l3.7-2.2c2.2-1.3 4.2-0.7 5.3 1.1l0 0c1.2 2.1 0.2 4.1-1.8 5.3l-1.5 0.9 1.6 2.8 -2 1.1L382.7 135.9 382.7 135.9 382.7 135.9zM389.7 136.1L389.7 136.1c-0.5-0.9-1.4-1-2.4-0.4l-1.5 0.9 1.6 2.8 1.6-0.9C390.1 137.9 390.2 136.9 389.7 136.1z"/><path class="st7" d="M393.3 135.9L393.3 135.9c-0.8-1.2-1-2.7-0.6-4.2 0.4-1.4 1.3-2.6 2.6-3.3 1.7-1 3.1-1 4.4-0.6l-0.4 2.2c-1.1-0.2-2-0.2-2.9 0.3 -1.5 0.9-1.9 2.8-1 4.4l0 0c0.9 1.5 2.8 2.2 4.3 1.3 1.1-0.6 1.5-1.4 1.8-2.4l2 0.5c-0.4 1.5-1 2.8-2.8 3.8 -1.2 0.7-2.7 0.9-4.1 0.5C395.2 138.1 394 137.1 393.3 135.9"/><polyline class="st8" points="401.8 155.4 401 159.6 384.9 159.6 373.9 135.5 383.7 122.7 392.6 123.2 "/><polyline class="st8" points="391.2 127.2 394.8 116.3 399.6 122.3 "/><line class="st8" x1="385.1" y1="155.4" x2="385.9" y2="146.1"/><polyline class="st8" points="395.8 153.8 396.7 156.7 413.4 152.4 422 142.5 408 128.5 406.3 130.6 "/><polyline class="st8" points="402.3 123.7 411.7 125.3 412.2 132.7 "/><path class="st8" d="M448.7 94.6l-13.4 7.7 -0.4-0.6c-1.3-2.2-4.2-3-6.5-1.7l-9.7 5.6c-2.2 1.3-3 4.2-1.7 6.5l12.6 21.9c1.4 2.5 4.6 3.3 7.1 1.9l26.8-15.4c2.5-1.4 3.3-4.6 1.9-7.1l-9.7-16.8C454.4 94 451.2 93.2 448.7 94.6z"/><rect x="473.7" y="74.1" transform="matrix(0.866 -0.5 0.5 0.866 21.7471 254.8397)" class="st7" width="25.4" height="25.4"/><rect x="481.2" y="96.4" transform="matrix(0.866 -0.5 0.5 0.866 16.528 256.0137)" class="st7" width="9.5" height="1.6"/><path class="st7" d="M472.8 83.9l3.7-2.2c2.2-1.3 4.2-0.7 5.3 1.1l0 0c1.2 2.1 0.2 4.1-1.8 5.3l-1.5 0.9 1.6 2.8 -2 1.1L472.8 83.9 472.8 83.9 472.8 83.9zM479.8 84.1L479.8 84.1c-0.5-0.9-1.4-1-2.4-0.4l-1.5 0.9 1.6 2.8 1.6-0.9C480.1 85.9 480.2 84.9 479.8 84.1z"/><path class="st7" d="M483.4 83.9L483.4 83.9c-0.8-1.2-1-2.7-0.6-4.2 0.4-1.4 1.3-2.6 2.6-3.3 1.7-1 3.1-1 4.4-0.6l-0.4 2.2c-1.1-0.2-2-0.2-2.9 0.3 -1.5 0.9-1.9 2.8-1 4.4l0 0c0.9 1.5 2.8 2.2 4.3 1.3 1.1-0.6 1.5-1.4 1.8-2.4l2 0.5c-0.4 1.5-1 2.8-2.8 3.8 -1.2 0.7-2.7 0.9-4.1 0.5S484.1 85.2 483.4 83.9"/><polyline class="st8" points="491.8 103.4 491 107.7 474.9 107.6 463.9 83.6 473.7 70.7 482.6 71.2 "/><polyline class="st8" points="481.3 75.2 484.8 64.3 489.6 70.3 "/><line class="st8" x1="475.2" y1="103.4" x2="476" y2="94.1"/><polyline class="st8" points="485.9 101.8 486.8 104.7 503.4 100.4 512 90.5 498 76.5 496.3 78.6 "/><polyline class="st8" points="492.3 71.7 501.8 73.3 502.2 80.7 "/><path class="st8" d="M538.8 42.6l-13.4 7.7 -0.4-0.6c-1.3-2.2-4.2-3-6.5-1.7l-9.7 5.6c-2.2 1.3-3 4.2-1.7 6.5l12.6 21.9c1.4 2.5 4.6 3.3 7.1 1.9l26.8-15.4c2.5-1.4 3.3-4.6 1.9-7.1l-9.7-16.8C544.4 42 541.2 41.2 538.8 42.6z"/><rect x="563.8" y="22.1" transform="matrix(0.866 -0.5 0.5 0.866 59.8087 292.9013)" class="st7" width="25.4" height="25.4"/><rect x="571.3" y="44.4" transform="matrix(0.866 -0.5 0.5 0.866 54.5896 294.0753)" class="st7" width="9.5" height="1.6"/><path class="st7" d="M562.8 31.9l3.7-2.2c2.2-1.3 4.2-0.7 5.3 1.1l0 0c1.2 2.1 0.2 4.1-1.8 5.3l-1.5 0.9 1.6 2.8 -2 1.1L562.8 31.9 562.8 31.9 562.8 31.9zM569.8 32.1L569.8 32.1c-0.5-0.9-1.4-1-2.4-0.4l-1.5 0.9 1.6 2.8 1.6-0.9C570.2 33.9 570.3 32.9 569.8 32.1z"/><path class="st7" d="M573.4 31.9L573.4 31.9c-0.8-1.2-1-2.7-0.6-4.2s1.3-2.6 2.6-3.3c1.7-1 3.1-1 4.4-0.6l-0.4 2.2c-1.1-0.2-2-0.2-2.9 0.3 -1.5 0.9-1.9 2.8-1 4.4l0 0c0.9 1.5 2.8 2.2 4.3 1.3 1.1-0.6 1.5-1.4 1.8-2.4l2 0.5c-0.4 1.5-1 2.8-2.8 3.8 -1.2 0.7-2.7 0.9-4.1 0.5C575.3 34.1 574.2 33.2 573.4 31.9"/><polyline class="st8" points="581.9 51.4 581.1 55.7 565 55.6 554 31.6 563.8 18.7 572.7 19.2 "/><polyline class="st8" points="571.3 23.2 574.9 12.3 579.7 18.3 "/><line class="st8" x1="565.2" y1="51.4" x2="566" y2="42.1"/><polyline class="st8" points="575.9 49.8 576.9 52.7 593.5 48.4 602.1 38.6 588.1 24.5 586.4 26.6 "/><polyline class="st8" points="582.4 19.7 591.8 21.3 592.3 28.7 "/><path class="st8" d="M628.8-9.4l-13.4 7.7 -0.4-0.6c-1.3-2.2-4.2-3-6.5-1.7l-9.7 5.6c-2.2 1.3-3 4.2-1.7 6.5l12.6 21.9c1.4 2.5 4.6 3.3 7.1 1.9l26.8-15.4c2.5-1.4 3.3-4.6 1.9-7.1L635.9-7.5C634.5-9.9 631.3-10.8 628.8-9.4z"/><rect x="452.1" y="139.4" transform="matrix(0.866 -0.5 0.5 0.866 -13.7601 252.7817)" class="st7" width="25.4" height="25.4"/><rect x="459.6" y="161.6" transform="matrix(0.866 -0.5 0.5 0.866 -18.9792 253.9557)" class="st7" width="9.5" height="1.6"/><path class="st7" d="M451.2 149.1l3.7-2.2c2.2-1.3 4.2-0.7 5.3 1.1l0 0c1.2 2.1 0.2 4.1-1.8 5.3l-1.5 0.9 1.6 2.8 -2 1.1L451.2 149.1 451.2 149.1 451.2 149.1zM458.2 149.4L458.2 149.4c-0.5-0.9-1.4-1-2.4-0.4l-1.5 0.9 1.6 2.8 1.6-0.9C458.5 151.1 458.6 150.1 458.2 149.4z"/><path class="st7" d="M461.8 149.1L461.8 149.1c-0.8-1.2-1-2.7-0.6-4.2 0.4-1.4 1.3-2.6 2.6-3.3 1.7-1 3.1-1 4.4-0.6l-0.4 2.2c-1.1-0.2-2-0.2-2.9 0.3 -1.5 0.9-1.9 2.8-1 4.4l0 0c0.9 1.5 2.8 2.2 4.3 1.3 1.1-0.6 1.5-1.4 1.8-2.4l2 0.5c-0.4 1.5-1 2.8-2.8 3.8 -1.2 0.7-2.7 0.9-4.1 0.5S462.5 150.4 461.8 149.1"/><polyline class="st8" points="470.2 168.6 469.4 172.9 453.3 172.8 442.3 148.8 452.1 135.9 461 136.5 "/><polyline class="st8" points="459.7 140.4 463.2 129.5 468 135.6 "/><line class="st8" x1="453.6" y1="168.6" x2="454.4" y2="159.4"/><polyline class="st8" points="464.3 167.1 465.2 169.9 481.8 165.6 490.4 155.8 476.4 141.7 474.7 143.8 "/><polyline class="st8" points="470.7 136.9 480.2 138.5 480.6 145.9 "/><rect x="542.2" y="87.3" transform="matrix(0.866 -0.5 0.5 0.866 24.3281 290.865)" class="st7" width="25.4" height="25.4"/><rect x="549.7" y="109.6" transform="matrix(0.866 -0.5 0.5 0.866 19.109 292.039)" class="st7" width="9.5" height="1.6"/><path class="st7" d="M541.3 97.1l3.7-2.2c2.2-1.3 4.2-0.7 5.3 1.1l0 0c1.2 2.1 0.2 4.1-1.8 5.3l-1.5 0.9 1.6 2.8 -2 1.1L541.3 97.1 541.3 97.1 541.3 97.1zM548.3 97.3L548.3 97.3c-0.5-0.9-1.4-1-2.4-0.4l-1.5 0.9 1.6 2.8 1.6-0.9C548.6 99.1 548.8 98.1 548.3 97.3z"/><path class="st7" d="M551.9 97.1L551.9 97.1c-0.8-1.2-1-2.7-0.6-4.2 0.4-1.4 1.3-2.6 2.6-3.3 1.7-1 3.1-1 4.4-0.6l-0.4 2.2c-1.1-0.2-2-0.2-2.9 0.3 -1.5 0.9-1.9 2.8-1 4.4l0 0c0.9 1.5 2.8 2.2 4.3 1.3 1.1-0.6 1.5-1.4 1.8-2.4l2 0.5c-0.4 1.5-1 2.8-2.8 3.8 -1.2 0.7-2.7 0.9-4.1 0.5S552.6 98.3 551.9 97.1"/><polyline class="st8" points="560.3 116.6 559.5 120.8 543.4 120.8 532.4 96.8 542.2 83.9 551.1 84.4 "/><polyline class="st8" points="549.8 88.4 553.3 77.5 558.1 83.5 "/><line class="st8" x1="543.7" y1="116.6" x2="544.5" y2="107.3"/><polyline class="st8" points="554.4 115 555.3 117.9 571.9 113.6 580.5 103.7 566.5 89.7 564.8 91.8 "/><polyline class="st8" points="560.9 84.9 570.3 86.5 570.7 93.9 "/><path class="st8" d="M517.2 107.8l-13.4 7.7 -0.4-0.6c-1.3-2.2-4.2-3-6.5-1.7l-9.7 5.6c-2.2 1.3-3 4.2-1.7 6.5l12.6 21.9c1.4 2.5 4.6 3.3 7.1 1.9l26.8-15.4c2.5-1.4 3.3-4.6 1.9-7.1l-9.7-16.8C522.9 107.3 519.7 106.4 517.2 107.8z"/><rect x="632.3" y="35.3" transform="matrix(0.866 -0.5 0.5 0.866 62.4139 328.9507)" class="st7" width="25.4" height="25.4"/><rect x="639.9" y="57.5" transform="matrix(0.866 -0.5 0.5 0.866 57.1947 330.1248)" class="st7" width="9.5" height="1.6"/><path class="st7" d="M631.4 45.1l3.7-2.2c2.2-1.3 4.2-0.7 5.3 1.1l0 0c1.2 2.1 0.2 4.1-1.8 5.3L637 50.2l1.6 2.8 -2 1.1L631.4 45.1 631.4 45.1 631.4 45.1zM638.4 45.3L638.4 45.3c-0.5-0.9-1.4-1-2.4-0.4l-1.5 0.9 1.6 2.8 1.6-0.9C638.7 47 638.9 46.1 638.4 45.3z"/><path class="st7" d="M642 45.1L642 45.1c-0.8-1.2-1-2.7-0.6-4.2 0.4-1.4 1.3-2.6 2.6-3.3 1.7-1 3.1-1 4.4-0.6l-0.4 2.2c-1.1-0.2-2-0.2-2.9 0.3 -1.5 0.9-1.9 2.8-1 4.4l0 0c0.9 1.5 2.8 2.2 4.3 1.3 1.1-0.6 1.5-1.4 1.8-2.4l2 0.5c-0.4 1.5-1 2.8-2.8 3.8 -1.2 0.7-2.7 0.9-4.1 0.5C643.9 47.2 642.7 46.3 642 45.1"/><polyline class="st8" points="650.4 64.6 649.6 68.8 633.5 68.7 622.5 44.7 632.3 31.9 641.2 32.4 "/><polyline class="st8" points="639.9 36.3 643.5 25.5 648.3 31.5 "/><line class="st8" x1="633.8" y1="64.6" x2="634.6" y2="55.3"/><polyline class="st8" points="644.5 63 645.4 65.8 662 61.6 670.6 51.7 656.7 37.6 654.9 39.8 "/><polyline class="st8" points="651 32.9 660.4 34.5 660.9 41.9 "/><path class="st8" d="M607.3 55.8l-13.4 7.7 -0.4-0.6c-1.3-2.2-4.2-3-6.5-1.7l-9.7 5.6c-2.2 1.3-3 4.2-1.7 6.5l12.6 21.9c1.4 2.5 4.6 3.3 7.1 1.9l26.8-15.4c2.5-1.4 3.3-4.6 1.9-7.1l-9.7-16.8C613 55.2 609.8 54.4 607.3 55.8z"/><rect x="519.4" y="153.3" transform="matrix(0.866 -0.5 0.5 0.866 -11.6972 288.284)" class="st7" width="25.4" height="25.4"/><rect x="526.9" y="175.5" transform="matrix(0.866 -0.5 0.5 0.866 -16.9163 289.458)" class="st7" width="9.5" height="1.6"/><path class="st7" d="M518.4 163l3.7-2.2c2.2-1.3 4.2-0.7 5.3 1.1l0 0c1.2 2.1 0.2 4.1-1.8 5.3l-1.5 0.9 1.6 2.8 -2 1.1L518.4 163 518.4 163 518.4 163zM525.5 163.3L525.5 163.3c-0.5-0.9-1.4-1-2.4-0.4l-1.5 0.9 1.6 2.8 1.6-0.9C525.8 165 525.9 164 525.5 163.3z"/><path class="st7" d="M529.1 163L529.1 163c-0.8-1.2-1-2.7-0.6-4.2 0.4-1.4 1.3-2.6 2.6-3.3 1.7-1 3.1-1 4.4-0.6l-0.4 2.2c-1.1-0.2-2-0.2-2.9 0.3 -1.5 0.9-1.9 2.8-1 4.4l0 0c0.9 1.5 2.8 2.2 4.3 1.3 1.1-0.6 1.5-1.4 1.8-2.4l2 0.5c-0.4 1.5-1 2.8-2.8 3.8 -1.2 0.7-2.7 0.9-4.1 0.5C531 165.2 529.8 164.3 529.1 163"/><polyline class="st8" points="537.5 182.5 536.7 186.8 520.6 186.7 509.6 162.7 519.4 149.8 528.3 150.4 "/><polyline class="st8" points="526.9 154.3 530.5 143.4 535.3 149.5 "/><line class="st8" x1="520.9" y1="182.5" x2="521.6" y2="173.3"/><polyline class="st8" points="531.5 181 532.5 183.8 549.1 179.6 557.7 169.7 543.7 155.6 542 157.7 "/><polyline class="st8" points="538 150.8 547.5 152.4 547.9 159.8 "/><path class="st8" d="M584.4 121.7l-13.4 7.7 -0.4-0.6c-1.3-2.2-4.2-3-6.5-1.7l-9.7 5.6c-2.2 1.3-3 4.2-1.7 6.5l12.6 21.9c1.4 2.5 4.6 3.3 7.1 1.9l26.8-15.4c2.5-1.4 3.3-4.6 1.9-7.1l-9.7-16.8C590.1 121.2 586.9 120.3 584.4 121.7z"/><rect x="609.5" y="101.3" transform="matrix(0.866 -0.5 0.5 0.866 26.3644 326.3456)" class="st7" width="25.4" height="25.4"/><rect x="617" y="123.5" transform="matrix(0.866 -0.5 0.5 0.866 21.1453 327.5196)" class="st7" width="9.5" height="1.6"/><path class="st7" d="M608.5 111l3.7-2.2c2.2-1.3 4.2-0.7 5.3 1.1l0 0c1.2 2.1 0.2 4.1-1.8 5.3l-1.5 0.9 1.6 2.8 -2 1.1L608.5 111 608.5 111 608.5 111zM615.5 111.3L615.5 111.3c-0.5-0.9-1.4-1-2.4-0.4l-1.5 0.9 1.6 2.8 1.6-0.9C615.8 113 616 112 615.5 111.3z"/><path class="st7" d="M619.1 111L619.1 111c-0.8-1.2-1-2.7-0.6-4.2 0.4-1.4 1.3-2.6 2.6-3.3 1.7-1 3.1-1 4.4-0.6l-0.4 2.2c-1.1-0.2-2-0.2-2.9 0.3 -1.5 0.9-1.9 2.8-1 4.4l0 0c0.9 1.5 2.8 2.2 4.3 1.3 1.1-0.6 1.5-1.4 1.8-2.4l2 0.5c-0.4 1.5-1 2.8-2.8 3.8 -1.2 0.7-2.7 0.9-4.1 0.5C621 113.2 619.8 112.3 619.1 111"/><polyline class="st8" points="627.6 130.5 626.8 134.8 610.7 134.7 599.6 110.7 609.5 97.8 618.4 98.4 "/><polyline class="st8" points="617 102.3 620.6 91.4 625.4 97.5 "/><line class="st8" x1="610.9" y1="130.5" x2="611.7" y2="121.3"/><polyline class="st8" points="621.6 129 622.5 131.8 639.2 127.6 647.8 117.7 633.8 103.6 632.1 105.7 "/><polyline class="st8" points="628.1 98.8 637.5 100.4 638 107.8 "/><path class="st8" d="M674.5 69.8l-13.4 7.7 -0.4-0.6c-1.3-2.2-4.2-3-6.5-1.7l-9.7 5.6c-2.2 1.3-3 4.2-1.7 6.5l12.6 21.9c1.4 2.5 4.6 3.3 7.1 1.9l26.8-15.4c2.5-1.4 3.3-4.6 1.9-7.1l-9.7-16.8C680.2 69.2 677 68.3 674.5 69.8z"/><rect x="678" y="114.4" transform="matrix(0.866 -0.5 0.5 0.866 28.9696 362.395)" class="st7" width="25.4" height="25.4"/><rect x="685.5" y="136.7" transform="matrix(0.866 -0.5 0.5 0.866 23.7505 363.569)" class="st7" width="9.5" height="1.6"/><path class="st7" d="M677.1 124.2l3.7-2.2c2.2-1.3 4.2-0.7 5.3 1.1l0 0c1.2 2.1 0.2 4.1-1.8 5.3l-1.5 0.9 1.6 2.8 -2 1.1L677.1 124.2 677.1 124.2 677.1 124.2zM684.1 124.4L684.1 124.4c-0.5-0.9-1.4-1-2.4-0.4l-1.5 0.9 1.6 2.8 1.6-0.9C684.4 126.2 684.6 125.2 684.1 124.4z"/><path class="st7" d="M687.7 124.2L687.7 124.2c-0.8-1.2-1-2.7-0.6-4.2 0.4-1.4 1.3-2.6 2.6-3.3 1.7-1 3.1-1 4.4-0.6l-0.4 2.2c-1.1-0.2-2-0.2-2.9 0.3 -1.5 0.9-1.9 2.8-1 4.4l0 0c0.9 1.5 2.8 2.2 4.3 1.3 1.1-0.6 1.5-1.4 1.8-2.4l2 0.5c-0.4 1.5-1 2.8-2.8 3.8 -1.2 0.7-2.7 0.9-4.1 0.5C689.6 126.4 688.4 125.5 687.7 124.2"/><polyline class="st8" points="696.1 143.7 695.3 148 679.2 147.9 668.2 123.9 678 111 686.9 111.5 "/><polyline class="st8" points="685.6 115.5 689.1 104.6 693.9 110.6 "/><line class="st8" x1="679.5" y1="143.7" x2="680.3" y2="134.4"/><polyline class="st8" points="690.2 142.1 691.1 145 707.7 140.7 716.3 130.8 702.3 116.8 700.6 118.9 "/><polyline class="st8" points="696.6 112 706.1 113.6 706.5 121 "/><path class="st8" d="M653 134.9l-13.4 7.7 -0.4-0.6c-1.3-2.2-4.2-3-6.5-1.7l-9.7 5.6c-2.2 1.3-3 4.2-1.7 6.5L634 174.2c1.4 2.5 4.6 3.3 7.1 1.9l26.8-15.4c2.5-1.4 3.3-4.6 1.9-7.1l-9.7-16.8C658.6 134.4 655.5 133.5 653 134.9z"/><path class="st8" d="M720 148.6l-13.4 7.7 -0.4-0.6c-1.3-2.2-4.2-3-6.5-1.7l-9.7 5.6c-2.2 1.3-3 4.2-1.7 6.5l12.6 21.9c1.4 2.5 4.6 3.3 7.1 1.9l26.8-15.4c2.5-1.4 3.3-4.6 1.9-7.1l-9.7-16.8C725.7 148 722.5 147.2 720 148.6z"/><rect x="653.8" y="-29.8" transform="matrix(0.866 -0.5 0.5 0.866 97.8702 330.9628)" class="st7" width="25.4" height="25.4"/><rect x="661.3" y="-7.6" transform="matrix(0.866 -0.5 0.5 0.866 92.6511 332.1368)" class="st7" width="9.5" height="1.6"/><path class="st7" d="M652.9-20.1l3.7-2.2c2.2-1.3 4.2-0.7 5.3 1.1l0 0c1.2 2.1 0.2 4.1-1.8 5.3l-1.5 0.9 1.6 2.8 -2 1.1L652.9-20.1 652.9-20.1 652.9-20.1zM659.9-19.8L659.9-19.8c-0.5-0.9-1.4-1-2.4-0.4l-1.5 0.9 1.6 2.8 1.6-0.9C660.2-18.1 660.3-19.1 659.9-19.8z"/><path class="st7" d="M663.5-20.1L663.5-20.1c-0.8-1.2-1-2.7-0.6-4.2 0.4-1.4 1.3-2.6 2.6-3.3 1.7-1 3.1-1 4.4-0.6l-0.4 2.2c-1.1-0.2-2-0.2-2.9 0.3 -1.5 0.9-1.9 2.8-1 4.4l0 0c0.9 1.5 2.8 2.2 4.3 1.3 1.1-0.6 1.5-1.4 1.8-2.4l2 0.5c-0.4 1.5-1 2.8-2.8 3.8 -1.2 0.7-2.7 0.9-4.1 0.5S664.2-18.8 663.5-20.1"/><polyline class="st8" points="671.9 -0.6 671.1 3.7 655 3.6 644 -20.4 653.8 -33.3 662.7 -32.8 "/><polyline class="st8" points="661.4 -28.8 664.9 -39.7 669.7 -33.7 "/><line class="st8" x1="655.3" y1="-0.6" x2="656.1" y2="-9.9"/><polyline class="st8" points="666 -2.2 666.9 0.7 683.5 -3.6 692.1 -13.4 678.1 -27.5 676.4 -25.4 "/><polyline class="st8" points="672.4 -32.3 681.9 -30.7 682.3 -23.3 "/><rect x="722.5" y="-16.7" transform="matrix(0.866 -0.5 0.5 0.866 100.4972 367.0389)" class="st7" width="25.4" height="25.4"/><rect x="730" y="5.5" transform="matrix(0.866 -0.5 0.5 0.866 95.278 368.213)" class="st7" width="9.5" height="1.6"/><path class="st7" d="M721.5-7l3.7-2.2c2.2-1.3 4.2-0.7 5.3 1.1l0 0c1.2 2.1 0.2 4.1-1.8 5.3l-1.5 0.9 1.6 2.8 -2 1.1L721.5-7 721.5-7 721.5-7zM728.5-6.7L728.5-6.7c-0.5-0.9-1.4-1-2.4-0.4l-1.5 0.9 1.6 2.8 1.6-0.9C728.8-5 729-5.9 728.5-6.7z"/><path class="st7" d="M732.1-7L732.1-7c-0.8-1.2-1-2.7-0.6-4.2s1.3-2.6 2.6-3.3c1.7-1 3.1-1 4.4-0.6l-0.4 2.2c-1.1-0.2-2-0.2-2.9 0.3 -1.5 0.9-1.9 2.8-1 4.4l0 0c0.9 1.5 2.8 2.2 4.3 1.3 1.1-0.6 1.5-1.4 1.8-2.4l2 0.5c-0.4 1.5-1 2.8-2.8 3.8 -1.2 0.7-2.7 0.9-4.1 0.5C734-4.8 732.8-5.7 732.1-7"/><polyline class="st8" points="740.6 12.5 739.8 16.8 723.7 16.7 712.7 -7.3 722.5 -20.1 731.4 -19.6 "/><polyline class="st8" points="730 -15.7 733.6 -26.6 738.4 -20.5 "/><line class="st8" x1="723.9" y1="12.6" x2="724.7" y2="3.3"/><polyline class="st8" points="734.6 11 735.5 13.8 752.2 9.6 760.8 -0.3 746.8 -14.4 745.1 -12.3 "/><polyline class="st8" points="741.1 -19.2 750.5 -17.6 751 -10.2 "/><path class="st8" d="M697.4 3.8l-13.4 7.7 -0.4-0.6c-1.3-2.2-4.2-3-6.5-1.7l-9.7 5.6c-2.2 1.3-3 4.2-1.7 6.5l12.6 21.9c1.4 2.5 4.6 3.3 7.1 1.9l26.8-15.4c2.5-1.4 3.3-4.6 1.9-7.1L704.5 5.7C703.1 3.2 699.9 2.3 697.4 3.8z"/><rect x="699.5" y="49.3" transform="matrix(0.866 -0.5 0.5 0.866 64.4284 364.4047)" class="st7" width="25.4" height="25.4"/><rect x="707" y="71.5" transform="matrix(0.866 -0.5 0.5 0.866 59.2093 365.5787)" class="st7" width="9.5" height="1.6"/><path class="st7" d="M698.5 59l3.7-2.2c2.2-1.3 4.2-0.7 5.3 1.1l0 0c1.2 2.1 0.2 4.1-1.8 5.3l-1.5 0.9 1.6 2.8 -2 1.1L698.5 59 698.5 59 698.5 59zM705.6 59.3L705.6 59.3c-0.5-0.9-1.4-1-2.4-0.4l-1.5 0.9 1.6 2.8 1.6-0.9C705.9 61 706 60 705.6 59.3z"/><path class="st7" d="M709.2 59L709.2 59c-0.8-1.2-1-2.7-0.6-4.2 0.4-1.4 1.3-2.6 2.6-3.3 1.7-1 3.1-1 4.4-0.6l-0.4 2.2c-1.1-0.2-2-0.2-2.9 0.3 -1.5 0.9-1.9 2.8-1 4.4l0 0c0.9 1.5 2.8 2.2 4.3 1.3 1.1-0.6 1.5-1.4 1.8-2.4l2 0.5c-0.4 1.5-1 2.8-2.8 3.8 -1.2 0.7-2.7 0.9-4.1 0.5C711.1 61.2 709.9 60.3 709.2 59"/><polyline class="st8" points="717.6 78.5 716.8 82.8 700.7 82.7 689.7 58.7 699.5 45.8 708.4 46.4 "/><polyline class="st8" points="707 50.3 710.6 39.4 715.4 45.5 "/><line class="st8" x1="701" y1="78.5" x2="701.7" y2="69.3"/><polyline class="st8" points="711.7 77 712.6 79.8 729.2 75.6 737.8 65.7 723.8 51.6 722.1 53.7 "/><polyline class="st8" points="718.1 46.8 727.6 48.4 728 55.8 "/><path class="st8" d="M764.6 17.8l-13.4 7.7 -0.4-0.6c-1.3-2.2-4.2-3-6.5-1.7l-9.7 5.6c-2.2 1.3-3 4.2-1.7 6.5l12.6 21.9c1.4 2.5 4.6 3.3 7.1 1.9l26.8-15.4c2.5-1.4 3.3-4.6 1.9-7.1l-9.7-16.8C770.2 17.2 767 16.3 764.6 17.8z"/><rect x="789.6" y="-2.7" transform="matrix(0.866 -0.5 0.5 0.866 102.4875 402.4687)" class="st7" width="25.4" height="25.4"/><rect x="797.1" y="19.5" transform="matrix(0.866 -0.5 0.5 0.866 97.2684 403.6427)" class="st7" width="9.5" height="1.6"/><path class="st7" d="M788.6 7l3.7-2.2c2.2-1.3 4.2-0.7 5.3 1.1l0 0c1.2 2.1 0.2 4.1-1.8 5.3l-1.5 0.9 1.6 2.8 -2 1.1L788.6 7 788.6 7 788.6 7zM795.6 7.3L795.6 7.3c-0.5-0.9-1.4-1-2.4-0.4l-1.5 0.9 1.6 2.8 1.6-0.9C796 9 796.1 8.1 795.6 7.3z"/><path class="st7" d="M799.2 7L799.2 7c-0.8-1.2-1-2.7-0.6-4.2 0.4-1.4 1.3-2.6 2.6-3.3 1.7-1 3.1-1 4.4-0.6l-0.4 2.2c-1.1-0.2-2-0.2-2.9 0.3 -1.5 0.9-1.9 2.8-1 4.4l0 0c0.9 1.5 2.8 2.2 4.3 1.3 1.1-0.6 1.5-1.4 1.8-2.4l2 0.5c-0.4 1.5-1 2.8-2.8 3.8 -1.2 0.7-2.7 0.9-4.1 0.5C801.1 9.2 799.9 8.3 799.2 7"/><polyline class="st8" points="807.7 26.5 806.9 30.8 790.8 30.7 779.8 6.7 789.6 -6.1 798.5 -5.6 "/><polyline class="st8" points="797.1 -1.7 800.7 -12.6 805.5 -6.5 "/><line class="st8" x1="791" y1="26.6" x2="791.8" y2="17.3"/><polyline class="st8" points="801.7 25 802.7 27.8 819.3 23.6 827.9 13.7 813.9 -0.4 812.2 1.7 "/><polyline class="st8" points="808.2 -5.2 817.6 -3.6 818.1 3.8 "/><rect x="768.1" y="62.4" transform="matrix(0.866 -0.5 0.5 0.866 67.0553 400.4808)" class="st7" width="25.4" height="25.4"/><rect x="775.7" y="84.7" transform="matrix(0.866 -0.5 0.5 0.866 61.8362 401.6548)" class="st7" width="9.5" height="1.6"/><path class="st7" d="M767.2 72.2l3.7-2.2c2.2-1.3 4.2-0.7 5.3 1.1l0 0c1.2 2.1 0.2 4.1-1.8 5.3l-1.5 0.9 1.6 2.8 -2 1.1L767.2 72.2 767.2 72.2 767.2 72.2zM774.2 72.4L774.2 72.4c-0.5-0.9-1.4-1-2.4-0.4l-1.5 0.9 1.6 2.8 1.6-0.9C774.5 74.1 774.7 73.2 774.2 72.4z"/><path class="st7" d="M777.8 72.2L777.8 72.2c-0.8-1.2-1-2.7-0.6-4.2 0.4-1.4 1.3-2.6 2.6-3.3 1.7-1 3.1-1 4.4-0.6l-0.4 2.2c-1.1-0.2-2-0.2-2.9 0.3 -1.5 0.9-1.9 2.8-1 4.4l0 0c0.9 1.5 2.8 2.2 4.3 1.3 1.1-0.6 1.5-1.4 1.8-2.4l2 0.5c-0.4 1.5-1 2.8-2.8 3.8 -1.2 0.7-2.7 0.9-4.1 0.5S778.5 73.4 777.8 72.2"/><polyline class="st8" points="786.2 91.7 785.4 95.9 769.3 95.8 758.3 71.8 768.1 59 777 59.5 "/><polyline class="st8" points="775.7 63.4 779.3 52.6 784 58.6 "/><line class="st8" x1="769.6" y1="91.7" x2="770.4" y2="82.4"/><polyline class="st8" points="780.3 90.1 781.2 92.9 797.8 88.7 806.4 78.8 792.5 64.7 790.7 66.9 "/><polyline class="st8" points="786.8 60 796.2 61.6 796.7 69 "/><path class="st8" d="M743.1 82.9l-13.4 7.7 -0.4-0.6c-1.3-2.2-4.2-3-6.5-1.7l-9.7 5.6c-2.2 1.3-3 4.2-1.7 6.5l12.6 21.9c1.4 2.5 4.6 3.3 7.1 1.9l26.8-15.4c2.5-1.4 3.3-4.6 1.9-7.1l-9.7-16.8C748.8 82.3 745.6 81.5 743.1 82.9z"/><rect x="745" y="128.1" transform="matrix(0.866 -0.5 0.5 0.866 31.1093 397.7237)" class="st7" width="25.4" height="25.4"/><rect x="752.5" y="150.3" transform="matrix(0.866 -0.5 0.5 0.866 25.8902 398.8977)" class="st7" width="9.5" height="1.6"/><path class="st7" d="M744.1 137.9l3.7-2.2c2.2-1.3 4.2-0.7 5.3 1.1l0 0c1.2 2.1 0.2 4.1-1.8 5.3l-1.5 0.9 1.6 2.8 -2 1.1L744.1 137.9 744.1 137.9 744.1 137.9zM751.1 138.1L751.1 138.1c-0.5-0.9-1.4-1-2.4-0.4l-1.5 0.9 1.6 2.8 1.6-0.9C751.4 139.8 751.5 138.9 751.1 138.1z"/><path class="st7" d="M754.7 137.9L754.7 137.9c-0.8-1.2-1-2.7-0.6-4.2 0.4-1.4 1.3-2.6 2.6-3.3 1.7-1 3.1-1 4.4-0.6l-0.4 2.2c-1.1-0.2-2-0.2-2.9 0.3 -1.5 0.9-1.9 2.8-1 4.4l0 0c0.9 1.5 2.8 2.2 4.3 1.3 1.1-0.6 1.5-1.4 1.8-2.4l2 0.5c-0.4 1.5-1 2.8-2.8 3.8 -1.2 0.7-2.7 0.9-4.1 0.5C756.6 140 755.4 139.1 754.7 137.9"/><polyline class="st8" points="763.1 157.4 762.3 161.6 746.2 161.5 735.2 137.5 745 124.7 753.9 125.2 "/><polyline class="st8" points="752.6 129.1 756.1 118.3 760.9 124.3 "/><line class="st8" x1="746.5" y1="157.4" x2="747.3" y2="148.1"/><polyline class="st8" points="757.2 155.8 758.1 158.6 774.7 154.4 783.3 144.5 769.3 130.4 767.6 132.6 "/><polyline class="st8" points="763.6 125.7 773.1 127.3 773.5 134.7 "/><path class="st8" d="M810.1 96.6l-13.4 7.7 -0.4-0.6c-1.3-2.2-4.2-3-6.5-1.7l-9.7 5.6c-2.2 1.3-3 4.2-1.7 6.5l12.6 21.9c1.4 2.5 4.6 3.3 7.1 1.9l26.8-15.4c2.5-1.4 3.3-4.6 1.9-7.1l-9.7-16.8C815.7 96 812.5 95.2 810.1 96.6z"/></svg>