<?xml version="1.0" encoding="utf-8"?>
<!-- Generator: Adobe Illustrator 28.2.0, SVG Export Plug-In . SVG Version: 6.00 Build 0)  -->
<svg version="1.1" id="Layer_1" xmlns="http://www.w3.org/2000/svg" xmlns:xlink="http://www.w3.org/1999/xlink" x="0px" y="0px"
	 viewBox="0 0 800 150" style="enable-background:new 0 0 800 150;" xml:space="preserve">
<style type="text/css">
	.st0{display:none;}
	.st1{display:inline;}
	.st2{fill:none;stroke:#343A40;stroke-linecap:round;stroke-linejoin:round;stroke-miterlimit:10;}
	.st3{display:inline;fill:none;stroke:#343A40;stroke-linecap:round;stroke-linejoin:round;stroke-miterlimit:10;}
	.st4{fill:#343A40;}
	.st5{fill:none;stroke:#FFFFFF;stroke-linecap:round;stroke-linejoin:round;stroke-miterlimit:10;}
	.st6{display:inline;fill:none;stroke:#343A40;stroke-miterlimit:10;}
	.st7{fill:none;stroke:#343A40;stroke-miterlimit:10;}
</style>
<g id="Layer_1_00000144330818969797841140000017294106873426069945_" class="st0">
	<g class="st1">
		<path class="st2" d="M154.2,74.2h-18.4c-7.2,0-13-5.8-13-13V42.8c0-7.2,5.8-13,13-13h18.4c7.2,0,13,5.8,13,13v18.4
			C167.3,68.4,161.4,74.2,154.2,74.2z"/>
		<path class="st2" d="M343.2,74.2h-18.4c-7.2,0-13-5.8-13-13V42.8c0-7.2,5.8-13,13-13h18.4c7.2,0,13,5.8,13,13v18.4
			C356.3,68.4,350.4,74.2,343.2,74.2z"/>
		<path class="st2" d="M248.7,74.2h-18.4c-7.2,0-13-5.8-13-13V42.8c0-7.2,5.8-13,13-13h18.4c7.2,0,13,5.8,13,13v18.4
			C261.8,68.4,255.9,74.2,248.7,74.2z"/>
	</g>
	<line class="st3" x1="167.3" y1="52.2" x2="217.3" y2="52.2"/>
	<line class="st3" x1="261.8" y1="52.2" x2="311.8" y2="52.2"/>
	<g class="st1">
		<g>
			<path class="st4" d="M443.7,59.7c0-1.5-0.8-2.3-2.2-2.3l0,0c-1.6,0-1.1,0.5-4.5,1.3c-3.4,0.8-7.6,0.6-11.3,2.1
				c-11,4.6-13.2,20.4-23.3,26.1c-7.5,4.2-15,4.6-21.8,6.7c-4.5,1.4-9.4,4.3-13.4,7.8c-3.1,2.7-3.2,5.1-6.5,8.5
				c-3.5,3.6-14,0.1-18.7,5.6c1.5,1.5,2.2,2,5.2,1.6c-0.6,1.2-4.3,2.2-3.6,3.9c0.8,1.8,9.6,3.1,17.7-1.8c3.8-2.3,6.7-5.5,12.6-6.3
				c7.6-1,16.3,0.7,25,1.9c-1.3,3.9-3.9,6.4-6,9.5c-0.6,0.7,1.3,0.8,3.5,0.3c4-1,6.9-1.8,9.9-3.5c3.7-2.2,4.3-7.7,8.8-8.9
				c2.5,3.9,9.4,4.8,13.7,1.7c-3.8-1.1-4.8-9-3.5-12.6c1.2-3.3,2.4-8.7,3.6-13c1.3-4.7,1.8-10.7,3.3-13.1c2.4-3.6,5-4.9,7.2-6.9
				C441.7,66.3,443.8,64.4,443.7,59.7z M425.6,113.8c-2.5,0.6-6.7-0.4-7.8-2.1c0.6-2.5,3.5-4.8,4.9-6.3l0,0l0,0l0,0
				C422.9,107.8,424.4,112.6,425.6,113.8z M437,69c-2.1,1.5-4.5,2.9-6,5.3c-1.5,2.4-2.5,10.6-4.9,18.7c-2.1,7-5.2,13.9-10.6,16.9
				c-0.6-1.4,0.1-4.1-1.1-4.9c-0.7,2.1-1.6,4.1-2.5,5.9c-3.2,6.1-7.9,10.7-15.8,12.1c3.7-5.1,7.3-10.3,7.4-19
				c-2.6,0.6-2.6,6.8-5.3,8.5c-1.7,0.2-3.5,0.2-5.3,0.1c-7.3-0.4-14.7-2.6-21.5-0.4c-4.6,1.5-8.4,5-12.3,6.7c-4.6,2-8.1,2.8-13.8,2
				l0,0c-0.7-1,4.2-2.2,3.9-4.4c-2.2-0.2-3.5,0.3-5.5-0.6c0.2-0.4,0.5-0.7,0.9-1c3.6-2.5,13.7-0.6,16.5-3.2c1.7-1.7,2.8-3.4,3.9-5.1
				c1.1-1.6,2.2-3.2,4-4.6c0.7-0.6,1.4-1.1,2.1-1.6c3-2,6.6-3.9,10.2-5.1c4.9-1.7,9.9-1.9,15.1-3.9c3.2-1.2,6.8-2.8,9.6-4.9
				c0.7-0.5,1.3-1.1,1.9-1.6c8.2-8,9.8-22.1,22.6-23.4c1.5-0.2,2.8-0.1,4-0.1c1.3,0,2.5-0.2,3.8-0.9c0.4,1.3,1,1.9,3.5,2.1
				C441.5,65.5,439.4,67.3,437,69z"/>
			<path class="st4" d="M426.4,66.5c1.8,1.6,5.6,0.3,4.9-2.8C428.5,63.5,426.9,64.4,426.4,66.5z M439,62.9c-0.5,1-1.4,2.3-1.4,4.9
				c0,0.4-0.3,0.7-0.3,0.1c0-2.5,0.7-3.6,1.4-5C439,62.2,439.2,62.4,439,62.9L439,62.9z"/>
			<path class="st4" d="M438.5,62.5c-0.6,1-1.9,2.7-2.2,5.3c0,0.4-0.4,0.7-0.3,0c0.2-2.5,1.3-4.1,2.2-5.4
				C438.6,61.8,438.7,62.1,438.5,62.5z M438.1,62c-0.6,0.9-2.8,3-3.2,5.6c-0.1,0.4-0.5,0.7-0.4,0c0.5-2.5,2.3-4.4,3.2-5.7
				C438.2,61.3,438.3,61.6,438.1,62z M437.7,61.4c-0.8,0.8-3.3,3.5-4.1,6c-0.1,0.4-0.5,0.6-0.3-0.1c0.8-2.4,3-5,4.1-6.1
				C437.9,60.8,438,61.1,437.7,61.4z"/>
		</g>
	</g>
	<g class="st1">
		<ellipse class="st2" cx="65.6" cy="20.5" rx="26.6" ry="6.3"/>
		<path class="st2" d="M39,20.5v29.2c0,3.5,11.9,6.3,26.6,6.3s26.6-2.8,26.6-6.3V20.5"/>
	</g>
	<path class="st3" d="M65.6,35.7c14.7,0,26.6-2.8,26.6-6.3"/>
	<circle class="st3" cx="49.2" cy="34.9" r="3.4"/>
	<g class="st1">
		<path class="st2" d="M84.8,54.1c4.6,1.1,7.3,2.7,7.3,4.3c0,3.5-11.9,6.3-26.6,6.3S39,61.9,39,58.5c0-1.7,2.8-3.2,7.3-4.3"/>
		<path class="st2" d="M39,58.5v29.2c0,3.5,11.9,6.3,26.6,6.3s26.6-2.8,26.6-6.3V58.5"/>
	</g>
	<path class="st3" d="M65.6,73.6c14.7,0,26.6-2.8,26.6-6.3"/>
	<circle class="st3" cx="49.2" cy="72.8" r="3.4"/>
	<g class="st1">
		<g>
			<ellipse class="st2" cx="717.8" cy="43.1" rx="26.6" ry="6.3"/>
			<path class="st2" d="M691.2,43.1v29.2c0,3.5,11.9,6.3,26.6,6.3s26.6-2.8,26.6-6.3V43.1"/>
		</g>
		<path class="st2" d="M717.8,58.3c14.7,0,26.6-2.8,26.6-6.3"/>
		<circle class="st2" cx="701.3" cy="57.5" r="3.4"/>
		<g>
			<path class="st2" d="M737,76.7c4.5,1.1,7.3,2.7,7.3,4.3c0,3.5-11.9,6.3-26.6,6.3s-26.6-2.8-26.6-6.3c0-1.7,2.8-3.2,7.3-4.3"/>
			<path class="st2" d="M691.2,81v29.2c0,3.5,11.9,6.3,26.6,6.3s26.6-2.8,26.6-6.3V81"/>
		</g>
		<path class="st2" d="M717.8,96.2c14.7,0,26.6-2.8,26.6-6.3"/>
		<circle class="st2" cx="701.3" cy="95.4" r="3.4"/>
	</g>
	<g class="st1">
		<path class="st2" d="M84.8,92.4c4.6,1.1,7.3,2.7,7.3,4.3c0,3.5-11.9,6.3-26.6,6.3S39,100.2,39,96.7c0-1.7,2.8-3.2,7.3-4.3"/>
		<path class="st2" d="M39,96.7V126c0,3.5,11.9,6.3,26.6,6.3s26.6-2.8,26.6-6.3V96.7"/>
	</g>
	<path class="st3" d="M65.6,111.9c14.7,0,26.6-2.8,26.6-6.3"/>
	<circle class="st3" cx="49.2" cy="111.1" r="3.4"/>
	<g class="st1">
		<line class="st5" x1="97.2" y1="73.2" x2="108.1" y2="73.2"/>
		<line class="st5" x1="102.7" y1="67.8" x2="102.7" y2="78.7"/>
	</g>
	<g class="st1">
		<line class="st2" x1="186.8" y1="91.2" x2="197.7" y2="91.2"/>
		<line class="st2" x1="192.3" y1="85.7" x2="192.3" y2="96.6"/>
	</g>
	<g class="st1">
		<line class="st2" x1="619" y1="76.7" x2="629.9" y2="76.7"/>
		<line class="st2" x1="624.5" y1="71.2" x2="624.5" y2="82.2"/>
	</g>
	<g class="st1">
		<line class="st2" x1="644.2" y1="76.7" x2="655.2" y2="76.7"/>
		<line class="st2" x1="649.7" y1="71.2" x2="649.7" y2="82.2"/>
	</g>
	<g class="st1">
		<path class="st2" d="M666.3,237h-77.1c-4.7,0-8.5-3.8-8.5-8.5V178c0-4.7,3.8-8.5,8.5-8.5h77.1c4.7,0,8.5,3.8,8.5,8.5v50.5
			C674.8,233.2,671,237,666.3,237z"/>
		<line class="st2" x1="580.7" y1="183.1" x2="674.8" y2="183.1"/>
		<g>
			<rect x="588.6" y="193.5" class="st2" width="35.2" height="32.6"/>
			<line class="st2" x1="631.1" y1="193.5" x2="667" y2="193.5"/>
			<line class="st2" x1="631.1" y1="200.1" x2="667" y2="200.1"/>
			<line class="st2" x1="631.1" y1="206.6" x2="657.2" y2="206.6"/>
			<line class="st2" x1="631.1" y1="213.1" x2="667" y2="213.1"/>
			<line class="st2" x1="631.1" y1="219.7" x2="667" y2="219.7"/>
			<line class="st2" x1="631.1" y1="226.2" x2="657.2" y2="226.2"/>
		</g>
	</g>
	<g class="st1">
		<path class="st2" d="M532.3,200.9h-77.1c-4.7,0-8.5-3.8-8.5-8.5v-50.5c0-4.7,3.8-8.5,8.5-8.5h77.1c4.7,0,8.5,3.8,8.5,8.5v50.5
			C540.8,197.1,537,200.9,532.3,200.9z"/>
		<line class="st2" x1="446.7" y1="147" x2="540.8" y2="147"/>
		<g>
			<rect x="454.6" y="157.4" class="st2" width="35.2" height="32.6"/>
			<line class="st2" x1="497.1" y1="157.4" x2="532.9" y2="157.4"/>
			<line class="st2" x1="497.1" y1="164" x2="532.9" y2="164"/>
			<line class="st2" x1="497.1" y1="170.5" x2="523.2" y2="170.5"/>
			<line class="st2" x1="497.1" y1="177.1" x2="532.9" y2="177.1"/>
			<line class="st2" x1="497.1" y1="183.6" x2="532.9" y2="183.6"/>
			<line class="st2" x1="497.1" y1="190.1" x2="523.2" y2="190.1"/>
		</g>
	</g>
	<path class="st3" d="M579.9,12.9h-34.2c-2.7,0-5,2.2-5,5v17.5c0,2.7,2.2,5,5,5h5.2l4.3,8.9l4.3-8.9h20.3c2.7,0,5-2.2,5-5V17.8
		C584.9,15.1,582.7,12.9,579.9,12.9z"/>
	<g class="st1">
		<line class="st2" x1="547.8" y1="20.4" x2="577.8" y2="20.4"/>
		<line class="st2" x1="547.8" y1="26.5" x2="577.8" y2="26.5"/>
		<line class="st2" x1="547.8" y1="32.8" x2="569.2" y2="32.8"/>
	</g>
	<path class="st3" d="M569.5,24.4h34.2c2.7,0,5,2.2,5,5v17.5c0,2.7-2.2,5-5,5h-5.2l-4.3,8.9l-4.3-8.9h-20.3c-2.7,0-5-2.2-5-5V29.4
		C564.5,26.6,566.8,24.4,569.5,24.4z"/>
	<g class="st1">
		<line class="st2" x1="571.6" y1="31.9" x2="601.6" y2="31.9"/>
		<line class="st2" x1="571.6" y1="38" x2="601.6" y2="38"/>
		<line class="st2" x1="571.6" y1="44.3" x2="593" y2="44.3"/>
	</g>
	<g class="st1">
		<g>
			<path class="st2" d="M271,195.8v-4.5c0-2.1-1.7-3.8-3.8-3.8h-26.4c-2.1,0-3.8,1.7-3.8,3.8v13.5c0,2.1,1.7,3.8,3.8,3.8h4l3.4,6.9
				l3.4-6.9h3.8"/>
			<g>
				<line class="st2" x1="242.4" y1="193.3" x2="265.5" y2="193.3"/>
				<line class="st2" x1="242.4" y1="198" x2="255.6" y2="198"/>
				<line class="st2" x1="242.4" y1="202.9" x2="255.3" y2="202.9"/>
			</g>
			<path class="st2" d="M259.1,195.8h26.4c2.1,0,3.8,1.7,3.8,3.8v13.5c0,2.1-1.7,3.8-3.8,3.8h-4l-3.4,6.9l-3.4-6.9h-15.7
				c-2.1,0-3.8-1.7-3.8-3.8v-13.5C255.3,197.5,257,195.8,259.1,195.8z"/>
			<g>
				<line class="st2" x1="260.7" y1="201.6" x2="283.9" y2="201.6"/>
				<line class="st2" x1="260.7" y1="206.3" x2="283.9" y2="206.3"/>
				<line class="st2" x1="260.7" y1="211.2" x2="277.2" y2="211.2"/>
			</g>
		</g>
		<path class="st2" d="M287.5,238.6h-48.8c-4.7,0-8.5-3.8-8.5-8.5v-48.8c0-4.7,3.8-8.5,8.5-8.5h48.8c4.7,0,8.5,3.8,8.5,8.5v48.8
			C296,234.8,292.2,238.6,287.5,238.6z"/>
		<line class="st2" x1="230.2" y1="181.3" x2="221.8" y2="181.3"/>
		<line class="st2" x1="230.2" y1="199.6" x2="221.8" y2="199.6"/>
		<line class="st2" x1="230.2" y1="193.5" x2="221.8" y2="193.5"/>
		<line class="st2" x1="230.2" y1="187.4" x2="221.8" y2="187.4"/>
		<line class="st2" x1="230.2" y1="205.7" x2="221.8" y2="205.7"/>
		<line class="st2" x1="230.2" y1="217.9" x2="221.8" y2="217.9"/>
		<line class="st2" x1="230.2" y1="224" x2="221.8" y2="224"/>
		<line class="st2" x1="230.2" y1="211.8" x2="221.8" y2="211.8"/>
		<line class="st2" x1="230.2" y1="230.1" x2="221.8" y2="230.1"/>
		<g>
			<line class="st2" x1="304.5" y1="181.3" x2="296" y2="181.3"/>
			<line class="st2" x1="304.5" y1="199.6" x2="296" y2="199.6"/>
			<line class="st2" x1="304.5" y1="193.5" x2="296" y2="193.5"/>
			<line class="st2" x1="304.5" y1="187.4" x2="296" y2="187.4"/>
			<line class="st2" x1="304.5" y1="205.7" x2="296" y2="205.7"/>
			<line class="st2" x1="304.5" y1="217.9" x2="296" y2="217.9"/>
			<line class="st2" x1="304.5" y1="224" x2="296" y2="224"/>
			<line class="st2" x1="304.5" y1="211.8" x2="296" y2="211.8"/>
			<line class="st2" x1="304.5" y1="230.1" x2="296" y2="230.1"/>
		</g>
		<g>
			<line class="st2" x1="238.7" y1="164.3" x2="238.7" y2="172.8"/>
			<line class="st2" x1="257" y1="164.3" x2="257" y2="172.8"/>
			<line class="st2" x1="250.9" y1="164.3" x2="250.9" y2="172.8"/>
			<line class="st2" x1="244.8" y1="164.3" x2="244.8" y2="172.8"/>
			<line class="st2" x1="263.1" y1="164.3" x2="263.1" y2="172.8"/>
			<line class="st2" x1="275.3" y1="164.3" x2="275.3" y2="172.8"/>
			<line class="st2" x1="281.4" y1="164.3" x2="281.4" y2="172.8"/>
			<line class="st2" x1="269.2" y1="164.3" x2="269.2" y2="172.8"/>
			<line class="st2" x1="287.5" y1="164.3" x2="287.5" y2="172.8"/>
		</g>
		<g>
			<line class="st2" x1="238.7" y1="238.6" x2="238.7" y2="247"/>
			<line class="st2" x1="257" y1="238.6" x2="257" y2="247"/>
			<line class="st2" x1="250.9" y1="238.6" x2="250.9" y2="247"/>
			<line class="st2" x1="244.8" y1="238.6" x2="244.8" y2="247"/>
			<line class="st2" x1="263.1" y1="238.6" x2="263.1" y2="247"/>
			<line class="st2" x1="275.3" y1="238.6" x2="275.3" y2="247"/>
			<line class="st2" x1="281.4" y1="238.6" x2="281.4" y2="247"/>
			<line class="st2" x1="269.2" y1="238.6" x2="269.2" y2="247"/>
			<line class="st2" x1="287.5" y1="238.6" x2="287.5" y2="247"/>
		</g>
	</g>
	<g class="st1">
		<path class="st2" d="M170.2,223c0,10.5-8.5,19-19,19s-19-8.5-19-19"/>
		<path class="st2" d="M151.2,184.1c-7.2,0-13,5.8-13,13V223c0,7.2,5.8,13,13,13s13-5.8,13-13v-25.9
			C164.2,190,158.4,184.1,151.2,184.1z"/>
		<g>
			<circle class="st2" cx="151.2" cy="220.4" r="3.4"/>
			<line class="st2" x1="147.7" y1="220.4" x2="138.1" y2="220.4"/>
			<line class="st2" x1="154.6" y1="220.4" x2="164.2" y2="220.4"/>
		</g>
		<line class="st2" x1="164.2" y1="197.7" x2="156.5" y2="197.7"/>
		<line class="st2" x1="164.2" y1="203.3" x2="156.5" y2="203.3"/>
		<line class="st2" x1="164.2" y1="208.9" x2="156.5" y2="208.9"/>
		<line class="st2" x1="145.9" y1="197.7" x2="138.1" y2="197.7"/>
		<line class="st2" x1="145.9" y1="203.3" x2="138.1" y2="203.3"/>
		<line class="st2" x1="145.9" y1="208.9" x2="138.1" y2="208.9"/>
		<line class="st2" x1="151.2" y1="242.1" x2="151.2" y2="251.3"/>
		<line class="st2" x1="138.1" y1="251.4" x2="164.2" y2="251.4"/>
	</g>
	<path class="st3" d="M108.1,161.8c7.2,0,7.2,10.9,14.3,10.9c7.2,0,7.2-10.9,14.3-10.9c7.2,0,7.2,10.9,14.4,10.9
		c7.2,0,7.2-10.9,14.4-10.9c7.2,0,7.2,10.9,14.4,10.9c7.2,0,7.2-10.9,14.4-10.9"/>
	<path class="st6" d="M516.4,47.7c-1.6-1.4-3.4-2.5-5.2-3.6c-2.5-1.5-5.8-2.6-8.3-0.5c-1.1,0.9-1.7,2.3-2.6,3.4
		c-1.8,2.2-4.5,3.3-7.2,4.1c-4.4,1.4-10,2.7-11.7,7.5c-0.6,1.5-0.6,3.3,0,4.8c0.7,1.7,2.2,2.9,3.8,3.6c1.6,0.7,3.5,0.9,5.3,0.8
		c4.3-0.2,8.4-1.9,12.7-2.6c3.6-0.6,7.2,0.7,10.7,0.2c3-0.3,5.7-2.2,7.1-4.8c0.8-1.6,1.1-3.5,0.8-5.3c-0.4-2-1.5-3.8-2.9-5.3
		C518.1,49.2,517.3,48.4,516.4,47.7z"/>
</g>
<g>
	<circle class="st7" cx="102.9" cy="75" r="9.3"/>
	<circle class="st7" cx="102.9" cy="75" r="32.1"/>
	<line class="st7" x1="102.9" y1="65.7" x2="102.9" y2="42.9"/>
	<line class="st7" x1="109.5" y1="68.4" x2="125.6" y2="52.3"/>
	<line class="st7" x1="80.3" y1="97.7" x2="96.4" y2="81.6"/>
	<line class="st7" x1="112.2" y1="75" x2="135" y2="75"/>
	<line class="st7" x1="93.7" y1="75" x2="70.9" y2="75"/>
	<line class="st7" x1="109.5" y1="81.6" x2="125.6" y2="97.7"/>
	<line class="st7" x1="80.3" y1="52.3" x2="96.4" y2="68.4"/>
	<line class="st7" x1="102.9" y1="84.3" x2="102.9" y2="107.1"/>
</g>
<g>
	<circle class="st7" cx="3.9" cy="75" r="9.3"/>
	<circle class="st7" cx="3.9" cy="75" r="32.1"/>
	<line class="st7" x1="3.9" y1="65.7" x2="3.9" y2="42.9"/>
	<line class="st7" x1="10.5" y1="68.4" x2="26.6" y2="52.3"/>
	<line class="st7" x1="-18.7" y1="97.7" x2="-2.7" y2="81.6"/>
	<line class="st7" x1="13.2" y1="75" x2="36" y2="75"/>
	<line class="st7" x1="-5.4" y1="75" x2="-28.1" y2="75"/>
	<line class="st7" x1="10.5" y1="81.6" x2="26.6" y2="97.7"/>
	<line class="st7" x1="-18.8" y1="52.3" x2="-2.7" y2="68.4"/>
	<line class="st7" x1="3.9" y1="84.3" x2="3.9" y2="107.1"/>
</g>
<g>
	<circle class="st7" cx="202" cy="75" r="9.3"/>
	<circle class="st7" cx="202" cy="75" r="32.1"/>
	<line class="st7" x1="202" y1="65.7" x2="202" y2="42.9"/>
	<line class="st7" x1="208.5" y1="68.4" x2="224.6" y2="52.3"/>
	<line class="st7" x1="179.3" y1="97.7" x2="195.4" y2="81.6"/>
	<line class="st7" x1="211.2" y1="75" x2="234" y2="75"/>
	<line class="st7" x1="192.7" y1="75" x2="169.9" y2="75"/>
	<line class="st7" x1="208.5" y1="81.6" x2="224.6" y2="97.7"/>
	<line class="st7" x1="179.3" y1="52.3" x2="195.4" y2="68.4"/>
	<line class="st7" x1="202" y1="84.3" x2="202" y2="107.1"/>
</g>
<g>
	<circle class="st7" cx="301" cy="75" r="9.3"/>
	<circle class="st7" cx="301" cy="75" r="32.1"/>
	<line class="st7" x1="301" y1="65.7" x2="301" y2="42.9"/>
	<line class="st7" x1="307.5" y1="68.4" x2="323.6" y2="52.3"/>
	<line class="st7" x1="278.3" y1="97.7" x2="294.4" y2="81.6"/>
	<line class="st7" x1="310.3" y1="75" x2="333" y2="75"/>
	<line class="st7" x1="291.7" y1="75" x2="268.9" y2="75"/>
	<line class="st7" x1="307.5" y1="81.6" x2="323.6" y2="97.7"/>
	<line class="st7" x1="278.3" y1="52.3" x2="294.4" y2="68.4"/>
	<line class="st7" x1="301" y1="84.3" x2="301" y2="107.1"/>
</g>
<g>
	<circle class="st7" cx="400" cy="75" r="9.3"/>
	<circle class="st7" cx="400" cy="75" r="32.1"/>
	<line class="st7" x1="400" y1="65.7" x2="400" y2="42.9"/>
	<line class="st7" x1="406.6" y1="68.4" x2="422.7" y2="52.3"/>
	<line class="st7" x1="377.3" y1="97.7" x2="393.4" y2="81.6"/>
	<line class="st7" x1="409.3" y1="75" x2="432.1" y2="75"/>
	<line class="st7" x1="390.7" y1="75" x2="367.9" y2="75"/>
	<line class="st7" x1="406.6" y1="81.6" x2="422.7" y2="97.7"/>
	<line class="st7" x1="377.3" y1="52.3" x2="393.4" y2="68.4"/>
	<line class="st7" x1="400" y1="84.3" x2="400" y2="107.1"/>
</g>
<g>
	<circle class="st7" cx="499" cy="75" r="9.3"/>
	<circle class="st7" cx="499" cy="75" r="32.1"/>
	<line class="st7" x1="499" y1="65.7" x2="499" y2="42.9"/>
	<line class="st7" x1="505.6" y1="68.4" x2="521.7" y2="52.3"/>
	<line class="st7" x1="476.4" y1="97.7" x2="492.5" y2="81.6"/>
	<line class="st7" x1="508.3" y1="75" x2="531.1" y2="75"/>
	<line class="st7" x1="489.7" y1="75" x2="467" y2="75"/>
	<line class="st7" x1="505.6" y1="81.6" x2="521.7" y2="97.7"/>
	<line class="st7" x1="476.4" y1="52.3" x2="492.5" y2="68.4"/>
	<line class="st7" x1="499" y1="84.3" x2="499" y2="107.1"/>
</g>
<g>
	<circle class="st7" cx="598" cy="75" r="9.3"/>
	<circle class="st7" cx="598" cy="75" r="32.1"/>
	<line class="st7" x1="598" y1="65.7" x2="598" y2="42.9"/>
	<line class="st7" x1="604.6" y1="68.4" x2="620.7" y2="52.3"/>
	<line class="st7" x1="575.4" y1="97.7" x2="591.5" y2="81.6"/>
	<line class="st7" x1="607.3" y1="75" x2="630.1" y2="75"/>
	<line class="st7" x1="588.8" y1="75" x2="566" y2="75"/>
	<line class="st7" x1="604.6" y1="81.6" x2="620.7" y2="97.7"/>
	<line class="st7" x1="575.4" y1="52.3" x2="591.5" y2="68.4"/>
	<line class="st7" x1="598" y1="84.3" x2="598" y2="107.1"/>
</g>
<g>
	<circle class="st7" cx="697.1" cy="75" r="9.3"/>
	<circle class="st7" cx="697.1" cy="75" r="32.1"/>
	<line class="st7" x1="697.1" y1="65.7" x2="697.1" y2="42.9"/>
	<line class="st7" x1="703.6" y1="68.4" x2="719.7" y2="52.3"/>
	<line class="st7" x1="674.4" y1="97.7" x2="690.5" y2="81.6"/>
	<line class="st7" x1="706.3" y1="75" x2="729.1" y2="75"/>
	<line class="st7" x1="687.8" y1="75" x2="665" y2="75"/>
	<line class="st7" x1="703.6" y1="81.6" x2="719.7" y2="97.7"/>
	<line class="st7" x1="674.4" y1="52.3" x2="690.5" y2="68.4"/>
	<line class="st7" x1="697.1" y1="84.3" x2="697.1" y2="107.1"/>
</g>
<g>
	<circle class="st7" cx="796.1" cy="75" r="9.3"/>
	<circle class="st7" cx="796.1" cy="75" r="32.1"/>
	<line class="st7" x1="796.1" y1="65.7" x2="796.1" y2="42.9"/>
	<line class="st7" x1="802.7" y1="68.4" x2="818.7" y2="52.3"/>
	<line class="st7" x1="773.4" y1="97.7" x2="789.5" y2="81.6"/>
	<line class="st7" x1="805.4" y1="75" x2="828.1" y2="75"/>
	<line class="st7" x1="786.8" y1="75" x2="764" y2="75"/>
	<line class="st7" x1="802.7" y1="81.6" x2="818.8" y2="97.7"/>
	<line class="st7" x1="773.4" y1="52.3" x2="789.5" y2="68.4"/>
	<line class="st7" x1="796.1" y1="84.3" x2="796.1" y2="107.1"/>
</g>
<g>
	<circle class="st7" cx="152.9" cy="13" r="9.3"/>
	<circle class="st7" cx="152.9" cy="13" r="32.1"/>
	<line class="st7" x1="152.9" y1="3.7" x2="152.9" y2="-19.1"/>
	<line class="st7" x1="159.5" y1="6.4" x2="175.6" y2="-9.7"/>
	<line class="st7" x1="130.3" y1="35.7" x2="146.4" y2="19.6"/>
	<line class="st7" x1="162.2" y1="13" x2="185" y2="13"/>
	<line class="st7" x1="143.7" y1="13" x2="120.9" y2="13"/>
	<line class="st7" x1="159.5" y1="19.6" x2="175.6" y2="35.7"/>
	<line class="st7" x1="130.3" y1="-9.7" x2="146.4" y2="6.4"/>
	<line class="st7" x1="152.9" y1="22.3" x2="152.9" y2="45.1"/>
</g>
<g>
	<circle class="st7" cx="53.9" cy="13" r="9.3"/>
	<circle class="st7" cx="53.9" cy="13" r="32.1"/>
	<line class="st7" x1="53.9" y1="3.7" x2="53.9" y2="-19.1"/>
	<line class="st7" x1="60.5" y1="6.4" x2="76.6" y2="-9.7"/>
	<line class="st7" x1="31.3" y1="35.7" x2="47.4" y2="19.6"/>
	<line class="st7" x1="63.2" y1="13" x2="86" y2="13"/>
	<line class="st7" x1="44.6" y1="13" x2="21.9" y2="13"/>
	<line class="st7" x1="60.5" y1="19.6" x2="76.6" y2="35.7"/>
	<line class="st7" x1="31.2" y1="-9.7" x2="47.4" y2="6.4"/>
	<line class="st7" x1="53.9" y1="22.3" x2="53.9" y2="45.1"/>
</g>
<g>
	<circle class="st7" cx="252" cy="13" r="9.3"/>
	<circle class="st7" cx="252" cy="13" r="32.1"/>
	<line class="st7" x1="252" y1="3.7" x2="252" y2="-19.1"/>
	<line class="st7" x1="258.5" y1="6.4" x2="274.6" y2="-9.7"/>
	<line class="st7" x1="229.3" y1="35.7" x2="245.4" y2="19.6"/>
	<line class="st7" x1="261.2" y1="13" x2="284" y2="13"/>
	<line class="st7" x1="242.7" y1="13" x2="219.9" y2="13"/>
	<line class="st7" x1="258.5" y1="19.6" x2="274.6" y2="35.7"/>
	<line class="st7" x1="229.3" y1="-9.7" x2="245.4" y2="6.4"/>
	<line class="st7" x1="252" y1="22.3" x2="252" y2="45.1"/>
</g>
<g>
	<circle class="st7" cx="351" cy="13" r="9.3"/>
	<circle class="st7" cx="351" cy="13" r="32.1"/>
	<line class="st7" x1="351" y1="3.7" x2="351" y2="-19.1"/>
	<line class="st7" x1="357.5" y1="6.4" x2="373.6" y2="-9.7"/>
	<line class="st7" x1="328.3" y1="35.7" x2="344.4" y2="19.6"/>
	<line class="st7" x1="360.3" y1="13" x2="383" y2="13"/>
	<line class="st7" x1="341.7" y1="13" x2="318.9" y2="13"/>
	<line class="st7" x1="357.5" y1="19.6" x2="373.6" y2="35.7"/>
	<line class="st7" x1="328.3" y1="-9.7" x2="344.4" y2="6.4"/>
	<line class="st7" x1="351" y1="22.3" x2="351" y2="45.1"/>
</g>
<g>
	<circle class="st7" cx="450" cy="13" r="9.3"/>
	<circle class="st7" cx="450" cy="13" r="32.1"/>
	<line class="st7" x1="450" y1="3.7" x2="450" y2="-19.1"/>
	<line class="st7" x1="456.6" y1="6.4" x2="472.7" y2="-9.7"/>
	<line class="st7" x1="427.4" y1="35.7" x2="443.4" y2="19.6"/>
	<line class="st7" x1="459.3" y1="13" x2="482.1" y2="13"/>
	<line class="st7" x1="440.7" y1="13" x2="417.9" y2="13"/>
	<line class="st7" x1="456.6" y1="19.6" x2="472.7" y2="35.7"/>
	<line class="st7" x1="427.3" y1="-9.7" x2="443.4" y2="6.4"/>
	<line class="st7" x1="450" y1="22.3" x2="450" y2="45.1"/>
</g>
<g>
	<circle class="st7" cx="549" cy="13" r="9.3"/>
	<circle class="st7" cx="549" cy="13" r="32.1"/>
	<line class="st7" x1="549" y1="3.7" x2="549" y2="-19.1"/>
	<line class="st7" x1="555.6" y1="6.4" x2="571.7" y2="-9.7"/>
	<line class="st7" x1="526.4" y1="35.7" x2="542.5" y2="19.6"/>
	<line class="st7" x1="558.3" y1="13" x2="581.1" y2="13"/>
	<line class="st7" x1="539.7" y1="13" x2="517" y2="13"/>
	<line class="st7" x1="555.6" y1="19.6" x2="571.7" y2="35.7"/>
	<line class="st7" x1="526.4" y1="-9.7" x2="542.5" y2="6.4"/>
	<line class="st7" x1="549" y1="22.3" x2="549" y2="45.1"/>
</g>
<g>
	<circle class="st7" cx="648.1" cy="13" r="9.3"/>
	<circle class="st7" cx="648.1" cy="13" r="32.1"/>
	<line class="st7" x1="648.1" y1="3.7" x2="648.1" y2="-19.1"/>
	<line class="st7" x1="654.6" y1="6.4" x2="670.7" y2="-9.7"/>
	<line class="st7" x1="625.4" y1="35.7" x2="641.5" y2="19.6"/>
	<line class="st7" x1="657.3" y1="13" x2="680.1" y2="13"/>
	<line class="st7" x1="638.8" y1="13" x2="616" y2="13"/>
	<line class="st7" x1="654.6" y1="19.6" x2="670.7" y2="35.7"/>
	<line class="st7" x1="625.4" y1="-9.7" x2="641.5" y2="6.4"/>
	<line class="st7" x1="648.1" y1="22.3" x2="648.1" y2="45.1"/>
</g>
<g>
	<circle class="st7" cx="747.1" cy="13" r="9.3"/>
	<circle class="st7" cx="747.1" cy="13" r="32.1"/>
	<line class="st7" x1="747.1" y1="3.7" x2="747.1" y2="-19.1"/>
	<line class="st7" x1="753.6" y1="6.4" x2="769.7" y2="-9.7"/>
	<line class="st7" x1="724.4" y1="35.7" x2="740.5" y2="19.6"/>
	<line class="st7" x1="756.4" y1="13" x2="779.1" y2="13"/>
	<line class="st7" x1="737.8" y1="13" x2="715" y2="13"/>
	<line class="st7" x1="753.6" y1="19.6" x2="769.7" y2="35.7"/>
	<line class="st7" x1="724.4" y1="-9.7" x2="740.5" y2="6.4"/>
	<line class="st7" x1="747.1" y1="22.3" x2="747.1" y2="45.1"/>
</g>
<g>
	<circle class="st7" cx="152.9" cy="137" r="9.3"/>
	<circle class="st7" cx="152.9" cy="137" r="32.1"/>
	<line class="st7" x1="152.9" y1="127.7" x2="152.9" y2="104.9"/>
	<line class="st7" x1="159.5" y1="130.4" x2="175.6" y2="114.3"/>
	<line class="st7" x1="130.3" y1="159.7" x2="146.4" y2="143.6"/>
	<line class="st7" x1="162.2" y1="137" x2="185" y2="137"/>
	<line class="st7" x1="143.7" y1="137" x2="120.9" y2="137"/>
	<line class="st7" x1="159.5" y1="143.6" x2="175.6" y2="159.7"/>
	<line class="st7" x1="130.3" y1="114.3" x2="146.4" y2="130.4"/>
	<line class="st7" x1="152.9" y1="146.3" x2="152.9" y2="169.1"/>
</g>
<g>
	<circle class="st7" cx="53.9" cy="137" r="9.3"/>
	<circle class="st7" cx="53.9" cy="137" r="32.1"/>
	<line class="st7" x1="53.9" y1="127.7" x2="53.9" y2="104.9"/>
	<line class="st7" x1="60.5" y1="130.4" x2="76.6" y2="114.3"/>
	<line class="st7" x1="31.3" y1="159.7" x2="47.4" y2="143.6"/>
	<line class="st7" x1="63.2" y1="137" x2="86" y2="137"/>
	<line class="st7" x1="44.6" y1="137" x2="21.9" y2="137"/>
	<line class="st7" x1="60.5" y1="143.6" x2="76.6" y2="159.7"/>
	<line class="st7" x1="31.2" y1="114.3" x2="47.4" y2="130.4"/>
	<line class="st7" x1="53.9" y1="146.3" x2="53.9" y2="169.1"/>
</g>
<g>
	<circle class="st7" cx="252" cy="137" r="9.3"/>
	<circle class="st7" cx="252" cy="137" r="32.1"/>
	<line class="st7" x1="252" y1="127.7" x2="252" y2="104.9"/>
	<line class="st7" x1="258.5" y1="130.4" x2="274.6" y2="114.3"/>
	<line class="st7" x1="229.3" y1="159.7" x2="245.4" y2="143.6"/>
	<line class="st7" x1="261.2" y1="137" x2="284" y2="137"/>
	<line class="st7" x1="242.7" y1="137" x2="219.9" y2="137"/>
	<line class="st7" x1="258.5" y1="143.6" x2="274.6" y2="159.7"/>
	<line class="st7" x1="229.3" y1="114.3" x2="245.4" y2="130.4"/>
	<line class="st7" x1="252" y1="146.3" x2="252" y2="169.1"/>
</g>
<g>
	<circle class="st7" cx="351" cy="137" r="9.3"/>
	<circle class="st7" cx="351" cy="137" r="32.1"/>
	<line class="st7" x1="351" y1="127.7" x2="351" y2="104.9"/>
	<line class="st7" x1="357.5" y1="130.4" x2="373.6" y2="114.3"/>
	<line class="st7" x1="328.3" y1="159.7" x2="344.4" y2="143.6"/>
	<line class="st7" x1="360.3" y1="137" x2="383" y2="137"/>
	<line class="st7" x1="341.7" y1="137" x2="318.9" y2="137"/>
	<line class="st7" x1="357.5" y1="143.6" x2="373.6" y2="159.7"/>
	<line class="st7" x1="328.3" y1="114.3" x2="344.4" y2="130.4"/>
	<line class="st7" x1="351" y1="146.3" x2="351" y2="169.1"/>
</g>
<g>
	<circle class="st7" cx="450" cy="137" r="9.3"/>
	<circle class="st7" cx="450" cy="137" r="32.1"/>
	<line class="st7" x1="450" y1="127.7" x2="450" y2="104.9"/>
	<line class="st7" x1="456.6" y1="130.4" x2="472.7" y2="114.3"/>
	<line class="st7" x1="427.4" y1="159.7" x2="443.4" y2="143.6"/>
	<line class="st7" x1="459.3" y1="137" x2="482.1" y2="137"/>
	<line class="st7" x1="440.7" y1="137" x2="417.9" y2="137"/>
	<line class="st7" x1="456.6" y1="143.6" x2="472.7" y2="159.7"/>
	<line class="st7" x1="427.3" y1="114.3" x2="443.4" y2="130.4"/>
	<line class="st7" x1="450" y1="146.3" x2="450" y2="169.1"/>
</g>
<g>
	<circle class="st7" cx="549" cy="137" r="9.3"/>
	<circle class="st7" cx="549" cy="137" r="32.1"/>
	<line class="st7" x1="549" y1="127.7" x2="549" y2="104.9"/>
	<line class="st7" x1="555.6" y1="130.4" x2="571.7" y2="114.3"/>
	<line class="st7" x1="526.4" y1="159.7" x2="542.5" y2="143.6"/>
	<line class="st7" x1="558.3" y1="137" x2="581.1" y2="137"/>
	<line class="st7" x1="539.7" y1="137" x2="517" y2="137"/>
	<line class="st7" x1="555.6" y1="143.6" x2="571.7" y2="159.7"/>
	<line class="st7" x1="526.4" y1="114.3" x2="542.5" y2="130.4"/>
	<line class="st7" x1="549" y1="146.3" x2="549" y2="169.1"/>
</g>
<g>
	<circle class="st7" cx="648.1" cy="137" r="9.3"/>
	<circle class="st7" cx="648.1" cy="137" r="32.1"/>
	<line class="st7" x1="648.1" y1="127.7" x2="648.1" y2="104.9"/>
	<line class="st7" x1="654.6" y1="130.4" x2="670.7" y2="114.3"/>
	<line class="st7" x1="625.4" y1="159.7" x2="641.5" y2="143.6"/>
	<line class="st7" x1="657.3" y1="137" x2="680.1" y2="137"/>
	<line class="st7" x1="638.8" y1="137" x2="616" y2="137"/>
	<line class="st7" x1="654.6" y1="143.6" x2="670.7" y2="159.7"/>
	<line class="st7" x1="625.4" y1="114.3" x2="641.5" y2="130.4"/>
	<line class="st7" x1="648.1" y1="146.3" x2="648.1" y2="169.1"/>
</g>
<g>
	<circle class="st7" cx="747.1" cy="137" r="9.3"/>
	<circle class="st7" cx="747.1" cy="137" r="32.1"/>
	<line class="st7" x1="747.1" y1="127.7" x2="747.1" y2="104.9"/>
	<line class="st7" x1="753.6" y1="130.4" x2="769.7" y2="114.3"/>
	<line class="st7" x1="724.4" y1="159.7" x2="740.5" y2="143.6"/>
	<line class="st7" x1="756.4" y1="137" x2="779.1" y2="137"/>
	<line class="st7" x1="737.8" y1="137" x2="715" y2="137"/>
	<line class="st7" x1="753.6" y1="143.6" x2="769.7" y2="159.7"/>
	<line class="st7" x1="724.4" y1="114.3" x2="740.5" y2="130.4"/>
	<line class="st7" x1="747.1" y1="146.3" x2="747.1" y2="169.1"/>
</g>
</svg>
