<?xml version="1.0" encoding="utf-8"?>
<!-- Generator: Adobe Illustrator 27.2.0, SVG Export Plug-In . SVG Version: 6.00 Build 0)  -->
<svg version="1.1" id="Layer_1" xmlns="http://www.w3.org/2000/svg" xmlns:xlink="http://www.w3.org/1999/xlink" x="0px" y="0px"
	 viewBox="0 0 800 150" style="enable-background:new 0 0 800 150;" xml:space="preserve">
<style type="text/css">
	.st0{fill:none;stroke:#343A40;stroke-linecap:round;stroke-linejoin:round;stroke-miterlimit:10;}
</style>
<g>
	<path class="st0" d="M-4.2,2.7c0-2,0.5-3.5,1.4-4.8c0.9-1.1,2.3-1.7,4.1-1.7s3.1,0.5,4.1,1.5c0.9,0.9,1.4,2.5,1.4,4.3v2.6h6.9V1.8
		c0-3.5-0.9-6.3-2.6-8.3S7-9.4,3.9-9.4c-2.3,0-4.1,0.6-5.7,1.7C-3.1-6.5-4-5-4.5-3v-6.1h-6.7v30.4h6.9V2.7H-4.2z"/>
	<path class="st0" d="M33.2,21.7c3.8,0,7.1-1.1,9.2-3.2c2.3-2.1,3.4-5.2,3.4-8.9V2.5c0-3.7-1.1-6.7-3.4-8.9
		c-2.3-2.1-5.4-3.2-9.2-3.2S26.2-8.5,24-6.4c-2.3,2.1-3.4,5.1-3.4,8.9v7.1c0,3.7,1.1,6.6,3.4,8.9C26.2,20.6,29.4,21.7,33.2,21.7z
		 M27.4,2.4c0-1.8,0.5-3.4,1.5-4.4c1.1-1.1,2.5-1.5,4.3-1.5c1.8,0,3.2,0.5,4.3,1.5c1.1,1.1,1.5,2.5,1.5,4.4v7.5
		c0,1.8-0.5,3.4-1.5,4.4c-1.1,1.1-2.5,1.5-4.3,1.5c-1.8,0-3.2-0.5-4.3-1.5c-1.1-1.1-1.5-2.5-1.5-4.4V2.4z"/>
	<path class="st0" d="M58.4-1.3c0-2.1,0.9-3.2,2.6-3.2c0.8,0,1.4,0.3,1.8,0.9c0.5,0.6,0.6,1.4,0.6,2.3v22.5H69V-1.3
		c0-2.1,0.8-3.2,2.5-3.2c0.9,0,1.5,0.3,2,0.9s0.8,1.4,0.8,2.3v22.5h6.1V-1.9c0-2.3-0.6-4.1-1.8-5.7c-1.2-1.4-2.8-2.1-4.6-2.1
		c-1.4,0-2.6,0.5-3.5,1.2c-0.9,0.9-1.5,2-1.7,3.5c-0.3-1.5-0.9-2.6-2-3.5c-0.9-0.9-2.1-1.2-3.5-1.2c-1.4,0-2.6,0.5-3.5,1.4
		c-0.9,0.9-1.4,2.1-1.5,3.5h0v-4.3h-5.7v30.4h6.1V-1.3H58.4z"/>
	<path class="st0" d="M137.7,15.4c-0.9,0.6-2.1,0.9-3.8,0.9h-2.5c-1.5,0-2.8-0.3-3.7-0.9c-0.9-0.6-1.2-1.5-1.2-2.8h-6.7
		c0,2.8,1.1,5.1,3.2,6.6c2.1,1.7,4.9,2.5,8.6,2.5h2.5c3.8,0,6.7-0.8,8.7-2.5c2-1.7,3.1-3.8,3.1-6.7c0-2.8-0.8-4.9-2.1-6.6
		c-1.4-1.7-3.5-2.6-6.3-2.9l-7.1-0.9c-1.1-0.2-2-0.5-2.5-0.8c-0.6-0.5-0.9-1.1-0.9-2c0-1.1,0.5-1.8,1.2-2.5c0.8-0.6,1.8-0.9,3.4-0.9
		h2.6c1.4,0,2.5,0.3,3.2,0.9s1.2,1.4,1.2,2.3h6.9c0-2.6-1.1-4.6-3.2-6.1c-2-1.5-4.8-2.3-8.1-2.3h-2.6c-3.7,0-6.4,0.8-8.3,2.3
		c-1.8,1.5-2.9,3.7-2.9,6.6c0,2.5,0.6,4.4,2,6s3.2,2.5,5.7,2.8l7.5,0.9c1.2,0.2,2.3,0.6,2.9,1.1c0.6,0.5,0.9,1.4,0.9,2.5
		C138.9,13.9,138.4,14.8,137.7,15.4z"/>
	<path class="st0" d="M159,20.3c1.8,0.9,4.1,1.5,6.7,1.5c3.2,0,6-0.8,8.3-2.3c2.3-1.5,3.7-3.7,4.1-6.3h-6.9
		c-0.2,0.9-0.8,1.7-1.8,2.1c-1.1,0.5-2.3,0.8-3.7,0.8c-2,0-3.5-0.5-4.6-1.5s-1.5-2.6-1.5-4.6V7.9h18.7V2.4c0-2.5-0.5-4.4-1.5-6.3
		s-2.5-3.2-4.4-4.1c-1.8-0.9-4.1-1.5-6.6-1.5c-2.6,0-4.8,0.5-6.7,1.5c-1.8,0.9-3.4,2.5-4.4,4.3c-1.1,1.8-1.5,4-1.5,6.4v7.2
		c0,2.5,0.5,4.6,1.5,6.4C155.6,17.9,157.1,19.4,159,20.3z M159.6,2.2c0-2.1,0.5-3.7,1.5-4.9s2.6-1.7,4.6-1.7s3.4,0.6,4.4,1.7
		c1.1,1.1,1.5,2.8,1.5,4.9v1.1h-12.1V2.2z"/>
	<path class="st0" d="M196.1,21.9c2.1,0,3.8-0.5,5.4-1.5c1.4-1.1,2.5-2.6,3.1-4.4l0,0l-0.2,6.9v8.4h6.9V-9.1h-6.7v5.5
		C203.9-5.4,203-7,201.6-8s-3.2-1.5-5.4-1.5c-2.9,0-5.4,1.1-7.2,3.2c-1.8,2.1-2.8,4.9-2.8,8.4v8.3c0,3.5,0.9,6.4,2.8,8.4
		C190.7,20.8,193.2,21.9,196.1,21.9z M193.2,2.1c0-1.8,0.5-3.4,1.5-4.3s2.3-1.4,4.1-1.4c1.8,0,3.1,0.5,4.1,1.5
		c0.9,1.1,1.5,2.6,1.5,4.6v7.4c0,2-0.5,3.5-1.5,4.6c-0.9,1.1-2.3,1.5-4.1,1.5c-1.8,0-3.1-0.5-4.1-1.4c-1.1-0.9-1.5-2.5-1.5-4.3V2.1z
		"/>
	<rect x="218.8" y="22.6" class="st0" width="26.5" height="6.3"/>
	<path class="st0" d="M257.1-1.3c0-2.1,0.9-3.2,2.6-3.2c0.8,0,1.4,0.3,1.8,0.9c0.5,0.6,0.6,1.4,0.6,2.3v22.5h5.5V-1.3
		c0-2.1,0.8-3.2,2.5-3.2c0.9,0,1.5,0.3,2,0.9c0.5,0.6,0.8,1.4,0.8,2.3v22.5h6.1V-1.9c0-2.3-0.6-4.1-1.8-5.7
		c-1.2-1.4-2.8-2.1-4.6-2.1c-1.4,0-2.6,0.5-3.5,1.2c-0.9,0.9-1.5,2-1.7,3.5c-0.3-1.5-0.9-2.6-2-3.5c-0.9-0.9-2.1-1.2-3.5-1.2
		s-2.6,0.5-3.5,1.4c-0.9,0.9-1.4,2.1-1.5,3.5h-0.2v-4.3H251v30.4h6.1L257.1-1.3L257.1-1.3z"/>
	<path class="st0" d="M298.2,21.7c3.8,0,7.1-1.1,9.2-3.2c2.3-2.1,3.4-5.2,3.4-8.9V2.5c0-3.7-1.1-6.7-3.4-8.9
		c-2.3-2.1-5.4-3.2-9.2-3.2s-7.1,1.1-9.2,3.2c-2.3,2.1-3.4,5.1-3.4,8.9v7.1c0,3.7,1.1,6.6,3.4,8.9C291.2,20.6,294.3,21.7,298.2,21.7
		z M292.4,2.4c0-1.8,0.5-3.4,1.5-4.4s2.5-1.5,4.3-1.5c1.8,0,3.2,0.5,4.3,1.5s1.5,2.5,1.5,4.4v7.5c0,1.8-0.5,3.4-1.5,4.4
		c-1.1,1.1-2.5,1.5-4.3,1.5c-1.8,0-3.2-0.5-4.3-1.5s-1.5-2.5-1.5-4.4V2.4z"/>
	<path class="st0" d="M328.6,21.9c2.1,0,4-0.5,5.4-1.5c1.4-1.1,2.5-2.6,2.9-4.4v5.4h6.7v-40.3h-6.9v8.4l0.2,6.9
		c-0.6-1.8-1.5-3.4-3.1-4.4c-1.4-1.1-3.2-1.5-5.4-1.5c-2.9,0-5.4,1.1-7.2,3.2s-2.8,4.9-2.8,8.4v8.3c0,3.5,0.9,6.3,2.8,8.4
		C323.2,20.8,325.7,21.9,328.6,21.9z M325.5,2.2c0-2,0.5-3.5,1.5-4.4c1.1-0.9,2.3-1.4,4.1-1.4s3.1,0.5,4.1,1.5
		c0.9,1.1,1.5,2.6,1.5,4.6v7.4c0,2-0.5,3.5-1.5,4.6c-0.9,1.1-2.3,1.5-4.1,1.5s-3.1-0.5-4.1-1.4c-1.1-0.9-1.5-2.5-1.5-4.4V2.2z"/>
	<path class="st0" d="M364.5,21.9c3.8,0,6.7-1.1,9-3.2c2.3-2.1,3.4-5.1,3.4-8.7v-19H370V9.7c0,1.8-0.5,3.4-1.5,4.4
		c-0.9,1.1-2.3,1.5-4,1.5c-1.8,0-3.1-0.5-4.1-1.5c-0.9-1.1-1.4-2.6-1.4-4.4V-9.1h-6.9V9.7c0,3.7,1.1,6.6,3.4,8.7
		C357.6,20.8,360.7,21.9,364.5,21.9z"/>
	<path class="st0" d="M400.4,14c-0.6-0.6-0.9-1.5-0.9-2.8v-30.4h-16.9v6.3h10v24.2c0,2.9,0.9,5.4,2.8,7.1c1.8,1.8,4.3,2.8,7.2,2.8
		h9.4v-6.1H403C401.9,15.1,401,14.7,400.4,14z"/>
	<path class="st0" d="M424,20.3c1.8,0.9,4.1,1.5,6.7,1.5c3.2,0,6-0.8,8.3-2.3c2.3-1.5,3.7-3.7,4.1-6.3h-6.9
		c-0.2,0.9-0.8,1.7-1.8,2.1c-1.1,0.5-2.3,0.8-3.7,0.8c-2,0-3.5-0.5-4.6-1.5c-1.1-1.1-1.5-2.6-1.5-4.6V7.9h18.7V2.4
		c0-2.5-0.5-4.4-1.5-6.3c-1.1-1.8-2.5-3.2-4.4-4.1c-1.8-0.9-4.1-1.5-6.6-1.5c-2.6,0-4.8,0.5-6.7,1.5c-1.8,0.9-3.4,2.5-4.4,4.3
		c-1.1,1.8-1.5,4-1.5,6.4v7.2c0,2.5,0.5,4.6,1.5,6.4C420.6,17.9,422.2,19.4,424,20.3z M424.6,2.2c0-2.1,0.5-3.7,1.5-4.9
		c1.1-1.2,2.6-1.7,4.6-1.7s3.4,0.6,4.4,1.7s1.5,2.8,1.5,4.9v1.1h-12.1V2.2z"/>
	<path class="st0" d="M497.9-14.2c1.4,0,2.5-0.3,3.4-1.1c0.8-0.8,1.2-1.7,1.2-2.9c0-1.2-0.5-2.1-1.2-2.9s-1.8-1.1-3.4-1.1
		c-1.5,0-2.5,0.3-3.4,1.1c-0.8,0.8-1.2,1.7-1.2,2.9c0,1.2,0.5,2.1,1.2,2.9C495.5-14.5,496.5-14.2,497.9-14.2z"/>
	<polygon class="st0" points="501.9,-9.1 485.6,-9.1 485.6,-2.8 495,-2.8 495,15.1 484.6,15.1 484.6,21.2 511.3,21.2 511.3,15.1 
		501.9,15.1 	"/>
	<path class="st0" d="M522.1-1.3c0-2.1,0.9-3.2,2.6-3.2c0.8,0,1.4,0.3,1.8,0.9c0.5,0.6,0.6,1.4,0.6,2.3v22.5h5.5V-1.3
		c0-2.1,0.8-3.2,2.5-3.2c0.9,0,1.5,0.3,2,0.9s0.8,1.4,0.8,2.3v22.5h6.1V-1.9c0-2.3-0.6-4.1-1.8-5.7c-1.2-1.4-2.8-2.1-4.6-2.1
		c-1.4,0-2.6,0.5-3.5,1.2c-0.9,0.9-1.5,2-1.7,3.5c-0.3-1.5-0.9-2.6-2-3.5c-0.9-0.9-2.1-1.2-3.5-1.2c-1.4,0-2.6,0.5-3.5,1.4
		c-0.9,0.9-1.4,2.1-1.5,3.5h-0.2v-4.3H516v30.4h6.1L522.1-1.3L522.1-1.3z"/>
	<path class="st0" d="M557.9,22.8l-0.2-7.2c0.6,2,1.5,3.5,3.1,4.6c1.4,1.1,3.2,1.7,5.4,1.7c2.9,0,5.4-1.1,7.2-3.2s2.8-4.9,2.8-8.4
		V1.9c0-2.3-0.5-4.3-1.2-6.1c-0.8-1.7-2-3.1-3.5-4s-3.2-1.4-5.2-1.4c-2.1,0-4,0.6-5.4,1.7s-2.5,2.6-2.9,4.4v-5.7h-6.7v40.3h6.9v-8.4
		H557.9z M557.9,2.4c0-2,0.5-3.5,1.5-4.6c0.9-1.1,2.3-1.5,4.1-1.5s3.1,0.5,4.1,1.4s1.5,2.5,1.5,4.4v7.8c0,2-0.5,3.5-1.5,4.4
		c-1.1,0.9-2.3,1.4-4.1,1.4s-3.1-0.5-4.1-1.5c-0.9-1.1-1.5-2.6-1.5-4.6V2.4z"/>
	<path class="st0" d="M596.4,21.7c3.8,0,7.1-1.1,9.2-3.2c2.3-2.1,3.4-5.2,3.4-8.9V2.5c0-3.7-1.1-6.7-3.4-8.9s-5.4-3.2-9.2-3.2
		s-7.1,1.1-9.2,3.2s-3.4,5.1-3.4,8.9v7.1c0,3.7,1.1,6.6,3.4,8.9C589.3,20.6,592.4,21.7,596.4,21.7z M590.5,2.4
		c0-1.8,0.5-3.4,1.5-4.4s2.5-1.5,4.3-1.5s3.2,0.5,4.3,1.5c1.1,1.1,1.5,2.5,1.5,4.4v7.5c0,1.8-0.5,3.4-1.5,4.4
		c-1.1,1.1-2.5,1.5-4.3,1.5s-3.2-0.5-4.3-1.5s-1.5-2.5-1.5-4.4V2.4z"/>
	<path class="st0" d="M625.2,2.7c0-2,0.5-3.5,1.4-4.8c0.9-1.1,2.3-1.7,4.1-1.7s3.1,0.5,4.1,1.5c0.9,0.9,1.4,2.5,1.4,4.3v2.6h6.9V1.8
		c0-3.5-0.9-6.3-2.6-8.3s-4.1-2.9-7.2-2.9c-2.3,0-4.1,0.6-5.7,1.7c-1.4,1.2-2.3,2.8-2.8,4.8v-6.1h-6.7v30.4h6.9V2.7H625.2z"/>
	<path class="st0" d="M656.3,12.2c0,2.8,0.8,5.1,2.5,6.6c1.7,1.7,4,2.5,6.7,2.5h9.5v-6.1h-9c-0.9,0-1.5-0.3-2-0.9s-0.8-1.2-0.8-2.1
		V-2.8h12.1v-6.3h-12.1v-8.6h-6.9v8.6h-8.4v6.3h8.4V12.2z"/>
	<path class="st0" d="M729,15.9c-2,0-3.7-0.5-4.9-1.5c-1.2-1.1-1.8-2.5-1.8-4.3h-6.7c0,2.5,0.6,4.6,1.7,6.4c1.1,1.8,2.8,3.2,4.8,4.1
		s4.4,1.4,7.2,1.4c2.8,0,5.1-0.5,7.1-1.5c2-0.9,3.5-2.3,4.6-4.1s1.7-3.8,1.7-6.3c0-3.1-0.9-5.7-2.6-7.8c-1.7-2.1-4-3.7-7.1-4.4
		l-5.5-1.4c-1.2-0.3-2.3-0.9-3.1-1.8c-0.8-0.8-1.1-1.8-1.1-3.1c0-1.5,0.5-2.8,1.5-3.7c1.1-0.9,2.5-1.4,4.1-1.4
		c1.8,0,3.2,0.5,4.3,1.4c1.1,0.9,1.5,2.1,1.5,3.7h6.7c0-2.3-0.5-4.1-1.5-5.8c-1.1-1.7-2.5-2.9-4.4-3.8c-1.8-0.9-4.1-1.4-6.6-1.4
		c-3.7,0-6.7,1.1-9,3.1c-2.3,2-3.4,4.8-3.4,8.1c0,2.8,0.9,5.2,2.6,7.2c1.7,2,4,3.4,6.9,4.1l5.4,1.4c1.4,0.3,2.5,1.1,3.2,2.1
		c0.8,1.1,1.1,2.1,1.1,3.5c0,1.8-0.6,3.2-1.7,4.3C732.6,15.3,731,15.9,729,15.9z"/>
	<path class="st0" d="M755.3,20.3c1.8,0.9,4.1,1.5,6.7,1.5c3.2,0,6-0.8,8.3-2.3c2.3-1.5,3.7-3.7,4.1-6.3h-6.9
		c-0.2,0.9-0.8,1.7-1.8,2.1c-1.1,0.5-2.3,0.8-3.7,0.8c-2,0-3.5-0.5-4.6-1.5c-1.1-1.1-1.5-2.6-1.5-4.6V7.9h18.7V2.4
		c0-2.5-0.5-4.4-1.5-6.3s-2.5-3.2-4.4-4.1c-1.8-0.9-4.1-1.5-6.6-1.5c-2.6,0-4.8,0.5-6.7,1.5c-1.8,0.9-3.4,2.5-4.4,4.3
		c-1.1,1.8-1.5,4-1.5,6.4v7.2c0,2.5,0.5,4.6,1.5,6.4C751.9,17.9,753.4,19.4,755.3,20.3z M755.9,2.2c0-2.1,0.5-3.7,1.5-4.9
		c1.1-1.2,2.6-1.7,4.6-1.7s3.4,0.6,4.4,1.7c1.1,1.1,1.5,2.8,1.5,4.9v1.1h-12.1V2.2z"/>
	<path class="st0" d="M792.4,21.9c2.1,0,3.8-0.5,5.4-1.5c1.4-1.1,2.5-2.6,3.1-4.4l0,0l-0.2,6.9v8.4h6.9V-9.1h-6.7v5.5
		c-0.6-1.8-1.5-3.4-2.9-4.4s-3.2-1.5-5.4-1.5c-2.9,0-5.4,1.1-7.2,3.2s-2.8,4.9-2.8,8.4v8.3c0,3.5,0.9,6.4,2.8,8.4
		C787,20.8,789.3,21.9,792.4,21.9z M789.3,2.1c0-1.8,0.5-3.4,1.5-4.3c1.1-0.9,2.3-1.4,4.1-1.4s3.1,0.5,4.1,1.5s1.5,2.6,1.5,4.6v7.4
		c0,2-0.5,3.5-1.5,4.6c-0.9,1.1-2.3,1.5-4.1,1.5s-3.1-0.5-4.1-1.4c-1.1-0.9-1.5-2.5-1.5-4.3V2.1z"/>
	<polygon class="st0" points="-13.9,53.5 -3.4,53.5 -3.4,87.5 3.6,87.5 3.6,53.5 14.1,53.5 14.1,47.2 -13.9,47.2 	"/>
	<path class="st0" d="M28.8,47.2L18.7,87.5h7.1l2.1-9.8h10.7l2.1,9.8h7.1L37.5,47.2C37.5,47.2,28.8,47.2,28.8,47.2z M29.1,72.2
		l2.5-10.9c0.5-1.8,0.8-3.4,1.1-4.9c0.3-1.4,0.5-2.5,0.6-3.2c0.2,0.6,0.3,1.7,0.6,3.2c0.3,1.4,0.6,3.1,1.1,4.9l2.5,10.9H29.1z"/>
	<path class="st0" d="M62.4,54.2c1.1-1.1,2.5-1.5,4.3-1.5c1.8,0,3.4,0.5,4.3,1.5c1.1,1.1,1.5,2.5,1.5,4.3h6.9c0-2.5-0.5-4.6-1.5-6.3
		c-1.1-1.8-2.6-3.2-4.4-4.1s-4.1-1.5-6.7-1.5s-4.9,0.5-6.7,1.5c-1.8,0.9-3.4,2.3-4.4,4.1s-1.5,3.8-1.5,6.3V76c0,2.5,0.5,4.6,1.5,6.3
		c1.1,1.8,2.5,3.2,4.4,4.1c1.8,0.9,4.1,1.5,6.7,1.5s4.8-0.5,6.7-1.5c1.8-0.9,3.4-2.3,4.4-4.1c1.1-1.8,1.5-3.8,1.5-6.3h-6.9
		c0,1.8-0.5,3.4-1.5,4.3c-1.1,1.1-2.5,1.5-4.3,1.5c-1.8,0-3.4-0.5-4.3-1.5c-1.1-1.1-1.5-2.5-1.5-4.3V58.7
		C60.8,56.7,61.4,55.3,62.4,54.2z"/>
	<path class="st0" d="M95,47.2L84.9,87.5H92l2.1-9.8h10.7l2.1,9.8h7.1l-10.3-40.3C103.8,47.2,95,47.2,95,47.2z M95.3,72.2l2.5-10.9
		c0.5-1.8,0.8-3.4,1.1-4.9c0.3-1.4,0.5-2.5,0.6-3.2c0.2,0.6,0.3,1.7,0.6,3.2c0.3,1.4,0.6,3.1,1.1,4.9l2.5,10.9H95.3z"/>
	<path class="st0" d="M130.5,57.3l-2.9,6.9h7.1l2.5-5.5c0.3-0.9,0.6-1.8,0.9-2.8c0.3-1.1,0.5-1.8,0.5-2.6c0-1.1-0.3-2.1-0.8-3.2
		c-0.5-1.1-1.2-2-2.1-2.6h-7.2c0.9,0.6,1.7,1.5,2.3,2.6c0.5,1.1,0.8,2.1,0.8,3.2c0,0.6-0.2,1.2-0.3,2
		C130.9,56.1,130.8,56.5,130.5,57.3z"/>
	<path class="st0" d="M163.3,82.1c-1.8,2.6-4.4,4.3-7.8,5.1v6.9c5.5-1.2,10-3.8,13-7.7c3.1-3.8,4.6-8.4,4.6-14v-9.8
		c0-5.5-1.5-10.1-4.6-14c-3.1-3.7-7.4-6.3-13-7.7v6.9c3.2,0.8,5.8,2.5,7.8,5.1c1.8,2.6,2.9,5.8,2.9,9.5v9.8
		C166,76.3,165.1,79.5,163.3,82.1z"/>
	<path class="st0" d="M228,64.2c1.1-1.1,2.6-1.5,4.4-1.5c1.7,0,3.1,0.5,4.1,1.2c1.1,0.9,1.7,2.1,1.8,3.7h6.7c-0.2-3.4-1.4-6.1-3.7-8
		c-2.3-2-5.4-2.9-9.2-2.9c-2.6,0-4.9,0.5-6.7,1.5c-2,0.9-3.4,2.3-4.4,4.1c-1.1,1.8-1.5,3.8-1.5,6.3v7.7c0,2.5,0.5,4.6,1.5,6.3
		c1.1,1.8,2.6,3.2,4.4,4.1c2,0.9,4.1,1.5,6.7,1.5c3.8,0,6.9-0.9,9.2-2.9s3.5-4.6,3.7-8h-6.7c-0.2,1.5-0.8,2.8-1.8,3.7
		c-1.1,0.9-2.5,1.2-4.1,1.2c-1.8,0-3.4-0.5-4.4-1.5c-1.1-1.1-1.5-2.5-1.5-4.3v-7.7C226.5,66.6,226.9,65.1,228,64.2z"/>
	<path class="st0" d="M267.9,80.3c-0.6-0.6-0.9-1.5-0.9-2.8V47.2h-16.9v6.3h10v24.2c0,2.9,0.9,5.4,2.8,7.1c1.8,1.7,4.3,2.8,7.2,2.8
		h9.4v-6.3h-8.9C269.4,81.4,268.5,80.9,267.9,80.3z"/>
	<path class="st0" d="M294.9,88.1c2.6,0,4.6-0.6,6.1-1.7c1.5-1.1,2.5-2.6,2.8-4.6v5.7h6.7V66.9c0-3.2-1.1-5.8-3.2-7.7
		s-5.1-2.8-9-2.8c-3.7,0-6.6,0.9-8.7,2.6c-2.1,1.7-3.4,3.8-3.4,6.6h6.6c0.2-1.1,0.6-2,1.5-2.6c0.9-0.6,2.3-0.9,3.8-0.9
		c3.5,0,5.4,1.5,5.4,4.6v2.1h-7.4c-3.5,0-6.3,0.9-8.3,2.6c-2,1.7-3.1,4.1-3.1,7.1c0,2.8,0.9,5.1,2.6,6.9
		C289.3,87.2,291.8,88.1,294.9,88.1z M293,74.6c0.9-0.9,2.1-1.2,3.5-1.2h7.1v3.5c0,1.7-0.6,2.9-1.8,4c-1.2,0.9-2.8,1.5-4.8,1.5
		c-1.7,0-3.1-0.5-4-1.2c-0.9-0.8-1.4-2-1.4-3.2C291.6,76.6,292.1,75.5,293,74.6z"/>
	<path class="st0" d="M321.5,85.5c2.1,1.7,4.9,2.5,8.6,2.5h2.5c3.8,0,6.7-0.8,8.7-2.5c2-1.5,3.1-3.8,3.1-6.7c0-2.8-0.8-4.9-2.1-6.6
		c-1.4-1.7-3.5-2.6-6.3-2.9l-7.1-0.9c-1.1-0.2-2-0.5-2.5-0.8c-0.6-0.5-0.9-1.1-0.9-2c0-1.1,0.5-1.8,1.2-2.5c0.8-0.6,1.8-0.9,3.4-0.9
		h2.6c1.4,0,2.5,0.3,3.2,0.9c0.8,0.6,1.2,1.4,1.2,2.3h6.9c0-2.6-1.1-4.6-3.2-6.1c-2-1.5-4.8-2.3-8.1-2.3h-2.6
		c-3.7,0-6.4,0.8-8.3,2.3c-1.8,1.5-2.9,3.7-2.9,6.6c0,2.5,0.6,4.4,2,6c1.4,1.5,3.2,2.5,5.7,2.8l7.5,0.9c1.2,0.2,2.3,0.6,2.9,1.1
		c0.6,0.5,0.9,1.4,0.9,2.5c0,1.2-0.5,2.1-1.4,2.8c-0.9,0.6-2.5,0.8-4.1,0.8H330c-1.5,0-2.8-0.3-3.7-0.9s-1.2-1.5-1.2-2.8h-6.7
		C318.3,81.7,319.4,84,321.5,85.5z"/>
	<path class="st0" d="M368.9,69.2l-7.1-0.9c-1.1-0.2-2-0.5-2.5-0.8c-0.6-0.5-0.9-1.1-0.9-2c0-1.1,0.5-1.8,1.2-2.5
		c0.8-0.6,1.8-0.9,3.4-0.9h2.6c1.4,0,2.5,0.3,3.2,0.9c0.8,0.6,1.2,1.4,1.2,2.3h6.9c0-2.6-1.1-4.6-3.2-6.1c-2-1.5-4.8-2.3-8.1-2.3
		h-2.6c-3.7,0-6.4,0.8-8.3,2.3s-2.9,3.7-2.9,6.6c0,2.5,0.6,4.4,2,6c1.4,1.5,3.2,2.5,5.7,2.8l7.5,0.9c1.2,0.2,2.3,0.6,2.9,1.1
		c0.6,0.5,0.9,1.4,0.9,2.5c0,1.2-0.5,2.1-1.4,2.8c-0.9,0.6-2.1,0.9-3.8,0.9h-2.5c-1.5,0-2.8-0.3-3.7-0.9c-0.9-0.6-1.2-1.5-1.2-2.8
		h-6.7c0,2.8,1.1,5.1,3.2,6.6c2.1,1.7,4.9,2.5,8.6,2.5h2.5c3.8,0,6.7-0.8,8.7-2.5c2-1.5,3.1-3.8,3.1-6.7c0-2.8-0.8-4.9-2.1-6.6
		C373.8,70.6,371.9,69.6,368.9,69.2z"/>
	<path class="st0" d="M423.7,86.6c2,0.9,4.4,1.4,7.2,1.4c2.8,0,5.1-0.5,7.1-1.5c2-1.1,3.5-2.3,4.6-4.1s1.7-3.8,1.7-6.3
		c0-3.1-0.9-5.7-2.6-7.8s-4-3.7-7.1-4.4l-5.5-1.4c-1.2-0.3-2.3-0.9-3.1-1.8c-0.8-0.8-1.1-1.8-1.1-3.1c0-1.5,0.5-2.8,1.5-3.7
		c1.1-0.9,2.5-1.4,4.1-1.4c1.8,0,3.2,0.5,4.3,1.4c1.1,0.9,1.5,2.1,1.5,3.7h6.7c0-2.3-0.5-4.1-1.5-5.8c-1.1-1.7-2.5-2.9-4.4-3.8
		c-1.8-0.9-4.1-1.4-6.6-1.4c-3.7,0-6.7,1.1-9,3.1c-2.3,2-3.4,4.8-3.4,8.1c0,2.8,0.9,5.2,2.6,7.2c1.7,2,4,3.4,6.9,4.1l5.4,1.4
		c1.4,0.3,2.5,1.1,3.2,2.1c0.8,1.1,1.1,2.1,1.1,3.5c0,1.8-0.6,3.2-1.7,4.3c-1.2,1.1-2.8,1.5-4.8,1.5c-2,0-3.7-0.5-4.9-1.5
		c-1.2-1.1-1.8-2.5-1.8-4.3h-6.7c0,2.5,0.6,4.6,1.7,6.4C420.2,84.3,421.7,85.7,423.7,86.6z"/>
	<path class="st0" d="M457.1,86.6c1.8,0.9,4.1,1.5,6.7,1.5c3.2,0,6-0.8,8.3-2.3c2.3-1.5,3.7-3.7,4.1-6.3h-6.9
		c-0.2,0.9-0.8,1.7-1.8,2.1c-1.1,0.5-2.3,0.8-3.7,0.8c-2,0-3.5-0.5-4.6-1.5c-1.1-1.1-1.5-2.6-1.5-4.6v-2.1h18.7v-5.5
		c0-2.5-0.5-4.4-1.5-6.3s-2.5-3.2-4.4-4.1c-1.8-0.9-4.1-1.5-6.6-1.5c-2.6,0-4.8,0.5-6.7,1.5c-1.8,0.9-3.4,2.5-4.4,4.3
		c-1.1,1.8-1.5,4-1.5,6.4v7.2c0,2.5,0.5,4.6,1.5,6.4C453.7,84.1,455.3,85.7,457.1,86.6z M457.7,68.5c0-2.1,0.5-3.7,1.5-4.9
		c1.1-1.2,2.6-1.7,4.6-1.7s3.4,0.6,4.4,1.7c1.1,1.1,1.5,2.8,1.5,4.9v1.1h-12.1V68.5z"/>
	<path class="st0" d="M502.5,62.7c-0.6-1.8-1.5-3.4-2.9-4.4c-1.4-1.1-3.2-1.5-5.4-1.5c-2.9,0-5.4,1.1-7.2,3.2
		c-1.8,2.1-2.8,4.9-2.8,8.4v8.1c0,3.5,0.9,6.4,2.8,8.4c1.8,2.1,4.1,3.2,7.2,3.2c2.1,0,3.8-0.5,5.4-1.5c1.4-1.1,2.5-2.6,3.1-4.4l0,0
		l-0.2,6.9v8.4h6.9V57.1h-6.7v5.5H502.5z M502.4,76c0,2-0.5,3.5-1.5,4.6c-0.9,1.1-2.3,1.5-4.1,1.5s-3.1-0.5-4.1-1.4
		c-1.1-0.9-1.5-2.5-1.5-4.3v-8.1c0-1.8,0.5-3.4,1.5-4.3c1.1-0.9,2.3-1.4,4.1-1.4s3.1,0.5,4.1,1.5c1.1,1.1,1.5,2.6,1.5,4.6V76z"/>
	<path class="st0" d="M530.1,65.9c1.5,0,2.8-0.5,3.7-1.2c0.9-0.8,1.4-2,1.4-3.4s-0.5-2.5-1.4-3.4c-0.9-0.9-2.1-1.2-3.7-1.2
		c-1.5,0-2.8,0.5-3.7,1.2c-0.9,0.9-1.4,2-1.4,3.4s0.5,2.5,1.4,3.4C527.2,65.4,528.6,65.9,530.1,65.9z"/>
	<path class="st0" d="M526.3,86.9c0.9,0.9,2.1,1.2,3.7,1.2c1.5,0,2.8-0.5,3.7-1.2c0.9-0.8,1.4-2,1.4-3.4c0-1.4-0.5-2.5-1.4-3.4
		c-0.9-0.9-2.1-1.2-3.7-1.2c-1.5,0-2.8,0.5-3.7,1.2c-0.9,0.9-1.4,2-1.4,3.4C524.9,84.9,525.4,86,526.3,86.9z"/>
	<rect x="583.2" y="88.9" class="st0" width="26.5" height="6.3"/>
	<rect x="616.3" y="88.9" class="st0" width="26.5" height="6.3"/>
	<polygon class="st0" points="667.5,57.1 651.3,57.1 651.3,63.4 660.6,63.4 660.6,81.4 650.2,81.4 650.2,87.5 676.9,87.5 
		676.9,81.4 667.5,81.4 	"/>
	<path class="st0" d="M660.3,45.2c-0.8,0.8-1.2,1.7-1.2,2.9c0,1.2,0.5,2.1,1.2,2.9c0.8,0.8,1.8,1.1,3.4,1.1c1.4,0,2.5-0.3,3.4-1.1
		c0.8-0.8,1.2-1.7,1.2-2.9c0-1.2-0.5-2.1-1.2-2.9c-0.8-0.8-1.8-1.1-3.4-1.1C662.2,44.1,661.1,44.6,660.3,45.2z"/>
	<path class="st0" d="M690.4,68.5c0-1.8,0.5-3.4,1.5-4.4c1.1-1.1,2.3-1.5,4-1.5c1.7,0,2.9,0.5,4,1.5c0.9,1.1,1.5,2.5,1.5,4.3v19.2
		h6.9V67.6c0-3.4-0.9-6-2.6-8s-4.1-2.9-7.2-2.9c-2.1,0-4,0.6-5.5,1.7c-1.4,1.1-2.3,2.6-2.8,4.6v-5.7h-6.7v30.4h6.9L690.4,68.5
		L690.4,68.5z"/>
	<path class="st0" d="M726.6,45.2c-0.8,0.8-1.2,1.7-1.2,2.9c0,1.2,0.5,2.1,1.2,2.9c0.8,0.8,1.8,1.1,3.4,1.1c1.4,0,2.5-0.3,3.4-1.1
		c0.8-0.8,1.2-1.7,1.2-2.9c0-1.2-0.5-2.1-1.2-2.9c-0.8-0.8-1.8-1.1-3.4-1.1C728.4,44.1,727.4,44.6,726.6,45.2z"/>
	<polygon class="st0" points="733.8,57.1 717.5,57.1 717.5,63.4 726.9,63.4 726.9,81.4 716.5,81.4 716.5,87.5 743.1,87.5 
		743.1,81.4 733.8,81.4 	"/>
	<path class="st0" d="M762.8,48.5h-6.9v8.6h-8.4v6.3h8.4v15c0,2.8,0.8,5.1,2.5,6.6c1.7,1.7,4,2.5,6.7,2.5h9.5v-6.3h-9
		c-0.9,0-1.5-0.3-2-0.9c-0.5-0.6-0.8-1.2-0.8-2.1V63.3h12.1V57h-12.1V48.5z"/>
	<rect x="781.8" y="88.9" class="st0" width="26.5" height="6.3"/>
	<polygon class="st0" points="5.9,145.8 -1.9,145.8 -4.8,162.6 1.8,162.6 	"/>
	<path class="st0" d="M74.9,122.9c-1.4,0-2.6,0.5-3.5,1.2c-0.9,0.9-1.5,2-1.7,3.5c-0.3-1.5-0.9-2.6-2-3.5c-0.9-0.9-2.1-1.2-3.5-1.2
		c-1.4,0-2.6,0.5-3.5,1.4c-0.9,0.9-1.4,2.1-1.5,3.5H59v-4.4h-5.5v30.4h6.1v-22.5c0-2.1,0.9-3.2,2.6-3.2c0.8,0,1.4,0.3,1.8,0.9
		c0.5,0.6,0.6,1.4,0.6,2.3v22.7h5.5v-22.7c0-2.1,0.8-3.2,2.5-3.2c0.9,0,1.5,0.3,2,0.9c0.5,0.6,0.8,1.4,0.8,2.3v22.7h6.1v-23.3
		c0-2.3-0.6-4.1-1.8-5.7C78.3,123.5,76.8,122.9,74.9,122.9z"/>
	<path class="st0" d="M100.6,122.9c-3.8,0-7.1,1.1-9.2,3.2c-2.3,2.1-3.4,5.1-3.4,8.9v7.1c0,3.7,1.1,6.6,3.4,8.9
		c2.3,2.1,5.4,3.2,9.2,3.2c3.8,0,7.1-1.1,9.2-3.2c2.3-2.1,3.4-5.2,3.4-8.9V135c0-3.7-1.1-6.7-3.4-8.9
		C107.6,124,104.5,122.9,100.6,122.9z M106.4,142.4c0,1.8-0.5,3.4-1.5,4.4c-1.1,1.1-2.5,1.5-4.3,1.5c-1.8,0-3.2-0.5-4.3-1.5
		c-1.1-1.1-1.5-2.5-1.5-4.4v-7.5c0-1.8,0.5-3.4,1.5-4.4c1.1-1.1,2.5-1.5,4.3-1.5c1.8,0,3.2,0.5,4.3,1.5c1.1,1.1,1.5,2.5,1.5,4.4
		V142.4z"/>
	<path class="st0" d="M136.4,146.5c-0.6-0.6-0.9-1.5-0.9-2.8v-30.4h-16.9v6.3h10v24.2c0,2.9,0.9,5.4,2.8,7.1
		c1.8,1.7,4.3,2.8,7.2,2.8h9.4v-6.3H139C138,147.6,137.2,147.2,136.4,146.5z"/>
	<path class="st0" d="M173.6,124.3c-1.8-0.9-4.1-1.5-6.6-1.5c-2.6,0-4.8,0.5-6.7,1.5c-1.8,0.9-3.4,2.5-4.4,4.3
		c-1.1,1.8-1.5,4-1.5,6.4v7.2c0,2.5,0.5,4.6,1.5,6.4c1.1,1.8,2.5,3.2,4.4,4.3c1.8,0.9,4.1,1.5,6.7,1.5c3.2,0,6-0.8,8.3-2.3
		s3.7-3.7,4.1-6.3h-6.9c-0.2,0.9-0.8,1.7-1.8,2.1s-2.3,0.8-3.7,0.8c-2,0-3.5-0.5-4.6-1.5c-1.1-1.1-1.5-2.6-1.5-4.6v-2.1h18.7v-5.8
		c0-2.5-0.5-4.4-1.5-6.3C176.9,126.8,175.4,125.4,173.6,124.3z M172.9,135.8h-12.1v-1.1c0-2.1,0.5-3.7,1.5-4.9
		c1.1-1.2,2.6-1.7,4.6-1.7s3.4,0.6,4.4,1.7c1.1,1.1,1.5,2.8,1.5,4.9V135.8z"/>
	<path class="st0" d="M200.7,114.8h-6.9v8.6h-8.4v6.3h8.4v15c0,2.8,0.8,5.1,2.5,6.6c1.7,1.7,4,2.5,6.7,2.5h9.5v-6.3h-9
		c-0.9,0-1.5-0.3-2.1-0.9c-0.5-0.6-0.8-1.2-0.8-2.1v-14.9h12.1v-6.3h-12V114.8z"/>
	<path class="st0" d="M234.9,138.9c-0.3,0.9-0.6,2-0.9,3.1s-0.5,2.1-0.6,3.1c-0.2-0.9-0.5-2-0.8-3.1s-0.6-2.1-0.9-3.1l-5.8-15.5
		h-7.4l11.5,28.7l-4.3,11.7h7.2l14.7-40.3h-7.4L234.9,138.9z"/>
	<path class="st0" d="M274.2,124.3c-1.5-0.9-3.2-1.4-5.2-1.4c-2.1,0-4,0.6-5.4,1.7c-1.4,1.1-2.5,2.6-2.9,4.4v-5.5h-6.7v40.3h6.9
		v-8.4l-0.2-7.2c0.6,2,1.5,3.5,3.1,4.6c1.4,1.1,3.2,1.7,5.4,1.7c2.9,0,5.4-1.1,7.2-3.2c1.8-2.1,2.8-4.9,2.8-8.4v-8.3
		c0-2.3-0.5-4.3-1.2-6.1C276.8,126.6,275.7,125.2,274.2,124.3z M272,142.6c0,2-0.5,3.5-1.5,4.4c-0.9,0.9-2.3,1.4-4.1,1.4
		s-3.1-0.5-4.1-1.5c-0.9-1.1-1.5-2.6-1.5-4.6v-7.4c0-2,0.5-3.5,1.5-4.6c0.9-1.1,2.3-1.5,4.1-1.5s3.1,0.5,4.1,1.4
		c0.9,0.9,1.5,2.5,1.5,4.4V142.6z"/>
	<path class="st0" d="M306.1,124.3c-1.8-0.9-4.1-1.5-6.6-1.5c-2.6,0-4.8,0.5-6.7,1.5c-1.8,0.9-3.4,2.5-4.4,4.3
		c-1.1,1.8-1.5,4-1.5,6.4v7.2c0,2.5,0.5,4.6,1.5,6.4c1.1,1.8,2.5,3.2,4.4,4.3c1.8,0.9,4.1,1.5,6.7,1.5c3.2,0,6-0.8,8.3-2.3
		c2.3-1.5,3.7-3.7,4.1-6.3H305c-0.2,0.9-0.8,1.7-1.8,2.1c-1.1,0.5-2.3,0.8-3.7,0.8c-2,0-3.5-0.5-4.6-1.5c-1.1-1.1-1.5-2.6-1.5-4.6
		v-2.1H312v-5.8c0-2.5-0.5-4.4-1.5-6.3C309.4,126.8,307.9,125.4,306.1,124.3z M305.4,135.8h-12.1v-1.1c0-2.1,0.5-3.7,1.5-4.9
		s2.6-1.7,4.6-1.7s3.4,0.6,4.4,1.7c1.1,1.1,1.5,2.8,1.5,4.9V135.8z"/>
	<rect x="320.5" y="125.7" class="st0" width="24.1" height="6.3"/>
	<rect x="320.5" y="139.2" class="st0" width="24.1" height="6.3"/>
	<path class="st0" d="M363.4,123.5l-2.9,6.9h7.1l2.5-5.5c0.3-0.9,0.6-1.8,0.9-2.8c0.3-1.1,0.5-1.8,0.5-2.6c0-1.1-0.3-2.1-0.8-3.2
		c-0.5-1.1-1.2-2-2.1-2.6h-7.2c0.9,0.6,1.7,1.5,2.3,2.6c0.5,1.1,0.8,2.1,0.8,3.2c0,0.6-0.2,1.2-0.3,2
		C363.9,122.3,363.7,122.8,363.4,123.5z"/>
	<path class="st0" d="M404.1,122l0.2,6.9c-0.6-1.8-1.7-3.4-3.1-4.4c-1.4-1.1-3.2-1.5-5.4-1.5c-2.9,0-5.4,1.1-7.2,3.2
		c-1.8,2.1-2.8,4.9-2.8,8.4v8.3c0,3.5,0.9,6.3,2.8,8.4c1.8,2.1,4.1,3.2,7.2,3.2c2.1,0,4-0.5,5.4-1.5c1.4-1.1,2.5-2.6,2.9-4.4v5.5
		h6.7v-40.6h-6.9v8.6H404.1z M404.1,142.2c0,2-0.5,3.5-1.5,4.6c-0.9,1.1-2.3,1.5-4.1,1.5s-3.1-0.5-4.1-1.4c-1.1-0.9-1.5-2.5-1.5-4.4
		v-7.8c0-2,0.5-3.5,1.5-4.4c1.1-0.9,2.3-1.4,4.1-1.4s3.1,0.5,4.1,1.5s1.5,2.6,1.5,4.6V142.2z"/>
	<path class="st0" d="M434.4,122.9c-2.1,0-4,0.6-5.5,1.7c-1.4,1.1-2.3,2.6-2.8,4.6v-5.7h-6.7v30.4h6.9v-19.2c0-1.8,0.5-3.4,1.5-4.4
		c0.9-1.1,2.3-1.5,4-1.5c1.7,0,2.9,0.5,4,1.5c0.9,1.1,1.5,2.5,1.5,4.3v19.2h6.9v-19.9c0-3.4-0.9-6-2.6-8S437.3,122.9,434.4,122.9z"
		/>
	<path class="st0" d="M461.6,154.4c2.6,0,4.6-0.6,6.1-1.7s2.5-2.6,2.8-4.6v5.7h6.7v-20.6c0-3.2-1.1-5.8-3.2-7.7
		c-2.1-1.8-5.1-2.8-9-2.8c-3.7,0-6.6,0.9-8.7,2.6c-2.1,1.7-3.4,3.8-3.4,6.6h6.6c0.2-1.1,0.6-2,1.5-2.6c0.9-0.6,2.3-0.9,3.8-0.9
		c3.5,0,5.4,1.5,5.4,4.6v2.1H463c-3.5,0-6.3,0.9-8.3,2.6s-3.1,4.1-3.1,7.1c0,2.8,0.9,5.1,2.6,6.9S458.5,154.4,461.6,154.4z
		 M459.7,140.9c0.9-0.9,2.1-1.2,3.5-1.2h7.1v3.5c0,1.7-0.6,2.9-1.8,4c-1.2,0.9-2.8,1.5-4.8,1.5c-1.7,0-3.1-0.5-4-1.2
		c-0.9-0.8-1.4-2-1.4-3.2C458.3,142.9,458.8,141.8,459.7,140.9z"/>
	<path class="st0" d="M495.9,123.5l-2.9,6.9h7.1l2.5-5.5c0.3-0.9,0.8-1.8,0.9-2.8c0.3-1.1,0.5-1.8,0.5-2.6c0-1.1-0.3-2.1-0.8-3.2
		c-0.5-1.1-1.2-2-2-2.6h-7.2c0.9,0.6,1.7,1.5,2.3,2.6c0.6,1.1,0.8,2.1,0.8,3.2c0,0.6-0.2,1.2-0.3,2S496.2,122.8,495.9,123.5z"/>
	<path class="st0" d="M538.6,128.9c0-5.5-1.5-10.1-4.6-14c-3.1-3.7-7.4-6.3-13-7.7v6.9c3.2,0.8,5.8,2.5,7.8,5.1
		c1.8,2.6,2.9,5.8,2.9,9.5v9.8c0,3.7-0.9,6.9-2.9,9.5c-1.8,2.6-4.4,4.3-7.8,5.1v6.9c5.5-1.2,10-3.8,13-7.7c3.1-3.8,4.6-8.4,4.6-14
		V128.9z"/>
	<path class="st0" d="M564.3,145.2c-1.5,0-2.8,0.5-3.7,1.2c-0.9,0.9-1.4,2-1.4,3.4c0,1.4,0.5,2.5,1.4,3.4c0.9,0.9,2.1,1.2,3.7,1.2
		s2.8-0.5,3.7-1.2c0.9-0.9,1.4-2,1.4-3.4c0-1.4-0.5-2.5-1.4-3.4C567.2,145.5,565.9,145.2,564.3,145.2z"/>
	<path class="st0" d="M568.2,124.2c-0.9-0.9-2.1-1.2-3.7-1.2c-1.5,0-2.8,0.5-3.7,1.2c-0.9,0.9-1.4,2-1.4,3.4c0,1.4,0.5,2.5,1.4,3.4
		c0.9,0.9,2.1,1.2,3.7,1.2c1.5,0,2.8-0.5,3.7-1.2c0.9-0.9,1.4-2,1.4-3.4S569.1,124.9,568.2,124.2z"/>
	<path class="st0" d="M635.2,135.5l-7.1-0.9c-1.1-0.2-2-0.5-2.5-0.8c-0.6-0.5-0.9-1.1-0.9-2c0-1.1,0.5-1.8,1.2-2.5
		c0.8-0.6,1.8-0.9,3.4-0.9h2.6c1.4,0,2.5,0.3,3.2,0.9c0.8,0.6,1.2,1.4,1.2,2.3h6.9c0-2.6-1.1-4.6-3.2-6.1c-2-1.5-4.8-2.3-8.1-2.3
		h-2.6c-3.7,0-6.4,0.8-8.3,2.3c-1.8,1.5-2.9,3.7-2.9,6.6c0,2.5,0.6,4.4,2,6c1.4,1.5,3.2,2.5,5.7,2.8l7.5,0.9
		c1.2,0.2,2.3,0.6,2.9,1.1c0.6,0.5,0.9,1.4,0.9,2.5c0,1.2-0.5,2.1-1.4,2.8c-0.9,0.6-2.1,0.9-3.8,0.9h-2.5c-1.5,0-2.8-0.3-3.7-0.9
		c-0.9-0.6-1.2-1.5-1.2-2.8h-6.7c0,2.8,1.1,5.1,3.2,6.6c2.1,1.7,4.9,2.5,8.6,2.5h2.5c3.8,0,6.7-0.8,8.7-2.5c2-1.5,3.1-3.8,3.1-6.7
		c0-2.8-0.8-4.9-2.1-6.6C640.1,136.9,637.9,135.8,635.2,135.5z"/>
	<path class="st0" d="M676.4,140.3v-5.5c0-2.5-0.5-4.4-1.5-6.3c-1.1-1.8-2.5-3.2-4.4-4.1c-1.8-0.9-4.1-1.5-6.6-1.5
		c-2.6,0-4.8,0.5-6.7,1.5c-1.8,0.9-3.4,2.5-4.4,4.3c-1.1,1.8-1.5,4-1.5,6.4v7.2c0,2.5,0.5,4.6,1.5,6.4c1.1,1.8,2.5,3.2,4.4,4.3
		c1.8,0.9,4.1,1.5,6.7,1.5c3.2,0,6-0.8,8.3-2.3s3.7-3.7,4.1-6.3h-6.9c-0.2,0.9-0.8,1.7-1.8,2.1c-1.1,0.5-2.3,0.8-3.7,0.8
		c-2,0-3.5-0.5-4.6-1.5c-1.1-1.1-1.5-2.6-1.5-4.6v-2.1h18.7V140.3z M657.7,134.7c0-2.1,0.5-3.7,1.5-4.9c1.1-1.2,2.6-1.7,4.6-1.7
		s3.4,0.6,4.4,1.7s1.5,2.8,1.5,4.9v1.1h-12.1V134.7z"/>
	<path class="st0" d="M699.6,146.5c-0.6-0.6-0.9-1.5-0.9-2.8v-30.4h-16.9v6.3h10v24.2c0,2.9,0.9,5.4,2.8,7.1
		c1.8,1.8,4.3,2.8,7.2,2.8h9.4v-6.3h-8.9C701.1,147.6,700.2,147.2,699.6,146.5z"/>
	<path class="st0" d="M727,115.9c-1.8,1.5-2.6,3.7-2.6,6.3v5.4h-8.3v6.3h8.3v19.9h6.9v-19.9H743v-6.3h-11.7v-5.2
		c0-0.9,0.3-1.5,0.8-2s1.2-0.8,2.1-0.8h8.7v-6.1h-8.9C731.2,113.4,728.9,114.3,727,115.9z"/>
	<path class="st0" d="M766.8,153c0.9-0.9,1.4-2.1,1.4-3.7c0-1.5-0.5-2.8-1.4-3.7c-0.9-0.9-2.1-1.4-3.7-1.4s-2.8,0.5-3.7,1.4
		c-0.9,0.9-1.4,2.1-1.4,3.7c0,1.5,0.5,2.8,1.4,3.7c0.9,0.9,2.1,1.4,3.7,1.4S765.8,153.9,766.8,153z"/>
	<rect x="783" y="155.1" class="st0" width="26.5" height="6.3"/>
</g>
</svg>
