<?xml version="1.0" encoding="utf-8"?>
<!-- Generator: Adobe Illustrator 27.2.0, SVG Export Plug-In . SVG Version: 6.00 Build 0)  -->
<svg version="1.1" id="Layer_1" xmlns="http://www.w3.org/2000/svg" xmlns:xlink="http://www.w3.org/1999/xlink" x="0px" y="0px"
	 viewBox="0 0 800 150" style="enable-background:new 0 0 800 150;" xml:space="preserve">
<style type="text/css">
	.st0{fill:none;stroke:#343A40;stroke-linecap:round;stroke-linejoin:round;stroke-miterlimit:10;}
</style>
<g>
	<path class="st0" d="M-4.3,22.4c1.3,0.6,2.7,1,4.4,1c2.5,0,4.5-0.6,6-1.9c1.5-1.3,2.3-3,2.4-5.2H4c-0.1,1-0.5,1.8-1.2,2.4
		c-0.7,0.6-1.6,0.8-2.7,0.8c-1.2,0-2.2-0.3-2.9-1c-0.7-0.7-1-1.6-1-2.8v-5c0-1.2,0.3-2.2,1-2.8c0.7-0.7,1.7-1,2.9-1
		c1.1,0,2,0.3,2.7,0.8C3.5,8.2,3.9,9,4,10h4.4c-0.1-2.2-0.9-4-2.4-5.2c-1.5-1.3-3.5-1.9-6-1.9c-1.7,0-3.2,0.3-4.4,1
		c-1.3,0.6-2.2,1.5-2.9,2.7c-0.7,1.2-1,2.5-1,4.1v5c0,1.6,0.3,3,1,4.1C-6.6,20.9-5.6,21.8-4.3,22.4z"/>
	<path class="st0" d="M18.6,10.9c0-1.3,0.3-2.3,0.9-3.1c0.6-0.7,1.5-1.1,2.7-1.1c1.2,0,2,0.3,2.7,1c0.6,0.6,0.9,1.6,0.9,2.8v1.7h4.5
		v-1.9c0-2.3-0.6-4.1-1.7-5.4S26,2.9,24,2.9c-1.5,0-2.7,0.4-3.7,1.1c-0.9,0.8-1.5,1.8-1.8,3.1V3.2h-4.4V23h4.5V10.9z"/>
	<polygon class="st0" points="46.2,3.2 35.7,3.2 35.7,7.3 41.7,7.3 41.7,19 34.9,19 34.9,23 52.3,23 52.3,19 46.2,19 	"/>
	<path class="st0" d="M43.6-0.1c0.9,0,1.6-0.2,2.2-0.7c0.5-0.5,0.8-1.1,0.8-1.9s-0.3-1.4-0.8-1.9c-0.5-0.5-1.2-0.7-2.2-0.7
		c-0.9,0-1.6,0.2-2.2,0.7c-0.5,0.5-0.8,1.1-0.8,1.9s0.3,1.4,0.8,1.9C42-0.3,42.7-0.1,43.6-0.1z"/>
	<path class="st0" d="M66.4,2.9c-1.4,0-2.5,0.3-3.5,1c-0.9,0.7-1.6,1.7-2,2.9l0.1-4.5v-5.5h-4.5V23H61v-3.6c0.4,1.2,1,2.2,1.9,2.9
		c0.9,0.7,2.1,1,3.5,1c1.9,0,3.5-0.7,4.7-2.1c1.2-1.4,1.8-3.2,1.8-5.5v-5.4c0-2.3-0.6-4.2-1.8-5.5C69.9,3.5,68.3,2.9,66.4,2.9z
		 M68.3,15.7c0,1.3-0.3,2.3-1,2.9c-0.6,0.6-1.5,0.9-2.7,0.9c-1.2,0-2-0.3-2.7-1c-0.6-0.7-1-1.7-1-3v-4.8c0-1.3,0.3-2.3,1-3
		c0.6-0.7,1.5-1,2.7-1c1.2,0,2,0.3,2.7,0.9c0.6,0.6,1,1.6,1,2.9V15.7z"/>
	<path class="st0" d="M81.8,22.4c1.2,0.6,2.7,1,4.4,1c2.1,0,3.9-0.5,5.4-1.5c1.5-1,2.4-2.4,2.7-4.1h-4.5c-0.1,0.6-0.5,1.1-1.2,1.4
		c-0.7,0.3-1.5,0.5-2.4,0.5c-1.3,0-2.3-0.3-3-1c-0.7-0.7-1-1.7-1-3v-1.4h12.2v-3.6c0-1.6-0.3-2.9-1-4.1c-0.7-1.2-1.6-2.1-2.9-2.7
		c-1.2-0.6-2.7-1-4.3-1c-1.7,0-3.1,0.3-4.4,1c-1.2,0.6-2.2,1.6-2.9,2.8c-0.7,1.2-1,2.6-1,4.2v4.7c0,1.6,0.3,3,1,4.2
		C79.6,20.8,80.6,21.8,81.8,22.4z M82.2,10.6c0-1.4,0.3-2.4,1-3.2c0.7-0.8,1.7-1.1,3-1.1c1.3,0,2.2,0.4,2.9,1.1c0.7,0.7,1,1.8,1,3.2
		v0.7l-7.9,0V10.6z"/>
	<path class="st0" d="M114.5,27.3v-4.5c-2.1-0.5-3.8-1.6-5.1-3.3c-1.2-1.7-1.9-3.8-1.9-6.2V6.8c0-2.4,0.6-4.5,1.9-6.2
		c1.2-1.7,2.9-2.8,5.1-3.3v-4.5c-3.6,0.9-6.5,2.5-8.5,5c-2,2.4-3,5.5-3,9.1v6.4c0,3.6,1,6.7,3,9.1C108,24.9,110.8,26.5,114.5,27.3z"
		/>
	<path class="st0" d="M131.2,22.4c2-2.5,3-5.5,3-9.1V6.8c0-3.6-1-6.6-3-9.1c-2-2.4-4.8-4.1-8.5-5v4.5c2.1,0.5,3.8,1.6,5.1,3.3
		c1.2,1.7,1.9,3.8,1.9,6.2v6.4c0,2.4-0.6,4.5-1.9,6.2c-1.2,1.7-2.9,2.8-5.1,3.3v4.5C126.4,26.5,129.2,24.9,131.2,22.4z"/>
	<path class="st0" d="M169,23h4.5V10h7.6V5.9h-7.6V2.5c0-0.6,0.2-1,0.5-1.3c0.3-0.3,0.8-0.5,1.4-0.5h5.7v-4h-5.8
		c-1.9,0-3.4,0.5-4.6,1.5c-1.2,1-1.7,2.4-1.7,4.1v3.5h-5.4V10h5.4V23z"/>
	<path class="st0" d="M191.4,10.9c0-1.3,0.3-2.3,0.9-3.1c0.6-0.7,1.5-1.1,2.7-1.1c1.2,0,2,0.3,2.7,1c0.6,0.6,0.9,1.6,0.9,2.8v1.7
		h4.5v-1.9c0-2.3-0.6-4.1-1.7-5.4s-2.7-1.9-4.7-1.9c-1.5,0-2.7,0.4-3.7,1.1c-0.9,0.8-1.5,1.8-1.8,3.1V3.2h-4.4V23h4.5V10.9z"/>
	<path class="st0" d="M215.8,23.3c2.5,0,4.6-0.7,6-2.1c1.5-1.4,2.2-3.4,2.2-5.8v-4.6c0-2.4-0.7-4.4-2.2-5.8c-1.5-1.4-3.5-2.1-6-2.1
		s-4.6,0.7-6,2.1c-1.5,1.4-2.2,3.3-2.2,5.8v4.6c0,2.4,0.7,4.3,2.2,5.8C211.2,22.6,213.3,23.3,215.8,23.3z M212,10.7
		c0-1.2,0.3-2.2,1-2.9s1.6-1,2.8-1s2.1,0.3,2.8,1s1,1.6,1,2.9v4.9c0,1.2-0.3,2.2-1,2.9s-1.6,1-2.8,1s-2.1-0.3-2.8-1s-1-1.6-1-2.9
		V10.7z"/>
	<path class="st0" d="M232.2,8.3c0-1.4,0.6-2.1,1.7-2.1c0.5,0,0.9,0.2,1.2,0.6c0.3,0.4,0.4,0.9,0.4,1.5V23h3.6V8.3
		c0-1.4,0.5-2.1,1.6-2.1c0.6,0,1,0.2,1.3,0.6c0.3,0.4,0.5,0.9,0.5,1.5V23h4V7.9c0-1.5-0.4-2.7-1.2-3.7c-0.8-0.9-1.8-1.4-3-1.4
		c-0.9,0-1.7,0.3-2.3,0.8c-0.6,0.6-1,1.3-1.1,2.3c-0.2-1-0.6-1.7-1.3-2.3c-0.6-0.6-1.4-0.8-2.3-0.8c-0.9,0-1.7,0.3-2.3,0.9
		s-0.9,1.4-1,2.3H232V3.2h-3.7V23h4V8.3z"/>
	<path class="st0" d="M283.9,19.2c-0.6,0.4-1.4,0.6-2.5,0.6h-1.6c-1,0-1.8-0.2-2.4-0.6s-0.8-1-0.8-1.8h-4.4c0,1.8,0.7,3.3,2.1,4.3
		c1.4,1.1,3.2,1.6,5.6,1.6h1.6c2.5,0,4.4-0.5,5.7-1.6s2-2.5,2-4.4c0-1.8-0.5-3.2-1.4-4.3c-0.9-1.1-2.3-1.7-4.1-1.9l-4.6-0.6
		c-0.7-0.1-1.3-0.3-1.6-0.5c-0.4-0.3-0.6-0.7-0.6-1.3c0-0.7,0.3-1.2,0.8-1.6c0.5-0.4,1.2-0.6,2.2-0.6h1.7c0.9,0,1.6,0.2,2.1,0.6
		c0.5,0.4,0.8,0.9,0.8,1.5h4.5c0-1.7-0.7-3-2.1-4c-1.3-1-3.1-1.5-5.3-1.5h-1.7c-2.4,0-4.2,0.5-5.4,1.5c-1.2,1-1.9,2.4-1.9,4.3
		c0,1.6,0.4,2.9,1.3,3.9c0.9,1,2.1,1.6,3.7,1.8l4.9,0.6c0.8,0.1,1.5,0.4,1.9,0.7c0.4,0.3,0.6,0.9,0.6,1.6
		C284.7,18.2,284.4,18.8,283.9,19.2z"/>
	<path class="st0" d="M297.8,22.4c1.2,0.6,2.7,1,4.4,1c2.1,0,3.9-0.5,5.4-1.5c1.5-1,2.4-2.4,2.7-4.1h-4.5c-0.1,0.6-0.5,1.1-1.2,1.4
		c-0.7,0.3-1.5,0.5-2.4,0.5c-1.3,0-2.3-0.3-3-1c-0.7-0.7-1-1.7-1-3v-1.4h12.2v-3.6c0-1.6-0.3-2.9-1-4.1c-0.7-1.2-1.6-2.1-2.9-2.7
		c-1.2-0.6-2.7-1-4.3-1c-1.7,0-3.1,0.3-4.4,1c-1.2,0.6-2.2,1.6-2.9,2.8c-0.7,1.2-1,2.6-1,4.2v4.7c0,1.6,0.3,3,1,4.2
		C295.6,20.8,296.6,21.8,297.8,22.4z M298.2,10.6c0-1.4,0.3-2.4,1-3.2c0.7-0.8,1.7-1.1,3-1.1c1.3,0,2.2,0.4,2.9,1.1
		c0.7,0.7,1,1.8,1,3.2v0.7l-7.9,0V10.6z"/>
	<path class="st0" d="M322,23.4c1.4,0,2.5-0.3,3.5-1c0.9-0.7,1.6-1.7,2-2.9h0l-0.1,4.5v5.5h4.5V3.2h-4.4v3.6c-0.4-1.2-1-2.2-1.9-2.9
		c-0.9-0.7-2.1-1-3.5-1c-1.9,0-3.5,0.7-4.7,2.1c-1.2,1.4-1.8,3.2-1.8,5.5v5.4c0,2.3,0.6,4.2,1.8,5.5C318.5,22.7,320.1,23.4,322,23.4
		z M320.1,10.5c0-1.2,0.3-2.2,1-2.8s1.5-0.9,2.7-0.9c1.2,0,2,0.3,2.7,1c0.6,0.7,1,1.7,1,3v4.8c0,1.3-0.3,2.3-1,3
		c-0.6,0.7-1.5,1-2.7,1c-1.2,0-2-0.3-2.7-0.9s-1-1.6-1-2.8V10.5z"/>
	<rect x="336.8" y="23.9" class="st0" width="17.3" height="4.1"/>
	<path class="st0" d="M361.8,8.3c0-1.4,0.6-2.1,1.7-2.1c0.5,0,0.9,0.2,1.2,0.6c0.3,0.4,0.4,0.9,0.4,1.5V23h3.6V8.3
		c0-1.4,0.5-2.1,1.6-2.1c0.6,0,1,0.2,1.3,0.6c0.3,0.4,0.5,0.9,0.5,1.5V23h4V7.9c0-1.5-0.4-2.7-1.2-3.7c-0.8-0.9-1.8-1.4-3-1.4
		c-0.9,0-1.7,0.3-2.3,0.8c-0.6,0.6-1,1.3-1.1,2.3c-0.2-1-0.6-1.7-1.3-2.3c-0.6-0.6-1.4-0.8-2.3-0.8c-0.9,0-1.7,0.3-2.3,0.9
		s-0.9,1.4-1,2.3h-0.1V3.2h-3.7V23h4V8.3z"/>
	<path class="st0" d="M388.6,23.3c2.5,0,4.6-0.7,6-2.1c1.5-1.4,2.2-3.4,2.2-5.8v-4.6c0-2.4-0.7-4.4-2.2-5.8c-1.5-1.4-3.5-2.1-6-2.1
		s-4.6,0.7-6,2.1c-1.5,1.4-2.2,3.3-2.2,5.8v4.6c0,2.4,0.7,4.3,2.2,5.8C384,22.6,386,23.3,388.6,23.3z M384.8,10.7
		c0-1.2,0.3-2.2,1-2.9s1.6-1,2.8-1s2.1,0.3,2.8,1s1,1.6,1,2.9v4.9c0,1.2-0.3,2.2-1,2.9s-1.6,1-2.8,1s-2.1-0.3-2.8-1s-1-1.6-1-2.9
		V10.7z"/>
	<path class="st0" d="M408.4,23.4c1.4,0,2.6-0.3,3.5-1c0.9-0.7,1.6-1.7,1.9-2.9V23h4.4V-3.3h-4.5v5.5l0.1,4.5c-0.4-1.2-1-2.2-2-2.9
		c-0.9-0.7-2.1-1-3.5-1c-1.9,0-3.5,0.7-4.7,2.1c-1.2,1.4-1.8,3.2-1.8,5.5v5.4c0,2.3,0.6,4.1,1.8,5.5
		C404.9,22.7,406.5,23.4,408.4,23.4z M406.4,10.6c0-1.3,0.3-2.3,1-2.9s1.5-0.9,2.7-0.9c1.2,0,2,0.3,2.7,1c0.6,0.7,1,1.7,1,3v4.8
		c0,1.3-0.3,2.3-1,3c-0.6,0.7-1.5,1-2.7,1c-1.2,0-2-0.3-2.7-0.9s-1-1.6-1-2.9V10.6z"/>
	<path class="st0" d="M431.8,23.4c2.5,0,4.4-0.7,5.9-2.1c1.5-1.4,2.2-3.3,2.2-5.7V3.2h-4.5v12.3c0,1.2-0.3,2.2-1,2.9
		c-0.6,0.7-1.5,1-2.6,1c-1.2,0-2-0.3-2.7-1c-0.6-0.7-0.9-1.7-0.9-2.9V3.2h-4.5v12.3c0,2.4,0.7,4.3,2.2,5.7
		C427.3,22.7,429.3,23.4,431.8,23.4z"/>
	<path class="st0" d="M455.2,18.3c-0.4-0.4-0.6-1-0.6-1.8V-3.3h-11v4.1h6.5v15.8c0,1.9,0.6,3.5,1.8,4.6c1.2,1.2,2.8,1.8,4.7,1.8h6.1
		V19h-5.8C456.2,19,455.6,18.7,455.2,18.3z"/>
	<path class="st0" d="M470.6,22.4c1.2,0.6,2.7,1,4.4,1c2.1,0,3.9-0.5,5.4-1.5c1.5-1,2.4-2.4,2.7-4.1h-4.5c-0.1,0.6-0.5,1.1-1.2,1.4
		c-0.7,0.3-1.5,0.5-2.4,0.5c-1.3,0-2.3-0.3-3-1s-1-1.7-1-3v-1.4h12.2v-3.6c0-1.6-0.3-2.9-1-4.1c-0.7-1.2-1.6-2.1-2.9-2.7
		c-1.2-0.6-2.7-1-4.3-1c-1.7,0-3.1,0.3-4.4,1c-1.2,0.6-2.2,1.6-2.9,2.8c-0.7,1.2-1,2.6-1,4.2v4.7c0,1.6,0.3,3,1,4.2
		C468.4,20.8,469.4,21.8,470.6,22.4z M471,10.6c0-1.4,0.3-2.4,1-3.2c0.7-0.8,1.7-1.1,3-1.1c1.3,0,2.2,0.4,2.9,1.1s1,1.8,1,3.2v0.7
		l-7.9,0V10.6z"/>
	<path class="st0" d="M518.8-0.1c0.9,0,1.6-0.2,2.2-0.7c0.5-0.5,0.8-1.1,0.8-1.9s-0.3-1.4-0.8-1.9c-0.5-0.5-1.2-0.7-2.2-0.7
		s-1.6,0.2-2.2,0.7c-0.5,0.5-0.8,1.1-0.8,1.9s0.3,1.4,0.8,1.9C517.2-0.3,517.9-0.1,518.8-0.1z"/>
	<polygon class="st0" points="521.4,3.2 510.8,3.2 510.8,7.3 516.9,7.3 516.9,19 510.1,19 510.1,23 527.5,23 527.5,19 521.4,19 	"/>
	<path class="st0" d="M534.6,8.3c0-1.4,0.6-2.1,1.7-2.1c0.5,0,0.9,0.2,1.2,0.6s0.4,0.9,0.4,1.5V23h3.6V8.3c0-1.4,0.5-2.1,1.6-2.1
		c0.6,0,1,0.2,1.3,0.6s0.5,0.9,0.5,1.5V23h4V7.9c0-1.5-0.4-2.7-1.2-3.7c-0.8-0.9-1.8-1.4-3-1.4c-0.9,0-1.7,0.3-2.3,0.8
		c-0.6,0.6-1,1.3-1.1,2.3c-0.2-1-0.6-1.7-1.3-2.3c-0.6-0.6-1.4-0.8-2.3-0.8c-0.9,0-1.7,0.3-2.3,0.9c-0.6,0.6-0.9,1.4-1,2.3h-0.1V3.2
		h-3.7V23h4V8.3z"/>
	<path class="st0" d="M557.9,24l-0.1-4.7c0.4,1.3,1,2.3,2,3c0.9,0.7,2.1,1.1,3.5,1.1c1.9,0,3.5-0.7,4.7-2.1s1.8-3.2,1.8-5.5v-5.4
		c0-1.5-0.3-2.8-0.8-4c-0.5-1.1-1.3-2-2.3-2.6c-1-0.6-2.1-0.9-3.4-0.9c-1.4,0-2.6,0.4-3.5,1.1c-0.9,0.7-1.6,1.7-1.9,2.9V3.2h-4.4
		v26.3h4.5V24z M557.9,10.7c0-1.3,0.3-2.3,1-3c0.6-0.7,1.5-1,2.7-1s2,0.3,2.7,0.9s1,1.6,1,2.9v5.1c0,1.3-0.3,2.3-1,2.9
		s-1.5,0.9-2.7,0.9s-2-0.3-2.7-1c-0.6-0.7-1-1.7-1-3V10.7z"/>
	<path class="st0" d="M583,23.3c2.5,0,4.6-0.7,6-2.1c1.5-1.4,2.2-3.4,2.2-5.8v-4.6c0-2.4-0.7-4.4-2.2-5.8c-1.5-1.4-3.5-2.1-6-2.1
		s-4.6,0.7-6,2.1s-2.2,3.3-2.2,5.8v4.6c0,2.4,0.7,4.3,2.2,5.8C578.4,22.6,580.4,23.3,583,23.3z M579.2,10.7c0-1.2,0.3-2.2,1-2.9
		s1.6-1,2.8-1s2.1,0.3,2.8,1s1,1.6,1,2.9v4.9c0,1.2-0.3,2.2-1,2.9s-1.6,1-2.8,1s-2.1-0.3-2.8-1s-1-1.6-1-2.9V10.7z"/>
	<path class="st0" d="M601.8,10.9c0-1.3,0.3-2.3,0.9-3.1c0.6-0.7,1.5-1.1,2.7-1.1c1.2,0,2,0.3,2.7,1c0.6,0.6,0.9,1.6,0.9,2.8v1.7
		h4.5v-1.9c0-2.3-0.6-4.1-1.7-5.4s-2.7-1.9-4.7-1.9c-1.5,0-2.7,0.4-3.7,1.1c-0.9,0.8-1.5,1.8-1.8,3.1V3.2h-4.4V23h4.5V10.9z"/>
	<path class="st0" d="M622.1,17.1c0,1.8,0.5,3.3,1.6,4.3c1.1,1.1,2.6,1.6,4.4,1.6h6.2V19h-5.9c-0.6,0-1-0.2-1.3-0.6
		s-0.5-0.8-0.5-1.4V7.3h7.9V3.2h-7.9v-5.6h-4.5v5.6h-5.5v4.1h5.5V17.1z"/>
	<path class="st0" d="M669.5,19.5c-1.3,0-2.4-0.3-3.2-1c-0.8-0.7-1.2-1.6-1.2-2.8h-4.4c0,1.6,0.4,3,1.1,4.2c0.7,1.2,1.8,2.1,3.1,2.7
		s2.9,0.9,4.7,0.9c1.8,0,3.3-0.3,4.6-1c1.3-0.6,2.3-1.5,3-2.7c0.7-1.2,1.1-2.5,1.1-4.1c0-2-0.6-3.7-1.7-5.1
		c-1.1-1.4-2.6-2.4-4.6-2.9l-3.6-0.9c-0.8-0.2-1.5-0.6-2-1.2c-0.5-0.5-0.7-1.2-0.7-2c0-1,0.3-1.8,1-2.4s1.6-0.9,2.7-0.9
		c1.2,0,2.1,0.3,2.8,0.9c0.7,0.6,1,1.4,1,2.4h4.4c0-1.5-0.3-2.7-1-3.8c-0.7-1.1-1.6-1.9-2.9-2.5c-1.2-0.6-2.7-0.9-4.3-0.9
		c-2.4,0-4.4,0.7-5.9,2s-2.2,3.1-2.2,5.3c0,1.8,0.6,3.4,1.7,4.7c1.1,1.3,2.6,2.2,4.5,2.7l3.5,0.9c0.9,0.2,1.6,0.7,2.1,1.4
		s0.7,1.4,0.7,2.3c0,1.2-0.4,2.1-1.1,2.8C671.8,19.1,670.8,19.5,669.5,19.5z"/>
	<path class="st0" d="M686.6,22.4c1.2,0.6,2.7,1,4.4,1c2.1,0,3.9-0.5,5.4-1.5c1.5-1,2.4-2.4,2.7-4.1h-4.5c-0.1,0.6-0.5,1.1-1.2,1.4
		c-0.7,0.3-1.5,0.5-2.4,0.5c-1.3,0-2.3-0.3-3-1s-1-1.7-1-3v-1.4h12.2v-3.6c0-1.6-0.3-2.9-1-4.1c-0.7-1.2-1.6-2.1-2.9-2.7
		c-1.2-0.6-2.7-1-4.3-1c-1.7,0-3.1,0.3-4.4,1c-1.2,0.6-2.2,1.6-2.9,2.8c-0.7,1.2-1,2.6-1,4.2v4.7c0,1.6,0.3,3,1,4.2
		C684.4,20.8,685.4,21.8,686.6,22.4z M687,10.6c0-1.4,0.3-2.4,1-3.2s1.7-1.1,3-1.1c1.3,0,2.2,0.4,2.9,1.1s1,1.8,1,3.2v0.7l-7.9,0
		V10.6z"/>
	<path class="st0" d="M710.8,23.4c1.4,0,2.5-0.3,3.5-1c0.9-0.7,1.6-1.7,2-2.9h0l-0.1,4.5v5.5h4.5V3.2h-4.4v3.6
		c-0.4-1.2-1-2.2-1.9-2.9c-0.9-0.7-2.1-1-3.5-1c-1.9,0-3.5,0.7-4.7,2.1c-1.2,1.4-1.8,3.2-1.8,5.5v5.4c0,2.3,0.6,4.2,1.8,5.5
		C707.3,22.7,708.8,23.4,710.8,23.4z M708.8,10.5c0-1.2,0.3-2.2,1-2.8s1.5-0.9,2.7-0.9c1.2,0,2,0.3,2.7,1s1,1.7,1,3v4.8
		c0,1.3-0.3,2.3-1,3c-0.6,0.7-1.5,1-2.7,1c-1.2,0-2-0.3-2.7-0.9s-1-1.6-1-2.8V10.5z"/>
	<path class="st0" d="M759,19.2c-0.6,0.4-1.4,0.6-2.5,0.6H755c-1,0-1.8-0.2-2.4-0.6c-0.6-0.4-0.8-1-0.8-1.8h-4.4
		c0,1.8,0.7,3.3,2.1,4.3c1.4,1.1,3.2,1.6,5.6,1.6h1.6c2.5,0,4.4-0.5,5.7-1.6c1.3-1,2-2.5,2-4.4c0-1.8-0.5-3.2-1.4-4.3
		c-0.9-1.1-2.3-1.7-4.1-1.9l-4.6-0.6c-0.7-0.1-1.3-0.3-1.6-0.5c-0.4-0.3-0.6-0.7-0.6-1.3c0-0.7,0.3-1.2,0.8-1.6
		c0.5-0.4,1.2-0.6,2.2-0.6h1.7c0.9,0,1.6,0.2,2.1,0.6c0.5,0.4,0.8,0.9,0.8,1.5h4.5c0-1.7-0.7-3-2.1-4c-1.3-1-3.1-1.5-5.3-1.5h-1.7
		c-2.4,0-4.2,0.5-5.4,1.5s-1.9,2.4-1.9,4.3c0,1.6,0.4,2.9,1.3,3.9c0.9,1,2.1,1.6,3.7,1.8l4.9,0.6c0.8,0.1,1.5,0.4,1.9,0.7
		c0.4,0.3,0.6,0.9,0.6,1.6C759.9,18.2,759.6,18.8,759,19.2z"/>
	<path class="st0" d="M773,22.4c1.2,0.6,2.7,1,4.4,1c2.1,0,3.9-0.5,5.4-1.5c1.5-1,2.4-2.4,2.7-4.1H781c-0.1,0.6-0.5,1.1-1.2,1.4
		c-0.7,0.3-1.5,0.5-2.4,0.5c-1.3,0-2.3-0.3-3-1s-1-1.7-1-3v-1.4h12.2v-3.6c0-1.6-0.3-2.9-1-4.1c-0.7-1.2-1.6-2.1-2.9-2.7
		c-1.2-0.6-2.7-1-4.3-1c-1.7,0-3.1,0.3-4.4,1c-1.2,0.6-2.2,1.6-2.9,2.8c-0.7,1.2-1,2.6-1,4.2v4.7c0,1.6,0.3,3,1,4.2
		C770.8,20.8,771.8,21.8,773,22.4z M773.4,10.6c0-1.4,0.3-2.4,1-3.2s1.7-1.1,3-1.1c1.3,0,2.2,0.4,2.9,1.1s1,1.8,1,3.2v0.7l-7.9,0
		V10.6z"/>
	<path class="st0" d="M797.2,23.4c1.4,0,2.5-0.3,3.5-1c0.9-0.7,1.6-1.7,2-2.9h0l-0.1,4.5v5.5h4.5V3.2h-4.4v3.6
		c-0.4-1.2-1-2.2-1.9-2.9c-0.9-0.7-2.1-1-3.5-1c-1.9,0-3.5,0.7-4.7,2.1c-1.2,1.4-1.8,3.2-1.8,5.5v5.4c0,2.3,0.6,4.2,1.8,5.5
		C793.7,22.7,795.2,23.4,797.2,23.4z M795.2,10.5c0-1.2,0.3-2.2,1-2.8s1.5-0.9,2.7-0.9c1.2,0,2,0.3,2.7,1s1,1.7,1,3v4.8
		c0,1.3-0.3,2.3-1,3c-0.6,0.7-1.5,1-2.7,1c-1.2,0-2-0.3-2.7-0.9s-1-1.6-1-2.8V10.5z"/>
	<rect x="-8" y="47.9" class="st0" width="15.7" height="4.1"/>
	<rect x="-8" y="56.7" class="st0" width="15.7" height="4.1"/>
	<path class="st0" d="M21.5,62.7c-1.3,0-2.4-0.3-3.2-1c-0.8-0.7-1.2-1.6-1.2-2.8h-4.4c0,1.6,0.4,3,1.1,4.2c0.7,1.2,1.8,2.1,3.1,2.7
		s2.9,0.9,4.7,0.9c1.8,0,3.3-0.3,4.6-1s2.3-1.5,3-2.7c0.7-1.2,1.1-2.5,1.1-4.1c0-2-0.6-3.7-1.7-5.1c-1.1-1.4-2.6-2.4-4.6-2.9
		L20.2,50c-0.8-0.2-1.5-0.6-2-1.2c-0.5-0.5-0.7-1.2-0.7-2c0-1,0.3-1.8,1-2.4c0.7-0.6,1.6-0.9,2.7-0.9c1.2,0,2.1,0.3,2.8,0.9
		c0.7,0.6,1,1.4,1,2.4h4.4c0-1.5-0.3-2.7-1-3.8c-0.7-1.1-1.6-1.9-2.9-2.5c-1.2-0.6-2.7-0.9-4.3-0.9c-2.4,0-4.4,0.7-5.9,2
		c-1.5,1.3-2.2,3.1-2.2,5.3c0,1.8,0.6,3.4,1.7,4.7c1.1,1.3,2.6,2.2,4.5,2.7l3.5,0.9c0.9,0.2,1.6,0.7,2.1,1.4
		c0.5,0.7,0.7,1.4,0.7,2.3c0,1.2-0.4,2.1-1.1,2.8C23.8,62.3,22.8,62.7,21.5,62.7z"/>
	<path class="st0" d="M38.6,65.6c1.2,0.6,2.7,1,4.4,1c2.1,0,3.9-0.5,5.4-1.5c1.5-1,2.4-2.4,2.7-4.1h-4.5c-0.1,0.6-0.5,1.1-1.2,1.4
		c-0.7,0.3-1.5,0.5-2.4,0.5c-1.3,0-2.3-0.3-3-1c-0.7-0.7-1-1.7-1-3v-1.4h12.2v-3.6c0-1.6-0.3-2.9-1-4.1c-0.7-1.2-1.6-2.1-2.9-2.7
		c-1.2-0.6-2.7-1-4.3-1c-1.7,0-3.1,0.3-4.4,1c-1.2,0.6-2.2,1.6-2.9,2.8c-0.7,1.2-1,2.6-1,4.2v4.7c0,1.6,0.3,3,1,4.2
		C36.4,64,37.4,65,38.6,65.6z M39,53.8c0-1.4,0.3-2.4,1-3.2c0.7-0.8,1.7-1.1,3-1.1c1.3,0,2.2,0.4,2.9,1.1c0.7,0.7,1,1.8,1,3.2v0.7
		l-7.9,0V53.8z"/>
	<path class="st0" d="M62.8,66.6c1.4,0,2.5-0.3,3.5-1c0.9-0.7,1.6-1.7,2-2.9h0l-0.1,4.5v5.5h4.5V46.4h-4.4V50
		c-0.4-1.2-1-2.2-1.9-2.9c-0.9-0.7-2.1-1-3.5-1c-1.9,0-3.5,0.7-4.7,2.1c-1.2,1.4-1.8,3.2-1.8,5.5V59c0,2.3,0.6,4.2,1.8,5.5
		C59.3,65.9,60.9,66.6,62.8,66.6z M60.9,53.7c0-1.2,0.3-2.2,1-2.8s1.5-0.9,2.7-0.9c1.2,0,2,0.3,2.7,1c0.6,0.7,1,1.7,1,3v4.8
		c0,1.3-0.3,2.3-1,3c-0.6,0.7-1.5,1-2.7,1c-1.2,0-2-0.3-2.7-0.9s-1-1.6-1-2.8V53.7z"/>
	<path class="st0" d="M87.8,43.8c1.2-1.7,2.9-2.8,5.1-3.3V36c-3.6,0.9-6.5,2.5-8.5,5c-2,2.4-3,5.5-3,9.1v6.4c0,3.6,1,6.7,3,9.1
		c2,2.5,4.8,4.1,8.5,5V66c-2.1-0.5-3.8-1.6-5.1-3.3c-1.2-1.7-1.9-3.8-1.9-6.2V50C85.9,47.6,86.6,45.5,87.8,43.8z"/>
	<path class="st0" d="M106.4,46.5l-1.9,4.5h4.6l1.6-3.6c0.2-0.6,0.4-1.2,0.6-1.8c0.2-0.7,0.3-1.2,0.3-1.7c0-0.7-0.2-1.4-0.5-2.1
		c-0.3-0.7-0.8-1.3-1.4-1.7h-4.7c0.6,0.4,1.1,1,1.5,1.7c0.3,0.7,0.5,1.4,0.5,2.1c0,0.4-0.1,0.8-0.2,1.3S106.6,46,106.4,46.5z"/>
	<path class="st0" d="M125.1,65.6c1.2,0.6,2.7,1,4.4,1c1.7,0,3.1-0.3,4.4-1c1.2-0.6,2.2-1.5,2.9-2.7c0.7-1.2,1-2.5,1-4.1V52h-9v3.9
		h4.5v2.9c0,1.2-0.3,2.2-1,2.8c-0.7,0.7-1.6,1-2.8,1c-1.2,0-2.2-0.3-2.8-1c-0.7-0.7-1-1.6-1-2.8V47.3c0-1.2,0.3-2.2,1-2.8
		c0.7-0.6,1.6-1,2.8-1c1.2,0,2.2,0.3,2.8,1c0.7,0.7,1,1.6,1,2.8h4.5c0-1.6-0.3-3-1-4.1c-0.7-1.2-1.7-2.1-2.9-2.7
		c-1.2-0.6-2.7-1-4.4-1c-1.7,0-3.2,0.3-4.4,1c-1.2,0.6-2.2,1.5-2.9,2.7c-0.7,1.2-1,2.5-1,4.1v11.4c0,1.6,0.3,3,1,4.1
		C122.9,64.1,123.9,65,125.1,65.6z"/>
	<path class="st0" d="M148.1,39.9l-6.6,26.3h4.6l1.4-6.4h7l1.4,6.4h4.6l-6.7-26.3H148.1z M148.3,56.2l1.6-7.1
		c0.3-1.2,0.5-2.2,0.7-3.2c0.2-0.9,0.3-1.6,0.4-2.1c0.1,0.4,0.2,1.1,0.4,2.1c0.2,0.9,0.4,2,0.7,3.2l1.6,7.1H148.3z"/>
	<polygon class="st0" points="163.5,44 170.3,44 170.3,66.2 174.9,66.2 174.9,44 181.7,44 181.7,39.9 163.5,39.9 	"/>
	<polygon class="st0" points="185.1,44 191.9,44 191.9,66.2 196.5,66.2 196.5,44 203.3,44 203.3,39.9 185.1,39.9 	"/>
	<path class="st0" d="M212.9,39.9l-6.6,26.3h4.6l1.4-6.4h7l1.4,6.4h4.6l-6.7-26.3H212.9z M213.1,56.2l1.6-7.1
		c0.3-1.2,0.5-2.2,0.7-3.2c0.2-0.9,0.3-1.6,0.4-2.1c0.1,0.4,0.2,1.1,0.4,2.1c0.2,0.9,0.4,2,0.7,3.2l1.6,7.1H213.1z"/>
	<path class="st0" d="M234.8,44.5c0.7-0.7,1.6-1,2.8-1s2.2,0.3,2.8,1c0.7,0.7,1,1.6,1,2.8h4.5c0-1.6-0.3-3-1-4.1
		c-0.7-1.2-1.7-2.1-2.9-2.7c-1.2-0.6-2.7-1-4.4-1c-1.7,0-3.2,0.3-4.4,1c-1.2,0.6-2.2,1.5-2.9,2.7c-0.7,1.2-1,2.5-1,4.1v11.4
		c0,1.6,0.3,3,1,4.1c0.7,1.2,1.6,2.1,2.9,2.7c1.2,0.6,2.7,1,4.4,1c1.7,0,3.1-0.3,4.4-1c1.2-0.6,2.2-1.5,2.9-2.7c0.7-1.2,1-2.5,1-4.1
		h-4.5c0,1.2-0.3,2.2-1,2.8c-0.7,0.7-1.6,1-2.8,1s-2.2-0.3-2.8-1c-0.7-0.7-1-1.6-1-2.8V47.4C233.8,46.1,234.2,45.2,234.8,44.5z"/>
	<path class="st0" d="M256.1,39.9l-6.6,26.3h4.6l1.4-6.4h7l1.4,6.4h4.6l-6.7-26.3H256.1z M256.3,56.2l1.6-7.1
		c0.3-1.2,0.5-2.2,0.7-3.2c0.2-0.9,0.3-1.6,0.4-2.1c0.1,0.4,0.2,1.1,0.4,2.1c0.2,0.9,0.4,2,0.7,3.2l1.6,7.1H256.3z"/>
	<path class="st0" d="M279.2,46.5l-1.9,4.5h4.6l1.6-3.6c0.2-0.6,0.4-1.2,0.6-1.8c0.2-0.7,0.3-1.2,0.3-1.7c0-0.7-0.2-1.4-0.5-2.1
		c-0.3-0.7-0.8-1.3-1.4-1.7h-4.7c0.6,0.4,1.1,1,1.5,1.7c0.3,0.7,0.5,1.4,0.5,2.1c0,0.4-0.1,0.8-0.2,1.3S279.4,46,279.2,46.5z"/>
	<path class="st0" d="M300.6,62.7c-1.2,1.7-2.9,2.8-5.1,3.3v4.5c3.6-0.8,6.5-2.5,8.5-5c2-2.5,3-5.5,3-9.1V50c0-3.6-1-6.6-3-9.1
		c-2-2.4-4.8-4.1-8.5-5v4.5c2.1,0.5,3.8,1.6,5.1,3.3c1.2,1.7,1.9,3.8,1.9,6.2v6.4C302.4,58.9,301.8,61,300.6,62.7z"/>
	<path class="st0" d="M342.8,51c0.7-0.7,1.7-1,2.9-1c1.1,0,2,0.3,2.7,0.8c0.7,0.6,1.1,1.4,1.2,2.4h4.4c-0.1-2.2-0.9-4-2.4-5.2
		c-1.5-1.3-3.5-1.9-6-1.9c-1.7,0-3.2,0.3-4.4,1c-1.3,0.6-2.2,1.5-2.9,2.7c-0.7,1.2-1,2.5-1,4.1v5c0,1.6,0.3,3,1,4.1
		c0.7,1.2,1.7,2.1,2.9,2.7c1.3,0.6,2.7,1,4.4,1c2.5,0,4.5-0.6,6-1.9c1.5-1.3,2.3-3,2.4-5.2h-4.4c-0.1,1-0.5,1.8-1.2,2.4
		c-0.7,0.6-1.6,0.8-2.7,0.8c-1.2,0-2.2-0.3-2.9-1c-0.7-0.7-1-1.6-1-2.8v-5C341.8,52.6,342.1,51.6,342.8,51z"/>
	<path class="st0" d="M368.8,61.5c-0.4-0.4-0.6-1-0.6-1.8V39.9h-11V44h6.5v15.8c0,1.9,0.6,3.5,1.8,4.6s2.8,1.8,4.7,1.8h6.1v-4.1
		h-5.8C369.8,62.2,369.2,61.9,368.8,61.5z"/>
	<path class="st0" d="M386.4,66.6c1.7,0,3-0.4,4-1.1c1-0.7,1.6-1.7,1.8-3v3.7h4.4V52.8c0-2.1-0.7-3.8-2.1-5
		c-1.4-1.2-3.3-1.8-5.9-1.8c-2.4,0-4.3,0.6-5.7,1.7c-1.4,1.1-2.2,2.5-2.2,4.3h4.3c0.1-0.7,0.4-1.3,1-1.7c0.6-0.4,1.5-0.6,2.5-0.6
		c2.3,0,3.5,1,3.5,3v1.4h-4.8c-2.3,0-4.1,0.6-5.4,1.7s-2,2.7-2,4.6c0,1.8,0.6,3.3,1.7,4.5C382.8,66,384.4,66.6,386.4,66.6z
		 M385.2,57.8c0.6-0.6,1.4-0.8,2.3-0.8h4.6v2.3c0,1.1-0.4,1.9-1.2,2.6c-0.8,0.6-1.8,1-3.1,1c-1.1,0-2-0.3-2.6-0.8
		c-0.6-0.5-0.9-1.3-0.9-2.1C384.3,59.1,384.6,58.4,385.2,57.8z"/>
	<path class="st0" d="M403.8,64.9c1.4,1.1,3.2,1.6,5.6,1.6h1.6c2.5,0,4.4-0.5,5.7-1.6c1.3-1,2-2.5,2-4.4c0-1.8-0.5-3.2-1.4-4.3
		c-0.9-1.1-2.3-1.7-4.1-1.9l-4.6-0.6c-0.7-0.1-1.3-0.3-1.6-0.5c-0.4-0.3-0.6-0.7-0.6-1.3c0-0.7,0.3-1.2,0.8-1.6
		c0.5-0.4,1.2-0.6,2.2-0.6h1.7c0.9,0,1.6,0.2,2.1,0.6c0.5,0.4,0.8,0.9,0.8,1.5h4.5c0-1.7-0.7-3-2.1-4c-1.3-1-3.1-1.5-5.3-1.5h-1.7
		c-2.4,0-4.2,0.5-5.4,1.5c-1.2,1-1.9,2.4-1.9,4.3c0,1.6,0.4,2.9,1.3,3.9c0.9,1,2.1,1.6,3.7,1.8l4.9,0.6c0.8,0.1,1.5,0.4,1.9,0.7
		c0.4,0.3,0.6,0.9,0.6,1.6c0,0.8-0.3,1.4-0.9,1.8S412,63,410.9,63h-1.6c-1,0-1.8-0.2-2.4-0.6c-0.6-0.4-0.8-1-0.8-1.8h-4.4
		C401.7,62.4,402.4,63.9,403.8,64.9z"/>
	<path class="st0" d="M434.7,54.3l-4.6-0.6c-0.7-0.1-1.3-0.3-1.6-0.5c-0.4-0.3-0.6-0.7-0.6-1.3c0-0.7,0.3-1.2,0.8-1.6
		c0.5-0.4,1.2-0.6,2.2-0.6h1.7c0.9,0,1.6,0.2,2.1,0.6c0.5,0.4,0.8,0.9,0.8,1.5h4.5c0-1.7-0.7-3-2.1-4c-1.3-1-3.1-1.5-5.3-1.5h-1.7
		c-2.4,0-4.2,0.5-5.4,1.5c-1.2,1-1.9,2.4-1.9,4.3c0,1.6,0.4,2.9,1.3,3.9c0.9,1,2.1,1.6,3.7,1.8l4.9,0.6c0.8,0.1,1.5,0.4,1.9,0.7
		c0.4,0.3,0.6,0.9,0.6,1.6c0,0.8-0.3,1.4-0.9,1.8s-1.4,0.6-2.5,0.6H431c-1,0-1.8-0.2-2.4-0.6c-0.6-0.4-0.8-1-0.8-1.8h-4.4
		c0,1.8,0.7,3.3,2.1,4.3c1.4,1.1,3.2,1.6,5.6,1.6h1.6c2.5,0,4.4-0.5,5.7-1.6c1.3-1,2-2.5,2-4.4c0-1.8-0.5-3.2-1.4-4.3
		C437.9,55.2,436.6,54.5,434.7,54.3z"/>
	<path class="st0" d="M470.4,65.6c1.3,0.6,2.9,0.9,4.7,0.9c1.8,0,3.3-0.3,4.6-1s2.3-1.5,3-2.7c0.7-1.2,1.1-2.5,1.1-4.1
		c0-2-0.6-3.7-1.7-5.1c-1.1-1.4-2.6-2.4-4.6-2.9l-3.6-0.9c-0.8-0.2-1.5-0.6-2-1.2c-0.5-0.5-0.7-1.2-0.7-2c0-1,0.3-1.8,1-2.4
		c0.7-0.6,1.6-0.9,2.7-0.9c1.2,0,2.1,0.3,2.8,0.9c0.7,0.6,1,1.4,1,2.4h4.4c0-1.5-0.3-2.7-1-3.8c-0.7-1.1-1.6-1.9-2.9-2.5
		c-1.2-0.6-2.7-0.9-4.3-0.9c-2.4,0-4.4,0.7-5.9,2s-2.2,3.1-2.2,5.3c0,1.8,0.6,3.4,1.7,4.7c1.1,1.3,2.6,2.2,4.5,2.7l3.5,0.9
		c0.9,0.2,1.6,0.7,2.1,1.4s0.7,1.4,0.7,2.3c0,1.2-0.4,2.1-1.1,2.8c-0.8,0.7-1.8,1-3.1,1c-1.3,0-2.4-0.3-3.2-1
		c-0.8-0.7-1.2-1.6-1.2-2.8h-4.4c0,1.6,0.4,3,1.1,4.2C468.1,64.1,469.1,65,470.4,65.6z"/>
	<path class="st0" d="M492.2,65.6c1.2,0.6,2.7,1,4.4,1c2.1,0,3.9-0.5,5.4-1.5c1.5-1,2.4-2.4,2.7-4.1h-4.5c-0.1,0.6-0.5,1.1-1.2,1.4
		c-0.7,0.3-1.5,0.5-2.4,0.5c-1.3,0-2.3-0.3-3-1s-1-1.7-1-3v-1.4h12.2v-3.6c0-1.6-0.3-2.9-1-4.1c-0.7-1.2-1.6-2.1-2.9-2.7
		c-1.2-0.6-2.7-1-4.3-1c-1.7,0-3.1,0.3-4.4,1c-1.2,0.6-2.2,1.6-2.9,2.8c-0.7,1.2-1,2.6-1,4.2v4.7c0,1.6,0.3,3,1,4.2
		C490,64,491,65,492.2,65.6z M492.6,53.8c0-1.4,0.3-2.4,1-3.2c0.7-0.8,1.7-1.1,3-1.1c1.3,0,2.2,0.4,2.9,1.1s1,1.8,1,3.2v0.7l-7.9,0
		V53.8z"/>
	<path class="st0" d="M521.8,50c-0.4-1.2-1-2.2-1.9-2.9c-0.9-0.7-2.1-1-3.5-1c-1.9,0-3.5,0.7-4.7,2.1c-1.2,1.4-1.8,3.2-1.8,5.5V59
		c0,2.3,0.6,4.2,1.8,5.5c1.2,1.4,2.7,2.1,4.7,2.1c1.4,0,2.5-0.3,3.5-1c0.9-0.7,1.6-1.7,2-2.9h0l-0.1,4.5v5.5h4.5V46.4h-4.4V50z
		 M521.7,58.7c0,1.3-0.3,2.3-1,3c-0.6,0.7-1.5,1-2.7,1s-2-0.3-2.7-0.9s-1-1.6-1-2.8v-5.3c0-1.2,0.3-2.2,1-2.8s1.5-0.9,2.7-0.9
		s2,0.3,2.7,1s1,1.7,1,3V58.7z"/>
	<path class="st0" d="M539.8,52.1c1,0,1.8-0.3,2.4-0.8s0.9-1.3,0.9-2.2c0-0.9-0.3-1.6-0.9-2.2c-0.6-0.6-1.4-0.8-2.4-0.8
		s-1.8,0.3-2.4,0.8c-0.6,0.6-0.9,1.3-0.9,2.2c0,0.9,0.3,1.6,0.9,2.2C537.9,51.8,538.8,52.1,539.8,52.1z"/>
	<path class="st0" d="M537.3,65.8c0.6,0.6,1.4,0.8,2.4,0.8s1.8-0.3,2.4-0.8s0.9-1.3,0.9-2.2c0-0.9-0.3-1.6-0.9-2.2
		c-0.6-0.6-1.4-0.8-2.4-0.8s-1.8,0.3-2.4,0.8c-0.6,0.6-0.9,1.3-0.9,2.2C536.4,64.5,536.7,65.2,537.3,65.8z"/>
	<rect x="574.4" y="67.1" class="st0" width="17.3" height="4.1"/>
	<rect x="596" y="67.1" class="st0" width="17.3" height="4.1"/>
	<polygon class="st0" points="629.4,46.4 618.8,46.4 618.8,50.5 624.9,50.5 624.9,62.2 618.1,62.2 618.1,66.2 635.5,66.2 
		635.5,62.2 629.4,62.2 	"/>
	<path class="st0" d="M624.7,38.6c-0.5,0.5-0.8,1.1-0.8,1.9s0.3,1.4,0.8,1.9c0.5,0.5,1.2,0.7,2.2,0.7c0.9,0,1.6-0.2,2.2-0.7
		c0.5-0.5,0.8-1.1,0.8-1.9s-0.3-1.4-0.8-1.9s-1.2-0.7-2.2-0.7C625.9,37.9,625.2,38.2,624.7,38.6z"/>
	<path class="st0" d="M644.3,53.8c0-1.2,0.3-2.2,1-2.9s1.5-1,2.6-1c1.1,0,1.9,0.3,2.6,1c0.6,0.7,1,1.6,1,2.8v12.5h4.5v-13
		c0-2.2-0.6-3.9-1.7-5.2s-2.7-1.9-4.7-1.9c-1.4,0-2.6,0.4-3.6,1.1c-0.9,0.7-1.5,1.7-1.8,3v-3.7h-4.4v19.8h4.5V53.8z"/>
	<path class="st0" d="M667.9,38.6c-0.5,0.5-0.8,1.1-0.8,1.9s0.3,1.4,0.8,1.9c0.5,0.5,1.2,0.7,2.2,0.7c0.9,0,1.6-0.2,2.2-0.7
		c0.5-0.5,0.8-1.1,0.8-1.9s-0.3-1.4-0.8-1.9c-0.5-0.5-1.2-0.7-2.2-0.7C669.1,37.9,668.4,38.2,667.9,38.6z"/>
	<polygon class="st0" points="672.6,46.4 662,46.4 662,50.5 668.1,50.5 668.1,62.2 661.3,62.2 661.3,66.2 678.7,66.2 678.7,62.2 
		672.6,62.2 	"/>
	<path class="st0" d="M691.5,40.8h-4.5v5.6h-5.5v4.1h5.5v9.8c0,1.8,0.5,3.3,1.6,4.3c1.1,1.1,2.6,1.6,4.4,1.6h6.2v-4.1h-5.9
		c-0.6,0-1-0.2-1.3-0.6s-0.5-0.8-0.5-1.4v-9.7h7.9v-4.1h-7.9V40.8z"/>
	<rect x="703.9" y="67.1" class="st0" width="17.3" height="4.1"/>
	<rect x="725.5" y="67.1" class="st0" width="17.3" height="4.1"/>
	<path class="st0" d="M757.4,43.8c1.2-1.7,2.9-2.8,5.1-3.3V36c-3.6,0.9-6.5,2.5-8.5,5c-2,2.4-3,5.5-3,9.1v6.4c0,3.6,1,6.7,3,9.1
		s4.8,4.1,8.5,5V66c-2.1-0.5-3.8-1.6-5.1-3.3c-1.2-1.7-1.9-3.8-1.9-6.2V50C755.5,47.6,756.2,45.5,757.4,43.8z"/>
	<path class="st0" d="M771,64.9c1.4,1.1,3.2,1.6,5.6,1.6h1.6c2.5,0,4.4-0.5,5.7-1.6c1.3-1,2-2.5,2-4.4c0-1.8-0.5-3.2-1.4-4.3
		c-0.9-1.1-2.3-1.7-4.1-1.9l-4.6-0.6c-0.7-0.1-1.3-0.3-1.6-0.5c-0.4-0.3-0.6-0.7-0.6-1.3c0-0.7,0.3-1.2,0.8-1.6
		c0.5-0.4,1.2-0.6,2.2-0.6h1.7c0.9,0,1.6,0.2,2.1,0.6c0.5,0.4,0.8,0.9,0.8,1.5h4.5c0-1.7-0.7-3-2.1-4c-1.3-1-3.1-1.5-5.3-1.5h-1.7
		c-2.4,0-4.2,0.5-5.4,1.5s-1.9,2.4-1.9,4.3c0,1.6,0.4,2.9,1.3,3.9c0.9,1,2.1,1.6,3.7,1.8l4.9,0.6c0.8,0.1,1.5,0.4,1.9,0.7
		c0.4,0.3,0.6,0.9,0.6,1.6c0,0.8-0.3,1.4-0.9,1.8s-1.4,0.6-2.5,0.6h-1.6c-1,0-1.8-0.2-2.4-0.6c-0.6-0.4-0.8-1-0.8-1.8h-4.4
		C768.9,62.4,769.6,63.9,771,64.9z"/>
	<path class="st0" d="M794.6,65.6c1.2,0.6,2.7,1,4.4,1c2.1,0,3.9-0.5,5.4-1.5c1.5-1,2.4-2.4,2.7-4.1h-4.5c-0.1,0.6-0.5,1.1-1.2,1.4
		c-0.7,0.3-1.5,0.5-2.4,0.5c-1.3,0-2.3-0.3-3-1s-1-1.7-1-3v-1.4h12.2v-3.6c0-1.6-0.3-2.9-1-4.1c-0.7-1.2-1.6-2.1-2.9-2.7
		c-1.2-0.6-2.7-1-4.3-1c-1.7,0-3.1,0.3-4.4,1c-1.2,0.6-2.2,1.6-2.9,2.8c-0.7,1.2-1,2.6-1,4.2v4.7c0,1.6,0.3,3,1,4.2
		C792.4,64,793.4,65,794.6,65.6z M795,53.8c0-1.4,0.3-2.4,1-3.2s1.7-1.1,3-1.1c1.3,0,2.2,0.4,2.9,1.1s1,1.8,1,3.2v0.7l-7.9,0V53.8z"
		/>
	<path class="st0" d="M-4.6,108.8c1.2,0.6,2.7,1,4.4,1c2.1,0,3.9-0.5,5.4-1.5c1.5-1,2.4-2.4,2.7-4.1H3.4c-0.1,0.6-0.5,1.1-1.2,1.4
		c-0.7,0.3-1.5,0.5-2.4,0.5c-1.3,0-2.3-0.3-3-1c-0.7-0.7-1-1.7-1-3v-1.4H8.1V97c0-1.6-0.3-2.9-1-4.1c-0.7-1.2-1.6-2.1-2.9-2.7
		c-1.2-0.6-2.7-1-4.3-1c-1.7,0-3.1,0.3-4.4,1c-1.2,0.6-2.2,1.6-2.9,2.8c-0.7,1.2-1,2.6-1,4.2v4.7c0,1.6,0.3,3,1,4.2
		C-6.8,107.2-5.8,108.2-4.6,108.8z M-4.2,97c0-1.4,0.3-2.4,1-3.2c0.7-0.8,1.7-1.1,3-1.1c1.3,0,2.2,0.4,2.9,1.1c0.7,0.7,1,1.8,1,3.2
		v0.7l-7.9,0V97z"/>
	<path class="st0" d="M23.2,104.7c-0.4-0.4-0.6-1-0.6-1.8V83.1h-11v4.1h6.5V103c0,1.9,0.6,3.5,1.8,4.6s2.8,1.8,4.7,1.8h6.1v-4.1
		h-5.8C24.2,105.4,23.6,105.1,23.2,104.7z"/>
	<path class="st0" d="M39.4,109.4h4.5v-13h7.6v-4.1h-7.6v-3.4c0-0.6,0.2-1,0.5-1.3c0.3-0.3,0.8-0.5,1.4-0.5h5.7v-4h-5.8
		c-1.9,0-3.4,0.5-4.6,1.5c-1.2,1-1.7,2.4-1.7,4.1v3.5H34v4.1h5.4V109.4z"/>
	<polygon class="st0" points="60.6,115.2 65,115.2 67.7,104.2 62.5,104.2 	"/>
	<path class="st0" d="M112,88.7l0.1,4.5c-0.4-1.2-1.1-2.2-2-2.9c-0.9-0.7-2.1-1-3.5-1c-1.9,0-3.5,0.7-4.7,2.1
		c-1.2,1.4-1.8,3.2-1.8,5.5v5.4c0,2.3,0.6,4.1,1.8,5.5c1.2,1.4,2.7,2.1,4.7,2.1c1.4,0,2.6-0.3,3.5-1c0.9-0.7,1.6-1.7,1.9-2.9v3.6
		h4.4V83.1H112V88.7z M112,101.9c0,1.3-0.3,2.3-1,3c-0.6,0.7-1.5,1-2.7,1c-1.2,0-2-0.3-2.7-0.9s-1-1.6-1-2.9V97c0-1.3,0.3-2.3,1-2.9
		s1.5-0.9,2.7-0.9c1.2,0,2,0.3,2.7,1c0.6,0.7,1,1.7,1,3V101.9z"/>
	<path class="st0" d="M136.1,91c-1.4-1.2-3.3-1.8-5.9-1.8c-2.4,0-4.3,0.6-5.7,1.7c-1.4,1.1-2.2,2.5-2.2,4.3h4.3
		c0.1-0.7,0.4-1.3,1-1.7c0.6-0.4,1.5-0.6,2.5-0.6c2.3,0,3.5,1,3.5,3v1.4h-4.8c-2.3,0-4.1,0.6-5.4,1.7s-2,2.7-2,4.6
		c0,1.8,0.6,3.3,1.7,4.5c1.2,1.1,2.8,1.7,4.8,1.7c1.7,0,3-0.4,4-1.1c1-0.7,1.6-1.7,1.8-3v3.7h4.4V96C138.1,93.9,137.4,92.2,136.1,91
		z M133.6,102.5c0,1.1-0.4,1.9-1.2,2.6c-0.8,0.6-1.8,1-3.1,1c-1.1,0-2-0.3-2.6-0.8c-0.6-0.5-0.9-1.3-0.9-2.1c0-0.9,0.3-1.6,0.9-2.1
		c0.6-0.6,1.4-0.8,2.3-0.8h4.6V102.5z"/>
	<path class="st0" d="M152.2,84h-4.5v5.6h-5.5v4.1h5.5v9.8c0,1.8,0.5,3.3,1.6,4.3c1.1,1.1,2.6,1.6,4.4,1.6h6.2v-4.1H154
		c-0.6,0-1-0.2-1.4-0.6c-0.3-0.4-0.5-0.8-0.5-1.4v-9.7h7.9v-4.1h-7.9V84z"/>
	<path class="st0" d="M179.3,91c-1.4-1.2-3.3-1.8-5.9-1.8c-2.4,0-4.3,0.6-5.7,1.7c-1.4,1.1-2.2,2.5-2.2,4.3h4.3
		c0.1-0.7,0.4-1.3,1-1.7c0.6-0.4,1.5-0.6,2.5-0.6c2.3,0,3.5,1,3.5,3v1.4H172c-2.3,0-4.1,0.6-5.4,1.7s-2,2.7-2,4.6
		c0,1.8,0.6,3.3,1.7,4.5c1.2,1.1,2.8,1.7,4.8,1.7c1.7,0,3-0.4,4-1.1c1-0.7,1.6-1.7,1.8-3v3.7h4.4V96C181.3,93.9,180.6,92.2,179.3,91
		z M176.8,102.5c0,1.1-0.4,1.9-1.2,2.6c-0.8,0.6-1.8,1-3.1,1c-1.1,0-2-0.3-2.6-0.8c-0.6-0.5-0.9-1.3-0.9-2.1c0-0.9,0.3-1.6,0.9-2.1
		c0.6-0.6,1.4-0.8,2.3-0.8h4.6V102.5z"/>
	<polygon class="st0" points="198,104.2 192.9,104.2 191,115.2 195.3,115.2 	"/>
	<path class="st0" d="M243,89.3c-0.9,0-1.7,0.3-2.3,0.8c-0.6,0.6-1,1.3-1.1,2.3c-0.2-1-0.6-1.7-1.3-2.3c-0.6-0.6-1.4-0.8-2.3-0.8
		c-0.9,0-1.7,0.3-2.3,0.9s-0.9,1.4-1,2.3h-0.1v-2.9H229v19.8h4V94.7c0-1.4,0.6-2.1,1.7-2.1c0.5,0,0.9,0.2,1.2,0.6
		c0.3,0.4,0.4,0.9,0.4,1.5v14.8h3.6V94.7c0-1.4,0.5-2.1,1.6-2.1c0.6,0,1,0.2,1.3,0.6c0.3,0.4,0.5,0.9,0.5,1.5v14.8h4V94.3
		c0-1.5-0.4-2.7-1.2-3.7C245.2,89.7,244.2,89.3,243,89.3z"/>
	<path class="st0" d="M259.7,89.3c-2.5,0-4.6,0.7-6,2.1c-1.5,1.4-2.2,3.3-2.2,5.8v4.6c0,2.4,0.7,4.3,2.2,5.8c1.5,1.4,3.5,2.1,6,2.1
		s4.6-0.7,6-2.1c1.5-1.4,2.2-3.4,2.2-5.8v-4.6c0-2.4-0.7-4.4-2.2-5.8C264.3,90,262.3,89.3,259.7,89.3z M263.5,102
		c0,1.2-0.3,2.2-1,2.9s-1.6,1-2.8,1s-2.1-0.3-2.8-1s-1-1.6-1-2.9v-4.9c0-1.2,0.3-2.2,1-2.9s1.6-1,2.8-1s2.1,0.3,2.8,1s1,1.6,1,2.9
		V102z"/>
	<path class="st0" d="M283.1,104.7c-0.4-0.4-0.6-1-0.6-1.8V83.1h-11v4.1h6.5V103c0,1.9,0.6,3.5,1.8,4.6s2.8,1.8,4.7,1.8h6.1v-4.1
		h-5.8C284.1,105.4,283.6,105.1,283.1,104.7z"/>
	<path class="st0" d="M307.3,90.2c-1.2-0.6-2.7-1-4.3-1c-1.7,0-3.1,0.3-4.4,1c-1.2,0.6-2.2,1.6-2.9,2.8c-0.7,1.2-1,2.6-1,4.2v4.7
		c0,1.6,0.3,3,1,4.2c0.7,1.2,1.6,2.1,2.9,2.8c1.2,0.6,2.7,1,4.4,1c2.1,0,3.9-0.5,5.4-1.5c1.5-1,2.4-2.4,2.7-4.1h-4.5
		c-0.1,0.6-0.5,1.1-1.2,1.4c-0.7,0.3-1.5,0.5-2.4,0.5c-1.3,0-2.3-0.3-3-1c-0.7-0.7-1-1.7-1-3v-1.4h12.2V97c0-1.6-0.3-2.9-1-4.1
		C309.5,91.8,308.5,90.9,307.3,90.2z M306.9,97.7l-7.9,0V97c0-1.4,0.3-2.4,1-3.2c0.7-0.8,1.7-1.1,3-1.1c1.3,0,2.2,0.4,2.9,1.1
		c0.7,0.7,1,1.8,1,3.2V97.7z"/>
	<path class="st0" d="M325,84h-4.5v5.6H315v4.1h5.5v9.8c0,1.8,0.5,3.3,1.6,4.3c1.1,1.1,2.6,1.6,4.4,1.6h6.2v-4.1h-5.9
		c-0.6,0-1-0.2-1.4-0.6c-0.3-0.4-0.5-0.8-0.5-1.4v-9.7h7.9v-4.1H325V84z"/>
	<path class="st0" d="M347.3,99.7c-0.2,0.6-0.4,1.3-0.6,2c-0.2,0.7-0.3,1.4-0.4,2c-0.1-0.6-0.3-1.3-0.5-2c-0.2-0.7-0.4-1.4-0.6-2
		l-3.8-10.1h-4.8l7.5,18.7l-2.8,7.6h4.7l9.6-26.3h-4.8L347.3,99.7z"/>
	<path class="st0" d="M372.9,90.2c-1-0.6-2.1-0.9-3.4-0.9c-1.4,0-2.6,0.4-3.5,1.1s-1.6,1.7-1.9,2.9v-3.6h-4.4v26.3h4.5v-5.5
		l-0.1-4.7c0.4,1.3,1,2.3,2,3c0.9,0.7,2.1,1.1,3.5,1.1c1.9,0,3.5-0.7,4.7-2.1s1.8-3.2,1.8-5.5v-5.4c0-1.5-0.3-2.8-0.8-4
		C374.6,91.7,373.9,90.8,372.9,90.2z M371.5,102.1c0,1.3-0.3,2.3-1,2.9c-0.6,0.6-1.5,0.9-2.7,0.9c-1.2,0-2-0.3-2.7-1
		c-0.6-0.7-1-1.7-1-3v-4.8c0-1.3,0.3-2.3,1-3c0.6-0.7,1.5-1,2.7-1c1.2,0,2,0.3,2.7,0.9c0.6,0.6,1,1.6,1,2.9V102.1z"/>
	<path class="st0" d="M393.7,90.2c-1.2-0.6-2.7-1-4.3-1c-1.7,0-3.1,0.3-4.4,1c-1.2,0.6-2.2,1.6-2.9,2.8c-0.7,1.2-1,2.6-1,4.2v4.7
		c0,1.6,0.3,3,1,4.2c0.7,1.2,1.6,2.1,2.9,2.8c1.2,0.6,2.7,1,4.4,1c2.1,0,3.9-0.5,5.4-1.5c1.5-1,2.4-2.4,2.7-4.1h-4.5
		c-0.1,0.6-0.5,1.1-1.2,1.4c-0.7,0.3-1.5,0.5-2.4,0.5c-1.3,0-2.3-0.3-3-1c-0.7-0.7-1-1.7-1-3v-1.4h12.2V97c0-1.6-0.3-2.9-1-4.1
		C395.9,91.8,394.9,90.9,393.7,90.2z M393.3,97.7l-7.9,0V97c0-1.4,0.3-2.4,1-3.2c0.7-0.8,1.7-1.1,3-1.1c1.3,0,2.2,0.4,2.9,1.1
		c0.7,0.7,1,1.8,1,3.2V97.7z"/>
	<rect x="403.1" y="91.1" class="st0" width="15.7" height="4.1"/>
	<rect x="403.1" y="99.9" class="st0" width="15.7" height="4.1"/>
	<path class="st0" d="M431.1,89.7l-1.9,4.5h4.6l1.6-3.6c0.2-0.6,0.4-1.2,0.6-1.8c0.2-0.7,0.3-1.2,0.3-1.7c0-0.7-0.2-1.4-0.5-2.1
		c-0.3-0.7-0.8-1.3-1.4-1.7h-4.7c0.6,0.4,1.1,1,1.5,1.7c0.3,0.7,0.5,1.4,0.5,2.1c0,0.4-0.1,0.8-0.2,1.3S431.3,89.2,431.1,89.7z"/>
	<path class="st0" d="M457.6,88.7l0.1,4.5c-0.4-1.2-1.1-2.2-2-2.9c-0.9-0.7-2.1-1-3.5-1c-1.9,0-3.5,0.7-4.7,2.1
		c-1.2,1.4-1.8,3.2-1.8,5.5v5.4c0,2.3,0.6,4.1,1.8,5.5c1.2,1.4,2.7,2.1,4.7,2.1c1.4,0,2.6-0.3,3.5-1c0.9-0.7,1.6-1.7,1.9-2.9v3.6
		h4.4V83.1h-4.5V88.7z M457.6,101.9c0,1.3-0.3,2.3-1,3c-0.6,0.7-1.5,1-2.7,1s-2-0.3-2.7-0.9s-1-1.6-1-2.9V97c0-1.3,0.3-2.3,1-2.9
		s1.5-0.9,2.7-0.9s2,0.3,2.7,1s1,1.7,1,3V101.9z"/>
	<path class="st0" d="M477.4,89.3c-1.4,0-2.6,0.4-3.6,1.1c-0.9,0.7-1.5,1.7-1.8,3v-3.7h-4.4v19.8h4.5V97c0-1.2,0.3-2.2,1-2.9
		c0.6-0.7,1.5-1,2.6-1c1.1,0,1.9,0.3,2.6,1c0.6,0.7,1,1.6,1,2.8v12.5h4.5v-13c0-2.2-0.6-3.9-1.7-5.2S479.3,89.3,477.4,89.3z"/>
	<path class="st0" d="M495.1,109.8c1.7,0,3-0.4,4-1.1c1-0.7,1.6-1.7,1.8-3v3.7h4.4V96c0-2.1-0.7-3.8-2.1-5c-1.4-1.2-3.3-1.8-5.9-1.8
		c-2.4,0-4.3,0.6-5.7,1.7c-1.4,1.1-2.2,2.5-2.2,4.3h4.3c0.1-0.7,0.4-1.3,1-1.7c0.6-0.4,1.5-0.6,2.5-0.6c2.3,0,3.5,1,3.5,3v1.4H496
		c-2.3,0-4.1,0.6-5.4,1.7c-1.3,1.1-2,2.7-2,4.6c0,1.8,0.6,3.3,1.7,4.5S493.1,109.8,495.1,109.8z M493.9,101c0.6-0.6,1.4-0.8,2.3-0.8
		h4.6v2.3c0,1.1-0.4,1.9-1.2,2.6c-0.8,0.6-1.8,1-3.1,1c-1.1,0-2-0.3-2.6-0.8c-0.6-0.5-0.9-1.3-0.9-2.1
		C493,102.3,493.3,101.6,493.9,101z"/>
	<path class="st0" d="M517.5,89.7l-1.9,4.5h4.6l1.6-3.6c0.2-0.6,0.5-1.2,0.6-1.8c0.2-0.7,0.3-1.2,0.3-1.7c0-0.7-0.2-1.4-0.5-2.1
		c-0.3-0.7-0.8-1.3-1.3-1.7h-4.7c0.6,0.4,1.1,1,1.5,1.7s0.5,1.4,0.5,2.1c0,0.4-0.1,0.8-0.2,1.3S517.7,89.2,517.5,89.7z"/>
	<path class="st0" d="M545.3,93.2c0-3.6-1-6.6-3-9.1c-2-2.4-4.8-4.1-8.5-5v4.5c2.1,0.5,3.8,1.6,5.1,3.3c1.2,1.7,1.9,3.8,1.9,6.2v6.4
		c0,2.4-0.6,4.5-1.9,6.2c-1.2,1.7-2.9,2.8-5.1,3.3v4.5c3.6-0.8,6.5-2.5,8.5-5s3-5.5,3-9.1V93.2z"/>
	<path class="st0" d="M562.1,103.8c-1,0-1.8,0.3-2.4,0.8c-0.6,0.6-0.9,1.3-0.9,2.2c0,0.9,0.3,1.6,0.9,2.2s1.4,0.8,2.4,0.8
		c1,0,1.8-0.3,2.4-0.8c0.6-0.6,0.9-1.3,0.9-2.2c0-0.9-0.3-1.6-0.9-2.2C564,104,563.1,103.8,562.1,103.8z"/>
	<path class="st0" d="M564.6,90.1c-0.6-0.6-1.4-0.8-2.4-0.8c-1,0-1.8,0.3-2.4,0.8c-0.6,0.6-0.9,1.3-0.9,2.2c0,0.9,0.3,1.6,0.9,2.2
		s1.4,0.8,2.4,0.8c1,0,1.8-0.3,2.4-0.8c0.6-0.6,0.9-1.3,0.9-2.2C565.5,91.4,565.2,90.6,564.6,90.1z"/>
	<path class="st0" d="M608.3,97.5l-4.6-0.6c-0.7-0.1-1.3-0.3-1.6-0.5c-0.4-0.3-0.6-0.7-0.6-1.3c0-0.7,0.3-1.2,0.8-1.6
		c0.5-0.4,1.2-0.6,2.2-0.6h1.7c0.9,0,1.6,0.2,2.1,0.6c0.5,0.4,0.8,0.9,0.8,1.5h4.5c0-1.7-0.7-3-2.1-4c-1.3-1-3.1-1.5-5.3-1.5h-1.7
		c-2.4,0-4.2,0.5-5.4,1.5c-1.2,1-1.9,2.4-1.9,4.3c0,1.6,0.4,2.9,1.3,3.9c0.9,1,2.1,1.6,3.7,1.8l4.9,0.6c0.8,0.1,1.5,0.4,1.9,0.7
		c0.4,0.3,0.6,0.9,0.6,1.6c0,0.8-0.3,1.4-0.9,1.8s-1.4,0.6-2.5,0.6h-1.6c-1,0-1.8-0.2-2.4-0.6c-0.6-0.4-0.8-1-0.8-1.8h-4.4
		c0,1.8,0.7,3.3,2.1,4.3c1.4,1.1,3.2,1.6,5.6,1.6h1.6c2.5,0,4.4-0.5,5.7-1.6c1.3-1,2-2.5,2-4.4c0-1.8-0.5-3.2-1.4-4.3
		C611.5,98.4,610.1,97.7,608.3,97.5z"/>
	<path class="st0" d="M635.2,100.6V97c0-1.6-0.3-2.9-1-4.1s-1.6-2.1-2.9-2.7c-1.2-0.6-2.7-1-4.3-1c-1.7,0-3.1,0.3-4.4,1
		c-1.2,0.6-2.2,1.6-2.9,2.8c-0.7,1.2-1,2.6-1,4.2v4.7c0,1.6,0.3,3,1,4.2c0.7,1.2,1.6,2.1,2.9,2.8c1.2,0.6,2.7,1,4.4,1
		c2.1,0,3.9-0.5,5.4-1.5c1.5-1,2.4-2.4,2.7-4.1h-4.5c-0.1,0.6-0.5,1.1-1.2,1.4s-1.5,0.5-2.4,0.5c-1.3,0-2.3-0.3-3-1
		c-0.7-0.7-1-1.7-1-3v-1.4H635.2z M623,97c0-1.4,0.3-2.4,1-3.2s1.7-1.1,3-1.1c1.3,0,2.2,0.4,2.9,1.1c0.7,0.7,1,1.8,1,3.2v0.7l-7.9,0
		V97z"/>
	<path class="st0" d="M650.3,104.7c-0.4-0.4-0.6-1-0.6-1.8V83.1h-11v4.1h6.5V103c0,1.9,0.6,3.5,1.8,4.6c1.2,1.2,2.8,1.8,4.7,1.8h6.1
		v-4.1H652C651.3,105.4,650.7,105.1,650.3,104.7z"/>
	<path class="st0" d="M668.2,84.7c-1.2,1-1.7,2.4-1.7,4.1v3.5h-5.4v4.1h5.4v13h4.5v-13h7.6v-4.1H671v-3.4c0-0.6,0.2-1,0.5-1.3
		s0.8-0.5,1.4-0.5h5.7v-4h-5.8C670.9,83.1,669.4,83.7,668.2,84.7z"/>
	<path class="st0" d="M694.1,108.9c0.6-0.6,0.9-1.4,0.9-2.4c0-1-0.3-1.8-0.9-2.4c-0.6-0.6-1.4-0.9-2.4-0.9s-1.8,0.3-2.4,0.9
		c-0.6,0.6-0.9,1.4-0.9,2.4c0,1,0.3,1.8,0.9,2.4c0.6,0.6,1.4,0.9,2.4,0.9S693.5,109.5,694.1,108.9z"/>
	<rect x="704.7" y="110.3" class="st0" width="17.3" height="4.1"/>
	<path class="st0" d="M733.1,109.8c1.4,0,2.6-0.3,3.5-1c0.9-0.7,1.6-1.7,1.9-2.9v3.6h4.4V83.1h-4.5v5.5l0.1,4.5
		c-0.4-1.2-1-2.2-2-2.9c-0.9-0.7-2.1-1-3.5-1c-1.9,0-3.5,0.7-4.7,2.1c-1.2,1.4-1.8,3.2-1.8,5.5v5.4c0,2.3,0.6,4.1,1.8,5.5
		C729.6,109.1,731.2,109.8,733.1,109.8z M731.2,97c0-1.3,0.3-2.3,1-2.9s1.5-0.9,2.7-0.9c1.2,0,2,0.3,2.7,1s1,1.7,1,3v4.8
		c0,1.3-0.3,2.3-1,3c-0.6,0.7-1.5,1-2.7,1c-1.2,0-2-0.3-2.7-0.9s-1-1.6-1-2.9V97z"/>
	<path class="st0" d="M755.2,97.3c-2.3,0-4.1,0.6-5.4,1.7c-1.3,1.1-2,2.7-2,4.6c0,1.8,0.6,3.3,1.7,4.5s2.8,1.7,4.8,1.7
		c1.7,0,3-0.4,4-1.1c1-0.7,1.6-1.7,1.8-3v3.7h4.4V96c0-2.1-0.7-3.8-2.1-5c-1.4-1.2-3.3-1.8-5.9-1.8c-2.4,0-4.3,0.6-5.7,1.7
		c-1.4,1.1-2.2,2.5-2.2,4.3h4.3c0.1-0.7,0.4-1.3,1-1.7c0.6-0.4,1.5-0.6,2.5-0.6c2.3,0,3.5,1,3.5,3v1.4H755.2z M760,102.5
		c0,1.1-0.4,1.9-1.2,2.6c-0.8,0.6-1.8,1-3.1,1c-1.1,0-2-0.3-2.6-0.8c-0.6-0.5-0.9-1.3-0.9-2.1c0-0.9,0.3-1.6,0.9-2.1
		s1.4-0.8,2.3-0.8h4.6V102.5z"/>
	<path class="st0" d="M778.6,84H774v5.6h-5.5v4.1h5.5v9.8c0,1.8,0.5,3.3,1.6,4.3c1.1,1.1,2.6,1.6,4.4,1.6h6.2v-4.1h-5.9
		c-0.6,0-1-0.2-1.3-0.6s-0.5-0.8-0.5-1.4v-9.7h7.9v-4.1h-7.9V84z"/>
	<path class="st0" d="M797.5,109.8c1.7,0,3-0.4,4-1.1c1-0.7,1.6-1.7,1.8-3v3.7h4.4V96c0-2.1-0.7-3.8-2.1-5c-1.4-1.2-3.3-1.8-5.9-1.8
		c-2.4,0-4.3,0.6-5.7,1.7c-1.4,1.1-2.2,2.5-2.2,4.3h4.3c0.1-0.7,0.4-1.3,1-1.7c0.6-0.4,1.5-0.6,2.5-0.6c2.3,0,3.5,1,3.5,3v1.4h-4.8
		c-2.3,0-4.1,0.6-5.4,1.7c-1.3,1.1-2,2.7-2,4.6c0,1.8,0.6,3.3,1.7,4.5S795.5,109.8,797.5,109.8z M796.3,101c0.6-0.6,1.4-0.8,2.3-0.8
		h4.6v2.3c0,1.1-0.4,1.9-1.2,2.6c-0.8,0.6-1.8,1-3.1,1c-1.1,0-2-0.3-2.6-0.8c-0.6-0.5-0.9-1.3-0.9-2.1
		C795.4,102.3,795.7,101.6,796.3,101z"/>
	<path class="st0" d="M-1.7,125c-0.5,0.5-0.8,1.1-0.8,1.9s0.3,1.4,0.8,1.9c0.5,0.5,1.2,0.7,2.2,0.7c0.9,0,1.6-0.2,2.2-0.7
		c0.5-0.5,0.8-1.1,0.8-1.9s-0.3-1.4-0.8-1.9c-0.5-0.5-1.2-0.7-2.2-0.7C-0.5,124.3-1.2,124.6-1.7,125z"/>
	<polygon class="st0" points="3,132.8 -7.5,132.8 -7.5,136.9 -1.5,136.9 -1.5,148.6 -8.3,148.6 -8.3,152.6 9.1,152.6 9.1,148.6 
		3,148.6 	"/>
	<path class="st0" d="M24.4,140.7l-4.6-0.6c-0.7-0.1-1.3-0.3-1.6-0.5c-0.4-0.3-0.6-0.7-0.6-1.3c0-0.7,0.3-1.2,0.8-1.6
		c0.5-0.4,1.2-0.6,2.2-0.6h1.7c0.9,0,1.6,0.2,2.1,0.6c0.5,0.4,0.8,0.9,0.8,1.5h4.5c0-1.7-0.7-3-2.1-4c-1.3-1-3.1-1.5-5.3-1.5h-1.7
		c-2.4,0-4.2,0.5-5.4,1.5c-1.2,1-1.9,2.4-1.9,4.3c0,1.6,0.4,2.9,1.3,3.9c0.9,1,2.1,1.6,3.7,1.8l4.9,0.6c0.8,0.1,1.5,0.4,1.9,0.7
		c0.4,0.3,0.6,0.9,0.6,1.6c0,0.8-0.3,1.4-0.9,1.8c-0.6,0.4-1.4,0.6-2.5,0.6h-1.6c-1,0-1.8-0.2-2.4-0.6s-0.8-1-0.8-1.8h-4.4
		c0,1.8,0.7,3.3,2.1,4.3c1.4,1.1,3.2,1.6,5.6,1.6h1.6c2.5,0,4.4-0.5,5.7-1.6s2-2.5,2-4.4c0-1.8-0.5-3.2-1.4-4.3
		C27.5,141.6,26.2,140.9,24.4,140.7z"/>
	<polygon class="st0" points="46.2,132.8 35.7,132.8 35.7,136.9 41.7,136.9 41.7,148.6 34.9,148.6 34.9,152.6 52.3,152.6 
		52.3,148.6 46.2,148.6 	"/>
	<path class="st0" d="M41.5,125c-0.5,0.5-0.8,1.1-0.8,1.9s0.3,1.4,0.8,1.9c0.5,0.5,1.2,0.7,2.2,0.7c0.9,0,1.6-0.2,2.2-0.7
		c0.5-0.5,0.8-1.1,0.8-1.9s-0.3-1.4-0.8-1.9c-0.5-0.5-1.2-0.7-2.2-0.7C42.7,124.3,42,124.6,41.5,125z"/>
	<path class="st0" d="M66.3,132.5c-1.4,0-2.6,0.4-3.6,1.1c-0.9,0.7-1.5,1.7-1.8,3v-3.7h-4.4v19.8h4.5v-12.4c0-1.2,0.3-2.2,1-2.9
		c0.6-0.7,1.5-1,2.6-1c1.1,0,1.9,0.3,2.6,1c0.6,0.7,1,1.6,1,2.8v12.5h4.5v-13c0-2.2-0.6-3.9-1.7-5.2S68.2,132.5,66.3,132.5z"/>
	<path class="st0" d="M89.1,140.7l-4.6-0.6c-0.7-0.1-1.3-0.3-1.6-0.5c-0.4-0.3-0.6-0.7-0.6-1.3c0-0.7,0.3-1.2,0.8-1.6
		c0.5-0.4,1.2-0.6,2.2-0.6h1.7c0.9,0,1.6,0.2,2.1,0.6c0.5,0.4,0.8,0.9,0.8,1.5h4.5c0-1.7-0.7-3-2.1-4c-1.3-1-3.1-1.5-5.3-1.5h-1.7
		c-2.4,0-4.2,0.5-5.4,1.5c-1.2,1-1.9,2.4-1.9,4.3c0,1.6,0.4,2.9,1.3,3.9c0.9,1,2.1,1.6,3.7,1.8l4.9,0.6c0.8,0.1,1.5,0.4,1.9,0.7
		c0.4,0.3,0.6,0.9,0.6,1.6c0,0.8-0.3,1.4-0.9,1.8c-0.6,0.4-1.4,0.6-2.5,0.6h-1.6c-1,0-1.8-0.2-2.4-0.6s-0.8-1-0.8-1.8h-4.4
		c0,1.8,0.7,3.3,2.1,4.3c1.4,1.1,3.2,1.6,5.6,1.6H87c2.5,0,4.4-0.5,5.7-1.6s2-2.5,2-4.4c0-1.8-0.5-3.2-1.4-4.3
		C92.3,141.6,91,140.9,89.1,140.7z"/>
	<path class="st0" d="M108.3,127.2h-4.5v5.6h-5.5v4.1h5.5v9.8c0,1.8,0.5,3.3,1.6,4.3c1.1,1.1,2.6,1.6,4.4,1.6h6.2v-4.1h-5.9
		c-0.6,0-1-0.2-1.4-0.6c-0.3-0.4-0.5-0.8-0.5-1.4v-9.7h7.9v-4.1h-7.9V127.2z"/>
	<path class="st0" d="M135.3,134.2c-1.4-1.2-3.3-1.8-5.9-1.8c-2.4,0-4.3,0.6-5.7,1.7c-1.4,1.1-2.2,2.5-2.2,4.3h4.3
		c0.1-0.7,0.4-1.3,1-1.7c0.6-0.4,1.5-0.6,2.5-0.6c2.3,0,3.5,1,3.5,3v1.4h-4.8c-2.3,0-4.1,0.6-5.4,1.7s-2,2.7-2,4.6
		c0,1.8,0.6,3.3,1.7,4.5c1.2,1.1,2.8,1.7,4.8,1.7c1.7,0,3-0.4,4-1.1c1-0.7,1.6-1.7,1.8-3v3.7h4.4v-13.4
		C137.4,137.1,136.7,135.4,135.3,134.2z M132.9,145.7c0,1.1-0.4,1.9-1.2,2.6c-0.8,0.6-1.8,1-3.1,1c-1.1,0-2-0.3-2.6-0.8
		c-0.6-0.5-0.9-1.3-0.9-2.1c0-0.9,0.3-1.6,0.9-2.1c0.6-0.6,1.4-0.8,2.3-0.8h4.6V145.7z"/>
	<path class="st0" d="M152.7,132.5c-1.4,0-2.6,0.4-3.6,1.1c-0.9,0.7-1.5,1.7-1.8,3v-3.7H143v19.8h4.5v-12.4c0-1.2,0.3-2.2,1-2.9
		c0.6-0.7,1.5-1,2.6-1c1.1,0,1.9,0.3,2.6,1c0.6,0.7,1,1.6,1,2.8v12.5h4.5v-13c0-2.2-0.6-3.9-1.7-5.2S154.6,132.5,152.7,132.5z"/>
	<path class="st0" d="M170,137.4c0.7-0.7,1.7-1,2.9-1c1.1,0,2,0.3,2.7,0.8c0.7,0.6,1.1,1.4,1.2,2.4h4.4c-0.1-2.2-0.9-4-2.4-5.2
		c-1.5-1.3-3.5-1.9-6-1.9c-1.7,0-3.2,0.3-4.4,1c-1.3,0.6-2.2,1.5-2.9,2.7c-0.7,1.2-1,2.5-1,4.1v5c0,1.6,0.3,3,1,4.1
		c0.7,1.2,1.7,2.1,2.9,2.7c1.3,0.6,2.7,1,4.4,1c2.5,0,4.5-0.6,6-1.9c1.5-1.3,2.3-3,2.4-5.2h-4.4c-0.1,1-0.5,1.8-1.2,2.4
		c-0.7,0.6-1.6,0.8-2.7,0.8c-1.2,0-2.2-0.3-2.9-1c-0.7-0.7-1-1.6-1-2.8v-5C169,139,169.3,138,170,137.4z"/>
	<path class="st0" d="M198.6,133.4c-1.2-0.6-2.7-1-4.3-1c-1.7,0-3.1,0.3-4.4,1c-1.2,0.6-2.2,1.6-2.9,2.8c-0.7,1.2-1,2.6-1,4.2v4.7
		c0,1.6,0.3,3,1,4.2c0.7,1.2,1.6,2.1,2.9,2.8c1.2,0.6,2.7,1,4.4,1c2.1,0,3.9-0.5,5.4-1.5c1.5-1,2.4-2.4,2.7-4.1h-4.5
		c-0.1,0.6-0.5,1.1-1.2,1.4c-0.7,0.3-1.5,0.5-2.4,0.5c-1.3,0-2.3-0.3-3-1c-0.7-0.7-1-1.7-1-3v-1.4h12.2v-3.6c0-1.6-0.3-2.9-1-4.1
		C200.8,135,199.8,134.1,198.6,133.4z M198.2,140.9l-7.9,0v-0.7c0-1.4,0.3-2.4,1-3.2c0.7-0.8,1.7-1.1,3-1.1c1.3,0,2.2,0.4,2.9,1.1
		c0.7,0.7,1,1.8,1,3.2V140.9z"/>
	<path class="st0" d="M214,127.4c-2,2.4-3,5.5-3,9.1v6.4c0,3.6,1,6.7,3,9.1c2,2.5,4.8,4.1,8.5,5v-4.5c-2.1-0.5-3.8-1.6-5.1-3.3
		c-1.2-1.7-1.9-3.8-1.9-6.2v-6.4c0-2.4,0.6-4.5,1.9-6.2c1.2-1.7,2.9-2.8,5.1-3.3v-4.5C218.8,123.2,216,124.9,214,127.4z"/>
	<path class="st0" d="M240.9,131.9l0.1,4.5c-0.4-1.2-1.1-2.2-2-2.9c-0.9-0.7-2.1-1-3.5-1c-1.9,0-3.5,0.7-4.7,2.1
		c-1.2,1.4-1.8,3.2-1.8,5.5v5.4c0,2.3,0.6,4.1,1.8,5.5c1.2,1.4,2.7,2.1,4.7,2.1c1.4,0,2.6-0.3,3.5-1c0.9-0.7,1.6-1.7,1.9-2.9v3.6
		h4.4v-26.3h-4.5V131.9z M240.9,145.1c0,1.3-0.3,2.3-1,3c-0.6,0.7-1.5,1-2.7,1c-1.2,0-2-0.3-2.7-0.9s-1-1.6-1-2.9v-5.1
		c0-1.3,0.3-2.3,1-2.9s1.5-0.9,2.7-0.9c1.2,0,2,0.3,2.7,1c0.6,0.7,1,1.7,1,3V145.1z"/>
	<path class="st0" d="M264.9,134.2c-1.4-1.2-3.3-1.8-5.9-1.8c-2.4,0-4.3,0.6-5.7,1.7c-1.4,1.1-2.2,2.5-2.2,4.3h4.3
		c0.1-0.7,0.4-1.3,1-1.7c0.6-0.4,1.5-0.6,2.5-0.6c2.3,0,3.5,1,3.5,3v1.4h-4.8c-2.3,0-4.1,0.6-5.4,1.7s-2,2.7-2,4.6
		c0,1.8,0.6,3.3,1.7,4.5c1.2,1.1,2.8,1.7,4.8,1.7c1.7,0,3-0.4,4-1.1c1-0.7,1.6-1.7,1.8-3v3.7h4.4v-13.4
		C267,137.1,266.3,135.4,264.9,134.2z M262.5,145.7c0,1.1-0.4,1.9-1.2,2.6c-0.8,0.6-1.8,1-3.1,1c-1.1,0-2-0.3-2.6-0.8
		c-0.6-0.5-0.9-1.3-0.9-2.1c0-0.9,0.3-1.6,0.9-2.1c0.6-0.6,1.4-0.8,2.3-0.8h4.6V145.7z"/>
	<path class="st0" d="M281.1,127.2h-4.5v5.6h-5.5v4.1h5.5v9.8c0,1.8,0.5,3.3,1.6,4.3c1.1,1.1,2.6,1.6,4.4,1.6h6.2v-4.1h-5.9
		c-0.6,0-1-0.2-1.4-0.6c-0.3-0.4-0.5-0.8-0.5-1.4v-9.7h7.9v-4.1h-7.9V127.2z"/>
	<path class="st0" d="M308.1,134.2c-1.4-1.2-3.3-1.8-5.9-1.8c-2.4,0-4.3,0.6-5.7,1.7c-1.4,1.1-2.2,2.5-2.2,4.3h4.3
		c0.1-0.7,0.4-1.3,1-1.7c0.6-0.4,1.5-0.6,2.5-0.6c2.3,0,3.5,1,3.5,3v1.4h-4.8c-2.3,0-4.1,0.6-5.4,1.7s-2,2.7-2,4.6
		c0,1.8,0.6,3.3,1.7,4.5c1.2,1.1,2.8,1.7,4.8,1.7c1.7,0,3-0.4,4-1.1c1-0.7,1.6-1.7,1.8-3v3.7h4.4v-13.4
		C310.2,137.1,309.5,135.4,308.1,134.2z M305.7,145.7c0,1.1-0.4,1.9-1.2,2.6c-0.8,0.6-1.8,1-3.1,1c-1.1,0-2-0.3-2.6-0.8
		c-0.6-0.5-0.9-1.3-0.9-2.1c0-0.9,0.3-1.6,0.9-2.1c0.6-0.6,1.4-0.8,2.3-0.8h4.6V145.7z"/>
	<polygon class="st0" points="319.8,158.4 324.2,158.4 326.9,147.4 321.7,147.4 	"/>
	<path class="st0" d="M369.9,140.7l-4.6-0.6c-0.7-0.1-1.3-0.3-1.6-0.5c-0.4-0.3-0.6-0.7-0.6-1.3c0-0.7,0.3-1.2,0.8-1.6
		c0.5-0.4,1.2-0.6,2.2-0.6h1.7c0.9,0,1.6,0.2,2.1,0.6c0.5,0.4,0.8,0.9,0.8,1.5h4.5c0-1.7-0.7-3-2.1-4c-1.3-1-3.1-1.5-5.3-1.5h-1.7
		c-2.4,0-4.2,0.5-5.4,1.5c-1.2,1-1.9,2.4-1.9,4.3c0,1.6,0.4,2.9,1.3,3.9c0.9,1,2.1,1.6,3.7,1.8l4.9,0.6c0.8,0.1,1.5,0.4,1.9,0.7
		c0.4,0.3,0.6,0.9,0.6,1.6c0,0.8-0.3,1.4-0.9,1.8c-0.6,0.4-1.4,0.6-2.5,0.6h-1.6c-1,0-1.8-0.2-2.4-0.6s-0.8-1-0.8-1.8h-4.4
		c0,1.8,0.7,3.3,2.1,4.3c1.4,1.1,3.2,1.6,5.6,1.6h1.6c2.5,0,4.4-0.5,5.7-1.6s2-2.5,2-4.4c0-1.8-0.5-3.2-1.4-4.3
		C373.1,141.6,371.8,140.9,369.9,140.7z"/>
	<path class="st0" d="M389.1,127.2h-4.5v5.6h-5.5v4.1h5.5v9.8c0,1.8,0.5,3.3,1.6,4.3c1.1,1.1,2.6,1.6,4.4,1.6h6.2v-4.1h-5.9
		c-0.6,0-1-0.2-1.4-0.6c-0.3-0.4-0.5-0.8-0.5-1.4v-9.7h7.9v-4.1h-7.9V127.2z"/>
	<path class="st0" d="M412.7,132.5c-1.5,0-2.7,0.4-3.7,1.1c-0.9,0.8-1.5,1.8-1.8,3.1v-3.9h-4.4v19.8h4.5v-12.1
		c0-1.3,0.3-2.3,0.9-3.1c0.6-0.7,1.5-1.1,2.7-1.1c1.2,0,2,0.3,2.7,1c0.6,0.6,0.9,1.6,0.9,2.8v1.7h4.5v-1.9c0-2.3-0.6-4.1-1.7-5.4
		S414.8,132.5,412.7,132.5z"/>
	<path class="st0" d="M425.1,122.4v4.5c2.1,0.5,3.8,1.6,5.1,3.3c1.2,1.7,1.9,3.8,1.9,6.2v6.4c0,2.4-0.6,4.5-1.9,6.2
		c-1.2,1.7-2.9,2.8-5.1,3.3v4.5c3.6-0.8,6.5-2.5,8.5-5s3-5.5,3-9.1v-6.4c0-3.6-1-6.6-3-9.1C431.6,124.9,428.8,123.2,425.1,122.4z"/>
	<path class="st0" d="M453.4,132.5c-1,0-1.8,0.3-2.4,0.8c-0.6,0.6-0.9,1.3-0.9,2.2c0,0.9,0.3,1.6,0.9,2.2c0.6,0.6,1.4,0.8,2.4,0.8
		s1.8-0.3,2.4-0.8s0.9-1.3,0.9-2.2c0-0.9-0.3-1.6-0.9-2.2C455.2,132.7,454.4,132.5,453.4,132.5z"/>
	<path class="st0" d="M453.4,147c-1,0-1.8,0.3-2.4,0.8c-0.6,0.6-0.9,1.3-0.9,2.2c0,0.9,0.3,1.6,0.9,2.2c0.6,0.6,1.4,0.8,2.4,0.8
		s1.8-0.3,2.4-0.8s0.9-1.3,0.9-2.2c0-0.9-0.3-1.6-0.9-2.2C455.2,147.2,454.4,147,453.4,147z"/>
	<path class="st0" d="M499.1,132.5c-1.5,0-2.7,0.4-3.7,1.1c-0.9,0.8-1.5,1.8-1.8,3.1v-3.9h-4.4v19.8h4.5v-12.1
		c0-1.3,0.3-2.3,0.9-3.1c0.6-0.7,1.5-1.1,2.7-1.1c1.2,0,2,0.3,2.7,1c0.6,0.6,0.9,1.6,0.9,2.8v1.7h4.5v-1.9c0-2.3-0.6-4.1-1.7-5.4
		S501.2,132.5,499.1,132.5z"/>
	<path class="st0" d="M524.1,134.2c-1.4-1.2-3.3-1.8-5.9-1.8c-2.4,0-4.3,0.6-5.7,1.7c-1.4,1.1-2.2,2.5-2.2,4.3h4.3
		c0.1-0.7,0.4-1.3,1-1.7c0.6-0.4,1.5-0.6,2.5-0.6c2.3,0,3.5,1,3.5,3v1.4h-4.8c-2.3,0-4.1,0.6-5.4,1.7c-1.3,1.1-2,2.7-2,4.6
		c0,1.8,0.6,3.3,1.7,4.5s2.8,1.7,4.8,1.7c1.7,0,3-0.4,4-1.1c1-0.7,1.6-1.7,1.8-3v3.7h4.4v-13.4C526.2,137.1,525.5,135.4,524.1,134.2
		z M521.7,145.7c0,1.1-0.4,1.9-1.2,2.6c-0.8,0.6-1.8,1-3.1,1c-1.1,0-2-0.3-2.6-0.8c-0.6-0.5-0.9-1.3-0.9-2.1c0-0.9,0.3-1.6,0.9-2.1
		c0.6-0.6,1.4-0.8,2.3-0.8h4.6V145.7z"/>
	<polygon class="st0" points="543,132.8 532.4,132.8 532.4,136.9 538.5,136.9 538.5,148.6 531.7,148.6 531.7,152.6 549.1,152.6 
		549.1,148.6 543,148.6 	"/>
	<path class="st0" d="M538.3,125c-0.5,0.5-0.8,1.1-0.8,1.9s0.3,1.4,0.8,1.9c0.5,0.5,1.2,0.7,2.2,0.7s1.6-0.2,2.2-0.7
		c0.5-0.5,0.8-1.1,0.8-1.9s-0.3-1.4-0.8-1.9c-0.5-0.5-1.2-0.7-2.2-0.7S538.8,124.6,538.3,125z"/>
	<path class="st0" d="M564.3,140.7l-4.6-0.6c-0.7-0.1-1.3-0.3-1.6-0.5c-0.4-0.3-0.6-0.7-0.6-1.3c0-0.7,0.3-1.2,0.8-1.6
		c0.5-0.4,1.2-0.6,2.2-0.6h1.7c0.9,0,1.6,0.2,2.1,0.6c0.5,0.4,0.8,0.9,0.8,1.5h4.5c0-1.7-0.7-3-2.1-4c-1.3-1-3.1-1.5-5.3-1.5h-1.7
		c-2.4,0-4.2,0.5-5.4,1.5s-1.9,2.4-1.9,4.3c0,1.6,0.4,2.9,1.3,3.9c0.9,1,2.1,1.6,3.7,1.8l4.9,0.6c0.8,0.1,1.5,0.4,1.9,0.7
		s0.6,0.9,0.6,1.6c0,0.8-0.3,1.4-0.9,1.8c-0.6,0.4-1.4,0.6-2.5,0.6h-1.6c-1,0-1.8-0.2-2.4-0.6c-0.6-0.4-0.8-1-0.8-1.8h-4.4
		c0,1.8,0.7,3.3,2.1,4.3c1.4,1.1,3.2,1.6,5.6,1.6h1.6c2.5,0,4.4-0.5,5.7-1.6c1.3-1,2-2.5,2-4.4c0-1.8-0.5-3.2-1.4-4.3
		C567.5,141.6,566.2,140.9,564.3,140.7z"/>
	<path class="st0" d="M587.4,133.4c-1.2-0.6-2.7-1-4.3-1c-1.7,0-3.1,0.3-4.4,1c-1.2,0.6-2.2,1.6-2.9,2.8c-0.7,1.2-1,2.6-1,4.2v4.7
		c0,1.6,0.3,3,1,4.2c0.7,1.2,1.7,2.1,2.9,2.8c1.2,0.6,2.7,1,4.4,1c2.1,0,3.9-0.5,5.4-1.5c1.5-1,2.4-2.4,2.7-4.1h-4.5
		c-0.1,0.6-0.5,1.1-1.2,1.4c-0.7,0.3-1.5,0.5-2.4,0.5c-1.3,0-2.3-0.3-3-1s-1-1.7-1-3v-1.4h12.2v-3.6c0-1.6-0.3-2.9-1-4.1
		C589.6,135,588.6,134.1,587.4,133.4z M587,140.9l-7.9,0v-0.7c0-1.4,0.3-2.4,1-3.2c0.7-0.8,1.7-1.1,3-1.1c1.3,0,2.2,0.4,2.9,1.1
		s1,1.8,1,3.2V140.9z"/>
	<polygon class="st0" points="617,130.4 623.9,130.4 623.9,152.6 628.5,152.6 628.5,130.4 635.3,130.4 635.3,126.3 617,126.3 	"/>
	<path class="st0" d="M649,142.9c-0.2,0.6-0.4,1.3-0.6,2s-0.3,1.4-0.4,2c-0.1-0.6-0.3-1.3-0.5-2s-0.4-1.4-0.6-2l-3.8-10.1h-4.8
		l7.5,18.7l-2.8,7.6h4.7l9.6-26.3h-4.8L649,142.9z"/>
	<path class="st0" d="M674.6,133.4c-1-0.6-2.1-0.9-3.4-0.9c-1.4,0-2.6,0.4-3.5,1.1c-0.9,0.7-1.6,1.7-1.9,2.9v-3.6h-4.4v26.3h4.5
		v-5.5l-0.1-4.7c0.4,1.3,1,2.3,2,3c0.9,0.7,2.1,1.1,3.5,1.1c1.9,0,3.5-0.7,4.7-2.1c1.2-1.4,1.8-3.2,1.8-5.5V140c0-1.5-0.3-2.8-0.8-4
		C676.3,134.9,675.5,134,674.6,133.4z M673.1,145.3c0,1.3-0.3,2.3-1,2.9s-1.5,0.9-2.7,0.9c-1.2,0-2-0.3-2.7-1c-0.6-0.7-1-1.7-1-3
		v-4.8c0-1.3,0.3-2.3,1-3s1.5-1,2.7-1c1.2,0,2,0.3,2.7,0.9s1,1.6,1,2.9V145.3z"/>
	<path class="st0" d="M695.4,133.4c-1.2-0.6-2.7-1-4.3-1c-1.7,0-3.1,0.3-4.4,1c-1.2,0.6-2.2,1.6-2.9,2.8c-0.7,1.2-1,2.6-1,4.2v4.7
		c0,1.6,0.3,3,1,4.2c0.7,1.2,1.7,2.1,2.9,2.8c1.2,0.6,2.7,1,4.4,1c2.1,0,3.9-0.5,5.4-1.5c1.5-1,2.4-2.4,2.7-4.1h-4.5
		c-0.1,0.6-0.5,1.1-1.2,1.4c-0.7,0.3-1.5,0.5-2.4,0.5c-1.3,0-2.3-0.3-3-1s-1-1.7-1-3v-1.4h12.2v-3.6c0-1.6-0.3-2.9-1-4.1
		C697.6,135,696.6,134.1,695.4,133.4z M694.9,140.9l-7.9,0v-0.7c0-1.4,0.3-2.4,1-3.2s1.7-1.1,3-1.1c1.3,0,2.2,0.4,2.9,1.1
		s1,1.8,1,3.2V140.9z"/>
	<polygon class="st0" points="705,152.6 720.7,152.6 720.7,148.7 709.4,148.7 709.4,141 719.5,141 719.5,137.1 709.4,137.1 
		709.4,130.3 720.7,130.3 720.7,126.3 705,126.3 	"/>
	<path class="st0" d="M736.7,132.5c-1.5,0-2.7,0.4-3.7,1.1c-0.9,0.8-1.5,1.8-1.8,3.1v-3.9h-4.4v19.8h4.5v-12.1
		c0-1.3,0.3-2.3,0.9-3.1c0.6-0.7,1.5-1.1,2.7-1.1c1.2,0,2,0.3,2.7,1c0.6,0.6,0.9,1.6,0.9,2.8v1.7h4.5v-1.9c0-2.3-0.6-4.1-1.7-5.4
		C740.3,133.1,738.8,132.5,736.7,132.5z"/>
	<path class="st0" d="M758.3,132.5c-1.5,0-2.7,0.4-3.7,1.1c-0.9,0.8-1.5,1.8-1.8,3.1v-3.9h-4.4v19.8h4.5v-12.1
		c0-1.3,0.3-2.3,0.9-3.1c0.6-0.7,1.5-1.1,2.7-1.1c1.2,0,2,0.3,2.7,1c0.6,0.6,0.9,1.6,0.9,2.8v1.7h4.5v-1.9c0-2.3-0.6-4.1-1.7-5.4
		C761.9,133.1,760.4,132.5,758.3,132.5z"/>
	<path class="st0" d="M777.4,132.5c-2.5,0-4.6,0.7-6,2.1s-2.2,3.3-2.2,5.8v4.6c0,2.4,0.7,4.3,2.2,5.8c1.5,1.4,3.5,2.1,6,2.1
		s4.6-0.7,6-2.1c1.5-1.4,2.2-3.4,2.2-5.8v-4.6c0-2.4-0.7-4.4-2.2-5.8S779.9,132.5,777.4,132.5z M781.2,145.2c0,1.2-0.3,2.2-1,2.9
		s-1.6,1-2.8,1s-2.1-0.3-2.8-1s-1-1.6-1-2.9v-4.9c0-1.2,0.3-2.2,1-2.9s1.6-1,2.8-1s2.1,0.3,2.8,1s1,1.6,1,2.9V145.2z"/>
	<path class="st0" d="M806.3,134.4c-1.1-1.3-2.7-1.9-4.7-1.9c-1.5,0-2.7,0.4-3.7,1.1c-0.9,0.8-1.5,1.8-1.8,3.1v-3.9h-4.4v19.8h4.5
		v-12.1c0-1.3,0.3-2.3,0.9-3.1c0.6-0.7,1.5-1.1,2.7-1.1c1.2,0,2,0.3,2.7,1c0.6,0.6,0.9,1.6,0.9,2.8v1.7h4.5v-1.9
		C808,137.5,807.4,135.7,806.3,134.4z"/>
</g>
</svg>
