<svg xmlns="http://www.w3.org/2000/svg" viewBox="0 0 800 150"><style type="text/css">  
	.st0{display:none;}
	.st1{display:inline;fill:#FFFFFF;}
	.st2{display:inline;fill:#343A40;}
	.st3{display:inline;}
	.st4{fill:none;stroke:#343A40;stroke-width:2;stroke-linecap:round;stroke-linejoin:round;stroke-miterlimit:10;}
	.st5{display:inline;fill:none;stroke:#343A40;stroke-width:2;stroke-linecap:round;stroke-linejoin:round;stroke-miterlimit:10;}
	.st6{fill:#343A40;}
	.st7{fill:none;stroke:#FFFFFF;stroke-width:2;stroke-linecap:round;stroke-linejoin:round;stroke-miterlimit:10;}
	.st8{fill:#FFFFFF;}
	.st9{display:inline;fill:none;stroke:#343A40;stroke-width:7;stroke-linecap:round;stroke-linejoin:round;stroke-miterlimit:10;}
	.st10{display:inline;fill:none;stroke:#343A40;stroke-width:3;stroke-linecap:round;stroke-linejoin:round;stroke-miterlimit:10;}
	.st11{fill:none;stroke:#343A40;stroke-width:3;stroke-linecap:round;stroke-linejoin:round;stroke-miterlimit:10;}
	.st12{display:inline;fill:none;stroke:#343A40;stroke-miterlimit:10;}
	.st13{fill:none;stroke:#343A40;stroke-linecap:round;stroke-linejoin:round;stroke-miterlimit:10;}
</style><path class="st13" d="M658 109.4c23.9-1.5 44.8-6.2 68.1-11.8 3.9 17.2 6.7 34.7 8.6 52.2 -22.7 2-45.2 5.5-67.5 10.4C663.6 143.4 660.4 126.4 658 109.4z"/><path class="st13" d="M660.4 124.9c23-3.5 46.1-7.1 69.1-10.7"/><path class="st13" d="M674.1 107.9c1.3 17.2 4.4 33 7.7 49.3"/><path class="st13" d="M683.3 128.2c2.1-0.3 4.3-0.6 6.4-1"/><path class="st13" d="M695.1 126.1c2.1-0.3 4.3-0.6 6.4-1"/><path class="st13" d="M684.2 133.6c2.1-0.3 4.3-0.6 6.4-1"/><path class="st13" d="M696 131.6c2.1-0.3 4.3-0.6 6.4-1"/><path class="st13" d="M685.1 138.7c2.1-0.3 4.3-0.6 6.4-1"/><path class="st13" d="M696.9 136.7c2.1-0.3 4.3-0.6 6.4-1"/><path class="st13" d="M686.1 144.2c2.1-0.3 4.3-0.6 6.4-1"/><path class="st13" d="M697.9 142.1c2.1-0.3 4.3-0.6 6.4-1"/><path class="st13" d="M706.7 124.3c2.1-0.3 4.3-0.6 6.4-1"/><path class="st13" d="M707.6 129.7c2.1-0.3 4.3-0.6 6.4-1"/><path class="st13" d="M708.5 134.8c2.1-0.3 4.3-0.6 6.4-1"/><path class="st13" d="M709.5 140.2c2.1-0.3 4.3-0.6 6.4-1"/><path class="st13" d="M718.2 122.3c2.1-0.3 4.3-0.6 6.4-1"/><path class="st13" d="M719.2 127.7c2.1-0.3 4.3-0.6 6.4-1"/><path class="st13" d="M720 132.8c2.1-0.3 4.3-0.6 6.4-1"/><path class="st13" d="M721 138.2c2.1-0.3 4.3-0.6 6.4-1"/><path class="st13" d="M687 149.7c2.1-0.3 4.3-0.6 6.4-1"/><path class="st13" d="M698.8 147.6c2.1-0.3 4.3-0.6 6.4-1"/><path class="st13" d="M710.4 145.8c2.1-0.3 4.3-0.6 6.4-1"/><path class="st13" d="M721.9 143.8c2.1-0.3 4.3-0.6 6.4-1"/><path class="st13" d="M113.1 83.7c16.5 2.3 31.3 1.9 47.9 1.2 0.3 12.2-0.1 24.5-1.2 36.7 -15.7-1.7-31.5-2.4-47.3-2.1C112.3 107.6 112.5 95.6 113.1 83.7z"/><path class="st13" d="M112.7 94.6c16.1 0.7 32.3 1.4 48.4 2.1"/><path class="st13" d="M124.3 84.9c-1.5 11.9-1.5 23-1.5 34.6"/><path class="st13" d="M127.8 99.9c1.5 0.1 3 0.2 4.5 0.2"/><path class="st13" d="M136.1 100.1c1.5 0.1 3 0.2 4.5 0.2"/><path class="st13" d="M127.7 103.7c1.5 0.1 3 0.2 4.5 0.2"/><path class="st13" d="M136 103.9c1.5 0.1 3 0.2 4.5 0.2"/><path class="st13" d="M127.6 107.3c1.5 0.1 3 0.2 4.5 0.2"/><path class="st13" d="M135.9 107.6c1.5 0.1 3 0.2 4.5 0.2"/><path class="st13" d="M127.5 111.2c1.5 0.1 3 0.2 4.5 0.2"/><path class="st13" d="M135.8 111.4c1.5 0.1 3 0.2 4.5 0.2"/><path class="st13" d="M144.2 100.4c1.5 0.1 3 0.2 4.5 0.2"/><path class="st13" d="M144.1 104.3c1.5 0.1 3 0.2 4.5 0.2"/><path class="st13" d="M144 107.9c1.5 0.1 3 0.2 4.5 0.2"/><path class="st13" d="M143.9 111.7c1.5 0.1 3 0.2 4.5 0.2"/><path class="st13" d="M152.3 100.6c1.5 0.1 3 0.2 4.5 0.2"/><path class="st13" d="M152.2 104.5c1.5 0.1 3 0.2 4.5 0.2"/><path class="st13" d="M152.1 108.1c1.5 0.1 3 0.2 4.5 0.2"/><path class="st13" d="M152 111.9c1.5 0.1 3 0.2 4.5 0.2"/><path class="st13" d="M127.4 115c1.5 0.1 3 0.2 4.5 0.2"/><path class="st13" d="M135.7 115.2c1.5 0.1 3 0.2 4.5 0.2"/><path class="st13" d="M143.8 115.6c1.5 0.1 3 0.2 4.5 0.2"/><path class="st13" d="M151.9 115.8c1.5 0.1 3 0.2 4.5 0.2"/><path class="st13" d="M360.2 10.8C375.6 6.9 388.6 1.3 403.1-5.2c4.6 10.7 8.6 21.7 12 32.9 -14.5 4.1-28.7 9.1-42.6 14.9C368 32.2 363.9 21.5 360.2 10.8z"/><path class="st13" d="M363.7 20.5c14.5-5.1 29.1-10.2 43.6-15.3"/><path class="st13" d="M370.6 7.8c2.9 11.1 6.9 20.9 11 31.1"/><path class="st13" d="M379 19.9c1.4-0.5 2.7-0.9 4.1-1.4"/><path class="st13" d="M386.4 17.1c1.4-0.5 2.7-0.9 4.1-1.4"/><path class="st13" d="M380.3 23.3c1.4-0.5 2.7-0.9 4.1-1.4"/><path class="st13" d="M387.7 20.5c1.4-0.5 2.7-0.9 4.1-1.4"/><path class="st13" d="M381.5 26.5c1.4-0.5 2.7-0.9 4.1-1.4"/><path class="st13" d="M388.9 23.8c1.4-0.5 2.7-0.9 4.1-1.4"/><path class="st13" d="M382.7 29.9c1.4-0.5 2.7-0.9 4.1-1.4"/><path class="st13" d="M390.2 27.2c1.4-0.5 2.7-0.9 4.1-1.4"/><path class="st13" d="M393.7 14.5c1.4-0.5 2.7-0.9 4.1-1.4"/><path class="st13" d="M395 17.9c1.4-0.5 2.7-0.9 4.1-1.4"/><path class="st13" d="M396.2 21.1c1.4-0.5 2.7-0.9 4.1-1.4"/><path class="st13" d="M397.5 24.6c1.4-0.5 2.7-0.9 4.1-1.4"/><path class="st13" d="M401 11.8c1.4-0.5 2.7-0.9 4.1-1.4"/><path class="st13" d="M402.2 15.2c1.4-0.5 2.7-0.9 4.1-1.4"/><path class="st13" d="M403.4 18.4c1.4-0.5 2.7-0.9 4.1-1.4"/><path class="st13" d="M404.7 21.9c1.4-0.5 2.7-0.9 4.1-1.4"/><path class="st13" d="M384 33.4c1.4-0.5 2.7-0.9 4.1-1.4"/><path class="st13" d="M391.4 30.6c1.4-0.5 2.7-0.9 4.1-1.4"/><path class="st13" d="M398.8 28c1.4-0.5 2.7-0.9 4.1-1.4"/><path class="st13" d="M406 25.3c1.4-0.5 2.7-0.9 4.1-1.4"/><path class="st13" d="M240.3 53.4c-2.1-0.1-3.9 1.5-4 3.7l-1.9 39c-0.5 0.9-0.6 1.9-0.3 2.9l0.3 1c0.5 1.6 2 2.7 3.7 2.7 0.2 0 0.3 0 0.5 0 1.9-0.2 3.3-1.8 3.4-3.6l2-41.6C244.1 55.3 242.4 53.5 240.3 53.4z"/><path class="st13" d="M262.2 76c5.5-1.1 10-4.1 12.5-8.3 4.3-7.2 2.1-17.3-5.1-23 -5.6-4.5-13.8-6.2-22.3-4.6 -7.2 1.4-13.6 4.6-19.7 7.8 -1.9 1-2.6 3.3-1.7 5.2 1 1.9 3.3 2.6 5.2 1.7 5.7-2.9 11.5-5.9 17.6-7.1 6.3-1.2 12.2-0.1 16.1 3 3.6 2.9 5.8 8.8 3.3 13 -1.4 2.3-4.2 4.1-7.4 4.7 -2.9 0.6-6.3 0.4-10.7-0.5 -2.1-0.4-4.1 0.9-4.5 3 -0.4 2.1 0.9 4.1 3 4.5 2.2 0.5 5.2 1 8.5 1C258.6 76.5 260.4 76.4 262.2 76z"/><path class="st13" d="M282.5 94.6c-0.8-0.1-1.6 0-2.2 0.3 -0.4-1.9-0.5-3.8-0.2-5.7 0.5-1.3 0.8-2.5 1.1-3.9 0.4-1.9-0.8-3.8-2.7-4.4 -0.8-0.2-1.6-0.2-2.3 0.1 -0.1 0-0.1-0.1-0.2-0.1 -4.4-2.7-10.2-2.8-14.7-0.2 -4.5 2.6-7.3 7.6-7.2 12.8 0.1 3.8 1.8 7.1 4.5 8.9 3.7 2.3 8.7 1.6 13.2-1.7 0.6-0.5 1.2-1 1.8-1.5 0.5 1.3 1.5 2.8 3.2 3.8 0.9 0.5 2 0.8 3.1 0.8 0.9 0 1.8-0.2 2.7-0.6 1.7-0.8 2.8-2.3 3.1-4C286 96.9 284.6 94.9 282.5 94.6zM267 94.4c-1.7 1.3-3.6 1.9-4.4 1.4 -0.5-0.3-0.9-1.4-0.9-2.5 0-2.4 1.3-4.8 3.4-6 1-0.6 2.2-0.9 3.4-0.9 1.2 0 2.5 0.3 3.5 1 0.2 0.1 0.3 0.2 0.5 0.2C271.2 90.3 269.4 92.6 267 94.4z"/><path class="st13" d="M368.7 96.4c-1.1-0.5-2.1-1.7-2.5-3.1 -0.2-0.6-0.3-1.2-0.3-1.8 0.3-1 0.6-2 0.8-3 0.5-1.9-0.5-3.8-2.4-4.5 -0.6-0.2-1.2-0.3-1.8-0.2 -3.2-2.3-7.4-3-11.2-1.6 -4.6 1.7-7.8 6.4-7.7 11.3 0.1 3.4 1.7 6.5 4.3 8.3 4.3 2.8 9.8 1.4 13.2-1.8 1.2 1.5 2.6 2.6 4.3 3.4 0.5 0.3 1.1 0.4 1.6 0.4 1.4 0 2.8-0.8 3.5-2.2C371.5 99.6 370.6 97.3 368.7 96.4zM356.2 94c-1.1 1.3-3 1.9-3.9 1.3 -0.5-0.3-0.9-1.2-0.9-2.1 0-1.6 1.1-3.4 2.7-3.9 0.4-0.1 0.9-0.2 1.3-0.2 1 0 2.1 0.4 2.9 1.1C357.7 91.6 357.1 93 356.2 94z"/><path class="st13" d="M393.8 94.1c-2.1-3.8-6.5-4.4-8.6-4.7 -1.6-0.2-2.3-0.5-2.6-0.6 0.2-0.3 0.5-0.6 0.9-0.7 1.5-0.5 3.7 0.2 5.5 0.7 2 0.6 4.2-0.6 4.8-2.6 0.6-2-0.6-4.2-2.6-4.7 -2.6-0.7-6.2-1.8-9.9-0.6 -2.5 0.8-4.7 2.7-5.7 5.1 -0.9 2.1-0.9 4.3 0.1 6.2 2 4.1 6.7 4.7 8.7 5 2 0.3 2.6 0.6 2.8 0.7 0 0.1-0.1 0.3-0.3 0.5 -0.5 0.5-1.5 0.7-2.7 0.7 -1.5 0-3.1-0.5-4.4-1.2 -1.8-1.1-4.2-0.5-5.3 1.3 -1.1 1.8-0.5 4.2 1.3 5.3 2.5 1.5 5.4 2.3 8.3 2.3 0.1 0 0.1 0 0.2 0 3.1 0 5.7-0.9 7.7-2.7C394.7 101.4 395.5 97.3 393.8 94.1z"/><path class="st13" d="M311.3 81.4c-2.9-3.7-8.5-4.7-13.1-2.4 -1.5 0.7-2.8 1.8-3.9 3.1 -0.3-0.8-0.7-1.7-1.1-2.5 -0.9-1.9-3.2-2.7-5.1-1.7 -1.9 1-2.7 3.3-1.7 5.2 2.4 4.7 3.6 10 3.5 15.3 0 0.1 0 0.2 0 0.2 0 2.1 1.7 3.9 3.8 3.9 0 0 0.1 0 0.1 0 2.1 0 3.8-1.7 3.8-3.8 0-0.1 0-0.2 0-0.3 0.1-2.7 0.1-5.4 0.8-7.8 0.7-2.2 1.9-4 3.4-4.7 1.2-0.6 3-0.4 3.6 0.4 0.7 0.8 0.8 2.5 0.9 4.1 0.1 3 0.1 6-0.2 9 -0.2 2.1 1.4 4 3.5 4.1 0.1 0 0.2 0 0.3 0 2 0 3.7-1.5 3.8-3.5 0.3-3.3 0.3-6.6 0.2-9.9C313.7 87 313.3 84 311.3 81.4z"/><path class="st13" d="M340.4 62.2c0-2.1-1.7-3.8-3.8-3.9 -2.2 0-3.8 1.7-3.9 3.8 0 5.5 0.1 10.6 0.2 15.5 0 0.9 0 1.8 0.1 2.6 -1.4-0.6-3.2-1-5.4-0.9 -5.5 0.2-10.4 4.7-11.1 10.3 -0.7 5.2 2.2 10.6 7 13 1.9 1 4 1.4 6.2 1.4 2.8 0 5.7-0.8 8.2-2.5 1.8-1.2 2.2-3.6 1.1-5.3 1.1-0.7 1.8-1.9 1.9-3.3 0 0 0 0 0 0 0-5.5-0.1-10.6-0.2-15.5C340.5 72.7 340.4 67.6 340.4 62.2zM333.6 95.3c-2 1.3-4.6 1.6-6.6 0.6 -1.9-1-3.1-3.2-2.9-5.1 0.2-1.8 2-3.5 3.7-3.6 0.1 0 0.2 0 0.3 0 2 0 2.7 0.7 3.2 1.4 1.5 2.1 1.9 2.9 1.8 4.6v0c0 0.8 0.2 1.5 0.7 2.2C333.7 95.2 333.7 95.2 333.6 95.3z"/><path class="st13" d="M430.9 47.4c-1.8-1.1-4.2-1.1-6 0.1l-9.7 6.6c-2.5 1.7-3.2 5.1-1.5 7.6 1.6 2.4 4.9 3.1 7.4 1.7 -1.2 12.7-1.6 25.6-1.1 38.4 0.1 3 2.6 5.3 5.5 5.3 0 0 0 0 0.1 0 3 0 5.4-2.4 5.4-5.4l0.1-2.9c0-0.5-0.1-1.1-0.2-1.6 -0.4-14.8 0.5-29.6 2.6-44.2C433.7 50.7 432.7 48.5 430.9 47.4z"/><path class="st13" d="M526.6 81.9c-2.4-0.6-5.1-0.1-7.3 1.4 -0.7 0.5-1.2 1-1.7 1.5 -1.2-1.5-2.9-2.5-4.8-2.9 -3-0.6-6.4 0.6-8.5 2.9 -0.2 0.2-0.3 0.4-0.5 0.6 -0.5-1.8-1.2-3.5-1.9-5.2 -0.9-2-3.2-2.9-5.3-2.1 -2 0.9-2.9 3.2-2.1 5.3 2.9 6.5 3.8 13.6 2.9 20.5 -0.3 2.1 1.1 4 3.1 4.5 2 0.5 4.1-0.7 4.7-2.7 0.7-2.2 1.2-4.3 1.6-6.3 0.5-1.9 0.9-3.8 1.5-5.8 0.3-0.9 1.2-2.5 1.8-3.2 0.3-0.3 0.9-0.5 1.1-0.5 0.1 0 0.2 0.1 0.2 0.2 0.2 0.4 0.2 1.3 0.1 2 0 1.4 0 2.6 0 3.7 0 2.2 0 4.3-0.2 8.7 0 0.1 0 0.2 0 0.2 0 2.1 1.7 3.9 3.8 4 2.2 0.1 4.1-1.6 4.2-3.8 0.4-6.4 0.7-9.1 3.2-13.2 0.4-0.6 0.8-1.3 1.3-1.6 0.3-0.2 0.6-0.3 0.8-0.3 0.1 0.2 0.2 0.8 0.2 1.8 -0.1 2.6-0.2 5.1-0.2 7.5 -0.1 2.4-0.2 4.7-0.2 7.2 -0.1 2.2 1.7 4.1 3.9 4.1 0 0 0.1 0 0.1 0 2.2 0 3.9-1.7 4-3.9 0.1-2.5 0.2-4.8 0.2-7.2 0.1-2.5 0.2-5 0.3-7.5C532.9 84.3 528.5 82.4 526.6 81.9z"/><path class="st13" d="M543.3 69.9c-2.2-0.2-4.1 1.5-4.3 3.7l-0.1 1.5c-0.2 2.2 1.5 4.1 3.7 4.3 0.1 0 0.2 0 0.3 0 2.1 0 3.8-1.6 4-3.7l0.1-1.5C547.1 72 545.5 70.1 543.3 69.9z"/><path class="st13" d="M542.9 83.3c-2.2-0.1-4.1 1.6-4.2 3.8 -0.1 3-0.3 5.9-0.5 8.7 -0.2 3.9-0.4 7.5-0.5 10.5 -0.1 2.2 1.7 4.1 3.9 4.1 0 0 0.1 0 0.1 0 2.2 0 3.9-1.7 4-3.9 0.1-2.9 0.3-6.5 0.5-10.3 0.2-2.8 0.3-5.7 0.5-8.8C546.8 85.3 545.1 83.4 542.9 83.3z"/><path class="st13" d="M573 92.2c-0.6-1.9-1.5-4.2-3.8-6 -2.6-2.1-6.6-2.7-9.5-1.4 -1.3 0.6-2.3 1.4-3 2.2 -1-0.9-2.5-1.3-3.9-0.9 -2.1 0.7-3.3 2.9-2.6 5 1.5 4.8 1.7 7.7 2 15.3 0.1 2.1 1.8 3.8 3.9 3.8 0 0 0.1 0 0.1 0 2.1 0 3.8-1.6 4-3.7 0.1-1.8 0.2-3.3 0.3-4.6 0.2-4.3 0.3-6.1 1.9-9.1 0.3-0.6 0.5-0.8 0.5-0.8 0.3-0.1 1 0.1 1.4 0.3 0.4 0.4 0.8 1 1.1 2.1 1 3.4 1.4 6.9 0.9 10.4 -0.3 2.2 1.3 4.2 3.5 4.5 2.2 0.3 4.2-1.3 4.5-3.5C574.8 101.3 574.4 96.7 573 92.2z"/><path class="st13" d="M473.8 53.5c-8.6-4.7-15.7-3.1-20-1 -7.8 3.8-13.7 12.8-15.5 23.4 -1.4 8.5 0.5 16.9 5.2 23 4.5 5.9 11.5 9.3 18.5 9.3 1.5 0 3.1-0.2 4.6-0.5 6-1.4 11.5-5.6 15.5-11.8 4.5-7 6.3-15 5.2-22.6C486 64.8 481 57.4 473.8 53.5zM472.9 90c-1.4 2.2-4.4 6-8.8 7 -4.1 1-8.9-1-11.8-4.8 -2.8-3.7-4-9.1-3.1-14.5 1.2-7 5-13.1 9.5-15.3 1.3-0.6 2.6-0.9 4-0.9 1.9 0 3.9 0.6 6 1.7 4.1 2.2 7.1 6.7 7.9 11.8C477.2 79.9 475.9 85.3 472.9 90z"/><path class="st13" d="M20.1 80.2c6.3 4.1 9.1 13.5 5.2 20.1 -2.8 4.7-8.2 7.1-13.4 7.8 -5.6 0.8-11.5-0.1-16.2-3.4 -4.6-3.3-7.7-9.2-6.8-14.9C-9.2 77.4 11.7 74.8 20.1 80.2z"/><path class="st13" d="M16.6 109.4c-2-5.4-6.6-9.6-11.9-11.4 -3.9-1.3-8.2-1.3-11.9 0.5 -6.8 3.3-9.9 12.4-7.4 19.7 2.4 6.9 11.4 14.6 18.8 13.7C14.5 130.6 20.1 118.8 16.6 109.4z"/><path class="st13" d="M38.3 119.6c2.6-5 2.4-11.4-0.3-16.3 -2.7-4.9-7.8-8.4-13.3-9.2 -7-1.1-14.6 2.4-18.4 8.6 -3.8 6.3-3.3 15 1.4 20.6C15.5 132.4 32.7 130.2 38.3 119.6z"/><path class="st13" d="M581.8-3.1c4.1 2.7 6 8.8 3.4 13.1 -1.8 3-5.3 4.6-8.8 5.1 -3.6 0.5-7.5-0.1-10.5-2.2 -3-2.1-5-6-4.4-9.7C562.6-5 576.3-6.7 581.8-3.1z"/><path class="st13" d="M579.5 15.9c-1.3-3.5-4.3-6.3-7.8-7.4 -2.5-0.8-5.3-0.8-7.7 0.3 -4.4 2.1-6.4 8.1-4.8 12.8 1.6 4.5 7.5 9.5 12.3 8.9C578.1 29.7 581.8 22 579.5 15.9z"/><path class="st13" d="M593.7 22.5c1.7-3.3 1.6-7.4-0.2-10.7s-5.1-5.5-8.6-6c-4.6-0.7-9.5 1.5-12 5.6 -2.4 4.1-2.1 9.8 0.9 13.4C578.8 30.9 590 29.4 593.7 22.5z"/><path class="st13" d="M189.6 29.2c0.7 1 2 1.5 3.2 1.4 1.2-0.1 2.4-1 2.9-2.1 0.5-1.2 0.3-2.6-0.6-3.5C192.4 21.8 187.1 25.9 189.6 29.2z"/><path class="st13" d="M315.5 31.2c0.7 1 2 1.5 3.2 1.4 1.2-0.1 2.4-1 2.9-2.1 0.5-1.2 0.3-2.6-0.6-3.5C318.3 23.8 313 27.9 315.5 31.2z"/><path class="st13" d="M509.2 45.1c0.7 1 2 1.5 3.2 1.4 1.2-0.1 2.4-1 2.9-2.1 0.5-1.2 0.3-2.6-0.6-3.5C511.9 37.7 506.7 41.8 509.2 45.1z"/><path class="st13" d="M613.9 59.8c0.7 1 2 1.5 3.2 1.4 1.2-0.1 2.4-1 2.9-2.1 0.5-1.2 0.3-2.6-0.6-3.5C616.6 52.3 611.4 56.4 613.9 59.8z"/><path class="st13" d="M606.9 129.8c0.7 1 2 1.5 3.2 1.4 1.2-0.1 2.4-1 2.9-2.1 0.5-1.2 0.3-2.6-0.6-3.5C609.7 122.4 604.4 126.5 606.9 129.8z"/><path class="st13" d="M708.1 77.7c0.7 1 2 1.5 3.2 1.4 1.2-0.1 2.4-1 2.9-2.1 0.5-1.2 0.3-2.6-0.6-3.5C710.9 70.3 705.6 74.4 708.1 77.7z"/><path class="st13" d="M794.3 101.6c0.7 1 2 1.5 3.2 1.4 1.2-0.1 2.4-1 2.9-2.1 0.5-1.2 0.3-2.6-0.6-3.5C797 94.2 791.8 98.2 794.3 101.6z"/><path class="st13" d="M363.2 129.8c0.7 1 2 1.5 3.2 1.4 1.2-0.1 2.4-1 2.9-2.1 0.5-1.2 0.3-2.6-0.6-3.5C366 122.4 360.7 126.5 363.2 129.8z"/><path class="st13" d="M463.4 133.2c0.7 1 2 1.5 3.2 1.4 1.2-0.1 2.4-1 2.9-2.1 0.5-1.2 0.3-2.6-0.6-3.5C466.2 125.8 460.9 129.9 463.4 133.2z"/><path class="st13" d="M70 109c0.7 1 2 1.5 3.2 1.4 1.2-0.1 2.4-1 2.9-2.1 0.5-1.2 0.3-2.6-0.6-3.5C72.8 101.5 67.5 105.6 70 109z"/><path class="st13" d="M198.5 118.1c0.7 1 2 1.5 3.2 1.4 1.2-0.1 2.4-1 2.9-2.1 0.5-1.2 0.3-2.6-0.6-3.5C201.3 110.6 196 114.7 198.5 118.1z"/><path class="st13" d="M712.1-11.3c-4 11.8-8 23.6-12.1 35.4 17.2 6.1 34.7 11.4 52.4 15.9"/><path class="st13" d="M719.3 24.2c-3.5-1.1-7.1-2.2-10.6-3.3 2.5-6 5.1-13.4 7.5-19.3 3.2 0.7 6.6 1.7 9.6 3C724.2 9.8 721 18.3 719.3 24.2z"/><path class="st13" d="M734.9 29c-3.5-1.1-6.5-2-10-3.1 2.5-6 7.6-23.8 10.1-29.8 3.2 0.7 6.6 1.7 9.6 3C743 4.4 736.6 23.1 734.9 29z"/><path class="st13" d="M745.2 16.9c4.1 1.3 6.7 1.4 10.1 3.1 -1.5 3.8-5.2 13.6-5.2 13.6l-9.5-3C740.6 30.7 743.9 21.1 745.2 16.9z"/><path class="st13" d="M42.8 24.5c4.2 8.6 8.4 17.1 12.6 25.6 12.6-6 24.9-12.5 36.9-19.7"/><path class="st13" d="M65.8 39.8c-2.5 1.3-5 2.6-7.5 3.9 -1.9-4.6-4.5-9.9-6.4-14.5 2.1-1.3 4.5-2.7 6.8-3.5C60.7 29.4 63.5 35.7 65.8 39.8z"/><path class="st13" d="M76.8 34c-2.5 1.3-4.6 2.4-7.1 3.7 -1.9-4.6-8.7-17-10.6-21.5 2.1-1.3 4.5-2.7 6.8-3.5C67.9 16.3 74.6 29.9 76.8 34z"/><path class="st13" d="M75.9 21.9c2.9-1.5 4.4-2.9 7.2-3.8 1.3 2.9 4.6 10.2 4.6 10.2l-6.8 3.5C80.8 31.8 77.4 24.9 75.9 21.9z"/><path class="st13" d="M-15 35.5c14.2-1.1 32-2.4 52.8-3.6"/><path class="st13" d="M99.5 29.1c24.9-0.9 52.2-1.5 81.3-1.8"/><path class="st13" d="M203.7 27.2c33.2-0.1 68.4 0.4 105 1.5"/><path class="st13" d="M327 29.4c11.1 0.4 22.4 0.9 33.7 1.5"/><path class="st13" d="M416.4 34.2c28.7 2 57.8 4.6 87 7.8"/><path class="st13" d="M521.4 44c29.7 3.5 59.3 7.6 88.7 12.4"/><path class="st13" d="M624.9 58.9c25.8 4.5 51.3 9.5 76.4 15.2"/><path class="st13" d="M719.8 78.5c23.7 5.8 47 12.1 69.6 19.1"/><path class="st13" d="M47.2 106.2c6.1 0.2 12.3 0.4 18.7 0.7"/><path class="st13" d="M80.9 107.6c8.2 0.4 16.5 0.9 25.1 1.5"/><path class="st13" d="M166 113.4c8.7 0.7 17.6 1.4 26.5 2.1"/><path class="st13" d="M211.6 117c45.7 3.6 94.6 7.5 145.4 10.2"/><path class="st13" d="M374.9 128.2c27.6 1.3 55.7 2.3 84.1 2.8"/><path class="st13" d="M473.6 131.1c42.6 0.4 85.8-0.5 129.2-3.2"/><path class="st13" d="M617 126.9c11.6-0.9 23.2-1.8 34.8-3"/><path class="st13" d="M740 111.9c16.7-2.9 33.3-6.2 49.8-10"/><path class="st13" d="M596.8 28.2c6.8 7.5 12.7 15.5 17.3 23.7"/><path class="st13" d="M620.1 64.9c6.8 18.5 6.4 38-6.3 56.9"/><path class="st13" d="M603.8 133.9c-7.8 8-18 15.8-31.1 23.3"/><path class="st13" d="M703.2 97c1.7-4.6 3.4-9.3 5.1-14.1"/><path class="st13" d="M714 67.3c3.2-8.7 6.3-17.3 9.2-25.4"/><path class="st13" d="M183.5-5.8c2.9 6.2 5.6 15.1 7.8 25.6"/><path class="st13" d="M194.3 35.7c3.7 22.7 6.1 49.6 6.8 72.9"/><path class="st13" d="M201.3 123.4c0 16-1 29.2-3 36.2"/><path class="st13" d="M85.2 158.8c-4.5-9.5-8.3-25.5-11.2-43.9"/><path class="st13" d="M71.8 98.5c-1.9-15.7-3.2-32.4-3.9-47.8"/><path class="st13" d="M68.1 8.7c0.5-6.4 1.3-11.6 2.3-15.2"/><path class="st13" d="M292-8.6c6 0.8 14.1 13.5 23.5 31.8"/><path class="st13" d="M321.5 35.3c3.1 6.3 6.2 13.1 9.5 20"/><path class="st13" d="M355.8 108.1c2.1 4.3 4.2 8.4 6.3 12.3"/><path class="st13" d="M370.2 134.7c9.1 15.1 17.5 25.1 24.5 24.9"/><path class="st13" d="M426.2 163.1c12.6-5.4 24.5-14.8 35.1-26.4"/><path class="st13" d="M471 125.2c7.5-9.8 14.3-20.5 20.3-31.7"/><path class="st13" d="M501.4 72.7c3.4-7.8 6.3-15.5 8.8-23"/><path class="st13" d="M513.9 37.3c5.4-20.1 6.8-37.1 3.2-45.8"/></svg>