<?xml version="1.0" encoding="utf-8"?>
<!-- Generator: Adobe Illustrator 28.2.0, SVG Export Plug-In . SVG Version: 6.00 Build 0)  -->
<svg version="1.1" id="Layer_1" xmlns="http://www.w3.org/2000/svg" xmlns:xlink="http://www.w3.org/1999/xlink" x="0px" y="0px"
	 viewBox="0 0 800 150" style="enable-background:new 0 0 800 150;" xml:space="preserve">
<style type="text/css">
	.st0{display:none;}
	.st1{display:inline;fill:none;stroke:#ADADAD;stroke-width:3;stroke-miterlimit:10;}
	.st2{fill:none;stroke:#343A40;stroke-linecap:round;stroke-linejoin:round;stroke-miterlimit:10;}
</style>
<g id="Layer_3" class="st0">
	<path class="st1" d="M611.5,83.4v5l-0.4,1.3c-0.1,0.2-0.1,0.5-0.2,0.7v0c-1.5,5-3.9,8.8-7.3,11.3c-1.7,1.3-3.7,2.3-5.9,3
		c-1.8,0.6-3.8,1-6,1.2l-0.1,0c-0.9,0.1-1.8,0.1-2.8,0.2c-2.8,0.2-5.4,0.2-7.5,0.2c-1.3,0-2.7,0-4,0c-1.3,0-2.5,0-3.8,0
		c-0.6,0-1.2,0-1.7,0c-0.8,0-1.6,0-2.4,0c-0.2,0-0.4,0-0.5,0c-4.5,0-7.3-2-8.9-3.6c-0.5-0.5-0.9-1.1-1.4-1.8c-4,2.8-8.9,4.5-14.4,5
		c-1.9,0.2-3.7,0.2-5.4,0.3h0c-1.3,0-2.6,0-3.8,0c-0.9,0-1.9,0-2.8,0c-0.9,0-1.8,0-2.7,0c-1.3,0-2.5,0-3.5,0c-0.2,0-0.4,0-0.6,0
		c-0.2,0-0.3,0-0.5,0c-2.8,0-5.3-0.8-7.3-2.2c-0.8,0.6-1.7,1.1-2.6,1.4c-1.4,0.6-3,0.9-4.7,0.9h-2.7c-1,0-3.1,0-5.5-0.9
		c-1.9,0.6-3.7,0.9-5.6,1.1c-0.8,0.1-1.7,0.1-2.5,0.1c-3.8,0-7.4-0.8-10.6-2.4c-1.4,0.9-3.2,1.6-5.5,1.9c-0.1,0-0.3,0-0.4,0.1
		c-1.3,0.2-2.6,0.3-3.8,0.3c-1.2,0-2.4-0.1-3.6-0.3c-2.4-0.5-4.5-1.4-6.3-2.8c-1.7-1.3-3.1-2.9-4.1-4.9c-0.7,1.8-1.6,3.1-2.5,4
		c-1.6,1.7-4.6,3.7-9.4,3.7h-0.1c-0.5,0-1,0-1.5,0c-1.4,0-4.4,0-7.3-1.6c-0.9,0.5-1.8,0.9-2.9,1.1c-1.1,0.3-2.2,0.4-3.4,0.4H431
		c-0.4,0-0.8,0-1.1,0h-0.1c-2.1,0-3.9-0.4-5.4-1c-2.8,0.8-5.5,1.2-8.2,1.2c-3.7,0-7.2-0.8-10.4-2.3c-0.9,0.6-2.1,1.2-3.5,1.6
		c-1,0.3-2.2,0.4-3.4,0.4c-0.4,0-0.7,0-1.1,0c-0.2,0-0.3,0-0.5,0c-6.4,0-10.3-1.8-12.6-6.1c-2.1,3.2-4.8,4.7-7.3,5.4
		c-1.9,0.6-3.7,0.7-4.6,0.8l-0.4,0h-0.6c-1.7,0-3.4-0.3-4.9-0.8c-2.8-1-5.1-2.8-6.8-5.4c-1.8,3.2-5.1,6.2-11.6,6.2c-0.6,0-1.2,0-2,0
		l-0.4,0c-3.3-0.1-5.7-1.1-7.4-2.4c-1-0.7-1.7-1.5-2.3-2.2c-2.2-2.9-2.8-6.5-1.9-10.6l0.1-0.2c0.3-1.1,0.6-2.2,0.9-3.2
		c0.5-1.8,0.9-3.5,1.4-5.2c0.2-0.8,0.4-1.5,0.6-2.3c-0.2,0.8-0.5,1.5-0.7,2.3c-0.1,0.3-0.2,0.6-0.3,0.9c-0.5,1.6-1,3.2-1.6,4.8
		c-2.4,6.5-5.7,13.3-11.3,19.3c-2.3,2.5-5.1,4.7-8.3,6.4l-0.2,0.1l-0.3,0.1c-0.7,0.3-1.5,0.7-2.6,1c-0.4,0.7-0.9,1.3-1.4,2
		c-2.3,3.3-4.9,6.1-7.8,8.5c-4.9,4.2-10.7,7-17.2,8.6c-0.6,0.2-1.4,0.4-2.2,0.5l-0.3,0.1c-0.8,0.1-2,0.4-3.3,0.4
		c-4,0-7.5-1.9-9.6-5.1l-0.1-0.2c-0.1-0.2-0.4-0.7-0.8-1.5c-0.8-2-1.7-5.8,0.6-9.6c-2.5-0.3-4.8-0.6-7-0.9c-0.8-0.1-1.6-0.2-2.3-0.3
		c-2.7-0.3-5.1-0.4-7.3-0.4c-1.1,0-2.2,0-3.3,0.1c0,0-0.1,0-0.1,0c-1.6,0.1-3.1,0.5-4.9,1.2c-1.7,0.7-3.6,1.8-5.7,3.2
		c-5.2,3.5-11,6.7-18.4,10.1c-3.4,1.6-6.8,2.5-9.8,3.3l-1.3,0.3h-12.9l-3-4.6c-0.1-0.1-0.1-0.2-0.2-0.3c-1.1-1.9-1.8-3.9-1.9-6
		c-0.1-2.2,0.3-4.5,1.4-6.7l-4.1-1.8l-0.8-5.5c-0.2-1.2-0.2-2.1-0.2-2.6v-3.5l2.2-2.7c3.9-4.8,9.1-7.3,15.6-7.3h0.2
		c0.2,0,0.4,0,0.6,0c0.6,0,1.1,0.1,1.6,0.1h0c1.1,0.1,2.2,0.2,3.2,0.3c0.4,0.1,0.9,0.1,1.3,0.2l0.2,0c1.3,0.2,2.6,0.4,3.7,0.6
		c1.5,0.3,2.9,0.5,4.1,0.6c0.7-0.8,1.4-1.8,2.1-2.8c1.5-2,3.1-4.3,5.3-6.4c5.8-5.8,12.4-9.9,20.2-12.7c0.1-0.1,0.3-0.1,0.4-0.1
		c1.3-0.4,2.6-0.9,3.9-1.3c2.8-0.9,5.6-1.8,8.3-2.7c3.9-1.3,7.8-2.5,11.5-3.8c2.8-1,5.6-2,8.3-3.1c1.5-0.6,2.9-1.3,4.2-2
		c4.9-2.8,8.6-6.6,11.6-11.7l0.8-1.5c1.6-2.8,3.2-5.7,5-8.5c0.4-0.6,0.7-1.2,1.1-1.8c0.5-0.8,1-1.5,1.5-2.3c0.7-1.1,1.5-2.2,2.3-3.2
		l0.1-0.1c5.7-7.2,13-11.8,21.4-13.3c2.2-0.4,4.5-0.6,6.9-0.6l0.5,0c1.1,0,2.5-0.4,4-1c0.8-0.3,1.7-0.7,2.6-1.1
		c0.6-0.2,1.2-0.5,1.7-0.7l1.8-0.7h4.7l1.6,0.6c1,0.4,1.9,0.8,2.7,1.3c3.9,2.4,6.1,6.6,6.1,11.7c0,2.7-0.4,5.3-1.1,7.7
		c-0.8,2.7-2.1,5.2-3.8,7.5v0c-1.1,1.4-2.3,2.7-3.7,3.9l-0.1,0.1c-1,0.8-2,1.6-3,2.3c1.8-0.7,3.9-1,6.6-1h0.7
		c3.9,0,9.2,1.5,12.4,8.4c0,0,0,0.1,0.1,0.2c0.6,1.3,1.2,2.7,1.8,4c0.1,0.3,0.2,0.5,0.4,0.8c0.2-0.5,0.5-1.1,0.7-1.6
		c0.5-1.1,1-2.2,1.4-3.3c0-0.1,0.1-0.2,0.1-0.3c0.4-0.9,0.8-1.7,1.3-2.4c2.5-3.8,6.5-5.9,11.3-5.9c0.6,0,1.1,0,1.7,0.1
		c0.1,0,0.3,0,0.4,0c0.2,0,0.5,0,0.7,0c0.5,0,1.2,0,2,0.2l4.4,1.7c1.2,0.7,2.3,1.8,3.3,3.2c1,1.4,1.7,3.1,2.2,5.3l0,0.2
		c0.2,0.9,0.5,1.8,0.7,2.8c0.5-0.3,0.9-0.6,1.4-0.8c2.7-1.4,5.7-2.4,8.9-2.8c1.2-0.2,2.4-0.2,3.6-0.2c2.8,0,5.5,0.4,8.2,1.2
		c0.8-0.3,1.6-0.5,2.4-0.6l0.8-0.1c0.8-0.1,1.7-0.2,2.8-0.2c0.2,0,0.4,0,0.6,0c2.6,0,5.1,0.6,7.2,1.7c1.8-1,4-1.6,6.2-1.6
		c0.4,0,0.8,0,1.2,0h0.3c1.8,0,4,0,6.2,0.8c1.6-0.6,3.2-1,4.9-1.2c0.4-1.5,1.1-3,2-4.2c1.8-2.6,4.5-4.5,7.7-5.3
		c1.1-0.3,2.2-0.4,3.4-0.5h0.4c3.8,0,7.2,1.4,9.6,3.7c2.1,2,3.6,4.7,4.1,7.8c2.7-1,5.6-1.5,8.6-1.5c1.3,0,2.6,0.1,3.9,0.3
		c1.6,0.2,3.3,0.6,4.9,1.1c0.8-0.3,1.6-0.5,2.4-0.6c1.2-0.2,2.7-0.4,4.4-0.4c1.3,0,2.5,0.1,3.6,0.4c0.4-2.7,1.5-4.8,3.1-6.5
		c2.3-2.5,5.6-3.6,8.7-3.6c0.2,0,0.3,0,0.5,0c0.8,0,1.7,0,2.5,0c1.4,0,2.8,0,4.2,0c1.1,0,2.2,0,3.3,0c0.4,0,0.8,0,1.2,0
		c3.8,0,6.8,0.2,9.7,0.5c4.2,0.6,8,2,11.3,3.9h0c0.5,0.3,1,0.6,1.5,1c0.5-0.8,1-1.4,1.6-2c2.3-2.2,5.3-3.3,8.4-3.3h0.2
		c0.4,0,0.8,0,1.2,0h0c0.2,0,0.5,0,0.7,0c0.5,0,1,0,1.4,0c0.5,0,0.9,0,1.4,0h0c0.8,0,1.6,0,2.4,0c1.9,0,3.8-0.1,5.7-0.1
		c3.1,0,5.7,0.1,8.1,0.3c1.2,0.1,2.3,0.2,3.4,0.4c4.5,0.6,8.4,2.4,11.3,5.2c0.9,0.8,1.7,1.7,2.3,2.7c2,2.8,3.1,6.1,3.3,9.7
		c0.1,1.9,0,3.8-0.4,5.7c-0.2,0.9-0.5,2-0.9,3c1,1.9,1.9,4.1,2.4,6.7L611.5,83.4z"/>
</g>
<g>
	<path class="st2" d="M29.8,44.7C29.8,33.5,20.4,24.4,9,25C-1.5,25.6-9.8,34.5-9.7,45c0.1,6.8,3.6,12.7,8.9,16.2
		c2.3,1.5,3.7,4.1,3.7,6.9l0,7.5c0,3.1,2.2,5.3,4.9,5.3h4.5c2.7,0,4.9-2.2,4.9-4.9v-7.9c0-2.8,1.4-5.3,3.7-6.8
		C26.3,57.7,29.8,51.6,29.8,44.7z"/>
	<line class="st2" x1="2.9" y1="68.1" x2="11.3" y2="68.1"/>
	<line class="st2" x1="2.9" y1="72" x2="11.3" y2="72"/>
	<line class="st2" x1="2.9" y1="75.9" x2="11.3" y2="75.9"/>
	<line class="st2" x1="13.8" y1="68.1" x2="17.2" y2="68.1"/>
	<line class="st2" x1="13.8" y1="72" x2="17.2" y2="72"/>
	<line class="st2" x1="13.8" y1="75.9" x2="17.2" y2="75.9"/>
	<path class="st2" d="M-1.7,54.7c-0.6-0.7-1.1-1.4-1.6-2.2"/>
	<path class="st2" d="M24.4,39.1c0.2,0.5,0.3,0.9,0.5,1.4"/>
	<path class="st2" d="M14.1,29.9c3.9,1.1,7.3,3.7,9.3,7.2"/>
	<path class="st2" d="M12.7,80.9c0,1.4-1.2,2.6-2.6,2.6s-2.6-1.2-2.6-2.6"/>
</g>
<g>
	<path class="st2" d="M116.4,44.7c0-11.3-9.4-20.3-20.8-19.7c-10.5,0.6-18.8,9.5-18.7,20c0.1,6.8,3.6,12.7,8.9,16.2
		c2.3,1.5,3.7,4.1,3.7,6.9l0,7.5c0,3.1,2.2,5.3,4.9,5.3h4.5c2.7,0,4.9-2.2,4.9-4.9v-7.9c0-2.8,1.4-5.3,3.7-6.8
		C112.8,57.7,116.4,51.6,116.4,44.7z"/>
	<line class="st2" x1="89.4" y1="68.1" x2="97.8" y2="68.1"/>
	<line class="st2" x1="89.4" y1="72" x2="97.8" y2="72"/>
	<line class="st2" x1="89.4" y1="75.9" x2="97.8" y2="75.9"/>
	<line class="st2" x1="100.4" y1="68.1" x2="103.8" y2="68.1"/>
	<line class="st2" x1="100.4" y1="72" x2="103.8" y2="72"/>
	<line class="st2" x1="100.4" y1="75.9" x2="103.8" y2="75.9"/>
	<path class="st2" d="M84.8,54.7c-0.6-0.7-1.1-1.4-1.6-2.2"/>
	<path class="st2" d="M111,39.1c0.2,0.5,0.3,0.9,0.5,1.4"/>
	<path class="st2" d="M100.7,29.9c3.9,1.1,7.3,3.7,9.3,7.2"/>
	<path class="st2" d="M99.2,80.9c0,1.4-1.2,2.6-2.6,2.6S94,82.3,94,80.9"/>
</g>
<g>
	<path class="st2" d="M289.5,44.7c0-11.3-9.4-20.3-20.8-19.7c-10.5,0.6-18.8,9.5-18.7,20c0.1,6.8,3.6,12.7,8.9,16.2
		c2.3,1.5,3.7,4.1,3.7,6.9v7.5c0,3.1,2.2,5.3,4.9,5.3h4.5c2.7,0,4.9-2.2,4.9-4.9v-7.9c0-2.8,1.4-5.3,3.7-6.8
		C286,57.7,289.5,51.6,289.5,44.7z"/>
	<line class="st2" x1="262.6" y1="68.1" x2="271" y2="68.1"/>
	<line class="st2" x1="262.6" y1="72" x2="271" y2="72"/>
	<line class="st2" x1="262.6" y1="75.9" x2="271" y2="75.9"/>
	<line class="st2" x1="273.5" y1="68.1" x2="276.9" y2="68.1"/>
	<line class="st2" x1="273.5" y1="72" x2="276.9" y2="72"/>
	<line class="st2" x1="273.5" y1="75.9" x2="276.9" y2="75.9"/>
	<path class="st2" d="M257.9,54.7c-0.6-0.7-1.1-1.4-1.6-2.2"/>
	<path class="st2" d="M284.1,39.1c0.2,0.5,0.3,0.9,0.5,1.4"/>
	<path class="st2" d="M273.8,29.9c3.9,1.1,7.3,3.7,9.3,7.2"/>
	<path class="st2" d="M272.4,80.9c0,1.4-1.2,2.6-2.6,2.6s-2.6-1.2-2.6-2.6"/>
</g>
<g>
	<path class="st2" d="M388.4,23.7c0-18.3-15.3-33-33.8-32c-17,0.9-30.5,15.4-30.3,32.4c0.1,11,5.8,20.7,14.4,26.4
		c3.8,2.5,6.1,6.6,6.1,11.1l0,12.2c0,5.1,3.6,8.7,8,8.7h7.2c4.4,0,8-3.6,8-8V61.6c0-4.5,2.3-8.6,6-11.1
		C382.6,44.8,388.4,34.9,388.4,23.7z"/>
	<line class="st2" x1="344.7" y1="61.6" x2="358.3" y2="61.6"/>
	<line class="st2" x1="344.7" y1="67.9" x2="358.3" y2="67.9"/>
	<line class="st2" x1="344.7" y1="74.3" x2="358.3" y2="74.3"/>
	<line class="st2" x1="362.4" y1="61.6" x2="367.9" y2="61.6"/>
	<line class="st2" x1="362.4" y1="67.9" x2="367.9" y2="67.9"/>
	<line class="st2" x1="362.4" y1="74.3" x2="367.9" y2="74.3"/>
	<path class="st2" d="M337.2,39.9c-1-1.1-1.8-2.4-2.6-3.6"/>
	<path class="st2" d="M379.7,14.6c0.3,0.8,0.6,1.5,0.8,2.3"/>
	<path class="st2" d="M363-0.5c6.4,1.8,11.8,6,15,11.6"/>
	<path class="st2" d="M360.5,82.4c0,2.3-1.9,4.2-4.2,4.2c-2.3,0-4.2-1.9-4.2-4.2"/>
</g>
<g>
	<path class="st2" d="M561.5,23.7c0-18.3-15.3-33-33.8-32c-17,0.9-30.5,15.4-30.3,32.4c0.1,11,5.8,20.7,14.4,26.4
		c3.8,2.5,6.1,6.6,6.1,11.1v12.2c0,5.1,3.6,8.7,8,8.7h7.2c4.4,0,8-3.6,8-8V61.6c0-4.5,2.3-8.6,6-11.1
		C555.8,44.8,561.5,34.9,561.5,23.7z"/>
	<line class="st2" x1="517.8" y1="61.6" x2="531.4" y2="61.6"/>
	<line class="st2" x1="517.8" y1="67.9" x2="531.4" y2="67.9"/>
	<line class="st2" x1="517.8" y1="74.3" x2="531.4" y2="74.3"/>
	<line class="st2" x1="535.5" y1="61.6" x2="541.1" y2="61.6"/>
	<line class="st2" x1="535.5" y1="67.9" x2="541.1" y2="67.9"/>
	<line class="st2" x1="535.5" y1="74.3" x2="541.1" y2="74.3"/>
	<path class="st2" d="M510.3,39.9c-1-1.1-1.8-2.4-2.6-3.6"/>
	<path class="st2" d="M552.8,14.6c0.3,0.8,0.6,1.5,0.8,2.3"/>
	<path class="st2" d="M536.1-0.5c6.4,1.8,11.8,6,15,11.6"/>
	<path class="st2" d="M533.7,82.4c0,2.3-1.9,4.2-4.2,4.2s-4.2-1.9-4.2-4.2"/>
</g>
<g>
	<path class="st2" d="M648.1,23.7c0-18.3-15.3-33-33.8-32c-17,0.9-30.5,15.4-30.3,32.4c0.1,11,5.8,20.7,14.4,26.4
		c3.8,2.5,6.1,6.6,6.1,11.1l0,12.2c0,5.1,3.6,8.7,8,8.7h7.2c4.4,0,8-3.6,8-8V61.6c0-4.5,2.3-8.6,6-11.1
		C642.3,44.8,648.1,34.9,648.1,23.7z"/>
	<line class="st2" x1="604.4" y1="61.6" x2="618" y2="61.6"/>
	<line class="st2" x1="604.4" y1="67.9" x2="618" y2="67.9"/>
	<line class="st2" x1="604.4" y1="74.3" x2="618" y2="74.3"/>
	<line class="st2" x1="622.1" y1="61.6" x2="627.6" y2="61.6"/>
	<line class="st2" x1="622.1" y1="67.9" x2="627.6" y2="67.9"/>
	<line class="st2" x1="622.1" y1="74.3" x2="627.6" y2="74.3"/>
	<path class="st2" d="M596.9,39.9c-1-1.1-1.8-2.4-2.6-3.6"/>
	<path class="st2" d="M639.4,14.6c0.3,0.8,0.6,1.5,0.8,2.3"/>
	<path class="st2" d="M622.7-0.5c6.4,1.8,11.8,6,15,11.6"/>
	<path class="st2" d="M620.2,82.4c0,2.3-1.9,4.2-4.2,4.2c-2.3,0-4.2-1.9-4.2-4.2"/>
</g>
<g>
	<path class="st2" d="M215.3,23.7c0-18.3-15.3-33-33.8-32c-17,0.9-30.5,15.4-30.3,32.4c0.1,11,5.8,20.7,14.4,26.4
		c3.8,2.5,6.1,6.6,6.1,11.1v12.2c0,5.1,3.6,8.7,8,8.7h7.2c4.4,0,8-3.6,8-8V61.6c0-4.5,2.3-8.6,6-11.1
		C209.5,44.8,215.3,34.9,215.3,23.7z"/>
	<line class="st2" x1="171.6" y1="61.6" x2="185.2" y2="61.6"/>
	<line class="st2" x1="171.6" y1="67.9" x2="185.2" y2="67.9"/>
	<line class="st2" x1="171.6" y1="74.3" x2="185.2" y2="74.3"/>
	<line class="st2" x1="189.3" y1="61.6" x2="194.8" y2="61.6"/>
	<line class="st2" x1="189.3" y1="67.9" x2="194.8" y2="67.9"/>
	<line class="st2" x1="189.3" y1="74.3" x2="194.8" y2="74.3"/>
	<path class="st2" d="M164,39.9c-1-1.1-1.8-2.4-2.6-3.6"/>
	<path class="st2" d="M206.5,14.6c0.3,0.8,0.6,1.5,0.8,2.3"/>
	<path class="st2" d="M189.8-0.5c6.4,1.8,11.8,6,15,11.6"/>
	<path class="st2" d="M187.4,82.4c0,2.3-1.9,4.2-4.2,4.2s-4.2-1.9-4.2-4.2"/>
</g>
<g>
	<path class="st2" d="M197.4,130c0,18.3,15.3,33,33.8,32c17-0.9,30.5-15.4,30.3-32.4c-0.1-11-5.8-20.7-14.4-26.4
		c-3.8-2.5-6.1-6.6-6.1-11.1l0-12.2c0-5.1-3.6-8.7-8-8.7h-7.2c-4.4,0-8,3.6-8,8v12.8c0,4.5-2.3,8.6-6,11.1
		C203.1,109,197.4,118.8,197.4,130z"/>
	<line class="st2" x1="241.1" y1="92.1" x2="227.5" y2="92.1"/>
	<line class="st2" x1="241.1" y1="85.8" x2="227.5" y2="85.8"/>
	<line class="st2" x1="241.1" y1="79.4" x2="227.5" y2="79.4"/>
	<line class="st2" x1="223.3" y1="92.1" x2="217.8" y2="92.1"/>
	<line class="st2" x1="223.3" y1="85.8" x2="217.8" y2="85.8"/>
	<line class="st2" x1="223.3" y1="79.4" x2="217.8" y2="79.4"/>
	<path class="st2" d="M248.6,113.8c1,1.1,1.8,2.4,2.6,3.6"/>
	<path class="st2" d="M206.1,139.1c-0.3-0.8-0.6-1.5-0.8-2.3"/>
	<path class="st2" d="M222.8,154.2c-6.4-1.8-11.8-6-15-11.6"/>
	<path class="st2" d="M225.2,71.3c0-2.3,1.9-4.2,4.2-4.2s4.2,1.9,4.2,4.2"/>
</g>
<g>
	<path class="st2" d="M18.6,130c0,18.3,15.3,33,33.8,32c17-0.9,30.5-15.4,30.3-32.4c-0.1-11-5.8-20.7-14.4-26.4
		c-3.8-2.5-6.1-6.6-6.1-11.1l0-12.2c0-5.1-3.6-8.7-8-8.7h-7.2c-4.4,0-8,3.6-8,8v12.8c0,4.5-2.3,8.6-6,11.1
		C24.4,109,18.6,118.8,18.6,130z"/>
	<line class="st2" x1="62.3" y1="92.1" x2="48.7" y2="92.1"/>
	<line class="st2" x1="62.3" y1="85.8" x2="48.7" y2="85.8"/>
	<line class="st2" x1="62.3" y1="79.4" x2="48.7" y2="79.4"/>
	<line class="st2" x1="44.6" y1="92.1" x2="39.1" y2="92.1"/>
	<line class="st2" x1="44.6" y1="85.8" x2="39.1" y2="85.8"/>
	<line class="st2" x1="44.6" y1="79.4" x2="39.1" y2="79.4"/>
	<path class="st2" d="M69.9,113.8c1,1.1,1.8,2.4,2.6,3.6"/>
	<path class="st2" d="M27.3,139.1c-0.3-0.8-0.6-1.5-0.8-2.3"/>
	<path class="st2" d="M44,154.2c-6.4-1.8-11.8-6-15-11.6"/>
	<path class="st2" d="M46.5,71.3c0-2.3,1.9-4.2,4.2-4.2c2.3,0,4.2,1.9,4.2,4.2"/>
</g>
<g>
	<path class="st2" d="M451.4,130c0,18.3,15.3,33,33.8,32c17-0.9,30.5-15.4,30.3-32.4c-0.1-11-5.8-20.7-14.4-26.4
		c-3.8-2.5-6.1-6.6-6.1-11.1V80c0-5.1-3.6-8.7-8-8.7h-7.2c-4.4,0-8,3.6-8,8v12.8c0,4.5-2.3,8.6-6,11.1
		C457.2,109,451.4,118.8,451.4,130z"/>
	<line class="st2" x1="495.2" y1="92.1" x2="481.6" y2="92.1"/>
	<line class="st2" x1="495.2" y1="85.8" x2="481.6" y2="85.8"/>
	<line class="st2" x1="495.2" y1="79.4" x2="481.6" y2="79.4"/>
	<line class="st2" x1="477.4" y1="92.1" x2="471.9" y2="92.1"/>
	<line class="st2" x1="477.4" y1="85.8" x2="471.9" y2="85.8"/>
	<line class="st2" x1="477.4" y1="79.4" x2="471.9" y2="79.4"/>
	<path class="st2" d="M502.7,113.8c1,1.1,1.8,2.4,2.6,3.6"/>
	<path class="st2" d="M460.2,139.1c-0.3-0.8-0.6-1.5-0.8-2.3"/>
	<path class="st2" d="M476.9,154.2c-6.4-1.8-11.8-6-15-11.6"/>
	<path class="st2" d="M479.3,71.3c0-2.3,1.9-4.2,4.2-4.2c2.3,0,4.2,1.9,4.2,4.2"/>
</g>
<g>
	<path class="st2" d="M711.1,130c0,18.3,15.3,33,33.8,32c17-0.9,30.5-15.4,30.3-32.4c-0.1-11-5.8-20.7-14.4-26.4
		c-3.8-2.5-6.1-6.6-6.1-11.1V80c0-5.1-3.6-8.7-8-8.7h-7.2c-4.4,0-8,3.6-8,8v12.8c0,4.5-2.3,8.6-6,11.1
		C716.9,109,711.1,118.8,711.1,130z"/>
	<line class="st2" x1="754.9" y1="92.1" x2="741.2" y2="92.1"/>
	<line class="st2" x1="754.9" y1="85.8" x2="741.2" y2="85.8"/>
	<line class="st2" x1="754.9" y1="79.4" x2="741.2" y2="79.4"/>
	<line class="st2" x1="737.1" y1="92.1" x2="731.6" y2="92.1"/>
	<line class="st2" x1="737.1" y1="85.8" x2="731.6" y2="85.8"/>
	<line class="st2" x1="737.1" y1="79.4" x2="731.6" y2="79.4"/>
	<path class="st2" d="M762.4,113.8c1,1.1,1.8,2.4,2.6,3.6"/>
	<path class="st2" d="M719.9,139.1c-0.3-0.8-0.6-1.5-0.8-2.3"/>
	<path class="st2" d="M736.6,154.2c-6.4-1.8-11.8-6-15-11.6"/>
	<path class="st2" d="M739,71.3c0-2.3,1.9-4.2,4.2-4.2s4.2,1.9,4.2,4.2"/>
</g>
<g>
	<path class="st2" d="M462.6,44.7c0-11.3-9.4-20.3-20.8-19.7c-10.5,0.6-18.8,9.5-18.7,20c0.1,6.8,3.6,12.7,8.9,16.2
		c2.3,1.5,3.7,4.1,3.7,6.9v7.5c0,3.1,2.2,5.3,4.9,5.3h4.5c2.7,0,4.9-2.2,4.9-4.9v-7.9c0-2.8,1.4-5.3,3.7-6.8
		C459.1,57.7,462.6,51.6,462.6,44.7z"/>
	<line class="st2" x1="435.7" y1="68.1" x2="444.1" y2="68.1"/>
	<line class="st2" x1="435.7" y1="72" x2="444.1" y2="72"/>
	<line class="st2" x1="435.7" y1="75.9" x2="444.1" y2="75.9"/>
	<line class="st2" x1="446.6" y1="68.1" x2="450" y2="68.1"/>
	<line class="st2" x1="446.6" y1="72" x2="450" y2="72"/>
	<line class="st2" x1="446.6" y1="75.9" x2="450" y2="75.9"/>
	<path class="st2" d="M431.1,54.7c-0.6-0.7-1.1-1.4-1.6-2.2"/>
	<path class="st2" d="M457.3,39.1c0.2,0.5,0.3,0.9,0.5,1.4"/>
	<path class="st2" d="M447,29.9c3.9,1.1,7.3,3.7,9.3,7.2"/>
	<path class="st2" d="M445.5,80.9c0,1.4-1.2,2.6-2.6,2.6s-2.6-1.2-2.6-2.6"/>
</g>
<g>
	<path class="st2" d="M722.3,44.7c0-11.3-9.4-20.3-20.8-19.7c-10.5,0.6-18.8,9.5-18.7,20c0.1,6.8,3.6,12.7,8.9,16.2
		c2.3,1.5,3.7,4.1,3.7,6.9v7.5c0,3.1,2.2,5.3,4.9,5.3h4.5c2.7,0,4.9-2.2,4.9-4.9v-7.9c0-2.8,1.4-5.3,3.7-6.8
		C718.8,57.7,722.3,51.6,722.3,44.7z"/>
	<line class="st2" x1="695.4" y1="68.1" x2="703.8" y2="68.1"/>
	<line class="st2" x1="695.4" y1="72" x2="703.8" y2="72"/>
	<line class="st2" x1="695.4" y1="75.9" x2="703.8" y2="75.9"/>
	<line class="st2" x1="706.3" y1="68.1" x2="709.7" y2="68.1"/>
	<line class="st2" x1="706.3" y1="72" x2="709.7" y2="72"/>
	<line class="st2" x1="706.3" y1="75.9" x2="709.7" y2="75.9"/>
	<path class="st2" d="M690.8,54.7c-0.6-0.7-1.1-1.4-1.6-2.2"/>
	<path class="st2" d="M717,39.1c0.2,0.5,0.3,0.9,0.5,1.4"/>
	<path class="st2" d="M706.7,29.9c3.9,1.1,7.3,3.7,9.3,7.2"/>
	<path class="st2" d="M705.2,80.9c0,1.4-1.2,2.6-2.6,2.6s-2.6-1.2-2.6-2.6"/>
</g>
<g>
	<path class="st2" d="M808.9,44.7c0-11.3-9.4-20.3-20.8-19.7c-10.5,0.6-18.8,9.5-18.7,20c0.1,6.8,3.6,12.7,8.9,16.2
		c2.3,1.5,3.7,4.1,3.7,6.9v7.5c0,3.1,2.2,5.3,4.9,5.3h4.5c2.7,0,4.9-2.2,4.9-4.9v-7.9c0-2.8,1.4-5.3,3.7-6.8
		C805.4,57.7,808.9,51.6,808.9,44.7z"/>
	<line class="st2" x1="782" y1="68.1" x2="790.4" y2="68.1"/>
	<line class="st2" x1="782" y1="72" x2="790.4" y2="72"/>
	<line class="st2" x1="782" y1="75.9" x2="790.4" y2="75.9"/>
	<line class="st2" x1="792.9" y1="68.1" x2="796.3" y2="68.1"/>
	<line class="st2" x1="792.9" y1="72" x2="796.3" y2="72"/>
	<line class="st2" x1="792.9" y1="75.9" x2="796.3" y2="75.9"/>
	<path class="st2" d="M777.3,54.7c-0.6-0.7-1.1-1.4-1.6-2.2"/>
	<path class="st2" d="M803.5,39.1c0.2,0.5,0.3,0.9,0.5,1.4"/>
	<path class="st2" d="M793.2,29.9c3.9,1.1,7.3,3.7,9.3,7.2"/>
	<path class="st2" d="M791.7,80.9c0,1.4-1.2,2.6-2.6,2.6s-2.6-1.2-2.6-2.6"/>
</g>
<g>
	<path class="st2" d="M636.9,106.8c0,11.3,9.4,20.3,20.8,19.7c10.5-0.6,18.8-9.5,18.7-20c-0.1-6.8-3.6-12.7-8.9-16.2
		c-2.3-1.5-3.7-4.1-3.7-6.9V76c0-3.1-2.2-5.3-4.9-5.3h-4.5c-2.7,0-4.9,2.2-4.9,4.9v7.9c0,2.8-1.4,5.3-3.7,6.8
		C640.4,93.9,636.9,99.9,636.9,106.8z"/>
	<line class="st2" x1="663.8" y1="83.5" x2="655.4" y2="83.5"/>
	<line class="st2" x1="663.8" y1="79.6" x2="655.4" y2="79.6"/>
	<line class="st2" x1="663.8" y1="75.7" x2="655.4" y2="75.7"/>
	<line class="st2" x1="652.9" y1="83.5" x2="649.5" y2="83.5"/>
	<line class="st2" x1="652.9" y1="79.6" x2="649.5" y2="79.6"/>
	<line class="st2" x1="652.9" y1="75.7" x2="649.5" y2="75.7"/>
	<path class="st2" d="M668.5,96.9c0.6,0.7,1.1,1.4,1.6,2.2"/>
	<path class="st2" d="M642.3,112.4c-0.2-0.5-0.3-0.9-0.5-1.4"/>
	<path class="st2" d="M652.6,121.7c-3.9-1.1-7.3-3.7-9.3-7.2"/>
	<path class="st2" d="M654.1,70.7c0-1.4,1.2-2.6,2.6-2.6s2.6,1.2,2.6,2.6"/>
</g>
<g>
	<path class="st2" d="M550.3,106.8c0,11.3,9.4,20.3,20.8,19.7c10.5-0.6,18.8-9.5,18.7-20c-0.1-6.8-3.6-12.7-8.9-16.2
		c-2.3-1.5-3.7-4.1-3.7-6.9V76c0-3.1-2.2-5.3-4.9-5.3h-4.5c-2.7,0-4.9,2.2-4.9,4.9v7.9c0,2.8-1.4,5.3-3.7,6.8
		C553.9,93.9,550.3,99.9,550.3,106.8z"/>
	<line class="st2" x1="577.3" y1="83.5" x2="568.9" y2="83.5"/>
	<line class="st2" x1="577.3" y1="79.6" x2="568.9" y2="79.6"/>
	<line class="st2" x1="577.3" y1="75.7" x2="568.9" y2="75.7"/>
	<line class="st2" x1="566.3" y1="83.5" x2="562.9" y2="83.5"/>
	<line class="st2" x1="566.3" y1="79.6" x2="562.9" y2="79.6"/>
	<line class="st2" x1="566.3" y1="75.7" x2="562.9" y2="75.7"/>
	<path class="st2" d="M581.9,96.9c0.6,0.7,1.1,1.4,1.6,2.2"/>
	<path class="st2" d="M555.7,112.4c-0.2-0.5-0.3-0.9-0.5-1.4"/>
	<path class="st2" d="M566,121.7c-3.9-1.1-7.3-3.7-9.3-7.2"/>
	<path class="st2" d="M567.5,70.7c0-1.4,1.2-2.6,2.6-2.6s2.6,1.2,2.6,2.6"/>
</g>
<g>
	<path class="st2" d="M377.2,106.8c0,11.3,9.4,20.3,20.8,19.7c10.5-0.6,18.8-9.5,18.7-20c-0.1-6.8-3.6-12.7-8.9-16.2
		c-2.3-1.5-3.7-4.1-3.7-6.9V76c0-3.1-2.2-5.3-4.9-5.3h-4.5c-2.7,0-4.9,2.2-4.9,4.9v7.9c0,2.8-1.4,5.3-3.7,6.8
		C380.8,93.9,377.2,99.9,377.2,106.8z"/>
	<line class="st2" x1="404.1" y1="83.5" x2="395.7" y2="83.5"/>
	<line class="st2" x1="404.1" y1="79.6" x2="395.7" y2="79.6"/>
	<line class="st2" x1="404.1" y1="75.7" x2="395.7" y2="75.7"/>
	<line class="st2" x1="393.2" y1="83.5" x2="389.8" y2="83.5"/>
	<line class="st2" x1="393.2" y1="79.6" x2="389.8" y2="79.6"/>
	<line class="st2" x1="393.2" y1="75.7" x2="389.8" y2="75.7"/>
	<path class="st2" d="M408.8,96.9c0.6,0.7,1.1,1.4,1.6,2.2"/>
	<path class="st2" d="M382.6,112.4c-0.2-0.5-0.3-0.9-0.5-1.4"/>
	<path class="st2" d="M392.9,121.7c-3.9-1.1-7.3-3.7-9.3-7.2"/>
	<path class="st2" d="M394.4,70.7c0-1.4,1.2-2.6,2.6-2.6s2.6,1.2,2.6,2.6"/>
</g>
<g>
	<path class="st2" d="M290.6,106.8c0,11.3,9.4,20.3,20.8,19.7c10.5-0.6,18.8-9.5,18.7-20c-0.1-6.8-3.6-12.7-8.9-16.2
		c-2.3-1.5-3.7-4.1-3.7-6.9V76c0-3.1-2.2-5.3-4.9-5.3h-4.5c-2.7,0-4.9,2.2-4.9,4.9v7.9c0,2.8-1.4,5.3-3.7,6.8
		C294.2,93.9,290.6,99.9,290.6,106.8z"/>
	<line class="st2" x1="317.6" y1="83.5" x2="309.2" y2="83.5"/>
	<line class="st2" x1="317.6" y1="79.6" x2="309.2" y2="79.6"/>
	<line class="st2" x1="317.6" y1="75.7" x2="309.2" y2="75.7"/>
	<line class="st2" x1="306.6" y1="83.5" x2="303.3" y2="83.5"/>
	<line class="st2" x1="306.6" y1="79.6" x2="303.3" y2="79.6"/>
	<line class="st2" x1="306.6" y1="75.7" x2="303.3" y2="75.7"/>
	<path class="st2" d="M322.2,96.9c0.6,0.7,1.1,1.4,1.6,2.2"/>
	<path class="st2" d="M296,112.4c-0.2-0.5-0.3-0.9-0.5-1.4"/>
	<path class="st2" d="M306.3,121.7c-3.9-1.1-7.3-3.7-9.3-7.2"/>
	<path class="st2" d="M307.8,70.7c0-1.4,1.2-2.6,2.6-2.6s2.6,1.2,2.6,2.6"/>
</g>
<g>
	<path class="st2" d="M117.5,106.8c0,11.3,9.4,20.3,20.8,19.7c10.5-0.6,18.8-9.5,18.7-20c-0.1-6.8-3.6-12.7-8.9-16.2
		c-2.3-1.5-3.7-4.1-3.7-6.9l0-7.5c0-3.1-2.2-5.3-4.9-5.3H135c-2.7,0-4.9,2.2-4.9,4.9v7.9c0,2.8-1.4,5.3-3.7,6.8
		C121.1,93.9,117.5,99.9,117.5,106.8z"/>
	<line class="st2" x1="144.4" y1="83.5" x2="136.1" y2="83.5"/>
	<line class="st2" x1="144.4" y1="79.6" x2="136.1" y2="79.6"/>
	<line class="st2" x1="144.4" y1="75.7" x2="136.1" y2="75.7"/>
	<line class="st2" x1="133.5" y1="83.5" x2="130.1" y2="83.5"/>
	<line class="st2" x1="133.5" y1="79.6" x2="130.1" y2="79.6"/>
	<line class="st2" x1="133.5" y1="75.7" x2="130.1" y2="75.7"/>
	<path class="st2" d="M149.1,96.9c0.6,0.7,1.1,1.4,1.6,2.2"/>
	<path class="st2" d="M122.9,112.4c-0.2-0.5-0.3-0.9-0.5-1.4"/>
	<path class="st2" d="M133.2,121.7c-3.9-1.1-7.3-3.7-9.3-7.2"/>
	<path class="st2" d="M134.7,70.7c0-1.4,1.2-2.6,2.6-2.6s2.6,1.2,2.6,2.6"/>
</g>
</svg>
