<?xml version="1.0" encoding="utf-8"?>
<!-- Generator: Adobe Illustrator 24.1.1, SVG Export Plug-In . SVG Version: 6.00 Build 0)  -->
<svg version="1.1" id="Layer_1" xmlns="http://www.w3.org/2000/svg" xmlns:xlink="http://www.w3.org/1999/xlink" x="0px" y="0px"
	 viewBox="0 0 800 150" style="enable-background:new 0 0 800 150;" xml:space="preserve">
<style type="text/css">
	.st0{fill:none;stroke:#343A40;stroke-linecap:round;stroke-linejoin:round;stroke-miterlimit:10;}
</style>
<g>
	<path class="st0" d="M614.74,98.45l-34.42,5.63c-3.97,0.65-7.74-2.06-8.39-6.03l-3.27-19.96c-0.65-3.97,2.06-7.74,6.03-8.39
		l34.42-5.63c3.97-0.65,7.74,2.06,8.39,6.03l3.27,19.96C621.42,94.03,618.71,97.81,614.74,98.45z"/>
	<path class="st0" d="M568.97,74.58l15.55,11.17l3.15,2.27c4.79,3.44,11.54,2.34,14.99-2.45l2.27-3.15l11.17-15.55"/>
	<line class="st0" x1="584.52" y1="85.75" x2="573.34" y2="101.3"/>
	<line class="st0" x1="620.47" y1="93.59" x2="604.93" y2="82.41"/>
</g>
<g>
	<path class="st0" d="M240.5,50.06l-34.39-5.79c-3.96-0.67-6.66-4.45-5.99-8.42l3.36-19.94c0.67-3.96,4.45-6.66,8.42-5.99
		l34.39,5.79c3.96,0.67,6.66,4.45,5.99,8.42l-3.36,19.94C248.25,48.03,244.46,50.73,240.5,50.06z"/>
	<path class="st0" d="M204.89,12.67l11.1,15.6l2.25,3.17c3.42,4.8,10.16,5.94,14.98,2.52l3.17-2.25l15.59-11.11"/>
	<line class="st0" x1="216" y1="28.27" x2="200.4" y2="39.38"/>
	<line class="st0" x1="247.49" y1="47.3" x2="236.39" y2="31.71"/>
</g>
<g>
	<polygon class="st0" points="325.22,90.17 308.46,141.66 269.96,129.12 284.64,84.02 293.1,79.71 	"/>
	<polyline class="st0" points="323.64,95.04 329.66,97 312.9,148.49 274.4,135.95 275.99,131.09 	"/>
	<polyline class="st0" points="293.1,79.71 291.02,86.1 284.64,84.02 	"/>
	<path class="st0" d="M314.54,101.7l-25.97-8.46c-1.12-0.36-1.73-1.57-1.37-2.69l0,0c0.36-1.12,1.57-1.73,2.69-1.37l25.97,8.46
		c1.12,0.36,1.73,1.57,1.37,2.69l0,0C316.87,101.45,315.66,102.06,314.54,101.7z"/>
	<line class="st0" x1="289.31" y1="100.4" x2="309.72" y2="107.05"/>
	<line class="st0" x1="288.25" y1="103.65" x2="308.66" y2="110.3"/>
	<line class="st0" x1="287.19" y1="106.9" x2="307.6" y2="113.55"/>
	<line class="st0" x1="280.35" y1="111.6" x2="310.38" y2="121.37"/>
	<line class="st0" x1="279.29" y1="114.85" x2="309.32" y2="124.63"/>
	<line class="st0" x1="278.23" y1="118.1" x2="308.26" y2="127.88"/>
	<line class="st0" x1="277.17" y1="121.35" x2="307.2" y2="131.13"/>
	<line class="st0" x1="276.11" y1="124.6" x2="306.14" y2="134.38"/>
</g>
<g>
	<polygon class="st0" points="732.35,27.43 715.59,78.92 677.08,66.38 691.77,21.28 700.23,16.97 	"/>
	<polyline class="st0" points="730.77,32.3 736.79,34.26 720.03,85.75 681.53,73.21 683.12,68.35 	"/>
	<polyline class="st0" points="700.23,16.97 698.15,23.36 691.77,21.28 	"/>
	<path class="st0" d="M721.67,38.96L695.7,30.5c-1.12-0.36-1.73-1.57-1.37-2.69v0c0.36-1.12,1.57-1.73,2.69-1.37l25.97,8.46
		c1.12,0.36,1.73,1.57,1.37,2.69v0C723.99,38.71,722.79,39.32,721.67,38.96z"/>
	<line class="st0" x1="696.44" y1="37.66" x2="716.85" y2="44.31"/>
	<line class="st0" x1="695.38" y1="40.91" x2="715.79" y2="47.56"/>
	<line class="st0" x1="694.32" y1="44.17" x2="714.73" y2="50.81"/>
	<line class="st0" x1="687.47" y1="48.86" x2="717.51" y2="58.64"/>
	<line class="st0" x1="686.42" y1="52.11" x2="716.45" y2="61.89"/>
	<line class="st0" x1="685.36" y1="55.36" x2="715.39" y2="65.14"/>
	<line class="st0" x1="684.3" y1="58.61" x2="714.33" y2="68.39"/>
	<line class="st0" x1="683.24" y1="61.86" x2="713.27" y2="71.64"/>
</g>
<g>
	<polygon class="st0" points="469.54,27.75 486.97,79.02 448.64,92.05 433.37,47.15 437.56,38.63 	"/>
	<polyline class="st0" points="471.19,32.6 477.19,30.56 494.62,81.82 456.3,94.86 454.65,90.01 	"/>
	<polyline class="st0" points="437.56,38.63 439.72,44.99 433.37,47.15 	"/>
	<path class="st0" d="M467.89,43.38l-25.86,8.8c-1.12,0.38-2.33-0.22-2.71-1.33v0c-0.38-1.12,0.22-2.33,1.33-2.71l25.86-8.8
		c1.12-0.38,2.33,0.22,2.71,1.33v0C469.61,41.79,469.01,43,467.89,43.38z"/>
	<line class="st0" x1="446.92" y1="57.46" x2="467.24" y2="50.55"/>
	<line class="st0" x1="448.02" y1="60.7" x2="468.35" y2="53.79"/>
	<line class="st0" x1="449.12" y1="63.94" x2="469.45" y2="57.03"/>
	<line class="st0" x1="446.45" y1="71.8" x2="476.36" y2="61.63"/>
	<line class="st0" x1="447.55" y1="75.04" x2="477.46" y2="64.86"/>
	<line class="st0" x1="448.66" y1="78.27" x2="478.56" y2="68.1"/>
	<line class="st0" x1="449.76" y1="81.51" x2="479.66" y2="71.34"/>
	<line class="st0" x1="450.86" y1="84.75" x2="480.76" y2="74.58"/>
</g>
<g>
	<polygon class="st0" points="62.96,-4.4 77.74,47.69 38.79,58.74 25.84,13.11 30.47,4.82 	"/>
	<polyline class="st0" points="64.36,0.52 70.45,-1.21 85.24,50.88 46.29,61.93 44.89,57.01 	"/>
	<polyline class="st0" points="30.47,4.82 32.3,11.28 25.84,13.11 	"/>
	<path class="st0" d="M60.52,11.12l-26.28,7.46c-1.13,0.32-2.31-0.34-2.64-1.47l0,0c-0.32-1.13,0.34-2.31,1.47-2.64l26.28-7.46
		c1.13-0.32,2.31,0.34,2.64,1.47l0,0C62.31,9.62,61.65,10.8,60.52,11.12z"/>
	<line class="st0" x1="38.85" y1="24.11" x2="59.5" y2="18.25"/>
	<line class="st0" x1="39.78" y1="27.4" x2="60.43" y2="21.54"/>
	<line class="st0" x1="40.72" y1="30.69" x2="61.37" y2="24.83"/>
	<line class="st0" x1="37.64" y1="38.4" x2="68.03" y2="29.78"/>
	<line class="st0" x1="38.58" y1="41.69" x2="68.96" y2="33.07"/>
	<line class="st0" x1="39.51" y1="44.98" x2="69.9" y2="36.36"/>
	<line class="st0" x1="40.44" y1="48.27" x2="70.83" y2="39.65"/>
	<line class="st0" x1="41.38" y1="51.56" x2="71.76" y2="42.94"/>
</g>
<path class="st0" d="M284.68,44.99L284.68,44.99c2.47,1.69,5.84,1.06,7.52-1.41l19.37-28.31c1.69-2.47,1.06-5.84-1.41-7.52v0
	c-2.47-1.69-5.84-1.06-7.52,1.41l-19.37,28.31C281.58,39.93,282.21,43.3,284.68,44.99z"/>
<path class="st0" d="M273.55,4.77L273.55,4.77c0.8,2.88,3.78,4.57,6.66,3.77l33.06-9.15c2.88-0.8,4.57-3.78,3.77-6.66v0
	c-0.8-2.88-3.78-4.57-6.66-3.77l-33.06,9.15C274.44-1.09,272.75,1.89,273.55,4.77z"/>
<path class="st0" d="M278.68,66.28L278.68,66.28c2.5-1.64,3.2-5,1.56-7.5l-11.52-17.56c-1.64-2.5-5-3.2-7.5-1.56v0
	c-2.5,1.64-3.2,5-1.56,7.5l11.52,17.56C272.83,67.23,276.18,67.92,278.68,66.28z"/>
<path class="st0" d="M265.58,17.84L265.58,17.84c2.5-1.64,3.2-5,1.56-7.5L255.62-7.22c-1.64-2.5-5-3.2-7.5-1.56l0,0
	c-2.5,1.64-3.2,5-1.56,7.5l11.52,17.56C259.72,18.78,263.08,19.48,265.58,17.84z"/>
<path class="st0" d="M271.12,33.29L271.12,33.29c2.65,1.38,5.92,0.35,7.3-2.3l2.95-5.67c1.38-2.65,0.35-5.92-2.3-7.3v0
	c-2.65-1.38-5.92-0.35-7.3,2.3l-2.95,5.67C267.43,28.65,268.46,31.91,271.12,33.29z"/>
<path class="st0" d="M217.96,93.8L217.96,93.8c-1.38,2.65-0.35,5.92,2.3,7.3l30.43,15.84c2.65,1.38,5.92,0.35,7.3-2.3v0
	c1.38-2.65,0.35-5.92-2.3-7.3L225.26,91.5C222.61,90.12,219.34,91.15,217.96,93.8z"/>
<path class="st0" d="M206.09,88.23L206.09,88.23c2.72,1.23,5.93,0.02,7.16-2.71l8.64-19.14c1.23-2.72,0.02-5.93-2.71-7.16l0,0
	c-2.72-1.23-5.93-0.02-7.16,2.71l-8.64,19.14C202.15,83.79,203.36,87,206.09,88.23z"/>
<path class="st0" d="M232.77,86.31L232.77,86.31c2.99,0,5.41-2.42,5.41-5.41V74.5c0-2.99-2.42-5.41-5.41-5.41l0,0
	c-2.99,0-5.41,2.42-5.41,5.41v6.39C227.36,83.89,229.78,86.31,232.77,86.31z"/>
<path class="st0" d="M187.56,53.5L187.56,53.5c2.99,0,5.41-2.42,5.41-5.41v-6.39c0-2.99-2.42-5.41-5.41-5.41h0
	c-2.99,0-5.41,2.42-5.41,5.41v6.39C182.15,51.07,184.57,53.5,187.56,53.5z"/>
<path class="st0" d="M208.63,114.91L208.63,114.91c2.99,0,5.41-2.42,5.41-5.41v-6.39c0-2.99-2.42-5.41-5.41-5.41l0,0
	c-2.99,0-5.41,2.42-5.41,5.41v6.39C203.21,112.49,205.64,114.91,208.63,114.91z"/>
<path class="st0" d="M159.78,66.27L159.78,66.27c0.39,2.96,3.11,5.05,6.08,4.65l34.01-4.51c2.96-0.39,5.05-3.11,4.65-6.08v0
	c-0.39-2.96-3.11-5.05-6.08-4.65l-34.01,4.51C161.47,60.59,159.38,63.31,159.78,66.27z"/>
<path class="st0" d="M172.61,37.81L172.61,37.81c2.65,1.38,5.92,0.35,7.3-2.3l15.84-30.43c1.38-2.65,0.35-5.92-2.3-7.3v0
	c-2.65-1.38-5.92-0.35-7.3,2.3l-15.84,30.43C168.93,33.17,169.96,36.43,172.61,37.81z"/>
<path class="st0" d="M239.73,59.12L239.73,59.12c-1.38,2.65-0.35,5.92,2.3,7.3l18.63,9.7c2.65,1.38,5.92,0.35,7.3-2.3v0
	c1.38-2.65,0.35-5.92-2.3-7.3l-18.63-9.7C244.38,55.44,241.11,56.47,239.73,59.12z"/>
<path class="st0" d="M272.71,85.39L272.71,85.39c-0.48-2.95-3.27-4.95-6.22-4.47l-20.72,3.39c-2.95,0.48-4.95,3.27-4.47,6.22v0
	c0.48,2.95,3.27,4.95,6.22,4.47l20.72-3.39C271.19,91.13,273.19,88.34,272.71,85.39z"/>
<path class="st0" d="M292.81,68.78L292.81,68.78c2.99,0,5.41-2.42,5.41-5.41v-6.39c0-2.99-2.42-5.41-5.41-5.41h0
	c-2.99,0-5.41,2.42-5.41,5.41v6.39C287.4,66.36,289.83,68.78,292.81,68.78z"/>
<path class="st0" d="M232.77,8.13L232.77,8.13c2.99,0,5.41-2.42,5.41-5.41v-6.39c0-2.99-2.42-5.41-5.41-5.41l0,0
	c-2.99,0-5.41,2.42-5.41,5.41v6.39C227.36,5.71,229.78,8.13,232.77,8.13z"/>
<path class="st0" d="M46.22,127.99L46.22,127.99c2.36-1.84,2.78-5.24,0.94-7.6L26.07,93.33c-1.84-2.36-5.24-2.78-7.6-0.94l0,0
	c-2.36,1.84-2.78,5.24-0.94,7.6l21.09,27.06C40.46,129.4,43.86,129.83,46.22,127.99z"/>
<path class="st0" d="M11.54,148.36L11.54,148.36c0.69,2.91,3.61,4.71,6.51,4.02l33.38-7.9c2.91-0.69,4.71-3.61,4.02-6.51v0
	c-0.69-2.91-3.61-4.71-6.51-4.02l-33.38,7.9C12.65,142.54,10.85,145.45,11.54,148.36z"/>
<path class="st0" d="M45.68,108.07L45.68,108.07c2.64,1.4,5.92,0.39,7.31-2.26l9.81-18.57c1.4-2.64,0.39-5.92-2.26-7.31l0,0
	c-2.64-1.4-5.92-0.39-7.31,2.26l-9.81,18.57C42.03,103.4,43.04,106.68,45.68,108.07z"/>
<path class="st0" d="M1.34,100.38L1.34,100.38c2.64,1.4,5.92,0.39,7.31-2.26l9.81-18.57c1.4-2.64,0.39-5.92-2.26-7.31l0,0
	c-2.64-1.4-5.92-0.39-7.31,2.26l-9.81,18.57C-2.32,95.71-1.31,98.98,1.34,100.38z"/>
<path class="st0" d="M6.75,139.32L6.75,139.32c2.84-0.94,4.37-4.01,3.43-6.85l-6.63-19.92c-0.94-2.84-4.01-4.37-6.85-3.43h0
	c-2.84,0.94-4.37,4.01-3.43,6.85l6.63,19.92C0.85,138.73,3.92,140.27,6.75,139.32z"/>
<path class="st0" d="M62.97,127.33L62.97,127.33c2.75-1.17,4.03-4.36,2.85-7.1l-2.51-5.88c-1.17-2.75-4.36-4.03-7.1-2.85l0,0
	c-2.75,1.17-4.03,4.36-2.85,7.1l2.51,5.88C57.04,127.23,60.22,128.5,62.97,127.33z"/>
<path class="st0" d="M22.65,132.14L22.65,132.14c2.75-1.17,4.03-4.36,2.85-7.1l-2.51-5.88c-1.17-2.75-4.36-4.03-7.1-2.85l0,0
	c-2.75,1.17-4.03,4.36-2.85,7.1l2.51,5.88C16.72,132.04,19.91,133.32,22.65,132.14z"/>
<path class="st0" d="M39.07,91.96L39.07,91.96c2.75-1.17,4.03-4.36,2.85-7.1l-2.51-5.88c-1.17-2.75-4.36-4.03-7.1-2.85l0,0
	c-2.75,1.17-4.03,4.36-2.85,7.1l2.51,5.88C33.14,91.86,36.32,93.13,39.07,91.96z"/>
<path class="st0" d="M56.9,70.42L56.9,70.42c0.94,2.84,4.01,4.37,6.85,3.43l6.06-2.02c2.84-0.94,4.37-4.01,3.43-6.85v0
	c-0.94-2.84-4.01-4.37-6.85-3.43l-6.06,2.02C57.49,64.52,55.95,67.58,56.9,70.42z"/>
<path class="st0" d="M33.17,65.97L33.17,65.97c1.23-2.72,0.02-5.93-2.71-7.16L-0.8,44.69c-2.72-1.23-5.93-0.02-7.16,2.71l0,0
	c-1.23,2.72-0.02,5.93,2.71,7.16l31.27,14.12C28.73,69.91,31.94,68.69,33.17,65.97z"/>
<path class="st0" d="M-8.49,26.22L-8.49,26.22c1.63,2.51,4.98,3.22,7.49,1.59l17.61-11.45c2.51-1.63,3.22-4.98,1.59-7.49l0,0
	c-1.63-2.51-4.98-3.22-7.49-1.59L-6.9,18.73C-9.41,20.36-10.12,23.71-8.49,26.22z"/>
<path class="st0" d="M23.67,34.44L23.67,34.44c-0.39-2.96-3.11-5.05-6.08-4.65l-6.34,0.84c-2.96,0.39-5.05,3.11-4.65,6.08l0,0
	c0.39,2.96,3.11,5.05,6.08,4.65l6.34-0.84C21.98,40.13,24.06,37.4,23.67,34.44z"/>
<path class="st0" d="M150.71,87.29L150.71,87.29c-2.24-1.98-5.66-1.76-7.64,0.48l-22.69,25.73c-1.98,2.24-1.76,5.66,0.48,7.64l0,0
	c2.24,1.98,5.66,1.76,7.64-0.48l22.69-25.73C153.16,92.69,152.95,89.27,150.71,87.29z"/>
<path class="st0" d="M159.9,108.52L159.9,108.52c2.82,0.98,5.91-0.51,6.89-3.33l6.91-19.83c0.98-2.82-0.51-5.91-3.33-6.89l0,0
	c-2.82-0.98-5.91,0.51-6.89,3.33l-6.91,19.83C155.58,104.46,157.07,107.54,159.9,108.52z"/>
<path class="st0" d="M168.64,141.28L168.64,141.28c-0.69-2.91-3.61-4.71-6.51-4.02l-33.38,7.9c-2.91,0.69-4.71,3.61-4.02,6.51v0
	c0.69,2.91,3.61,4.71,6.51,4.02l33.38-7.9C167.53,147.1,169.33,144.18,168.64,141.28z"/>
<path class="st0" d="M186.31,77.54L186.31,77.54c-2.91,0.69-4.71,3.61-4.02,6.51l4.84,20.44c0.69,2.91,3.61,4.71,6.51,4.02l0,0
	c2.91-0.69,4.71-3.61,4.02-6.51l-4.84-20.44C192.14,78.65,189.22,76.85,186.31,77.54z"/>
<path class="st0" d="M154.28,130.15L154.28,130.15c2.7-1.29,3.83-4.53,2.54-7.22l-2.76-5.76c-1.29-2.7-4.53-3.83-7.22-2.54v0
	c-2.7,1.29-3.83,4.53-2.54,7.22l2.76,5.76C148.36,130.31,151.59,131.45,154.28,130.15z"/>
<path class="st0" d="M362.32,54.75L362.32,54.75c-1.2-2.74-4.39-3.99-7.13-2.79l-31.42,13.77c-2.74,1.2-3.99,4.39-2.79,7.13v0
	c1.2,2.74,4.39,3.99,7.13,2.79l31.42-13.77C362.28,60.68,363.52,57.49,362.32,54.75z"/>
<path class="st0" d="M358.39,82.95L358.39,82.95c2.44,1.73,5.82,1.15,7.55-1.29l12.12-17.15c1.73-2.44,1.15-5.82-1.29-7.54v0
	c-2.44-1.73-5.82-1.15-7.54,1.29L357.1,75.4C355.37,77.85,355.95,81.22,358.39,82.95z"/>
<path class="st0" d="M392.86,78.78L392.86,78.78c2.74-1.2,3.99-4.39,2.79-7.13l-2.57-5.85c-1.2-2.74-4.39-3.99-7.13-2.79l0,0
	c-2.74,1.2-3.99,4.39-2.79,7.13l2.57,5.85C386.93,78.73,390.13,79.98,392.86,78.78z"/>
<path class="st0" d="M350.24,83.44L350.24,83.44c-0.22-2.98-2.82-5.22-5.8-4.99l-6.37,0.48c-2.98,0.22-5.22,2.82-4.99,5.8v0
	c0.22,2.98,2.82,5.22,5.8,4.99l6.37-0.48C348.23,89.02,350.46,86.42,350.24,83.44z"/>
<path class="st0" d="M358.37,45.72L358.37,45.72c2.74-1.2,3.99-4.39,2.79-7.13l-2.57-5.85c-1.2-2.74-4.39-3.99-7.13-2.79l0,0
	c-2.74,1.2-3.99,4.39-2.79,7.13l2.57,5.85C352.44,45.68,355.63,46.92,358.37,45.72z"/>
<path class="st0" d="M520.14,131.69L520.14,131.69c2.23,1.99,5.65,1.81,7.64-0.42l22.89-25.55c1.99-2.23,1.81-5.65-0.42-7.64v0
	c-2.23-1.99-5.65-1.81-7.64,0.42l-22.89,25.55C517.73,126.28,517.92,129.7,520.14,131.69z"/>
<path class="st0" d="M506.82,150.37L506.82,150.37c0.48,2.95,3.27,4.95,6.22,4.47l33.85-5.54c2.95-0.48,4.95-3.27,4.47-6.22v0
	c-0.48-2.95-3.27-4.95-6.22-4.47l-33.85,5.54C508.34,144.63,506.34,147.42,506.82,150.37z"/>
<path class="st0" d="M462.4,132.29L462.4,132.29c-0.27,2.98,1.93,5.61,4.91,5.87l20.92,1.87c2.98,0.27,5.61-1.93,5.87-4.91l0,0
	c0.27-2.98-1.93-5.61-4.91-5.87l-20.92-1.87C465.3,127.11,462.67,129.31,462.4,132.29z"/>
<path class="st0" d="M506.23,119.03L506.23,119.03c2.65,1.38,5.92,0.35,7.3-2.3l2.95-5.67c1.38-2.65,0.35-5.92-2.3-7.3l0,0
	c-2.65-1.38-5.92-0.35-7.3,2.3l-2.95,5.67C502.55,114.38,503.58,117.65,506.23,119.03z"/>
<path class="st0" d="M502.13,141.34L502.13,141.34c2.65,1.38,5.92,0.35,7.3-2.3l2.95-5.67c1.38-2.65,0.35-5.92-2.3-7.3v0
	c-2.65-1.38-5.92-0.35-7.3,2.3l-2.95,5.67C498.45,136.69,499.48,139.96,502.13,141.34z"/>
<path class="st0" d="M558.92,142.56L558.92,142.56c-1.38,2.65-0.35,5.92,2.3,7.3l30.43,15.84c2.65,1.38,5.92,0.35,7.3-2.3v0
	c1.38-2.65,0.35-5.92-2.3-7.3l-30.43-15.84C563.56,138.88,560.3,139.91,558.92,142.56z"/>
<path class="st0" d="M552.74,132.31L552.74,132.31c2.72,1.23,5.93,0.02,7.16-2.71l8.64-19.14c1.23-2.72,0.02-5.93-2.71-7.16h0
	c-2.72-1.23-5.93-0.02-7.16,2.71l-8.64,19.14C548.8,127.87,550.01,131.07,552.74,132.31z"/>
<path class="st0" d="M576.96,136.09L576.96,136.09c2.99,0,5.41-2.42,5.41-5.41v-6.39c0-2.99-2.42-5.41-5.41-5.41l0,0
	c-2.99,0-5.41,2.42-5.41,5.41v6.39C571.54,133.66,573.97,136.09,576.96,136.09z"/>
<path class="st0" d="M365.7,131.98L365.7,131.98c2.36-1.84,2.78-5.24,0.94-7.6l-21.09-27.06c-1.84-2.36-5.24-2.78-7.6-0.94l0,0
	c-2.36,1.84-2.78,5.24-0.94,7.6l21.09,27.06C359.94,133.4,363.34,133.82,365.7,131.98z"/>
<path class="st0" d="M365.16,112.07L365.16,112.07c2.64,1.4,5.92,0.39,7.31-2.26l9.81-18.57c1.4-2.64,0.39-5.92-2.26-7.31v0
	c-2.64-1.4-5.92-0.39-7.31,2.26l-9.81,18.57C361.51,107.4,362.52,110.67,365.16,112.07z"/>
<path class="st0" d="M339.52,147.06L339.52,147.06c0.22,2.98,2.82,5.22,5.8,4.99l34.21-2.56c2.98-0.22,5.22-2.82,4.99-5.8v0
	c-0.22-2.98-2.82-5.22-5.8-4.99l-34.21,2.56C341.53,141.48,339.3,144.08,339.52,147.06z"/>
<path class="st0" d="M324.65,147.64L324.65,147.64c2.64,1.4,5.92,0.39,7.31-2.26l9.81-18.57c1.4-2.64,0.39-5.92-2.26-7.31l0,0
	c-2.64-1.4-5.92-0.39-7.31,2.26l-9.81,18.57C321,142.97,322.01,146.24,324.65,147.64z"/>
<path class="st0" d="M382.45,131.33L382.45,131.33c2.75-1.17,4.03-4.36,2.85-7.1l-2.51-5.88c-1.17-2.75-4.36-4.03-7.1-2.85l0,0
	c-2.75,1.17-4.03,4.36-2.85,7.1l2.51,5.88C376.52,131.22,379.71,132.5,382.45,131.33z"/>
<path class="st0" d="M418.65,76.29L418.65,76.29c-2.24-1.98-5.66-1.76-7.64,0.48l-22.69,25.73c-1.98,2.24-1.76,5.66,0.48,7.64l0,0
	c2.24,1.98,5.66,1.76,7.64-0.48l22.69-25.73C421.11,81.69,420.89,78.27,418.65,76.29z"/>
<path class="st0" d="M394.77,144.83L394.77,144.83c2.82,0.98,5.91-0.51,6.89-3.33l6.91-19.83c0.98-2.82-0.51-5.91-3.33-6.89v0
	c-2.82-0.98-5.91,0.51-6.89,3.33l-6.91,19.83C390.45,140.76,391.94,143.85,394.77,144.83z"/>
<path class="st0" d="M413.21,133.39L413.21,133.39c-1.61,2.52-0.88,5.87,1.64,7.48l17.69,11.32c2.52,1.61,5.87,0.88,7.48-1.64v0
	c1.61-2.52,0.88-5.87-1.64-7.48l-17.69-11.32C418.17,130.14,414.82,130.88,413.21,133.39z"/>
<path class="st0" d="M422.23,119.15L422.23,119.15c2.7-1.29,3.83-4.53,2.54-7.22l-2.76-5.76c-1.29-2.7-4.53-3.83-7.22-2.54l0,0
	c-2.7,1.29-3.83,4.53-2.54,7.22l2.76,5.76C416.3,119.31,419.53,120.44,422.23,119.15z"/>
<path class="st0" d="M632.02,107.21L632.02,107.21c-1.2-2.74-4.39-3.99-7.13-2.79l-31.42,13.77c-2.74,1.2-3.99,4.39-2.79,7.13v0
	c1.2,2.74,4.39,3.99,7.13,2.79l31.42-13.77C631.97,113.14,633.22,109.94,632.02,107.21z"/>
<path class="st0" d="M628.31,135.91L628.31,135.91c2.44,1.73,5.82,1.15,7.55-1.29l12.12-17.15c1.73-2.44,1.15-5.82-1.29-7.54h0
	c-2.44-1.73-5.82-1.15-7.54,1.29l-12.12,17.15C625.29,130.8,625.87,134.18,628.31,135.91z"/>
<path class="st0" d="M659.61,170.34L659.61,170.34c2.44,1.73,5.82,1.15,7.54-1.29l12.13-17.15c1.73-2.44,1.15-5.82-1.29-7.54v0
	c-2.44-1.73-5.82-1.15-7.54,1.29l-12.13,17.15C656.59,165.24,657.17,168.62,659.61,170.34z"/>
<path class="st0" d="M662.78,131.74L662.78,131.74c2.74-1.2,3.99-4.39,2.79-7.13l-2.57-5.85c-1.2-2.74-4.39-3.99-7.13-2.79v0
	c-2.74,1.2-3.99,4.39-2.79,7.13l2.57,5.85C656.85,131.69,660.04,132.94,662.78,131.74z"/>
<path class="st0" d="M715.07,146.41L715.07,146.41c2.74-1.2,3.99-4.39,2.79-7.13l-2.57-5.85c-1.2-2.74-4.39-3.99-7.13-2.79l0,0
	c-2.74,1.2-3.99,4.39-2.79,7.13l2.57,5.85C709.14,146.37,712.33,147.61,715.07,146.41z"/>
<path class="st0" d="M493.34,51.51L493.34,51.51c2.35,1.84,5.76,1.43,7.6-0.92l21.16-27c1.84-2.35,1.43-5.76-0.92-7.6l0,0
	c-2.35-1.84-5.76-1.43-7.6,0.92l-21.16,27C490.57,46.27,490.99,49.67,493.34,51.51z"/>
<path class="st0" d="M522.13,67.27L522.13,67.27c2.99,0,5.41-2.42,5.41-5.41v-21c0-2.99-2.42-5.41-5.41-5.41l0,0
	c-2.99,0-5.41,2.42-5.41,5.41v21C516.72,64.85,519.14,67.27,522.13,67.27z"/>
<path class="st0" d="M509.8,72.23L509.8,72.23c2.5-1.64,3.19-5,1.54-7.5l-3.52-5.34c-1.64-2.5-5-3.19-7.5-1.54v0
	c-2.5,1.64-3.19,5-1.54,7.5l3.52,5.34C503.95,73.18,507.31,73.87,509.8,72.23z"/>
<path class="st0" d="M673.25,26.41L673.25,26.41c2.35,1.84,5.76,1.43,7.6-0.92l21.16-27c1.84-2.35,1.43-5.76-0.92-7.6v0
	c-2.35-1.84-5.76-1.43-7.6,0.92l-21.16,27C670.48,21.17,670.9,24.57,673.25,26.41z"/>
<path class="st0" d="M735.39,8.4L735.39,8.4c2.99,0,5.41-2.42,5.41-5.41v-21c0-2.99-2.42-5.41-5.41-5.41h0
	c-2.99,0-5.41,2.42-5.41,5.41v21C729.98,5.97,732.4,8.4,735.39,8.4z"/>
<path class="st0" d="M723.07,13.35L723.07,13.35c2.5-1.64,3.19-5,1.54-7.5l-3.52-5.34c-1.64-2.5-5-3.19-7.5-1.54v0
	c-2.5,1.64-3.19,5-1.54,7.5l3.52,5.34C717.21,14.31,720.57,15,723.07,13.35z"/>
<path class="st0" d="M578.08,61.89L578.08,61.89c2.5-1.64,3.19-5,1.54-7.5l-3.52-5.34c-1.64-2.5-5-3.19-7.5-1.54v0
	c-2.5,1.64-3.19,5-1.54,7.5l3.52,5.34C572.22,62.84,575.58,63.53,578.08,61.89z"/>
<path class="st0" d="M630.87,76.1L630.87,76.1c2.84,0.95,5.9-0.58,6.85-3.42l10.87-32.54c0.95-2.84-0.58-5.9-3.42-6.85v0
	c-2.84-0.95-5.9,0.58-6.85,3.42l-10.87,32.54C626.5,72.08,628.03,75.15,630.87,76.1z"/>
<path class="st0" d="M665.28,85.56L665.28,85.56c2.59-1.49,3.48-4.81,1.98-7.39l-10.5-18.19c-1.49-2.59-4.81-3.48-7.39-1.98v0
	c-2.59,1.49-3.48,4.81-1.98,7.39l10.5,18.19C659.38,86.17,662.69,87.06,665.28,85.56z"/>
<path class="st0" d="M653.33,49.2L653.33,49.2c0.94,2.84,4.01,4.37,6.85,3.43l6.06-2.02c2.84-0.94,4.37-4.01,3.43-6.85v0
	c-0.94-2.84-4.01-4.37-6.85-3.43l-6.06,2.02C653.92,43.3,652.39,46.36,653.33,49.2z"/>
<path class="st0" d="M497.27,2.7L497.27,2.7c0.36,2.97,3.05,5.08,6.02,4.73l34.06-4.11c2.97-0.36,5.08-3.05,4.73-6.02v0
	c-0.36-2.97-3.05-5.08-6.02-4.73l-34.06,4.11C499.03-2.96,496.91-0.27,497.27,2.7z"/>
<path class="st0" d="M497.53,24.06L497.53,24.06c1.84-2.35,1.43-5.76-0.92-7.6L480.08,3.51c-2.35-1.84-5.76-1.43-7.6,0.92v0
	c-1.84,2.35-1.43,5.76,0.92,7.6l16.53,12.95C492.28,26.83,495.69,26.41,497.53,24.06z"/>
<path class="st0" d="M531.97,17.34L531.97,17.34c0.7,2.91,3.62,4.7,6.53,4l6.21-1.49c2.91-0.7,4.7-3.62,4-6.53v0
	c-0.7-2.91-3.62-4.7-6.53-4l-6.21,1.49C533.06,11.51,531.27,14.43,531.97,17.34z"/>
<path class="st0" d="M591.53,57.04L591.53,57.04c0.94,2.84,4.01,4.37,6.85,3.43l6.06-2.02c2.84-0.94,4.37-4.01,3.43-6.85v0
	c-0.94-2.84-4.01-4.37-6.85-3.43l-6.06,2.02C592.12,51.14,590.58,54.21,591.53,57.04z"/>
<path class="st0" d="M756.66,157.31L756.66,157.31c1.99-2.23,1.81-5.65-0.42-7.64l-25.55-22.89c-2.23-1.99-5.65-1.81-7.64,0.42v0
	c-1.99,2.23-1.81,5.65,0.42,7.64l25.55,22.89C751.24,159.73,754.66,159.54,756.66,157.31z"/>
<path class="st0" d="M687.74,119.91L687.74,119.91c0.48,2.95,3.27,4.95,6.22,4.47l33.85-5.54c2.95-0.48,4.95-3.27,4.47-6.22v0
	c-0.48-2.95-3.27-4.95-6.22-4.47l-33.85,5.54C689.26,114.18,687.26,116.96,687.74,119.91z"/>
<path class="st0" d="M673.92,121.64L673.92,121.64c-2.35,1.85-2.74,5.26-0.89,7.6l21.27,26.91c1.85,2.35,5.26,2.74,7.6,0.89l0,0
	c2.35-1.85,2.74-5.26,0.89-7.6l-21.27-26.91C679.67,120.18,676.27,119.78,673.92,121.64z"/>
<path class="st0" d="M726.29,100.82L726.29,100.82c2.68,1.32,5.93,0.21,7.25-2.47l9.26-18.85c1.32-2.68,0.21-5.93-2.47-7.25v0
	c-2.68-1.32-5.93-0.21-7.25,2.47l-9.26,18.85C722.5,96.25,723.61,99.5,726.29,100.82z"/>
<path class="st0" d="M752.13,108.21L752.13,108.21c2.59-1.49,3.48-4.81,1.98-7.39l-3.2-5.54c-1.49-2.59-4.81-3.48-7.39-1.98v0
	c-2.59,1.49-3.48,4.81-1.98,7.39l3.2,5.54C746.23,108.82,749.54,109.71,752.13,108.21z"/>
<path class="st0" d="M749.66,132.82L749.66,132.82c2.59-1.49,3.48-4.81,1.98-7.39l-3.2-5.54c-1.49-2.59-4.81-3.48-7.39-1.98l0,0
	c-2.59,1.49-3.48,4.81-1.98,7.39l3.2,5.54C743.76,133.43,747.07,134.32,749.66,132.82z"/>
<path class="st0" d="M713.29,97.68L713.29,97.68c0.27-2.98-1.93-5.61-4.91-5.87l-6.37-0.57c-2.98-0.27-5.61,1.93-5.87,4.91v0
	c-0.27,2.98,1.93,5.61,4.91,5.87l6.37,0.57C710.4,102.85,713.03,100.66,713.29,97.68z"/>
<path class="st0" d="M782.93,29.3L782.93,29.3c1.99-2.23,1.81-5.65-0.42-7.64L756.96-1.23c-2.23-1.99-5.65-1.81-7.64,0.42v0
	c-1.99,2.23-1.81,5.65,0.42,7.64l25.55,22.89C777.52,31.72,780.94,31.53,782.93,29.3z"/>
<path class="st0" d="M778.33,8.69L778.33,8.69c0.94,2.84,4.01,4.37,6.85,3.43l19.92-6.63c2.84-0.94,4.37-4.01,3.43-6.85v0
	c-0.94-2.84-4.01-4.37-6.85-3.43l-19.92,6.63C778.91,2.79,777.38,5.86,778.33,8.69z"/>
<path class="st0" d="M800.74,29.39L800.74,29.39c2.59-1.49,3.48-4.81,1.98-7.39l-3.2-5.54c-1.49-2.59-4.81-3.48-7.39-1.98l0,0
	c-2.59,1.49-3.48,4.81-1.98,7.39l3.2,5.54C794.84,30,798.15,30.88,800.74,29.39z"/>
<path class="st0" d="M774.02,83.82L774.02,83.82c1.99-2.23,1.81-5.65-0.42-7.64l-25.55-22.89c-2.23-1.99-5.65-1.81-7.64,0.42v0
	c-1.99,2.23-1.81,5.65,0.42,7.64l25.55,22.89C768.6,86.24,772.02,86.05,774.02,83.82z"/>
<path class="st0" d="M774.13,64.38L774.13,64.38c2.68,1.32,5.93,0.21,7.25-2.47l9.26-18.85c1.32-2.68,0.21-5.93-2.47-7.25v0
	c-2.68-1.32-5.93-0.21-7.25,2.47l-9.26,18.85C770.34,59.82,771.44,63.06,774.13,64.38z"/>
<path class="st0" d="M665.22,23.94L665.22,23.94c0.27-2.98-1.93-5.61-4.91-5.87l-34.17-3.05c-2.98-0.27-5.61,1.93-5.87,4.91v0
	c-0.27,2.98,1.93,5.61,4.91,5.87l34.17,3.05C662.33,29.12,664.96,26.92,665.22,23.94z"/>
<path class="st0" d="M741.33,41.92L741.33,41.92c0.18,2.98,2.74,5.26,5.72,5.08l20.96-1.24c2.98-0.18,5.26-2.74,5.08-5.72v0
	c-0.18-2.98-2.74-5.26-5.72-5.08l-20.96,1.24C743.43,36.38,741.15,38.94,741.33,41.92z"/>
<path class="st0" d="M807.19,62.57L807.19,62.57c0.28-2.98-1.91-5.62-4.89-5.89l-6.36-0.6c-2.98-0.28-5.62,1.91-5.89,4.89v0
	c-0.28,2.98,1.91,5.62,4.89,5.89l6.36,0.6C804.28,67.73,806.92,65.55,807.19,62.57z"/>
<path class="st0" d="M762.14,137.31L762.14,137.31c2.98,0.27,5.61-1.93,5.87-4.91l3.05-34.17c0.27-2.98-1.93-5.61-4.91-5.87l0,0
	c-2.98-0.27-5.61,1.93-5.87,4.91l-3.05,34.17C756.97,134.41,759.17,137.04,762.14,137.31z"/>
<path class="st0" d="M799.15,172.66L799.15,172.66c1.99-2.23,1.81-5.65-0.42-7.64l-25.55-22.89c-2.23-1.99-5.65-1.81-7.64,0.42v0
	c-1.99,2.23-1.81,5.65,0.42,7.64l25.55,22.89C793.73,175.08,797.15,174.89,799.15,172.66z"/>
<path class="st0" d="M792.14,148.17L792.14,148.17c2.59-1.49,3.48-4.81,1.98-7.39l-3.2-5.54c-1.49-2.59-4.81-3.48-7.39-1.98l0,0
	c-2.59,1.49-3.48,4.81-1.98,7.39l3.2,5.54C786.24,148.78,789.55,149.67,792.14,148.17z"/>
<path class="st0" d="M775.93,122.2L775.93,122.2c0,2.99,2.42,5.41,5.41,5.41l34.3,0c2.99,0,5.41-2.42,5.41-5.41v0
	c0-2.99-2.42-5.41-5.41-5.41l-34.3,0C778.36,116.79,775.93,119.21,775.93,122.2z"/>
<path class="st0" d="M780.34,88.37L780.34,88.37c1.06,2.79,4.19,4.2,6.99,3.13l19.63-7.47c2.79-1.06,4.2-4.19,3.13-6.99v0
	c-1.06-2.79-4.19-4.2-6.98-3.13l-19.63,7.47C780.68,82.45,779.28,85.58,780.34,88.37z"/>
<path class="st0" d="M793.08,108.84L793.08,108.84c1.32-2.68,0.21-5.93-2.47-7.25l-5.74-2.82c-2.68-1.32-5.93-0.21-7.25,2.47v0
	c-1.32,2.68-0.21,5.93,2.47,7.25l5.74,2.82C788.52,112.63,791.76,111.52,793.08,108.84z"/>
<path class="st0" d="M635.78,164.17L635.78,164.17c1.99-2.23,1.81-5.65-0.42-7.64l-25.55-22.89c-2.23-1.99-5.65-1.81-7.64,0.42l0,0
	c-1.99,2.23-1.81,5.65,0.42,7.64l25.55,22.89C630.36,166.58,633.78,166.39,635.78,164.17z"/>
<path class="st0" d="M629.58,93.71L629.58,93.71c-0.27,2.98,1.93,5.61,4.91,5.87l20.92,1.87c2.98,0.27,5.61-1.93,5.87-4.91v0
	c0.27-2.98-1.93-5.61-4.91-5.87l-20.92-1.87C632.47,88.54,629.84,90.74,629.58,93.71z"/>
<path class="st0" d="M684.88,83.74L684.88,83.74c-2.68-1.32-5.93-0.21-7.25,2.47l-9.26,18.85c-1.32,2.68-0.21,5.93,2.47,7.25l0,0
	c2.68,1.32,5.93,0.21,7.25-2.47l9.26-18.85C688.67,88.3,687.57,85.06,684.88,83.74z"/>
<path class="st0" d="M656.62,152.91L656.62,152.91c2.59-1.49,3.48-4.81,1.98-7.39l-3.2-5.54c-1.49-2.59-4.81-3.48-7.39-1.98v0
	c-2.59,1.49-3.48,4.81-1.98,7.39l3.2,5.54C650.72,153.52,654.03,154.4,656.62,152.91z"/>
<path class="st0" d="M337.92,27.95L337.92,27.95c2.23,1.99,5.65,1.81,7.64-0.42l22.89-25.55c1.99-2.23,1.81-5.65-0.42-7.64v0
	c-2.23-1.99-5.65-1.81-7.64,0.42L337.5,20.3C335.5,22.53,335.69,25.95,337.92,27.95z"/>
<path class="st0" d="M336.41,51.06L336.41,51.06c2.5-1.64,3.2-5,1.56-7.5L326.45,26c-1.64-2.5-5-3.2-7.5-1.56v0
	c-2.5,1.64-3.2,5-1.56,7.5l11.52,17.56C330.56,52,333.91,52.7,336.41,51.06z"/>
<path class="st0" d="M308.3,74.94L308.3,74.94c2.95,0.5,5.74-1.49,6.24-4.44l3.49-20.71c0.5-2.95-1.49-5.74-4.44-6.24l0,0
	c-2.95-0.5-5.74,1.49-6.24,4.44l-3.49,20.71C303.36,71.65,305.35,74.44,308.3,74.94z"/>
<path class="st0" d="M325.48,15.28L325.48,15.28c2.65,1.38,5.92,0.35,7.3-2.3l2.95-5.67c1.38-2.65,0.35-5.92-2.3-7.3l0,0
	c-2.65-1.38-5.92-0.35-7.3,2.3l-2.95,5.67C321.8,10.63,322.83,13.9,325.48,15.28z"/>
<path class="st0" d="M378.17,38.81L378.17,38.81c-1.38,2.65-0.35,5.92,2.3,7.3l30.43,15.84c2.65,1.38,5.92,0.35,7.3-2.3l0,0
	c1.38-2.65,0.35-5.92-2.3-7.3l-30.43-15.84C382.82,35.13,379.55,36.16,378.17,38.81z"/>
<path class="st0" d="M368.16,31.19L368.16,31.19c2.72,1.23,5.93,0.02,7.16-2.71l8.64-19.14c1.23-2.72,0.02-5.93-2.71-7.16v0
	c-2.72-1.23-5.93-0.02-7.16,2.71l-8.64,19.14C364.22,26.75,365.44,29.96,368.16,31.19z"/>
<path class="st0" d="M396.21,32.34L396.21,32.34c2.99,0,5.41-2.42,5.41-5.41v-6.39c0-2.99-2.42-5.41-5.41-5.41l0,0
	c-2.99,0-5.41,2.42-5.41,5.41v6.39C390.79,29.92,393.22,32.34,396.21,32.34z"/>
<path class="st0" d="M451.27-1.41L451.27-1.41c-1.2-2.74-4.39-3.99-7.13-2.79L412.72,9.57c-2.74,1.2-3.99,4.39-2.79,7.13v0
	c1.2,2.74,4.39,3.99,7.13,2.79l31.42-13.77C451.22,4.52,452.47,1.32,451.27-1.41z"/>
<path class="st0" d="M415.63,36.1L415.63,36.1c1.4,2.64,4.68,3.65,7.32,2.25l18.55-9.84c2.64-1.4,3.65-4.68,2.25-7.32v0
	c-1.4-2.64-4.68-3.65-7.32-2.25l-18.55,9.84C415.24,30.18,414.23,33.46,415.63,36.1z"/>
<path class="st0" d="M463.86,24.57L463.86,24.57c2.74-1.2,3.99-4.39,2.79-7.13l-2.57-5.85c-1.2-2.74-4.39-3.99-7.13-2.79v0
	c-2.74,1.2-3.99,4.39-2.79,7.13l2.57,5.85C457.93,24.53,461.12,25.77,463.86,24.57z"/>
<path class="st0" d="M461.34,119.97L461.34,119.97c1.99-2.23,1.81-5.65-0.42-7.64l-25.55-22.89c-2.23-1.99-5.65-1.81-7.64,0.42l0,0
	c-1.99,2.23-1.81,5.65,0.42,7.64l25.55,22.89C455.92,122.38,459.34,122.19,461.34,119.97z"/>
<path class="st0" d="M461.71,153.88L461.71,153.88c2.36-1.84,2.78-5.24,0.94-7.6l-21.09-27.06c-1.84-2.36-5.24-2.78-7.6-0.94v0
	c-2.36,1.84-2.78,5.24-0.94,7.6l21.09,27.06C455.95,155.3,459.35,155.72,461.71,153.88z"/>
<path class="st0" d="M431.98,77.4L431.98,77.4c2.59-1.49,3.48-4.81,1.98-7.39l-3.2-5.54c-1.49-2.59-4.81-3.48-7.39-1.98v0
	c-2.59,1.49-3.48,4.81-1.98,7.39l3.2,5.54C426.08,78.01,429.39,78.89,431.98,77.4z"/>
<path class="st0" d="M561.94,67.69L561.94,67.69c2.51-1.63,3.22-4.98,1.59-7.49l-18.7-28.76c-1.63-2.51-4.98-3.22-7.49-1.59v0
	c-2.51,1.63-3.22,4.98-1.59,7.49l18.7,28.76C556.08,68.61,559.43,69.32,561.94,67.69z"/>
<path class="st0" d="M555.81,34.49L555.81,34.49c2.35,1.84,5.76,1.43,7.6-0.92l21.16-27c1.84-2.35,1.43-5.76-0.92-7.6v0
	c-2.35-1.84-5.76-1.43-7.6,0.92l-21.16,27C553.04,29.24,553.45,32.64,555.81,34.49z"/>
<path class="st0" d="M584.59,50.25L584.59,50.25c2.99,0,5.41-2.42,5.41-5.41v-21c0-2.99-2.42-5.41-5.41-5.41l0,0
	c-2.99,0-5.41,2.42-5.41,5.41v21C579.18,47.83,581.61,50.25,584.59,50.25z"/>
<path class="st0" d="M624.4,50.67L624.4,50.67c2.51-1.63,3.22-4.98,1.59-7.49l-18.7-28.76c-1.63-2.51-4.98-3.22-7.49-1.59v0
	c-2.51,1.63-3.22,4.98-1.59,7.49l18.7,28.76C618.54,51.58,621.9,52.3,624.4,50.67z"/>
<path class="st0" d="M655.33,5.65L655.33,5.65c0.94,2.84,4.01,4.37,6.85,3.43l6.06-2.02c2.84-0.94,4.37-4.01,3.43-6.85v0
	c-0.94-2.84-4.01-4.37-6.85-3.43l-6.06,2.02C655.92-0.25,654.39,2.82,655.33,5.65z"/>
<path class="st0" d="M637.26,8.57L637.26,8.57c2.98,0.27,5.61-1.93,5.87-4.91l0.57-6.37c0.27-2.98-1.93-5.61-4.91-5.87v0
	c-2.98-0.27-5.61,1.93-5.87,4.91l-0.57,6.37C632.08,5.68,634.28,8.31,637.26,8.57z"/>
<path class="st0" d="M597.62,2.84L597.62,2.84c1.24,2.72,4.45,3.92,7.17,2.68l19.11-8.7c2.72-1.24,3.92-4.45,2.68-7.17v0
	c-1.24-2.72-4.45-3.92-7.17-2.68l-19.11,8.7C597.58-3.09,596.38,0.12,597.62,2.84z"/>
<path class="st0" d="M532.65,90.1L532.65,90.1c2.84,0.94,5.9-0.61,6.84-3.45l6.58-19.94c0.94-2.84-0.61-5.9-3.45-6.84v0
	c-2.84-0.94-5.9,0.61-6.84,3.45l-6.58,19.94C528.27,86.11,529.81,89.17,532.65,90.1z"/>
<path class="st0" d="M553.03,90.12L553.03,90.12c2.99,0,5.41-2.42,5.41-5.41v-6.39c0-2.99-2.42-5.41-5.41-5.41h0
	c-2.99,0-5.41,2.42-5.41,5.41v6.39C547.61,87.7,550.04,90.12,553.03,90.12z"/>
<path class="st0" d="M484.81,122.64L484.81,122.64c2.84,0.94,5.9-0.61,6.84-3.45l6.58-19.94c0.94-2.84-0.61-5.9-3.45-6.84l0,0
	c-2.84-0.94-5.9,0.61-6.84,3.45l-6.58,19.94C480.43,118.65,481.97,121.71,484.81,122.64z"/>
<path class="st0" d="M500.06,83.61L500.06,83.61c-1.49,2.59-0.61,5.9,1.98,7.39l18.19,10.5c2.59,1.49,5.9,0.61,7.39-1.98v0
	c1.49-2.59,0.61-5.9-1.98-7.39l-18.19-10.5C504.86,80.13,501.55,81.02,500.06,83.61z"/>
<path class="st0" d="M471.9,114.1L471.9,114.1c2.99,0,5.41-2.42,5.41-5.41v-6.39c0-2.99-2.42-5.41-5.41-5.41l0,0
	c-2.99,0-5.41,2.42-5.41,5.41v6.39C466.49,111.68,468.91,114.1,471.9,114.1z"/>
<path class="st0" d="M64.63,152.54L64.63,152.54c2.35,1.84,5.76,1.43,7.6-0.92l21.16-27c1.84-2.35,1.43-5.76-0.92-7.6l0,0
	c-2.35-1.84-5.76-1.43-7.6,0.92l-21.16,27C61.86,147.3,62.27,150.7,64.63,152.54z"/>
<path class="st0" d="M93.42,168.3L93.42,168.3c2.99,0,5.41-2.42,5.41-5.41v-21c0-2.99-2.42-5.41-5.41-5.41h0
	c-2.99,0-5.41,2.42-5.41,5.41v21C88,165.88,90.43,168.3,93.42,168.3z"/>
<path class="st0" d="M118.02,141.74L118.02,141.74c2.5-1.64,3.19-5,1.54-7.5l-3.52-5.34c-1.64-2.5-5-3.19-7.5-1.54l0,0
	c-2.5,1.64-3.19,5-1.54,7.5l3.52,5.34C112.17,142.7,115.52,143.39,118.02,141.74z"/>
<path class="st0" d="M73.54,105.45L73.54,105.45c2.84,0.95,5.9-0.58,6.85-3.42l10.87-32.54c0.95-2.84-0.58-5.9-3.42-6.85l0,0
	c-2.84-0.95-5.9,0.58-6.85,3.42L70.12,98.6C69.17,101.43,70.71,104.5,73.54,105.45z"/>
<path class="st0" d="M107.95,114.91L107.95,114.91c2.59-1.49,3.48-4.81,1.98-7.39l-10.5-18.19c-1.49-2.59-4.81-3.48-7.39-1.98h0
	c-2.59,1.49-3.48,4.81-1.98,7.39l10.5,18.19C102.05,115.52,105.36,116.41,107.95,114.91z"/>
<path class="st0" d="M96,78.55L96,78.55c0.94,2.84,4.01,4.37,6.85,3.43l6.06-2.02c2.84-0.94,4.37-4.01,3.43-6.85v0
	c-0.94-2.84-4.01-4.37-6.85-3.43l-6.06,2.02C96.59,72.64,95.06,75.71,96,78.55z"/>
<path class="st0" d="M200.13,149.61L200.13,149.61c1.99-2.23,1.81-5.65-0.42-7.64l-25.55-22.89c-2.23-1.99-5.65-1.81-7.64,0.42v0
	c-1.99,2.23-1.81,5.65,0.42,7.64l25.55,22.89C194.71,152.02,198.13,151.84,200.13,149.61z"/>
<path class="st0" d="M187.87,118.99L187.87,118.99c-0.98,2.82,0.51,5.91,3.33,6.89l19.83,6.91c2.82,0.98,5.91-0.51,6.89-3.33l0,0
	c0.98-2.82-0.51-5.91-3.33-6.89l-19.83-6.91C191.94,114.68,188.86,116.17,187.87,118.99z"/>
<path class="st0" d="M288.97,158.67L288.97,158.67c1.49-2.59,0.61-5.9-1.98-7.39l-29.71-17.15c-2.59-1.49-5.9-0.61-7.39,1.98v0
	c-1.49,2.59-0.61,5.9,1.98,7.39l29.71,17.15C284.16,162.15,287.47,161.26,288.97,158.67z"/>
<path class="st0" d="M226.19,144.86L226.19,144.86c2.24,1.98,5.66,1.76,7.64-0.48l13.89-15.75c1.98-2.24,1.76-5.66-0.48-7.64l0,0
	c-2.24-1.98-5.66-1.76-7.64,0.48l-13.89,15.75C223.73,139.46,223.95,142.88,226.19,144.86z"/>
<path class="st0" d="M218.93,157.27L218.93,157.27c2.59-1.49,3.48-4.81,1.98-7.39l-3.2-5.54c-1.49-2.59-4.81-3.48-7.39-1.98l0,0
	c-2.59,1.49-3.48,4.81-1.98,7.39l3.2,5.54C213.03,157.88,216.34,158.76,218.93,157.27z"/>
<path class="st0" d="M161.03,53.01L161.03,53.01c2.51-1.63,3.22-4.98,1.59-7.49l-18.7-28.76c-1.63-2.51-4.98-3.22-7.49-1.59l0,0
	c-2.51,1.63-3.22,4.98-1.59,7.49l18.7,28.76C155.17,53.93,158.52,54.64,161.03,53.01z"/>
<path class="st0" d="M137.58,52.27L137.58,52.27c0-2.99-2.42-5.41-5.41-5.41l-34.3,0c-2.99,0-5.41,2.42-5.41,5.41v0
	c0,2.99,2.42,5.41,5.41,5.41l34.3,0C135.16,57.68,137.58,55.26,137.58,52.27z"/>
<path class="st0" d="M118.92,97.75L118.92,97.75c2.84,0.94,5.9-0.61,6.84-3.45l6.58-19.94c0.94-2.84-0.61-5.9-3.45-6.84l0,0
	c-2.84-0.94-5.9,0.61-6.84,3.45l-6.58,19.94C114.54,93.75,116.08,96.81,118.92,97.75z"/>
<path class="st0" d="M101.68,40.75L101.68,40.75c1.63,2.51,4.98,3.22,7.49,1.59l17.61-11.45c2.51-1.63,3.22-4.98,1.59-7.49l0,0
	c-1.63-2.51-4.98-3.22-7.49-1.59l-17.61,11.45C100.76,34.9,100.05,38.25,101.68,40.75z"/>
<path class="st0" d="M146.17,76.92L146.17,76.92c2.99,0,5.41-2.42,5.41-5.41v-6.39c0-2.99-2.42-5.41-5.41-5.41h0
	c-2.99,0-5.41,2.42-5.41,5.41v6.39C140.75,74.5,143.18,76.92,146.17,76.92z"/>
<path class="st0" d="M160.35,26.41L160.35,26.41c2.99,0,5.41-2.42,5.41-5.41V14.6c0-2.99-2.42-5.41-5.41-5.41h0
	c-2.99,0-5.41,2.42-5.41,5.41V21C154.94,23.98,157.36,26.41,160.35,26.41z"/>
<path class="st0" d="M132.8,2.49L132.8,2.49c0.39,2.96,3.11,5.05,6.08,4.65l34.01-4.51c2.96-0.39,5.05-3.11,4.65-6.08l0,0
	c-0.39-2.96-3.11-5.05-6.08-4.65l-34.01,4.51C134.49-3.19,132.4-0.47,132.8,2.49z"/>
<path class="st0" d="M91.94,33.97L91.94,33.97c2.84,0.94,5.9-0.61,6.84-3.45l6.58-19.94c0.94-2.84-0.61-5.9-3.45-6.84l0,0
	c-2.84-0.94-5.9,0.61-6.84,3.45l-6.58,19.94C87.56,29.97,89.1,33.03,91.94,33.97z"/>
<path class="st0" d="M119.19,13.14L119.19,13.14c2.99,0,5.41-2.42,5.41-5.41V1.34c0-2.99-2.42-5.41-5.41-5.41h0
	c-2.99,0-5.41,2.42-5.41,5.41v6.39C113.78,10.72,116.2,13.14,119.19,13.14z"/>
<g>
</g>
<g>
</g>
<g>
</g>
<g>
</g>
<g>
</g>
<g>
</g>
<g>
</g>
<g>
</g>
<g>
</g>
<g>
</g>
<g>
</g>
<g>
</g>
<g>
</g>
<g>
</g>
<g>
</g>
</svg>
