<?xml version="1.0" encoding="utf-8"?>
<!-- Generator: Adobe Illustrator 24.1.1, SVG Export Plug-In . SVG Version: 6.00 Build 0)  -->
<svg version="1.1" id="Layer_1" xmlns="http://www.w3.org/2000/svg" xmlns:xlink="http://www.w3.org/1999/xlink" x="0px" y="0px"
	 viewBox="0 0 800 150" style="enable-background:new 0 0 800 150;" xml:space="preserve">
<style type="text/css">
	
		.st0{fill-rule:evenodd;clip-rule:evenodd;fill:none;stroke:#343A40;stroke-linecap:round;stroke-linejoin:round;stroke-miterlimit:10;}
	.st1{fill:none;stroke:#343A40;stroke-linecap:round;stroke-linejoin:round;stroke-miterlimit:10;}
</style>
<g>
	
		<rect id="Rectangle-path_4_" x="140.52" y="139.15" transform="matrix(0.866 -0.5 0.5 0.866 -55.3988 96.9533)" class="st0" width="25.41" height="25.41"/>
	
		<rect id="Rectangle-path_3_" x="148.04" y="161.38" transform="matrix(0.866 -0.5 0.5 0.866 -60.6179 98.1273)" class="st0" width="9.53" height="1.59"/>
	<path id="Shape_4_" class="st0" d="M139.55,148.89l3.74-2.16c2.2-1.27,4.2-0.74,5.28,1.13l0,0c1.21,2.09,0.19,4.14-1.84,5.32
		l-1.54,0.89l1.59,2.75l-1.98,1.14L139.55,148.89L139.55,148.89L139.55,148.89z M146.6,149.15L146.6,149.15
		c-0.51-0.88-1.4-1.03-2.44-0.42l-1.54,0.89l1.62,2.81l1.6-0.92C146.91,150.87,147.04,149.92,146.6,149.15z"/>
	<path id="Shape_3_" class="st0" d="M150.2,148.9L150.2,148.9c-0.76-1.25-0.97-2.75-0.59-4.16c0.38-1.41,1.31-2.6,2.59-3.3
		c1.71-0.98,3.07-1.04,4.4-0.63l-0.41,2.22c-1.1-0.25-2.03-0.22-2.91,0.29c-1.54,0.89-1.91,2.79-0.99,4.38l0,0
		c0.89,1.54,2.75,2.23,4.29,1.34c1.05-0.6,1.45-1.42,1.82-2.44l2,0.53c-0.36,1.53-1.03,2.79-2.79,3.81
		c-1.25,0.72-2.74,0.91-4.13,0.53C152.08,151.08,150.9,150.16,150.2,148.9"/>
	<polyline class="st1" points="158.62,168.39 157.82,172.66 141.71,172.58 130.71,148.56 140.53,135.71 149.41,136.24 	"/>
	<polyline class="st1" points="148.05,140.17 151.64,129.3 156.43,135.33 	"/>
	<line class="st1" x1="141.99" y1="168.42" x2="142.76" y2="159.14"/>
	<polyline class="st1" points="152.66,166.84 153.6,169.67 170.22,165.43 178.82,155.55 164.83,141.48 163.12,143.61 	"/>
	<polyline class="st1" points="159.14,136.7 168.57,138.3 169.03,145.71 	"/>
</g>
<g>
	
		<rect x="179.47" y="109.89" transform="matrix(0.866 -0.5 0.5 0.866 -35.465 117.6421)" class="st1" width="44.64" height="30.22"/>
	<polygon class="st1" points="192.23,136.39 188.64,134.64 192.18,127.38 184.13,126.83 184.41,122.84 195.42,123.6 197.08,126.47 	
		"/>
	<rect x="205.06" y="126.28" transform="matrix(0.866 -0.5 0.5 0.866 -35.7499 123.1422)" class="st1" width="13.69" height="4"/>
</g>
<g>
	
		<rect id="Rectangle-path_8_" x="236.63" y="83.66" transform="matrix(0.866 -0.5 0.5 0.866 -14.7762 137.5758)" class="st0" width="25.41" height="25.41"/>
	
		<rect id="Rectangle-path_7_" x="244.15" y="105.89" transform="matrix(0.866 -0.5 0.5 0.866 -19.9953 138.7498)" class="st0" width="9.53" height="1.59"/>
	<path id="Shape_8_" class="st0" d="M235.67,93.4l3.74-2.16c2.2-1.27,4.2-0.74,5.28,1.13l0,0c1.21,2.09,0.19,4.14-1.84,5.32
		l-1.54,0.89l1.59,2.75l-1.98,1.14L235.67,93.4L235.67,93.4L235.67,93.4z M242.71,93.66L242.71,93.66c-0.51-0.88-1.4-1.03-2.44-0.42
		l-1.54,0.89l1.62,2.81l1.6-0.92C243.02,95.38,243.15,94.43,242.71,93.66z"/>
	<path id="Shape_7_" class="st0" d="M246.31,93.41L246.31,93.41c-0.76-1.25-0.97-2.75-0.59-4.16s1.31-2.6,2.59-3.3
		c1.71-0.98,3.07-1.04,4.4-0.63l-0.41,2.22c-1.1-0.25-2.03-0.22-2.91,0.29c-1.54,0.89-1.91,2.79-0.99,4.38l0,0
		c0.89,1.54,2.75,2.23,4.29,1.34c1.05-0.6,1.45-1.42,1.82-2.44l2,0.53c-0.36,1.53-1.03,2.79-2.79,3.81
		c-1.25,0.72-2.74,0.91-4.13,0.53C248.2,95.59,247.02,94.67,246.31,93.41"/>
	<polyline class="st1" points="254.73,112.9 253.94,117.17 237.83,117.08 226.83,93.07 236.64,80.22 245.53,80.75 	"/>
	<polyline class="st1" points="244.17,84.67 247.75,73.81 252.54,79.84 	"/>
	<line class="st1" x1="238.1" y1="112.93" x2="238.87" y2="103.65"/>
	<polyline class="st1" points="248.78,111.35 249.72,114.18 266.34,109.94 274.94,100.06 260.95,85.99 259.24,88.11 	"/>
	<polyline class="st1" points="255.25,81.21 264.68,82.81 265.15,90.22 	"/>
</g>
<g>
	<rect x="275.58" y="54.4" transform="matrix(0.866 -0.5 0.5 0.866 5.1575 158.2647)" class="st1" width="44.64" height="30.22"/>
	<polygon class="st1" points="288.35,80.9 284.75,79.14 288.3,71.89 280.25,71.34 280.52,67.35 291.54,68.11 293.2,70.98 	"/>
	<rect x="301.18" y="70.79" transform="matrix(0.866 -0.5 0.5 0.866 4.8727 163.7647)" class="st1" width="13.69" height="4"/>
</g>
<g>
	
		<rect id="Rectangle-path_6_" x="332.74" y="28.17" transform="matrix(0.866 -0.5 0.5 0.866 25.8464 178.1984)" class="st0" width="25.41" height="25.41"/>
	
		<rect id="Rectangle-path_5_" x="340.26" y="50.4" transform="matrix(0.866 -0.5 0.5 0.866 20.6272 179.3724)" class="st0" width="9.53" height="1.59"/>
	<path id="Shape_6_" class="st0" d="M331.78,37.9l3.74-2.16c2.2-1.27,4.2-0.74,5.28,1.13l0,0c1.21,2.09,0.19,4.14-1.84,5.32
		l-1.54,0.89l1.59,2.75l-1.98,1.14L331.78,37.9L331.78,37.9L331.78,37.9z M338.82,38.17L338.82,38.17c-0.51-0.88-1.4-1.03-2.44-0.42
		l-1.54,0.89l1.62,2.81l1.6-0.92C339.14,39.89,339.27,38.94,338.82,38.17z"/>
	<path id="Shape_5_" class="st0" d="M342.42,37.92L342.42,37.92c-0.76-1.25-0.97-2.75-0.59-4.16c0.38-1.41,1.31-2.6,2.59-3.3
		c1.71-0.98,3.07-1.04,4.4-0.63l-0.41,2.22c-1.1-0.25-2.03-0.22-2.91,0.29c-1.54,0.89-1.91,2.79-0.99,4.38l0,0
		c0.89,1.54,2.75,2.23,4.29,1.34c1.05-0.6,1.45-1.42,1.82-2.44l2,0.53c-0.36,1.53-1.03,2.79-2.79,3.81
		c-1.25,0.72-2.74,0.91-4.13,0.53C344.31,40.1,343.13,39.18,342.42,37.92"/>
	<polyline class="st1" points="350.85,57.41 350.05,61.68 333.94,61.59 322.94,37.58 332.75,24.73 341.64,25.26 	"/>
	<polyline class="st1" points="340.28,29.18 343.86,18.31 348.66,24.35 	"/>
	<line class="st1" x1="334.22" y1="57.44" x2="334.98" y2="48.16"/>
	<polyline class="st1" points="344.89,55.86 345.83,58.69 362.45,54.45 371.05,44.57 357.06,30.5 355.35,32.62 	"/>
	<polyline class="st1" points="351.37,25.72 360.79,27.31 361.26,34.72 	"/>
</g>
<g>
	<rect x="371.7" y="-1.09" transform="matrix(0.866 -0.5 0.5 0.866 45.7801 198.8872)" class="st1" width="44.64" height="30.22"/>
	<polygon class="st1" points="384.46,25.41 380.87,23.65 384.41,16.4 376.36,15.85 376.63,11.86 387.65,12.62 389.31,15.49 	"/>
	<rect x="397.29" y="15.3" transform="matrix(0.866 -0.5 0.5 0.866 45.4952 204.3873)" class="st1" width="13.69" height="4"/>
</g>
<g>
	
		<rect id="Rectangle-path_16_" x="428.86" y="-27.33" transform="matrix(0.866 -0.5 0.5 0.866 66.4689 218.8209)" class="st0" width="25.41" height="25.41"/>
	
		<rect id="Rectangle-path_15_" x="436.38" y="-5.09" transform="matrix(0.866 -0.5 0.5 0.866 61.2498 219.9949)" class="st0" width="9.53" height="1.59"/>
	<path id="Shape_16_" class="st0" d="M427.89-17.59l3.74-2.16c2.2-1.27,4.2-0.74,5.28,1.13l0,0c1.21,2.09,0.19,4.14-1.84,5.32
		l-1.54,0.89l1.59,2.75l-1.98,1.14L427.89-17.59L427.89-17.59L427.89-17.59z M434.94-17.33L434.94-17.33
		c-0.51-0.88-1.4-1.03-2.44-0.42l-1.54,0.89l1.62,2.81l1.6-0.92C435.25-15.6,435.38-16.56,434.94-17.33z"/>
	<path id="Shape_15_" class="st0" d="M438.54-17.57L438.54-17.57c-0.76-1.25-0.97-2.75-0.59-4.16c0.38-1.41,1.31-2.6,2.59-3.3
		c1.71-0.98,3.07-1.04,4.4-0.63l-0.41,2.22c-1.1-0.25-2.03-0.22-2.91,0.29c-1.54,0.89-1.91,2.79-0.99,4.38l0,0
		c0.89,1.54,2.75,2.23,4.29,1.34c1.05-0.6,1.45-1.42,1.82-2.44l2,0.53c-0.36,1.53-1.03,2.79-2.79,3.81
		c-1.25,0.72-2.74,0.91-4.13,0.53C440.42-15.39,439.24-16.31,438.54-17.57"/>
	<polyline class="st1" points="446.96,1.92 446.17,6.19 430.06,6.1 419.05,-17.91 428.87,-30.76 437.75,-30.23 	"/>
	<polyline class="st1" points="436.4,-26.31 439.98,-37.18 444.77,-31.14 	"/>
	<line class="st1" x1="430.33" y1="1.95" x2="431.1" y2="-7.34"/>
	<polyline class="st1" points="441.01,0.36 441.95,3.2 458.57,-1.05 467.16,-10.92 453.17,-24.99 451.47,-22.87 	"/>
	<polyline class="st1" points="447.48,-29.77 456.91,-28.18 457.38,-20.77 	"/>
</g>
<g>
	
		<rect id="Rectangle-path_30_" x="213.54" y="154.65" transform="matrix(0.866 -0.5 0.5 0.866 -53.3639 135.541)" class="st0" width="25.41" height="25.41"/>
	
		<rect id="Rectangle-path_29_" x="221.06" y="176.88" transform="matrix(0.866 -0.5 0.5 0.866 -58.583 136.715)" class="st0" width="9.53" height="1.59"/>
	<path id="Shape_30_" class="st0" d="M212.58,164.38l3.74-2.16c2.2-1.27,4.2-0.74,5.28,1.13l0,0c1.21,2.09,0.19,4.14-1.84,5.32
		l-1.54,0.89l1.59,2.75l-1.98,1.14L212.58,164.38L212.58,164.38L212.58,164.38z M219.62,164.64L219.62,164.64
		c-0.51-0.88-1.4-1.03-2.44-0.42l-1.54,0.89l1.62,2.81l1.6-0.92C219.93,166.37,220.06,165.41,219.62,164.64z"/>
	<path id="Shape_29_" class="st0" d="M223.22,164.4L223.22,164.4c-0.76-1.25-0.97-2.75-0.59-4.16c0.38-1.41,1.31-2.6,2.59-3.3
		c1.71-0.98,3.07-1.04,4.4-0.63l-0.41,2.22c-1.1-0.25-2.03-0.22-2.91,0.29c-1.54,0.89-1.91,2.79-0.99,4.38l0,0
		c0.89,1.54,2.75,2.23,4.29,1.34c1.05-0.6,1.45-1.42,1.82-2.44l2,0.53c-0.36,1.53-1.03,2.79-2.79,3.81
		c-1.25,0.72-2.74,0.91-4.13,0.53S223.93,165.66,223.22,164.4"/>
	<polyline class="st1" points="231.64,183.89 230.85,188.16 214.74,188.07 203.73,164.06 213.55,151.21 222.44,151.74 	"/>
	<polyline class="st1" points="221.08,155.66 224.66,144.79 229.45,150.83 	"/>
	<line class="st1" x1="215.01" y1="183.92" x2="215.78" y2="174.64"/>
	<polyline class="st1" points="225.69,182.34 226.63,185.17 243.25,180.93 251.85,171.05 237.85,156.98 236.15,159.1 	"/>
	<polyline class="st1" points="232.16,152.2 241.59,153.79 242.06,161.2 	"/>
</g>
<g>
	
		<rect x="252.49" y="125.39" transform="matrix(0.866 -0.5 0.5 0.866 -33.4302 156.2298)" class="st1" width="44.64" height="30.22"/>
	<polygon class="st1" points="265.25,151.89 261.66,150.13 265.21,142.88 257.15,142.33 257.43,138.34 268.45,139.09 270.1,141.97 	
		"/>
	<rect x="278.09" y="141.78" transform="matrix(0.866 -0.5 0.5 0.866 -33.715 161.7299)" class="st1" width="13.69" height="4"/>
</g>
<g>
	
		<rect id="Rectangle-path_28_" x="309.65" y="99.15" transform="matrix(0.866 -0.5 0.5 0.866 -12.7414 176.1636)" class="st0" width="25.41" height="25.41"/>
	
		<rect id="Rectangle-path_27_" x="317.17" y="121.39" transform="matrix(0.866 -0.5 0.5 0.866 -17.9605 177.3376)" class="st0" width="9.53" height="1.59"/>
	<path id="Shape_28_" class="st0" d="M308.69,108.89l3.74-2.16c2.2-1.27,4.2-0.74,5.28,1.13l0,0c1.21,2.09,0.19,4.14-1.84,5.32
		l-1.54,0.89l1.59,2.75l-1.98,1.14L308.69,108.89L308.69,108.89L308.69,108.89z M315.73,109.15L315.73,109.15
		c-0.51-0.88-1.4-1.03-2.44-0.42l-1.54,0.89l1.62,2.81l1.6-0.92C316.04,110.88,316.18,109.92,315.73,109.15z"/>
	<path id="Shape_27_" class="st0" d="M319.33,108.91L319.33,108.91c-0.76-1.25-0.97-2.75-0.59-4.16c0.38-1.41,1.31-2.6,2.59-3.3
		c1.71-0.98,3.07-1.04,4.4-0.63l-0.41,2.22c-1.1-0.25-2.03-0.22-2.91,0.29c-1.54,0.89-1.91,2.79-0.99,4.38l0,0
		c0.89,1.54,2.75,2.23,4.29,1.34c1.05-0.6,1.45-1.42,1.82-2.44l2,0.53c-0.36,1.53-1.03,2.79-2.79,3.81
		c-1.25,0.72-2.74,0.91-4.13,0.53S320.04,110.17,319.33,108.91"/>
	<polyline class="st1" points="327.76,128.4 326.96,132.67 310.85,132.58 299.85,108.57 309.66,95.72 318.55,96.25 	"/>
	<polyline class="st1" points="317.19,100.17 320.77,89.3 325.56,95.34 	"/>
	<line class="st1" x1="311.13" y1="128.42" x2="311.89" y2="119.14"/>
	<polyline class="st1" points="321.8,126.84 322.74,129.68 339.36,125.43 347.96,115.56 333.97,101.49 332.26,103.61 	"/>
	<polyline class="st1" points="328.27,96.71 337.7,98.3 338.17,105.71 	"/>
</g>
<g>
	<rect x="348.61" y="69.89" transform="matrix(0.866 -0.5 0.5 0.866 7.1924 196.8524)" class="st1" width="44.64" height="30.22"/>
	<polygon class="st1" points="361.37,96.4 357.77,94.64 361.32,87.39 353.27,86.83 353.54,82.84 364.56,83.6 366.22,86.48 	"/>
	<rect x="374.2" y="86.29" transform="matrix(0.866 -0.5 0.5 0.866 6.9075 202.3524)" class="st1" width="13.69" height="4"/>
</g>
<g>
	
		<rect id="Rectangle-path_26_" x="405.77" y="43.66" transform="matrix(0.866 -0.5 0.5 0.866 27.8812 216.7861)" class="st0" width="25.41" height="25.41"/>
	
		<rect id="Rectangle-path_25_" x="413.29" y="65.9" transform="matrix(0.866 -0.5 0.5 0.866 22.6621 217.9601)" class="st0" width="9.53" height="1.59"/>
	<path id="Shape_26_" class="st0" d="M404.8,53.4l3.74-2.16c2.2-1.27,4.2-0.74,5.28,1.13l0,0c1.21,2.09,0.19,4.14-1.84,5.32
		l-1.54,0.89l1.59,2.75l-1.98,1.14L404.8,53.4L404.8,53.4L404.8,53.4z M411.85,53.66L411.85,53.66c-0.51-0.88-1.4-1.03-2.44-0.42
		l-1.54,0.89l1.62,2.81l1.6-0.92C412.16,55.39,412.29,54.43,411.85,53.66z"/>
	<path id="Shape_25_" class="st0" d="M415.45,53.42L415.45,53.42c-0.76-1.25-0.97-2.75-0.59-4.16c0.38-1.41,1.31-2.6,2.59-3.3
		c1.71-0.98,3.07-1.04,4.4-0.63l-0.41,2.22c-1.1-0.25-2.03-0.22-2.91,0.29c-1.54,0.89-1.91,2.79-0.99,4.38l0,0
		c0.89,1.54,2.75,2.23,4.29,1.34c1.05-0.6,1.45-1.42,1.82-2.44l2,0.53c-0.36,1.53-1.03,2.79-2.79,3.81
		c-1.25,0.72-2.74,0.91-4.13,0.53C417.33,55.6,416.15,54.68,415.45,53.42"/>
	<polyline class="st1" points="423.87,72.9 423.08,77.18 406.96,77.09 395.96,53.08 405.78,40.23 414.66,40.76 	"/>
	<polyline class="st1" points="413.31,44.68 416.89,33.81 421.68,39.84 	"/>
	<line class="st1" x1="407.24" y1="72.93" x2="408.01" y2="63.65"/>
	<polyline class="st1" points="417.92,71.35 418.86,74.18 435.48,69.94 444.07,60.07 430.08,45.99 428.38,48.12 	"/>
	<polyline class="st1" points="424.39,41.21 433.82,42.81 434.28,50.22 	"/>
</g>
<g>
	<rect x="444.72" y="14.4" transform="matrix(0.866 -0.5 0.5 0.866 47.8149 237.4749)" class="st1" width="44.64" height="30.22"/>
	<polygon class="st1" points="457.48,40.91 453.89,39.15 457.43,31.9 449.38,31.34 449.66,27.35 460.67,28.11 462.33,30.99 	"/>
	<rect x="470.32" y="30.8" transform="matrix(0.866 -0.5 0.5 0.866 47.5301 242.975)" class="st1" width="13.69" height="4"/>
</g>
<g>
	
		<rect id="Rectangle-path_24_" x="501.88" y="-11.83" transform="matrix(0.866 -0.5 0.5 0.866 68.5037 257.4087)" class="st0" width="25.41" height="25.41"/>
	
		<rect id="Rectangle-path_23_" x="509.4" y="10.41" transform="matrix(0.866 -0.5 0.5 0.866 63.2846 258.5827)" class="st0" width="9.53" height="1.59"/>
	<path id="Shape_24_" class="st0" d="M500.92-2.09l3.74-2.16c2.2-1.27,4.2-0.74,5.28,1.13l0,0c1.21,2.09,0.19,4.14-1.84,5.32
		l-1.54,0.89l1.59,2.75l-1.98,1.14L500.92-2.09L500.92-2.09L500.92-2.09z M507.96-1.83L507.96-1.83c-0.51-0.88-1.4-1.03-2.44-0.42
		l-1.54,0.89l1.62,2.81l1.6-0.92C508.27-0.1,508.41-1.06,507.96-1.83z"/>
	<path id="Shape_23_" class="st0" d="M511.56-2.07L511.56-2.07c-0.76-1.25-0.97-2.75-0.59-4.16c0.38-1.41,1.31-2.6,2.59-3.3
		c1.71-0.98,3.07-1.04,4.4-0.63l-0.41,2.22c-1.1-0.25-2.03-0.22-2.91,0.29c-1.54,0.89-1.91,2.79-0.99,4.38l0,0
		c0.89,1.54,2.75,2.23,4.29,1.34c1.05-0.6,1.45-1.42,1.82-2.44l2,0.53c-0.36,1.53-1.03,2.79-2.79,3.81
		c-1.25,0.72-2.74,0.91-4.13,0.53S512.27-0.82,511.56-2.07"/>
	<polyline class="st1" points="519.98,17.41 519.19,21.68 503.08,21.6 492.08,-2.41 501.89,-15.27 510.78,-14.74 	"/>
	<polyline class="st1" points="509.42,-10.81 513,-21.68 517.79,-15.65 	"/>
	<line class="st1" x1="503.35" y1="17.44" x2="504.12" y2="8.16"/>
	<polyline class="st1" points="514.03,15.86 514.97,18.69 531.59,14.45 540.19,4.57 526.2,-9.5 524.49,-7.37 	"/>
	<polyline class="st1" points="520.5,-14.28 529.93,-12.68 530.4,-5.27 	"/>
</g>
<g>
	
		<rect id="Rectangle-path_144_" x="-5.53" y="108.16" transform="matrix(0.866 -0.5 0.5 0.866 -59.4684 19.7778)" class="st0" width="25.41" height="25.41"/>
	
		<rect id="Rectangle-path_143_" x="1.99" y="130.39" transform="matrix(0.866 -0.5 0.5 0.866 -64.6875 20.9518)" class="st0" width="9.53" height="1.59"/>
	<path id="Shape_144_" class="st0" d="M-6.49,117.89l3.74-2.16c2.2-1.27,4.2-0.74,5.28,1.13l0,0c1.21,2.09,0.19,4.14-1.84,5.32
		l-1.54,0.89l1.59,2.75l-1.98,1.14L-6.49,117.89L-6.49,117.89L-6.49,117.89z M0.55,118.15L0.55,118.15
		c-0.51-0.88-1.4-1.03-2.44-0.42l-1.54,0.89l1.62,2.81l1.6-0.92C0.86,119.88,0.99,118.92,0.55,118.15z"/>
	<path id="Shape_143_" class="st0" d="M4.15,117.91L4.15,117.91c-0.76-1.25-0.97-2.75-0.59-4.16s1.31-2.6,2.59-3.3
		c1.71-0.98,3.07-1.04,4.4-0.63l-0.41,2.22c-1.1-0.25-2.03-0.22-2.91,0.29c-1.54,0.89-1.91,2.79-0.99,4.38l0,0
		c0.89,1.54,2.75,2.23,4.29,1.34c1.05-0.6,1.45-1.42,1.82-2.44l2,0.53c-0.36,1.53-1.03,2.79-2.79,3.81
		c-1.25,0.72-2.74,0.91-4.13,0.53S4.86,119.17,4.15,117.91"/>
	<polyline class="st1" points="12.57,137.4 11.78,141.67 -4.33,141.58 -15.33,117.57 -5.52,104.72 3.37,105.25 	"/>
	<polyline class="st1" points="2.01,109.17 5.59,98.3 10.38,104.34 	"/>
	<line class="st1" x1="-4.06" y1="137.43" x2="-3.29" y2="128.14"/>
	<polyline class="st1" points="6.62,135.85 7.56,138.68 24.18,134.44 32.78,124.56 18.78,110.49 17.08,112.61 	"/>
	<polyline class="st1" points="13.09,105.71 22.52,107.3 22.99,114.71 	"/>
</g>
<g>
	<rect x="33.42" y="78.89" transform="matrix(0.866 -0.5 0.5 0.866 -39.5347 40.4667)" class="st1" width="44.64" height="30.22"/>
	<polygon class="st1" points="46.19,105.4 42.59,103.64 46.14,96.39 38.09,95.84 38.36,91.85 49.38,92.6 51.04,95.48 	"/>
	<rect x="59.02" y="95.29" transform="matrix(0.866 -0.5 0.5 0.866 -39.8195 45.9667)" class="st1" width="13.69" height="4"/>
</g>
<g>
	
		<rect id="Rectangle-path_142_" x="90.58" y="52.66" transform="matrix(0.866 -0.5 0.5 0.866 -18.8459 60.4004)" class="st0" width="25.41" height="25.41"/>
	
		<rect id="Rectangle-path_141_" x="98.1" y="74.9" transform="matrix(0.866 -0.5 0.5 0.866 -24.065 61.5744)" class="st0" width="9.53" height="1.59"/>
	<path id="Shape_142_" class="st0" d="M89.62,62.4l3.74-2.16c2.2-1.27,4.2-0.74,5.28,1.13l0,0c1.21,2.09,0.19,4.14-1.84,5.32
		l-1.54,0.89l1.59,2.75l-1.98,1.14L89.62,62.4L89.62,62.4L89.62,62.4z M96.66,62.66L96.66,62.66c-0.51-0.88-1.4-1.03-2.44-0.42
		l-1.54,0.89l1.62,2.81l1.6-0.92C96.98,64.39,97.11,63.43,96.66,62.66z"/>
	<path id="Shape_141_" class="st0" d="M100.26,62.42L100.26,62.42c-0.76-1.25-0.97-2.75-0.59-4.16c0.38-1.41,1.31-2.6,2.59-3.3
		c1.71-0.98,3.07-1.04,4.4-0.63l-0.41,2.22c-1.1-0.25-2.03-0.22-2.91,0.29c-1.54,0.89-1.91,2.79-0.99,4.38l0,0
		c0.89,1.54,2.75,2.23,4.29,1.34c1.05-0.6,1.45-1.42,1.82-2.44l2,0.53c-0.36,1.53-1.03,2.79-2.79,3.81
		c-1.25,0.72-2.74,0.91-4.13,0.53C102.15,64.6,100.97,63.68,100.26,62.42"/>
	<polyline class="st1" points="108.69,81.91 107.89,86.18 91.78,86.09 80.78,62.08 90.59,49.23 99.48,49.76 	"/>
	<polyline class="st1" points="98.12,53.68 101.7,42.81 106.5,48.85 	"/>
	<line class="st1" x1="92.06" y1="81.93" x2="92.82" y2="72.65"/>
	<polyline class="st1" points="102.73,80.35 103.67,83.19 120.29,78.94 128.89,69.07 114.9,55 113.19,57.12 	"/>
	<polyline class="st1" points="109.21,50.21 118.63,51.81 119.1,59.22 	"/>
</g>
<g>
	<rect x="129.54" y="23.4" transform="matrix(0.866 -0.5 0.5 0.866 1.0879 81.0892)" class="st1" width="44.64" height="30.22"/>
	<polygon class="st1" points="142.3,49.91 138.71,48.15 142.25,40.9 134.2,40.34 134.47,36.35 145.49,37.11 147.15,39.99 	"/>
	<rect x="155.13" y="39.8" transform="matrix(0.866 -0.5 0.5 0.866 0.803 86.5893)" class="st1" width="13.69" height="4"/>
</g>
<g>
	
		<rect id="Rectangle-path_140_" x="186.7" y="-2.83" transform="matrix(0.866 -0.5 0.5 0.866 21.7767 101.0229)" class="st0" width="25.41" height="25.41"/>
	
		<rect id="Rectangle-path_139_" x="194.22" y="19.41" transform="matrix(0.866 -0.5 0.5 0.866 16.5576 102.1969)" class="st0" width="9.53" height="1.59"/>
	<path id="Shape_140_" class="st0" d="M185.73,6.91l3.74-2.16c2.2-1.27,4.2-0.74,5.28,1.13l0,0c1.21,2.09,0.19,4.14-1.84,5.32
		l-1.54,0.89l1.59,2.75l-1.98,1.14L185.73,6.91L185.73,6.91L185.73,6.91z M192.78,7.17L192.78,7.17c-0.51-0.88-1.4-1.03-2.44-0.42
		l-1.54,0.89l1.62,2.81l1.6-0.92C193.09,8.9,193.22,7.94,192.78,7.17z"/>
	<path id="Shape_139_" class="st0" d="M196.38,6.93L196.38,6.93c-0.76-1.25-0.97-2.75-0.59-4.16s1.31-2.6,2.59-3.3
		c1.71-0.98,3.07-1.04,4.4-0.63l-0.41,2.22c-1.1-0.25-2.03-0.22-2.91,0.29c-1.54,0.89-1.91,2.79-0.99,4.38l0,0
		c0.89,1.54,2.75,2.23,4.29,1.34c1.05-0.6,1.45-1.42,1.82-2.44l2,0.53c-0.36,1.53-1.03,2.79-2.79,3.81
		c-1.25,0.72-2.74,0.91-4.13,0.53C198.26,9.11,197.08,8.18,196.38,6.93"/>
	<polyline class="st1" points="204.8,26.41 204.01,30.68 187.9,30.6 176.89,6.59 186.71,-6.27 195.59,-5.73 	"/>
	<polyline class="st1" points="194.24,-1.81 197.82,-12.68 202.61,-6.65 	"/>
	<line class="st1" x1="188.17" y1="26.44" x2="188.94" y2="17.16"/>
	<polyline class="st1" points="198.85,24.86 199.79,27.69 216.41,23.45 225,13.57 211.01,-0.5 209.31,1.63 	"/>
	<polyline class="st1" points="205.32,-5.28 214.75,-3.68 215.22,3.73 	"/>
</g>
<g>
	
		<rect x="225.65" y="-32.09" transform="matrix(0.866 -0.5 0.5 0.866 41.7104 121.7118)" class="st1" width="44.64" height="30.22"/>
	<polygon class="st1" points="238.41,-5.58 234.82,-7.34 238.36,-14.59 230.31,-15.15 230.59,-19.14 241.6,-18.38 243.26,-15.5 	"/>
	<rect x="251.25" y="-15.7" transform="matrix(0.866 -0.5 0.5 0.866 41.4256 127.2118)" class="st1" width="13.69" height="4"/>
</g>
<g>
	
		<rect id="Rectangle-path_128_" x="67.49" y="123.65" transform="matrix(0.866 -0.5 0.5 0.866 -57.4336 58.3656)" class="st0" width="25.41" height="25.41"/>
	
		<rect id="Rectangle-path_127_" x="75.01" y="145.89" transform="matrix(0.866 -0.5 0.5 0.866 -62.6527 59.5396)" class="st0" width="9.53" height="1.59"/>
	<path id="Shape_128_" class="st0" d="M66.53,133.39l3.74-2.16c2.2-1.27,4.2-0.74,5.28,1.13l0,0c1.21,2.09,0.19,4.14-1.84,5.32
		l-1.54,0.89l1.59,2.75l-1.98,1.14L66.53,133.39L66.53,133.39L66.53,133.39z M73.57,133.65L73.57,133.65
		c-0.51-0.88-1.4-1.03-2.44-0.42l-1.54,0.89l1.62,2.81l1.6-0.92C73.88,135.38,74.02,134.42,73.57,133.65z"/>
	<path id="Shape_127_" class="st0" d="M77.17,133.41L77.17,133.41c-0.76-1.25-0.97-2.75-0.59-4.16c0.38-1.41,1.31-2.6,2.59-3.3
		c1.71-0.98,3.07-1.04,4.4-0.63l-0.41,2.22c-1.1-0.25-2.03-0.22-2.91,0.29c-1.54,0.89-1.91,2.79-0.99,4.38l0,0
		c0.89,1.54,2.75,2.23,4.29,1.34c1.05-0.6,1.45-1.42,1.82-2.44l2,0.53c-0.36,1.53-1.03,2.79-2.79,3.81
		c-1.25,0.72-2.74,0.91-4.13,0.53C79.06,135.59,77.88,134.66,77.17,133.41"/>
	<polyline class="st1" points="85.6,152.89 84.8,157.16 68.69,157.08 57.69,133.07 67.5,120.21 76.39,120.74 	"/>
	<polyline class="st1" points="75.03,124.67 78.61,113.8 83.4,119.83 	"/>
	<line class="st1" x1="68.97" y1="152.92" x2="69.73" y2="143.64"/>
	<polyline class="st1" points="79.64,151.34 80.58,154.17 97.2,149.93 105.8,140.05 91.81,125.98 90.1,128.11 	"/>
	<polyline class="st1" points="86.11,121.2 95.54,122.8 96.01,130.21 	"/>
</g>
<g>
	<rect x="106.45" y="94.39" transform="matrix(0.866 -0.5 0.5 0.866 -37.4999 79.0544)" class="st1" width="44.64" height="30.22"/>
	<polygon class="st1" points="119.21,120.9 115.61,119.14 119.16,111.89 111.11,111.33 111.38,107.34 122.4,108.1 124.06,110.98 	
		"/>
	<rect x="132.04" y="110.78" transform="matrix(0.866 -0.5 0.5 0.866 -37.7847 84.5544)" class="st1" width="13.69" height="4"/>
</g>
<g>
	
		<rect id="Rectangle-path_126_" x="163.61" y="68.16" transform="matrix(0.866 -0.5 0.5 0.866 -16.811 98.9881)" class="st0" width="25.41" height="25.41"/>
	
		<rect id="Rectangle-path_125_" x="171.13" y="90.4" transform="matrix(0.866 -0.5 0.5 0.866 -22.0301 100.1621)" class="st0" width="9.53" height="1.59"/>
	<path id="Shape_126_" class="st0" d="M162.64,77.9l3.74-2.16c2.2-1.27,4.2-0.74,5.28,1.13l0,0c1.21,2.09,0.19,4.14-1.84,5.32
		l-1.54,0.89l1.59,2.75l-1.98,1.14L162.64,77.9L162.64,77.9L162.64,77.9z M169.69,78.16L169.69,78.16c-0.51-0.88-1.4-1.03-2.44-0.42
		l-1.54,0.89l1.62,2.81l1.6-0.92C170,79.89,170.13,78.93,169.69,78.16z"/>
	<path id="Shape_125_" class="st0" d="M173.29,77.92L173.29,77.92c-0.76-1.25-0.97-2.75-0.59-4.16s1.31-2.6,2.59-3.3
		c1.71-0.98,3.07-1.04,4.4-0.63l-0.41,2.22c-1.1-0.25-2.03-0.22-2.91,0.29c-1.54,0.89-1.91,2.79-0.99,4.38l0,0
		c0.89,1.54,2.75,2.23,4.29,1.34c1.05-0.6,1.45-1.42,1.82-2.44l2,0.53c-0.36,1.53-1.03,2.79-2.79,3.81
		c-1.25,0.72-2.74,0.91-4.13,0.53S173.99,79.17,173.29,77.92"/>
	<polyline class="st1" points="181.71,97.4 180.92,101.67 164.8,101.59 153.8,77.58 163.62,64.72 172.5,65.25 	"/>
	<polyline class="st1" points="171.15,69.18 174.73,58.31 179.52,64.34 	"/>
	<line class="st1" x1="165.08" y1="97.43" x2="165.85" y2="88.15"/>
	<polyline class="st1" points="175.76,95.85 176.7,98.68 193.31,94.44 201.91,84.56 187.92,70.49 186.22,72.62 	"/>
	<polyline class="st1" points="182.23,65.71 191.66,67.31 192.12,74.72 	"/>
</g>
<g>
	<rect x="202.56" y="38.9" transform="matrix(0.866 -0.5 0.5 0.866 3.1227 119.6769)" class="st1" width="44.64" height="30.22"/>
	<polygon class="st1" points="215.32,65.4 211.73,63.65 215.27,56.4 207.22,55.84 207.5,51.85 218.51,52.61 220.17,55.48 	"/>
	<rect x="228.16" y="55.29" transform="matrix(0.866 -0.5 0.5 0.866 2.8378 125.177)" class="st1" width="13.69" height="4"/>
</g>
<g>
	
		<rect id="Rectangle-path_124_" x="259.72" y="12.67" transform="matrix(0.866 -0.5 0.5 0.866 23.8115 139.6107)" class="st0" width="25.41" height="25.41"/>
	
		<rect id="Rectangle-path_123_" x="267.24" y="34.9" transform="matrix(0.866 -0.5 0.5 0.866 18.5924 140.7847)" class="st0" width="9.53" height="1.59"/>
	<path id="Shape_124_" class="st0" d="M258.76,22.41l3.74-2.16c2.2-1.27,4.2-0.74,5.28,1.13l0,0c1.21,2.09,0.19,4.14-1.84,5.32
		l-1.54,0.89l1.59,2.75L264,31.48L258.76,22.41L258.76,22.41L258.76,22.41z M265.8,22.67L265.8,22.67c-0.51-0.88-1.4-1.03-2.44-0.42
		l-1.54,0.89l1.62,2.81l1.6-0.92C266.11,24.4,266.25,23.44,265.8,22.67z"/>
	<path id="Shape_123_" class="st0" d="M269.4,22.42L269.4,22.42c-0.76-1.25-0.97-2.75-0.59-4.16c0.38-1.41,1.31-2.6,2.59-3.3
		c1.71-0.98,3.07-1.04,4.4-0.63l-0.41,2.22c-1.1-0.25-2.03-0.22-2.91,0.29c-1.54,0.89-1.91,2.79-0.99,4.38l0,0
		c0.89,1.54,2.75,2.23,4.29,1.34c1.05-0.6,1.45-1.42,1.82-2.44l2,0.53c-0.36,1.53-1.03,2.79-2.79,3.81
		c-1.25,0.72-2.74,0.91-4.13,0.53S270.11,23.68,269.4,22.42"/>
	<polyline class="st1" points="277.82,41.91 277.03,46.18 260.92,46.1 249.92,22.09 259.73,9.23 268.62,9.76 	"/>
	<polyline class="st1" points="267.26,13.69 270.84,2.82 275.63,8.85 	"/>
	<line class="st1" x1="261.19" y1="41.94" x2="261.96" y2="32.66"/>
	<polyline class="st1" points="271.87,40.36 272.81,43.19 289.43,38.95 298.03,29.07 284.04,15 282.33,17.13 	"/>
	<polyline class="st1" points="278.34,10.22 287.77,11.82 288.24,19.23 	"/>
</g>
<g>
	
		<rect x="298.68" y="-16.59" transform="matrix(0.866 -0.5 0.5 0.866 43.7453 160.2995)" class="st1" width="44.64" height="30.22"/>
	<polygon class="st1" points="311.44,9.91 307.84,8.16 311.39,0.9 303.34,0.35 303.61,-3.64 314.63,-2.88 316.29,-0.01 	"/>
	<rect x="324.27" y="-0.2" transform="matrix(0.866 -0.5 0.5 0.866 43.4604 165.7995)" class="st1" width="13.69" height="4"/>
</g>
<g>
	<rect x="10.33" y="149.88" transform="matrix(0.866 -0.5 0.5 0.866 -78.1224 38.4318)" class="st1" width="44.64" height="30.22"/>
	<polygon class="st1" points="23.09,176.39 19.5,174.63 23.05,167.38 14.99,166.82 15.27,162.83 26.29,163.59 27.94,166.47 	"/>
	<rect x="35.93" y="166.28" transform="matrix(0.866 -0.5 0.5 0.866 -78.4073 43.9319)" class="st1" width="13.69" height="4"/>
</g>
<g>
	<rect x="-16.51" y="-7.59" transform="matrix(0.866 -0.5 0.5 0.866 -2.9818 3.9138)" class="st1" width="44.64" height="30.22"/>
	<polygon class="st1" points="-3.75,18.91 -7.34,17.16 -3.8,9.91 -11.85,9.35 -11.57,5.36 -0.56,6.12 1.1,8.99 	"/>
	<rect x="9.09" y="8.8" transform="matrix(0.866 -0.5 0.5 0.866 -3.2666 9.4138)" class="st1" width="13.69" height="4"/>
</g>
<g>
	
		<rect id="Rectangle-path_160_" x="17.56" y="37.17" transform="matrix(0.866 -0.5 0.5 0.866 -20.8807 21.8127)" class="st0" width="25.41" height="25.41"/>
	
		<rect id="Rectangle-path_159_" x="25.08" y="59.4" transform="matrix(0.866 -0.5 0.5 0.866 -26.0998 22.9867)" class="st0" width="9.53" height="1.59"/>
	<path id="Shape_160_" class="st0" d="M16.6,46.91l3.74-2.16c2.2-1.27,4.2-0.74,5.28,1.13l0,0c1.21,2.09,0.19,4.14-1.84,5.32
		l-1.54,0.89l1.59,2.75l-1.98,1.14L16.6,46.91L16.6,46.91L16.6,46.91z M23.64,47.17L23.64,47.17c-0.51-0.88-1.4-1.03-2.44-0.42
		l-1.54,0.89l1.62,2.81l1.6-0.92C23.95,48.89,24.09,47.94,23.64,47.17z"/>
	<path id="Shape_159_" class="st0" d="M27.24,46.92L27.24,46.92c-0.76-1.25-0.97-2.75-0.59-4.16c0.38-1.41,1.31-2.6,2.59-3.3
		c1.71-0.98,3.07-1.04,4.4-0.63l-0.41,2.22c-1.1-0.25-2.03-0.22-2.91,0.29c-1.54,0.89-1.91,2.79-0.99,4.38l0,0
		c0.89,1.54,2.75,2.23,4.29,1.34c1.05-0.6,1.45-1.42,1.82-2.44l2,0.53c-0.36,1.53-1.03,2.79-2.79,3.81
		c-1.25,0.72-2.74,0.91-4.13,0.53C29.13,49.1,27.95,48.18,27.24,46.92"/>
	<polyline class="st1" points="35.66,66.41 34.87,70.68 18.76,70.59 7.76,46.58 17.57,33.73 26.46,34.26 	"/>
	<polyline class="st1" points="25.1,38.18 28.68,27.31 33.47,33.35 	"/>
	<line class="st1" x1="19.03" y1="66.44" x2="19.8" y2="57.16"/>
	<polyline class="st1" points="29.71,64.86 30.65,67.69 47.27,63.45 55.87,53.57 41.88,39.5 40.17,41.62 	"/>
	<polyline class="st1" points="36.18,34.72 45.61,36.31 46.08,43.72 	"/>
</g>
<g>
	<rect x="56.52" y="7.91" transform="matrix(0.866 -0.5 0.5 0.866 -0.947 42.5015)" class="st1" width="44.64" height="30.22"/>
	<polygon class="st1" points="69.28,34.41 65.68,32.65 69.23,25.4 61.18,24.85 61.45,20.86 72.47,21.62 74.13,24.49 	"/>
	<rect x="82.11" y="24.3" transform="matrix(0.866 -0.5 0.5 0.866 -1.2318 48.0015)" class="st1" width="13.69" height="4"/>
</g>
<g>
	
		<rect id="Rectangle-path_158_" x="113.67" y="-18.32" transform="matrix(0.866 -0.5 0.5 0.866 19.7419 62.4352)" class="st0" width="25.41" height="25.41"/>
	
		<rect id="Rectangle-path_157_" x="121.19" y="3.91" transform="matrix(0.866 -0.5 0.5 0.866 14.5228 63.6092)" class="st0" width="9.53" height="1.59"/>
	<path id="Shape_158_" class="st0" d="M112.71-8.59l3.74-2.16c2.2-1.27,4.2-0.74,5.28,1.13l0,0c1.21,2.09,0.19,4.14-1.84,5.32
		l-1.54,0.89l1.59,2.75l-1.98,1.14L112.71-8.59L112.71-8.59L112.71-8.59z M119.75-8.33L119.75-8.33c-0.51-0.88-1.4-1.03-2.44-0.42
		l-1.54,0.89l1.62,2.81l1.6-0.92C120.07-6.6,120.2-7.56,119.75-8.33z"/>
	<path id="Shape_157_" class="st0" d="M123.35-8.57L123.35-8.57c-0.76-1.25-0.97-2.75-0.59-4.16c0.38-1.41,1.31-2.6,2.59-3.3
		c1.71-0.98,3.07-1.04,4.4-0.63l-0.41,2.22c-1.1-0.25-2.03-0.22-2.91,0.29c-1.54,0.89-1.91,2.79-0.99,4.38l0,0
		c0.89,1.54,2.75,2.23,4.29,1.34c1.05-0.6,1.45-1.42,1.82-2.44l2,0.53c-0.36,1.53-1.03,2.79-2.79,3.81
		c-1.25,0.72-2.74,0.91-4.13,0.53C125.24-6.39,124.06-7.31,123.35-8.57"/>
	<polyline class="st1" points="131.78,10.92 130.98,15.19 114.87,15.1 103.87,-8.91 113.68,-21.76 122.57,-21.23 	"/>
	<polyline class="st1" points="121.21,-17.31 124.8,-28.18 129.59,-22.14 	"/>
	<line class="st1" x1="115.15" y1="10.95" x2="115.92" y2="1.67"/>
	<polyline class="st1" points="125.82,9.37 126.76,12.2 143.38,7.96 151.98,-1.92 137.99,-15.99 136.28,-13.87 	"/>
	<polyline class="st1" points="132.3,-20.77 141.73,-19.18 142.19,-11.77 	"/>
</g>
<g>
	<rect x="-39.6" y="63.4" transform="matrix(0.866 -0.5 0.5 0.866 -41.5695 1.8789)" class="st1" width="44.64" height="30.22"/>
	<polygon class="st1" points="-26.84,89.9 -30.43,88.14 -26.89,80.89 -34.94,80.34 -34.66,76.35 -23.65,77.11 -21.99,79.98 	"/>
	<rect x="-14" y="79.79" transform="matrix(0.866 -0.5 0.5 0.866 -41.8544 7.379)" class="st1" width="13.69" height="4"/>
</g>
<g>
	
		<rect x="325.52" y="140.88" transform="matrix(0.866 -0.5 0.5 0.866 -31.3954 194.8176)" class="st1" width="44.64" height="30.22"/>
	<polygon class="st1" points="338.28,167.39 334.68,165.63 338.23,158.38 330.18,157.82 330.45,153.83 341.47,154.59 343.13,157.47 
			"/>
	<rect x="351.11" y="157.27" transform="matrix(0.866 -0.5 0.5 0.866 -31.6802 200.3176)" class="st1" width="13.69" height="4"/>
</g>
<g>
	
		<rect id="Rectangle-path_58_" x="382.68" y="114.65" transform="matrix(0.866 -0.5 0.5 0.866 -10.7065 214.7513)" class="st0" width="25.41" height="25.41"/>
	
		<rect id="Rectangle-path_57_" x="390.2" y="136.89" transform="matrix(0.866 -0.5 0.5 0.866 -15.9257 215.9253)" class="st0" width="9.53" height="1.59"/>
	<path id="Shape_58_" class="st0" d="M381.71,124.39l3.74-2.16c2.2-1.27,4.2-0.74,5.28,1.13l0,0c1.21,2.09,0.19,4.14-1.84,5.32
		l-1.54,0.89l1.59,2.75l-1.98,1.14L381.71,124.39L381.71,124.39L381.71,124.39z M388.76,124.65L388.76,124.65
		c-0.51-0.88-1.4-1.03-2.44-0.42l-1.54,0.89l1.62,2.81l1.6-0.92C389.07,126.38,389.2,125.42,388.76,124.65z"/>
	<path id="Shape_57_" class="st0" d="M392.36,124.41L392.36,124.41c-0.76-1.25-0.97-2.75-0.59-4.16c0.38-1.41,1.31-2.6,2.59-3.3
		c1.71-0.98,3.07-1.04,4.4-0.63l-0.41,2.22c-1.1-0.25-2.03-0.22-2.91,0.29c-1.54,0.89-1.91,2.79-0.99,4.38l0,0
		c0.89,1.54,2.75,2.23,4.29,1.34c1.05-0.6,1.45-1.42,1.82-2.44l2,0.53c-0.36,1.53-1.03,2.79-2.79,3.81
		c-1.25,0.72-2.74,0.91-4.13,0.53C394.24,126.59,393.06,125.66,392.36,124.41"/>
	<polyline class="st1" points="400.78,143.89 399.98,148.16 383.87,148.08 372.87,124.07 382.69,111.21 391.57,111.74 	"/>
	<polyline class="st1" points="390.21,115.67 393.8,104.8 398.59,110.83 	"/>
	<line class="st1" x1="384.15" y1="143.92" x2="384.92" y2="134.64"/>
	<polyline class="st1" points="394.83,142.34 395.76,145.17 412.38,140.93 420.98,131.05 406.99,116.98 405.29,119.11 	"/>
	<polyline class="st1" points="401.3,112.2 410.73,113.8 411.19,121.21 	"/>
</g>
<g>
	<rect x="421.63" y="85.39" transform="matrix(0.866 -0.5 0.5 0.866 9.2272 235.4401)" class="st1" width="44.64" height="30.22"/>
	<polygon class="st1" points="434.39,111.89 430.8,110.14 434.34,102.89 426.29,102.33 426.57,98.34 437.58,99.1 439.24,101.97 	"/>
	<rect x="447.22" y="101.78" transform="matrix(0.866 -0.5 0.5 0.866 8.9423 240.9402)" class="st1" width="13.69" height="4"/>
</g>
<g>
	
		<rect id="Rectangle-path_56_" x="478.79" y="59.16" transform="matrix(0.866 -0.5 0.5 0.866 29.916 255.3738)" class="st0" width="25.41" height="25.41"/>
	
		<rect id="Rectangle-path_55_" x="486.31" y="81.39" transform="matrix(0.866 -0.5 0.5 0.866 24.6969 256.5479)" class="st0" width="9.53" height="1.59"/>
	<path id="Shape_56_" class="st0" d="M477.83,68.9l3.74-2.16c2.2-1.27,4.2-0.74,5.28,1.13l0,0c1.21,2.09,0.19,4.14-1.84,5.32
		l-1.54,0.89l1.59,2.75l-1.98,1.14L477.83,68.9L477.83,68.9L477.83,68.9z M484.87,69.16L484.87,69.16c-0.51-0.88-1.4-1.03-2.44-0.42
		l-1.54,0.89l1.62,2.81l1.6-0.92C485.18,70.89,485.31,69.93,484.87,69.16z"/>
	<path id="Shape_55_" class="st0" d="M488.47,68.91L488.47,68.91c-0.76-1.25-0.97-2.75-0.59-4.16c0.38-1.41,1.31-2.6,2.59-3.3
		c1.71-0.98,3.07-1.04,4.4-0.63l-0.41,2.22c-1.1-0.25-2.03-0.22-2.91,0.29c-1.54,0.89-1.91,2.79-0.99,4.38l0,0
		c0.89,1.54,2.75,2.23,4.29,1.34c1.05-0.6,1.45-1.42,1.82-2.44l2,0.53c-0.36,1.53-1.03,2.79-2.79,3.81
		c-1.25,0.72-2.74,0.91-4.13,0.53S489.18,70.17,488.47,68.91"/>
	<polyline class="st1" points="496.89,88.4 496.1,92.67 479.99,92.59 468.99,68.58 478.8,55.72 487.69,56.25 	"/>
	<polyline class="st1" points="486.33,60.18 489.91,49.31 494.7,55.34 	"/>
	<line class="st1" x1="480.26" y1="88.43" x2="481.03" y2="79.15"/>
	<polyline class="st1" points="490.94,86.85 491.88,89.68 508.5,85.44 517.1,75.56 503.11,61.49 501.4,63.62 	"/>
	<polyline class="st1" points="497.41,56.71 506.84,58.31 507.31,65.72 	"/>
</g>
<g>
	<rect x="517.74" y="29.9" transform="matrix(0.866 -0.5 0.5 0.866 49.8497 276.0627)" class="st1" width="44.64" height="30.22"/>
	<polygon class="st1" points="530.51,56.4 526.91,54.65 530.46,47.4 522.41,46.84 522.68,42.85 533.7,43.61 535.36,46.48 	"/>
	<rect x="543.34" y="46.29" transform="matrix(0.866 -0.5 0.5 0.866 49.5649 281.5627)" class="st1" width="13.69" height="4"/>
</g>
<g>
	
		<rect id="Rectangle-path_54_" x="574.9" y="3.67" transform="matrix(0.866 -0.5 0.5 0.866 70.5386 295.9964)" class="st0" width="25.41" height="25.41"/>
	
		<rect id="Rectangle-path_53_" x="582.42" y="25.9" transform="matrix(0.866 -0.5 0.5 0.866 65.3195 297.1704)" class="st0" width="9.53" height="1.59"/>
	<path id="Shape_54_" class="st0" d="M573.94,13.41l3.74-2.16c2.2-1.27,4.2-0.74,5.28,1.13l0,0c1.21,2.09,0.19,4.14-1.84,5.32
		l-1.54,0.89l1.59,2.75l-1.98,1.14L573.94,13.41L573.94,13.41L573.94,13.41z M580.98,13.67L580.98,13.67
		c-0.51-0.88-1.4-1.03-2.44-0.42L577,14.13l1.62,2.81l1.6-0.92C581.3,15.39,581.43,14.44,580.98,13.67z"/>
	<path id="Shape_53_" class="st0" d="M584.58,13.42L584.58,13.42c-0.76-1.25-0.97-2.75-0.59-4.16c0.38-1.41,1.31-2.6,2.59-3.3
		c1.71-0.98,3.07-1.04,4.4-0.63l-0.41,2.22c-1.1-0.25-2.03-0.22-2.91,0.29c-1.54,0.89-1.91,2.79-0.99,4.38l0,0
		c0.89,1.54,2.75,2.23,4.29,1.34c1.05-0.6,1.45-1.42,1.82-2.44l2,0.53c-0.36,1.53-1.03,2.79-2.79,3.81
		c-1.25,0.72-2.74,0.91-4.13,0.53C586.47,15.6,585.29,14.68,584.58,13.42"/>
	<polyline class="st1" points="593.01,32.91 592.21,37.18 576.1,37.09 565.1,13.08 574.91,0.23 583.8,0.76 	"/>
	<polyline class="st1" points="582.44,4.68 586.02,-6.18 590.82,-0.15 	"/>
	<line class="st1" x1="576.38" y1="32.94" x2="577.15" y2="23.66"/>
	<polyline class="st1" points="587.05,31.36 587.99,34.19 604.61,29.95 613.21,20.07 599.22,6 597.51,8.13 	"/>
	<polyline class="st1" points="593.53,1.22 602.96,2.82 603.42,10.23 	"/>
</g>
<g>
	
		<rect x="613.86" y="-25.59" transform="matrix(0.866 -0.5 0.5 0.866 90.4723 316.6852)" class="st1" width="44.64" height="30.22"/>
	<polygon class="st1" points="626.62,0.91 623.03,-0.85 626.57,-8.1 618.52,-8.65 618.79,-12.64 629.81,-11.88 631.47,-9.01 	"/>
	<rect x="639.45" y="-9.2" transform="matrix(0.866 -0.5 0.5 0.866 90.1874 322.1853)" class="st1" width="13.69" height="4"/>
</g>
<g>
	
		<rect x="398.54" y="156.38" transform="matrix(0.866 -0.5 0.5 0.866 -29.3605 233.4053)" class="st1" width="44.64" height="30.22"/>
	<polygon class="st1" points="411.3,182.88 407.71,181.13 411.25,173.87 403.2,173.32 403.48,169.33 414.49,170.09 416.15,172.96 	
		"/>
	<rect x="424.13" y="172.77" transform="matrix(0.866 -0.5 0.5 0.866 -29.6454 238.9053)" class="st1" width="13.69" height="4"/>
</g>
<g>
	
		<rect id="Rectangle-path_42_" x="455.7" y="130.15" transform="matrix(0.866 -0.5 0.5 0.866 -8.6717 253.339)" class="st0" width="25.41" height="25.41"/>
	
		<rect id="Rectangle-path_41_" x="463.22" y="152.38" transform="matrix(0.866 -0.5 0.5 0.866 -13.8908 254.513)" class="st0" width="9.53" height="1.59"/>
	<path id="Shape_42_" class="st0" d="M454.74,139.89l3.74-2.16c2.2-1.27,4.2-0.74,5.28,1.13l0,0c1.21,2.09,0.19,4.14-1.84,5.32
		l-1.54,0.89l1.59,2.75l-1.98,1.14L454.74,139.89L454.74,139.89L454.74,139.89z M461.78,140.15L461.78,140.15
		c-0.51-0.88-1.4-1.03-2.44-0.42l-1.54,0.89l1.62,2.81l1.6-0.92C462.09,141.87,462.22,140.92,461.78,140.15z"/>
	<path id="Shape_41_" class="st0" d="M465.38,139.9L465.38,139.9c-0.76-1.25-0.97-2.75-0.59-4.16c0.38-1.41,1.31-2.6,2.59-3.3
		c1.71-0.98,3.07-1.04,4.4-0.63l-0.41,2.22c-1.1-0.25-2.03-0.22-2.91,0.29c-1.54,0.89-1.91,2.79-0.99,4.38l0,0
		c0.89,1.54,2.75,2.23,4.29,1.34c1.05-0.6,1.45-1.42,1.82-2.44l2,0.53c-0.36,1.53-1.03,2.79-2.79,3.81
		c-1.25,0.72-2.74,0.91-4.13,0.53C467.27,142.08,466.09,141.16,465.38,139.9"/>
	<polyline class="st1" points="473.8,159.39 473.01,163.66 456.9,163.57 445.89,139.56 455.71,126.71 464.6,127.24 	"/>
	<polyline class="st1" points="463.24,131.16 466.82,120.3 471.61,126.33 	"/>
	<line class="st1" x1="457.17" y1="159.42" x2="457.94" y2="150.14"/>
	<polyline class="st1" points="467.85,157.84 468.79,160.67 485.41,156.43 494.01,146.55 480.01,132.48 478.31,134.61 	"/>
	<polyline class="st1" points="474.32,127.7 483.75,129.3 484.22,136.71 	"/>
</g>
<g>
	<rect x="494.65" y="100.89" transform="matrix(0.866 -0.5 0.5 0.866 11.262 274.0278)" class="st1" width="44.64" height="30.22"/>
	<polygon class="st1" points="507.41,127.39 503.82,125.63 507.37,118.38 499.31,117.83 499.59,113.84 510.61,114.6 512.26,117.47 	
		"/>
	<rect x="520.25" y="117.28" transform="matrix(0.866 -0.5 0.5 0.866 10.9772 279.5279)" class="st1" width="13.69" height="4"/>
</g>
<g>
	
		<rect id="Rectangle-path_40_" x="551.81" y="74.66" transform="matrix(0.866 -0.5 0.5 0.866 31.9508 293.9616)" class="st0" width="25.41" height="25.41"/>
	
		<rect id="Rectangle-path_39_" x="559.33" y="96.89" transform="matrix(0.866 -0.5 0.5 0.866 26.7317 295.1356)" class="st0" width="9.53" height="1.59"/>
	<path id="Shape_40_" class="st0" d="M550.85,84.4l3.74-2.16c2.2-1.27,4.2-0.74,5.28,1.13l0,0c1.21,2.09,0.19,4.14-1.84,5.32
		l-1.54,0.89l1.59,2.75l-1.98,1.14L550.85,84.4L550.85,84.4L550.85,84.4z M557.89,84.66L557.89,84.66c-0.51-0.88-1.4-1.03-2.44-0.42
		l-1.54,0.89l1.62,2.81l1.6-0.92C558.2,86.38,558.34,85.43,557.89,84.66z"/>
	<path id="Shape_39_" class="st0" d="M561.49,84.41L561.49,84.41c-0.76-1.25-0.97-2.75-0.59-4.16s1.31-2.6,2.59-3.3
		c1.71-0.98,3.07-1.04,4.4-0.63l-0.41,2.22c-1.1-0.25-2.03-0.22-2.91,0.29c-1.54,0.89-1.91,2.79-0.99,4.38l0,0
		c0.89,1.54,2.75,2.23,4.29,1.34c1.05-0.6,1.45-1.42,1.82-2.44l2,0.53c-0.36,1.53-1.03,2.79-2.79,3.81
		c-1.25,0.72-2.74,0.91-4.13,0.53C563.38,86.59,562.2,85.67,561.49,84.41"/>
	<polyline class="st1" points="569.92,103.9 569.12,108.17 553.01,108.08 542.01,84.07 551.82,71.22 560.71,71.75 	"/>
	<polyline class="st1" points="559.35,75.67 562.93,64.8 567.73,70.84 	"/>
	<line class="st1" x1="553.29" y1="103.93" x2="554.05" y2="94.65"/>
	<polyline class="st1" points="563.96,102.35 564.9,105.18 581.52,100.94 590.12,91.06 576.13,76.99 574.42,79.11 	"/>
	<polyline class="st1" points="570.43,72.21 579.86,73.8 580.33,81.21 	"/>
</g>
<g>
	<rect x="590.77" y="45.4" transform="matrix(0.866 -0.5 0.5 0.866 51.8846 314.6504)" class="st1" width="44.64" height="30.22"/>
	<polygon class="st1" points="603.53,71.9 599.94,70.14 603.48,62.89 595.43,62.34 595.7,58.35 606.72,59.11 608.38,61.98 	"/>
	<rect x="616.36" y="61.79" transform="matrix(0.866 -0.5 0.5 0.866 51.5997 320.1505)" class="st1" width="13.69" height="4"/>
</g>
<g>
	
		<rect id="Rectangle-path_38_" x="647.93" y="19.17" transform="matrix(0.866 -0.5 0.5 0.866 72.5734 334.5841)" class="st0" width="25.41" height="25.41"/>
	
		<rect id="Rectangle-path_37_" x="655.45" y="41.4" transform="matrix(0.866 -0.5 0.5 0.866 67.3543 335.7581)" class="st0" width="9.53" height="1.59"/>
	<path id="Shape_38_" class="st0" d="M646.96,28.9l3.74-2.16c2.2-1.27,4.2-0.74,5.28,1.13l0,0c1.21,2.09,0.19,4.14-1.84,5.32
		l-1.54,0.89l1.59,2.75l-1.98,1.14L646.96,28.9L646.96,28.9L646.96,28.9z M654.01,29.16L654.01,29.16c-0.51-0.88-1.4-1.03-2.44-0.42
		l-1.54,0.89l1.62,2.81l1.6-0.92C654.32,30.89,654.45,29.93,654.01,29.16z"/>
	<path id="Shape_37_" class="st0" d="M657.61,28.92L657.61,28.92c-0.76-1.25-0.97-2.75-0.59-4.16s1.31-2.6,2.59-3.3
		c1.71-0.98,3.07-1.04,4.4-0.63l-0.41,2.22c-1.1-0.25-2.03-0.22-2.91,0.29c-1.54,0.89-1.91,2.79-0.99,4.38l0,0
		c0.89,1.54,2.75,2.23,4.29,1.34c1.05-0.6,1.45-1.42,1.82-2.44l2,0.53c-0.36,1.53-1.03,2.79-2.79,3.81
		c-1.25,0.72-2.74,0.91-4.13,0.53C659.49,31.1,658.31,30.18,657.61,28.92"/>
	<polyline class="st1" points="666.03,48.41 665.24,52.68 649.13,52.59 638.12,28.58 647.94,15.73 656.82,16.26 	"/>
	<polyline class="st1" points="655.47,20.18 659.05,9.31 663.84,15.35 	"/>
	<line class="st1" x1="649.4" y1="48.44" x2="650.17" y2="39.15"/>
	<polyline class="st1" points="660.08,46.86 661.02,49.69 677.64,45.45 686.23,35.57 672.24,21.5 670.54,23.62 	"/>
	<polyline class="st1" points="666.55,16.72 675.98,18.31 676.44,25.72 	"/>
</g>
<g>
	<rect x="686.88" y="-10.1" transform="matrix(0.866 -0.5 0.5 0.866 92.5071 355.2729)" class="st1" width="44.64" height="30.22"/>
	<polygon class="st1" points="699.64,16.41 696.05,14.65 699.59,7.4 691.54,6.85 691.82,2.86 702.83,3.61 704.49,6.49 	"/>
	<rect x="712.48" y="6.3" transform="matrix(0.866 -0.5 0.5 0.866 92.2223 360.773)" class="st1" width="13.69" height="4"/>
</g>
<g>
	
		<rect x="519.62" y="144.13" transform="matrix(0.866 -0.5 0.5 0.866 -7.0144 292.3043)" class="st1" width="44.64" height="30.22"/>
	<polygon class="st1" points="532.38,170.63 528.79,168.88 532.33,161.63 524.28,161.07 524.56,157.08 535.57,157.84 537.23,160.71 
			"/>
	<rect x="545.21" y="160.52" transform="matrix(0.866 -0.5 0.5 0.866 -7.2993 297.8044)" class="st1" width="13.69" height="4"/>
</g>
<g>
	
		<rect id="Rectangle-path_104_" x="576.78" y="117.9" transform="matrix(0.866 -0.5 0.5 0.866 13.6744 312.238)" class="st0" width="25.41" height="25.41"/>
	
		<rect id="Rectangle-path_103_" x="584.3" y="140.13" transform="matrix(0.866 -0.5 0.5 0.866 8.4553 313.412)" class="st0" width="9.53" height="1.59"/>
	<path id="Shape_104_" class="st0" d="M575.82,127.64l3.74-2.16c2.2-1.27,4.2-0.74,5.28,1.13l0,0c1.21,2.09,0.19,4.14-1.84,5.32
		l-1.54,0.89l1.59,2.75l-1.98,1.14L575.82,127.64L575.82,127.64L575.82,127.64z M582.86,127.9L582.86,127.9
		c-0.51-0.88-1.4-1.03-2.44-0.42l-1.54,0.89l1.62,2.81l1.6-0.92C583.17,129.63,583.3,128.67,582.86,127.9z"/>
	<path id="Shape_103_" class="st0" d="M586.46,127.65L586.46,127.65c-0.76-1.25-0.97-2.75-0.59-4.16c0.38-1.41,1.31-2.6,2.59-3.3
		c1.71-0.98,3.07-1.04,4.4-0.63l-0.41,2.22c-1.1-0.25-2.03-0.22-2.91,0.29c-1.54,0.89-1.91,2.79-0.99,4.38l0,0
		c0.89,1.54,2.75,2.23,4.29,1.34c1.05-0.6,1.45-1.42,1.82-2.44l2,0.53c-0.36,1.53-1.03,2.79-2.79,3.81
		c-1.25,0.72-2.74,0.91-4.13,0.53C588.35,129.83,587.17,128.91,586.46,127.65"/>
	<polyline class="st1" points="594.88,147.14 594.09,151.41 577.98,151.33 566.97,127.31 576.79,114.46 585.68,114.99 	"/>
	<polyline class="st1" points="584.32,118.92 587.9,108.05 592.69,114.08 	"/>
	<line class="st1" x1="578.25" y1="147.17" x2="579.02" y2="137.89"/>
	<polyline class="st1" points="588.93,145.59 589.87,148.42 606.49,144.18 615.09,134.3 601.09,120.23 599.39,122.36 	"/>
	<polyline class="st1" points="595.4,115.45 604.83,117.05 605.3,124.46 	"/>
</g>
<g>
	<rect x="615.73" y="88.64" transform="matrix(0.866 -0.5 0.5 0.866 33.6081 332.9268)" class="st1" width="44.64" height="30.22"/>
	<polygon class="st1" points="628.49,115.14 624.9,113.39 628.45,106.13 620.39,105.58 620.67,101.59 631.69,102.35 633.34,105.22 	
		"/>
	<rect x="641.33" y="105.03" transform="matrix(0.866 -0.5 0.5 0.866 33.3233 338.4269)" class="st1" width="13.69" height="4"/>
</g>
<g>
	
		<rect id="Rectangle-path_102_" x="672.89" y="62.41" transform="matrix(0.866 -0.5 0.5 0.866 54.2969 352.8606)" class="st0" width="25.41" height="25.41"/>
	
		<rect id="Rectangle-path_101_" x="680.41" y="84.64" transform="matrix(0.866 -0.5 0.5 0.866 49.0778 354.0346)" class="st0" width="9.53" height="1.59"/>
	<path id="Shape_102_" class="st0" d="M671.93,72.15l3.74-2.16c2.2-1.27,4.2-0.74,5.28,1.13l0,0c1.21,2.09,0.19,4.14-1.84,5.32
		l-1.54,0.89l1.59,2.75l-1.98,1.14L671.93,72.15L671.93,72.15L671.93,72.15z M678.97,72.41L678.97,72.41
		c-0.51-0.88-1.4-1.03-2.44-0.42l-1.54,0.89l1.62,2.81l1.6-0.92C679.28,74.13,679.42,73.18,678.97,72.41z"/>
	<path id="Shape_101_" class="st0" d="M682.57,72.16L682.57,72.16c-0.76-1.25-0.97-2.75-0.59-4.16c0.38-1.41,1.31-2.6,2.59-3.3
		c1.71-0.98,3.07-1.04,4.4-0.63l-0.41,2.22c-1.1-0.25-2.03-0.22-2.91,0.29c-1.54,0.89-1.91,2.79-0.99,4.38l0,0
		c0.89,1.54,2.75,2.23,4.29,1.34c1.05-0.6,1.45-1.42,1.82-2.44l2,0.53c-0.36,1.53-1.03,2.79-2.79,3.81
		c-1.25,0.72-2.74,0.91-4.13,0.53S683.28,73.42,682.57,72.16"/>
	<polyline class="st1" points="691,91.65 690.2,95.92 674.09,95.83 663.09,71.82 672.9,58.97 681.79,59.5 	"/>
	<polyline class="st1" points="680.43,63.42 684.01,52.56 688.81,58.59 	"/>
	<line class="st1" x1="674.37" y1="91.68" x2="675.13" y2="82.4"/>
	<polyline class="st1" points="685.04,90.1 685.98,92.93 702.6,88.69 711.2,78.81 697.21,64.74 695.5,66.86 	"/>
	<polyline class="st1" points="691.52,59.96 700.94,61.56 701.41,68.97 	"/>
</g>
<g>
	<rect x="711.85" y="33.15" transform="matrix(0.866 -0.5 0.5 0.866 74.2307 373.5494)" class="st1" width="44.64" height="30.22"/>
	<polygon class="st1" points="724.61,59.65 721.02,57.89 724.56,50.64 716.51,50.09 716.78,46.1 727.8,46.86 729.46,49.73 	"/>
	<rect x="737.44" y="49.54" transform="matrix(0.866 -0.5 0.5 0.866 73.9458 379.0495)" class="st1" width="13.69" height="4"/>
</g>
<g>
	
		<rect id="Rectangle-path_100_" x="769.01" y="6.92" transform="matrix(0.866 -0.5 0.5 0.866 94.9195 393.4831)" class="st0" width="25.41" height="25.41"/>
	
		<rect id="Rectangle-path_99_" x="776.53" y="29.15" transform="matrix(0.866 -0.5 0.5 0.866 89.7004 394.6571)" class="st0" width="9.53" height="1.59"/>
	<path id="Shape_100_" class="st0" d="M768.04,16.66l3.74-2.16c2.2-1.27,4.2-0.74,5.28,1.13l0,0c1.21,2.09,0.19,4.14-1.84,5.32
		l-1.54,0.89l1.59,2.75l-1.98,1.14L768.04,16.66L768.04,16.66L768.04,16.66z M775.09,16.92L775.09,16.92
		c-0.51-0.88-1.4-1.03-2.44-0.42l-1.54,0.89l1.62,2.81l1.6-0.92C775.4,18.64,775.53,17.69,775.09,16.92z"/>
	<path id="Shape_99_" class="st0" d="M778.69,16.67L778.69,16.67c-0.76-1.25-0.97-2.75-0.59-4.16s1.31-2.6,2.59-3.3
		c1.71-0.98,3.07-1.04,4.4-0.63l-0.41,2.22c-1.1-0.25-2.03-0.22-2.91,0.29c-1.54,0.89-1.91,2.79-0.99,4.38l0,0
		c0.89,1.54,2.75,2.23,4.29,1.34c1.05-0.6,1.45-1.42,1.82-2.44l2,0.53c-0.36,1.53-1.03,2.79-2.79,3.81
		c-1.25,0.72-2.74,0.91-4.13,0.53C780.57,18.85,779.39,17.93,778.69,16.67"/>
	<polyline class="st1" points="787.11,36.16 786.32,40.43 770.21,40.34 759.2,16.33 769.02,3.48 777.9,4.01 	"/>
	<polyline class="st1" points="776.55,7.93 780.13,-2.94 784.92,3.1 	"/>
	<line class="st1" x1="770.48" y1="36.19" x2="771.25" y2="26.91"/>
	<polyline class="st1" points="781.16,34.61 782.1,37.44 798.72,33.2 807.31,23.32 793.32,9.25 791.62,11.37 	"/>
	<polyline class="st1" points="787.63,4.47 797.06,6.06 797.52,13.47 	"/>
</g>
<g>
	
		<rect id="Rectangle-path_86_" x="649.8" y="133.4" transform="matrix(0.866 -0.5 0.5 0.866 15.7092 350.8257)" class="st0" width="25.41" height="25.41"/>
	
		<rect id="Rectangle-path_85_" x="657.32" y="155.63" transform="matrix(0.866 -0.5 0.5 0.866 10.4901 351.9998)" class="st0" width="9.53" height="1.59"/>
	<path id="Shape_86_" class="st0" d="M648.84,143.13l3.74-2.16c2.2-1.27,4.2-0.74,5.28,1.13l0,0c1.21,2.09,0.19,4.14-1.84,5.32
		l-1.54,0.89l1.59,2.75l-1.98,1.14L648.84,143.13L648.84,143.13L648.84,143.13z M655.88,143.39L655.88,143.39
		c-0.51-0.88-1.4-1.03-2.44-0.42l-1.54,0.89l1.62,2.81l1.6-0.92C656.19,145.12,656.33,144.16,655.88,143.39z"/>
	<path id="Shape_85_" class="st0" d="M659.48,143.15L659.48,143.15c-0.76-1.25-0.97-2.75-0.59-4.16c0.38-1.41,1.31-2.6,2.59-3.3
		c1.71-0.98,3.07-1.04,4.4-0.63l-0.41,2.22c-1.1-0.25-2.03-0.22-2.91,0.29c-1.54,0.89-1.91,2.79-0.99,4.38l0,0
		c0.89,1.54,2.75,2.23,4.29,1.34c1.05-0.6,1.45-1.42,1.82-2.44l2,0.53c-0.36,1.53-1.03,2.79-2.79,3.81
		c-1.25,0.72-2.74,0.91-4.13,0.53C661.37,145.33,660.19,144.41,659.48,143.15"/>
	<polyline class="st1" points="667.91,162.64 667.11,166.91 651,166.82 640,142.81 649.81,129.96 658.7,130.49 	"/>
	<polyline class="st1" points="657.34,134.41 660.92,123.54 665.71,129.58 	"/>
	<line class="st1" x1="651.28" y1="162.67" x2="652.04" y2="153.39"/>
	<polyline class="st1" points="661.95,161.09 662.89,163.92 679.51,159.68 688.11,149.8 674.12,135.73 672.41,137.85 	"/>
	<polyline class="st1" points="668.42,130.95 677.85,132.54 678.32,139.95 	"/>
</g>
<g>
	
		<rect x="688.76" y="104.14" transform="matrix(0.866 -0.5 0.5 0.866 35.6429 371.5146)" class="st1" width="44.64" height="30.22"/>
	<polygon class="st1" points="701.52,130.64 697.92,128.88 701.47,121.63 693.42,121.08 693.69,117.09 704.71,117.85 706.37,120.72 
			"/>
	<rect x="714.35" y="120.53" transform="matrix(0.866 -0.5 0.5 0.866 35.3581 377.0146)" class="st1" width="13.69" height="4"/>
</g>
<g>
	
		<rect id="Rectangle-path_84_" x="745.92" y="77.9" transform="matrix(0.866 -0.5 0.5 0.866 56.3318 391.4483)" class="st0" width="25.41" height="25.41"/>
	
		<rect id="Rectangle-path_83_" x="753.44" y="100.14" transform="matrix(0.866 -0.5 0.5 0.866 51.1127 392.6223)" class="st0" width="9.53" height="1.59"/>
	<path id="Shape_84_" class="st0" d="M744.95,87.64l3.74-2.16c2.2-1.27,4.2-0.74,5.28,1.13l0,0c1.21,2.09,0.19,4.14-1.84,5.32
		l-1.54,0.89l1.59,2.75l-1.98,1.14L744.95,87.64L744.95,87.64L744.95,87.64z M752,87.9L752,87.9c-0.51-0.88-1.4-1.03-2.44-0.42
		l-1.54,0.89l1.62,2.81l1.6-0.92C752.31,89.63,752.44,88.67,752,87.9z"/>
	<path id="Shape_83_" class="st0" d="M755.6,87.66L755.6,87.66c-0.76-1.25-0.97-2.75-0.59-4.16c0.38-1.41,1.31-2.6,2.59-3.3
		c1.71-0.98,3.07-1.04,4.4-0.63l-0.41,2.22c-1.1-0.25-2.03-0.22-2.91,0.29c-1.54,0.89-1.91,2.79-0.99,4.38l0,0
		c0.89,1.54,2.75,2.23,4.29,1.34c1.05-0.6,1.45-1.42,1.82-2.44l2,0.53c-0.36,1.53-1.03,2.79-2.79,3.81
		c-1.25,0.72-2.74,0.91-4.13,0.53C757.48,89.84,756.3,88.92,755.6,87.66"/>
	<polyline class="st1" points="764.02,107.15 763.23,111.42 747.11,111.33 736.11,87.32 745.93,74.47 754.81,75 	"/>
	<polyline class="st1" points="753.46,78.92 757.04,68.05 761.83,74.09 	"/>
	<line class="st1" x1="747.39" y1="107.17" x2="748.16" y2="97.89"/>
	<polyline class="st1" points="758.07,105.59 759,108.43 775.62,104.18 784.22,94.31 770.23,80.24 768.53,82.36 	"/>
	<polyline class="st1" points="764.54,75.46 773.97,77.05 774.43,84.46 	"/>
</g>
<g>
	<rect x="784.87" y="48.64" transform="matrix(0.866 -0.5 0.5 0.866 76.2655 412.1371)" class="st1" width="44.64" height="30.22"/>
	<polygon class="st1" points="797.63,75.15 794.04,73.39 797.58,66.14 789.53,65.58 789.81,61.59 800.82,62.35 802.48,65.23 	"/>
	<rect x="810.46" y="65.04" transform="matrix(0.866 -0.5 0.5 0.866 75.9806 417.6372)" class="st1" width="13.69" height="4"/>
</g>
<g>
	
		<rect id="Rectangle-path_70_" x="722.82" y="148.89" transform="matrix(0.866 -0.5 0.5 0.866 17.7441 389.4135)" class="st0" width="25.41" height="25.41"/>
	
		<rect id="Rectangle-path_69_" x="730.35" y="171.13" transform="matrix(0.866 -0.5 0.5 0.866 12.5249 390.5875)" class="st0" width="9.53" height="1.59"/>
	<path id="Shape_70_" class="st0" d="M721.86,158.63l3.74-2.16c2.2-1.27,4.2-0.74,5.28,1.13l0,0c1.21,2.09,0.19,4.14-1.84,5.32
		l-1.54,0.89l1.59,2.75l-1.98,1.14L721.86,158.63L721.86,158.63L721.86,158.63z M728.91,158.89L728.91,158.89
		c-0.51-0.88-1.4-1.03-2.44-0.42l-1.54,0.89l1.62,2.81l1.6-0.92C729.22,160.62,729.35,159.66,728.91,158.89z"/>
	<path id="Shape_69_" class="st0" d="M732.5,158.65L732.5,158.65c-0.76-1.25-0.97-2.75-0.59-4.16c0.38-1.41,1.31-2.6,2.59-3.3
		c1.71-0.98,3.07-1.04,4.4-0.63l-0.41,2.22c-1.1-0.25-2.03-0.22-2.91,0.29c-1.54,0.89-1.91,2.79-0.99,4.38l0,0
		c0.89,1.54,2.75,2.23,4.29,1.34c1.05-0.6,1.45-1.42,1.82-2.44l2,0.53c-0.36,1.53-1.03,2.79-2.79,3.81
		c-1.25,0.72-2.74,0.91-4.13,0.53S733.21,159.91,732.5,158.65"/>
	<polyline class="st1" points="740.93,178.13 740.13,182.4 724.02,182.32 713.02,158.31 722.84,145.46 731.72,145.99 	"/>
	<polyline class="st1" points="730.36,149.91 733.95,139.04 738.74,145.07 	"/>
	<line class="st1" x1="724.3" y1="178.16" x2="725.07" y2="168.88"/>
	<polyline class="st1" points="734.97,176.58 735.91,179.41 752.53,175.17 761.13,165.29 747.14,151.22 745.43,153.35 	"/>
	<polyline class="st1" points="741.45,146.44 750.88,148.04 751.34,155.45 	"/>
</g>
<g>
	
		<rect x="761.78" y="119.63" transform="matrix(0.866 -0.5 0.5 0.866 37.6778 410.1023)" class="st1" width="44.64" height="30.22"/>
	<polygon class="st1" points="774.54,146.14 770.95,144.38 774.49,137.13 766.44,136.57 766.72,132.58 777.73,133.34 779.39,136.22 
			"/>
	<rect x="787.37" y="136.03" transform="matrix(0.866 -0.5 0.5 0.866 37.3929 415.6024)" class="st1" width="13.69" height="4"/>
</g>
<g>
</g>
<g>
</g>
<g>
</g>
<g>
</g>
<g>
</g>
<g>
</g>
<g>
</g>
<g>
</g>
<g>
</g>
<g>
</g>
<g>
</g>
<g>
</g>
<g>
</g>
<g>
</g>
<g>
</g>
</svg>
