<svg xmlns="http://www.w3.org/2000/svg" viewBox="0 0 800 150"><style type="text/css">  
	.st0{fill:none;stroke:#343A40;stroke-linecap:round;stroke-linejoin:round;stroke-miterlimit:10;}
</style><path class="st0" d="M724.5-3.2c7.8 22.4 26.8 34.3 40.5 52.3 25 32.8 16.4 69.6 3 105.6"/><path class="st0" d="M644.3-7.6c8.9 21.5 20.6 41.2 30.4 62.2 16.9 36 22.1 63.3 4.4 100.1"/><path class="st0" d="M572 42.8c0.9 5.3 1.9 11.8 3 17.2 3.5 16.7 9 32.9 13.4 49.4 5.2 19.6 4.5 26.9-5.7 45.3"/><path class="st0" d="M560.5-9.1c4.6 13.9 7.2 27.8 9.6 41.9"/><path class="st0" d="M470.5 97.1c1 3.5 2.1 6.9 3.3 10.2 8.5 22.7 18.3 22.8 7.2 47.5"/><path class="st0" d="M474.2-8.5c1.6 8.5 1.3 16.3 0.3 23.9"/><path class="st0" d="M377.7 125.1c5.2 9.3 4.9 19.1-0.7 29.6"/><path class="st0" d="M387-6.8c3.3 15.5-8.4 27.4-18.1 39.7"/><path class="st0" d="M274.2 134.7c0.5 6.6 0.1 13.2-1.4 20"/><path class="st0" d="M300.3-4.7c4.7 20-27.2 32-36.2 46.3 -4.2 6.6-5.9 13-6.2 19.7"/><path class="st0" d="M215.3-3c1.9 19.8-38.6 28.9-50.1 40.4 -29.8 29.5 0.2 83.5 5.9 117.3"/><path class="st0" d="M133.5-2.7c-2.3 21.3-50.4 26.7-65.8 37.4 -41.8 29-6.8 84.3 6.8 120"/><path class="st0" d="M186.8 121.7c-63.4-1.9-126.8-3.3-190.2-4.6"/><path class="st0" d="M804.1 121c-61.8 2.7-123.6 8.3-185.4 11.1 -79.8 3.7-159.1 2.5-238.8-2.1 -9.2-0.5-18.4-1-27.6-1.5"/><path class="st0" d="M412.4 116.3c68.4 5.8 136.3 6.4 205.4 0.5 62.1-5.2 124.1-15.9 186.3-21"/><path class="st0" d="M-3.4 88.1c63.4 2.2 126.9 4.6 190.2 8.3"/><path class="st0" d="M500.8 98.8c38.1 1.6 76.3 1.2 115.3-2.1 62.4-5.3 125.2-17.7 188-21.9"/><path class="st0" d="M470.6 97.1c5.5 0.4 11.1 0.7 16.6 1"/><path class="st0" d="M-3.4 62.3c73 1.3 146.1 3.2 218.9 8.1"/><path class="st0" d="M528.2 77.5c25.8 0.4 51.6-0.1 77.9-1.7 65.7-4.1 131.9-14.8 198-16.6"/><path class="st0" d="M-3.4 45.6c96.9 1.9 194 3.8 290.5 11.9"/><path class="st0" d="M534.1 59.9c22.2 0.3 44.5 0.1 66.9-0.9 67.4-3.1 135.4-11.7 203.1-10.9"/><path class="st0" d="M-3.4 33.5c109.4 2.6 218.9 3.3 328.1 12"/><path class="st0" d="M564.1 45.5c12.5 0 23.6-0.2 36.2-0.6 67.8-2.1 136-7.7 203.8-4.7"/><path class="st0" d="M525.2 45c2.6 0.1 5.2 0.1 7.9 0.2"/><path class="st0" d="M-3.4 24.5c120.7 3.7 241.5 2.6 362 10.9 2.5 0.2 4.9 0.3 7.4 0.5"/><path class="st0" d="M601.8 32.5c67.8-1.1 134.7-4.3 202.3 1.2"/><path class="st0" d="M529.1 32.2c14.4 0.4 28.5 0.6 42.9 0.6"/><path class="st0" d="M509 31.6c3.2 0.1 6.4 0.2 9.6 0.3"/><path class="st0" d="M-3.4 17c125.8 5.2 251.9 2.3 377.6 8.3 24.7 1.2 49.2 2.5 73.8 3.7"/><path class="st0" d="M461.4 17.8c-26.5-0.8-53-1.7-79.6-2.3 -128.3-3-257.1 1.6-385.3-5.7"/><path class="st0" d="M804.1 27c-69.8-7.9-140.2-6.7-210.3-6.6 -33.9 0.1-67.7-0.7-101.5-1.7"/><path class="st0" d="M804.1 18.4C667.1-0.2 524.8 5.1 386.8 5.2 256.9 5.3 126.3 10.8-3.4 1.6"/><path class="st0" d="M56.3-4.6C54.1 11.8 20.3 19.6-3.4 26.2"/><polyline class="st0" points="525.2 30.8 520.7 35.7 518.3 40.9 517 46.8 509.7 37.5 497.9 26.2 483.8 19.6 466 19.4 476.1 23 483.7 31.4 471.5 25.3 458.6 22.2 444.4 22.2 437.6 23.3 448.3 25.6 456 29.2 465.4 35.7 471.2 42.8 476.3 51.4 483.8 59.1 521.4 47.7 521.4 41.3 523.8 34.7 "/><polyline class="st0" points="618.3 24.4 523.8 56.2 528.6 63.3 536.1 69.9 543.8 74.8 529.9 69.9 521.2 63.4 523.4 71.7 523.1 82.2 518.5 70.4 514.2 64.9 504.1 77.2 499.8 85.5 493.6 101.2 493.2 88.2 495.2 78.8 482.2 86.8 468.9 93.3 477 77.2 483.1 64 611.8 22.7 616.9 23.4 "/><polyline class="st0" points="471.2 47.1 454.6 37 433.7 30.2 413.3 28.7 394.5 30.8 374.6 35.3 355.5 40.9 363.2 45.8 368.7 50.5 355.4 45.2 342.8 43.3 330.3 44.4 338.8 48.3 346.8 54.4 348.6 56.7 338.5 51.6 325.4 48.9 309.7 50.5 300.1 52.7 291.2 56.2 300 60.6 307.8 67.4 "/><polyline class="st0" points="248.3 108.9 238 131 213.6 128.7 195.8 124.6 190.5 119.4 188.4 111.3 190.2 100.7 196 90.8 205.2 81.9 217 74.8 248.1 107.1 "/><polyline class="st0" points="218.8 73.9 234 68.2 251.1 64.6 269.4 62.2 288.4 61.3 300.6 64.3 310.5 70.1 334.2 95.9 "/><polyline class="st0" points="240.3 131 280.4 131.1 305.9 129.6 319.5 128.6 333.9 99.3 "/><polyline class="st0" points="322.2 128.4 351.4 125.5 387.8 119.4 424.1 110.2 454 99.9 466.5 94.2 "/><polyline class="st0" points="481.2 60 442.2 71.1 395.4 82.8 346.2 93.5 304.1 101.2 263.8 106.1 236.9 107.7 218.2 108.2 237.3 109.3 256 108.4 284.6 106.4 326.6 100.7 382.3 89.6 423.7 80 471.5 67.4 480.3 64.7 "/><polyline class="st0" points="482.9 22.2 495.5 28.2 503.7 36.6 512.3 47.1 "/><polyline class="st0" points="482.8 25.8 492 31.1 500.7 38.5 507.4 48.3 "/><polyline class="st0" points="486 32.7 492.9 37 499.1 42.7 503.2 49.6 "/><polyline class="st0" points="459.1 26.4 469.7 28.9 478.5 33.8 488.4 39.3 494.3 45.6 498.2 50.7 "/><polyline class="st0" points="466.5 32.3 476.1 37 482.3 40.9 489.3 45.9 490.8 50.2 493.3 53.3 "/><polyline class="st0" points="473.2 40 479.7 44 484.3 49 486.9 54.2 "/><line class="st0" x1="519.5" y1="55.9" x2="522.3" y2="60.4"/><polyline class="st0" points="515.2 57 517.7 60.7 518.6 65.3 "/><line class="st0" x1="510.9" y1="58.8" x2="512" y2="62.1"/><polyline class="st0" points="507.2 59.7 508 64.3 505.4 70.7 499.4 77 "/><polyline class="st0" points="503.7 59.7 502.5 66.1 496 72 482.8 81.3 475.7 86.7 "/><polyline class="st0" points="480.1 78.8 490.6 72.2 496 67.6 497.2 63 "/><polyline class="st0" points="491.4 63.4 489.4 68.4 482.9 71.7 "/><line class="st0" x1="486.6" y1="65.2" x2="484.4" y2="67.7"/><line class="st0" x1="312.3" y1="66.2" x2="335.2" y2="91.3"/><line class="st0" x1="339.2" y1="90.5" x2="307.5" y2="54.5"/><line class="st0" x1="309.2" y1="63" x2="301.9" y2="56.2"/><line class="st0" x1="314.6" y1="53" x2="344.4" y2="89.5"/><line class="st0" x1="321" y1="52.2" x2="349.9" y2="88"/><line class="st0" x1="327.7" y1="53.9" x2="354.5" y2="86.4"/><line class="st0" x1="334.9" y1="55.7" x2="360.7" y2="85.9"/><line class="st0" x1="344.4" y1="59.3" x2="365.3" y2="84.6"/><line class="st0" x1="352.3" y1="58.7" x2="370.5" y2="83.6"/><polyline class="st0" points="346.2 47.4 354 52.2 374.8 83 "/><line class="st0" x1="360" y1="52.2" x2="379.2" y2="81"/><line class="st0" x1="365.7" y1="52.6" x2="384.6" y2="80.2"/><line class="st0" x1="371.5" y1="53" x2="389" y2="79"/><polyline class="st0" points="366.3 41.6 375.1 49 393.6 78.4 "/><polyline class="st0" points="373.2 42.2 381.7 47.7 398.5 76.6 "/><polyline class="st0" points="378.5 38.5 388.4 47.4 394.9 57.9 402.8 75.3 "/><polyline class="st0" points="384.7 37 394.9 47.1 399.5 55.4 407.7 73.9 "/><polyline class="st0" points="389.3 36.2 397.4 40.7 402.8 47.4 412.4 72.9 "/><polyline class="st0" points="398.6 34.4 407.2 43.1 418.8 70.9 "/><polyline class="st0" points="406.1 34.2 413.4 41.8 417.2 51.6 423.7 69.1 "/><polyline class="st0" points="429 69.3 418.3 39.6 413.9 32.9 "/><line class="st0" x1="419.9" y1="33.3" x2="433.7" y2="67.6"/><line class="st0" x1="425.2" y1="34" x2="439.2" y2="66"/><line class="st0" x1="430.8" y1="34.9" x2="444.6" y2="64.4"/><line class="st0" x1="435.2" y1="34.7" x2="450.1" y2="64.2"/><line class="st0" x1="440.6" y1="36.7" x2="455.4" y2="63.3"/><line class="st0" x1="445.9" y1="38.7" x2="459.7" y2="62"/><line class="st0" x1="452.1" y1="39.6" x2="464.3" y2="60"/><line class="st0" x1="460.8" y1="44.4" x2="470.6" y2="59.8"/><line class="st0" x1="469.7" y1="50.2" x2="475" y2="58"/><line class="st0" x1="474.8" y1="69.3" x2="464.8" y2="91.3"/><line class="st0" x1="468.6" y1="71.6" x2="459.4" y2="93.1"/><line class="st0" x1="461.4" y1="72.9" x2="453" y2="94.9"/><line class="st0" x1="454.6" y1="75.1" x2="447.2" y2="98.2"/><line class="st0" x1="447.7" y1="77.6" x2="441.7" y2="100"/><line class="st0" x1="440.6" y1="78.9" x2="436.1" y2="101.8"/><line class="st0" x1="434.8" y1="80.4" x2="428.8" y2="103.6"/><line class="st0" x1="428.6" y1="82.9" x2="422.1" y2="106.7"/><line class="st0" x1="422.1" y1="83.6" x2="415.7" y2="108.2"/><line class="st0" x1="416.1" y1="84.9" x2="409.9" y2="110.2"/><line class="st0" x1="409.7" y1="87.1" x2="404.1" y2="110.9"/><line class="st0" x1="403.2" y1="88.2" x2="398.6" y2="112.4"/><line class="st0" x1="397.4" y1="89.6" x2="393.2" y2="114"/><line class="st0" x1="391.7" y1="91.1" x2="387.7" y2="115.3"/><line class="st0" x1="386.6" y1="91.8" x2="380.8" y2="116.7"/><line class="st0" x1="381.2" y1="92.9" x2="375.9" y2="117.3"/><line class="st0" x1="376.1" y1="93.8" x2="370.6" y2="118"/><line class="st0" x1="371.2" y1="94.9" x2="364.3" y2="119.8"/><line class="st0" x1="365.2" y1="96.9" x2="358.6" y2="120.2"/><line class="st0" x1="359.7" y1="97.6" x2="352.6" y2="120.9"/><line class="st0" x1="354.3" y1="98.2" x2="347" y2="122.4"/><line class="st0" x1="349.4" y1="99.3" x2="341.4" y2="123.1"/><line class="st0" x1="344.6" y1="100" x2="335.4" y2="122.9"/><line class="st0" x1="338.1" y1="102" x2="328.1" y2="124.2"/><polyline class="st0" points="285.4 64 298.8 69.3 310.6 79.3 324.6 94.7 "/><polyline class="st0" points="277.2 64.4 291.9 71.1 302.1 79.8 315.2 95.3 "/><polyline class="st0" points="307 97.1 297.9 82 287.4 75.8 272.1 67.3 260.8 66 "/><polyline class="st0" points="255.2 68.2 269.7 74 283.2 82.2 294.6 94.2 296.3 100.2 "/><polyline class="st0" points="246.3 69.6 259.7 76.4 271 82 274.3 88.9 283.4 94.2 285 99.1 "/><polyline class="st0" points="237.7 70.7 259.4 83.6 268.3 92 273.2 97.8 275 101.1 "/><polyline class="st0" points="233.7 73.1 253 86.9 262.3 94.9 265 102 "/><polyline class="st0" points="257.2 102.7 254.6 94.7 245.2 89.1 228.1 76.2 "/><polyline class="st0" points="236.3 88.9 247.7 98.7 249.7 103.8 "/><line class="st0" x1="252.6" y1="112.2" x2="245.7" y2="127.6"/><line class="st0" x1="256.8" y1="112.4" x2="252.8" y2="126.2"/><line class="st0" x1="258.1" y1="127.1" x2="263.4" y2="112.7"/><line class="st0" x1="264.3" y1="127.3" x2="269" y2="111.8"/><line class="st0" x1="269.7" y1="127.8" x2="274.3" y2="110.9"/><line class="st0" x1="274.8" y1="127.8" x2="281.4" y2="110.7"/><line class="st0" x1="282.8" y1="127.6" x2="288.3" y2="110.4"/><line class="st0" x1="289.7" y1="126.7" x2="295.2" y2="109.8"/><line class="st0" x1="296.1" y1="125.8" x2="302.1" y2="108.4"/><polyline class="st0" points="302.3 126.4 306.8 120 309.2 106.9 "/><line class="st0" x1="309.9" y1="125.8" x2="315.7" y2="106.9"/><polyline class="st0" points="314.3 124.7 319.4 118.7 323.9 105.8 "/><line class="st0" x1="213" y1="108" x2="192.1" y2="105.3"/><line class="st0" x1="193.4" y1="100.2" x2="197.7" y2="103.7"/><line class="st0" x1="195.7" y1="96.2" x2="203.3" y2="105"/><line class="st0" x1="198.1" y1="92.6" x2="209.3" y2="105.7"/><line class="st0" x1="201.7" y1="89.4" x2="215.4" y2="105.6"/><line class="st0" x1="205.2" y1="86" x2="220.7" y2="105"/><line class="st0" x1="209.2" y1="82.7" x2="227.2" y2="105.2"/><line class="st0" x1="214.4" y1="79.7" x2="235.8" y2="104.8"/><line class="st0" x1="239.6" y1="112.2" x2="230.6" y2="127.7"/><line class="st0" x1="233" y1="111.7" x2="224.2" y2="127.1"/><line class="st0" x1="224.9" y1="111.1" x2="215.9" y2="126.1"/><polyline class="st0" points="216.3 110.6 212.4 119.7 206.3 123.8 "/><line class="st0" x1="211.9" y1="110.6" x2="200.7" y2="121.6"/><line class="st0" x1="207.7" y1="109.7" x2="193.9" y2="117.3"/><line class="st0" x1="201.8" y1="109.1" x2="191.7" y2="112.8"/><line class="st0" x1="196.3" y1="107.7" x2="191.3" y2="109.2"/></svg>